<?xml version="1.0" standalone="no"?>
<!DOCTYPE svg PUBLIC "-//W3C//DTD SVG 1.1//EN" "http://www.w3.org/Graphics/SVG/1.1/DTD/svg11.dtd" >
<svg xmlns="http://www.w3.org/2000/svg" xmlns:xlink="http://www.w3.org/1999/xlink" version="1.1">
<metadata>
Created by FontForge 20170731 at Sun Nov 22 12:00:13 2020
 By Aleksey,,,
Copyright (c) 2017 by Alexander Slobzheninov. All rights reserved.
</metadata>
<defs>
<font id="Objectivity-BoldSlanted" horiz-adv-x="1273" >
  <font-face 
    font-family="Objectivity"
    font-weight="700"
    font-style="oblique"
    font-stretch="normal"
    units-per-em="2048"
    panose-1="0 0 0 0 0 0 0 0 0 0"
    ascent="1638"
    descent="-410"
    x-height="1049"
    cap-height="1458"
    bbox="-213 -684 3037.25 2200"
    underline-thickness="102"
    underline-position="-358"
    unicode-range="U+000D-F6C3"
  />
<missing-glyph horiz-adv-x="1024" 
 />
    <glyph glyph-name=".notdef" horiz-adv-x="1024" 
 />
    <glyph glyph-name=".null" horiz-adv-x="0" 
 />
    <glyph glyph-name="nonmarkingreturn" horiz-adv-x="682" 
 />
    <glyph glyph-name="NULL" horiz-adv-x="1519" 
d="M1417 1458l-127 -1458h-1190l129 1458h1188zM391 233h647l86 992h-645z" />
    <glyph glyph-name="NULL" horiz-adv-x="1519" 
d="M1417 1458l-127 -1458h-1190l129 1458h1188zM391 233h647l86 992h-645z" />
    <glyph glyph-name="CR" unicode="&#xd;" horiz-adv-x="61" 
 />
    <glyph glyph-name="space" unicode=" " horiz-adv-x="626" 
 />
    <glyph glyph-name="exclam" unicode="!" horiz-adv-x="641" 
d="M254 -33q-78 0 -124 49t-40 125q6 75 61.5 123.5t133.5 48.5q77 0 122.5 -48.5t38.5 -123.5q-6 -76 -60 -125t-132 -49zM545 1458l-35 -393l-131 -580h-160l-29 580l35 393h320z" />
    <glyph glyph-name="quotedbl" unicode="&#x22;" horiz-adv-x="794" 
d="M358 1171l-73 -426h-160v426l25 287h233zM748 1171l-74 -426h-160v426l27 287h231z" />
    <glyph glyph-name="numbersign" unicode="#" horiz-adv-x="1912" 
d="M840 893l-86 -242h286l86 242h-286zM1714 651l-18 -209h-467l-158 -442h-262l158 442h-287l-158 -442h-262l158 442h-361l19 209h416l86 242h-377l18 209h432l150 418h262l-150 -418h287l150 418h262l-150 -418h396l-19 -209h-450l-89 -242h414z" />
    <glyph glyph-name="dollar" unicode="$" horiz-adv-x="1466" 
d="M813 -39l-18 -209h-318l19 213q-207 43 -324 182.5t-100 331.5h311q-10 -118 77.5 -194t235.5 -76q124 0 202.5 56t86.5 145q2 25 -2.5 46t-18 37t-27.5 28t-41.5 22t-47 16t-57.5 12.5t-60.5 9.5t-66.5 9q-70 9 -121 18t-113 25.5t-104.5 37.5t-84.5 54t-65.5 74
t-35 99.5t-5.5 129.5q15 183 149 309t345 160l16 182h320l-17 -188q192 -43 299 -175t92 -312h-299q10 107 -70 176t-212 69q-120 0 -198.5 -51t-86.5 -131q-2 -22 2 -41.5t11 -34t23.5 -27t29.5 -21.5t39.5 -17t44 -13t51.5 -11t54 -9t60 -8q69 -8 120 -16.5t113 -24.5
t106 -36.5t87 -53t67.5 -73t37 -98.5t6.5 -128q-17 -192 -155.5 -325.5t-356.5 -168.5z" />
    <glyph glyph-name="percent" unicode="%" horiz-adv-x="2185" 
d="M1190 410q17 192 150 315t325 123q193 0 305.5 -123t95.5 -315q-17 -194 -150.5 -316.5t-326.5 -122.5q-192 0 -304 123t-95 316zM1810 410q6 80 -40.5 131t-127.5 51q-79 0 -133.5 -51t-62.5 -131q-6 -81 40 -131t126 -50t135.5 50t62.5 131zM115 1110q17 193 151 315.5
t326 122.5q194 0 306 -122.5t95 -315.5q-17 -192 -151 -315t-326 -123q-193 0 -305.5 123t-95.5 315zM735 1110q6 82 -39.5 132t-126.5 50q-80 0 -135 -50.5t-61 -131.5q-8 -80 38.5 -131t127.5 -51q79 0 133.5 51t62.5 131zM1520 1520h292l-1150 -1520h-293z" />
    <glyph glyph-name="ampersand" unicode="&#x26;" horiz-adv-x="1708" 
d="M895 287q-14 16 -160.5 159.5t-163.5 163.5q-159 -62 -176 -207q-10 -89 57 -146.5t181 -57.5q131 0 262 88zM713 834q17 -18 189.5 -187.5t193.5 -193.5q91 108 151 243h283q-82 -211 -262 -409q17 -19 147.5 -146t143.5 -141h-367l-121 119q-247 -170 -506 -170
q-235 0 -370.5 118.5t-118.5 315.5q7 80 34.5 145.5t73.5 113t98.5 82t120.5 64.5q-97 149 -84 297q15 179 156 297.5t336 118.5q186 0 311 -109t133 -276l-278 -49q-2 84 -51 138.5t-125 54.5q-74 0 -131 -51t-64 -132q-12 -124 107 -243z" />
    <glyph glyph-name="quotesingle" unicode="'" horiz-adv-x="405" 
d="M358 1171l-73 -426h-160v426l25 287h233z" />
    <glyph glyph-name="parenleft" unicode="(" horiz-adv-x="747" 
d="M612 -369h-286q-134 147 -201.5 405t-42.5 539q25 283 137 540.5t273 404.5h286q-172 -169 -287.5 -423.5t-138.5 -521.5q-25 -269 46.5 -523.5t213.5 -420.5z" />
    <glyph glyph-name="parenright" unicode=")" horiz-adv-x="747" 
d="M225 -369h-286q171 165 285.5 419.5t137.5 524.5q25 266 -46.5 521t-213.5 424h287q134 -147 201.5 -404.5t42.5 -540.5q-25 -281 -137 -539t-271 -405z" />
    <glyph glyph-name="asterisk" unicode="*" horiz-adv-x="1056" 
d="M983 872l-121 -180l-231 156l-13 -291h-208l36 291l-258 -156l-90 180l269 136l-244 135l121 180l231 -154l12 289h211l-39 -289l259 154l90 -180l-269 -135z" />
    <glyph glyph-name="plus" unicode="+" horiz-adv-x="1134" 
d="M682 184h-293l31 338h-336l20 236h336l29 327h293l-29 -327h334l-20 -236h-334z" />
    <glyph glyph-name="comma" unicode="," horiz-adv-x="534" 
d="M231 -33q-70 0 -110.5 48.5t-34.5 123.5q6 74 60 123t128 49q85 0 130.5 -66t35.5 -173q-9 -114 -73.5 -227.5t-155.5 -176.5l-148 53q69 53 116.5 122t51.5 124z" />
    <glyph glyph-name="hyphen" unicode="-" horiz-adv-x="1011" 
d="M119 762h839l-20 -252h-840z" />
    <glyph glyph-name="period" unicode="." horiz-adv-x="528" 
d="M248 -33q-77 0 -123.5 49t-40.5 125q8 75 62.5 123.5t132.5 48.5t123.5 -48.5t39.5 -123.5q-8 -77 -62 -125.5t-132 -48.5z" />
    <glyph glyph-name="slash" unicode="/" horiz-adv-x="983" 
d="M737 1458h275l-805 -1929h-277z" />
    <glyph glyph-name="zero" unicode="0" horiz-adv-x="1564" 
d="M713 -51q-194 0 -337 100t-211 278t-48 402q19 224 118.5 402t259.5 278t353 100q145 0 264 -58.5t197 -161.5t114.5 -247.5t22.5 -312.5q-15 -168 -77 -312.5t-158 -247.5t-225 -161.5t-273 -58.5zM823 1214q-143 0 -243 -136t-119 -349q-19 -212 57.5 -348.5
t218.5 -136.5q143 0 243.5 136t119.5 349t-57.5 349t-219.5 136z" />
    <glyph glyph-name="one" unicode="1" horiz-adv-x="948" 
d="M362 0l95 1079l-375 -262l31 340l426 301h288l-129 -1458h-336z" />
    <glyph glyph-name="two" unicode="2" horiz-adv-x="1325" 
d="M434 948l-301 60q47 218 218 359.5t388 141.5q150 0 267 -61.5t177 -172t48 -247.5q-11 -141 -83 -247t-218 -224l-369 -297h572l-23 -260h-1059l17 195l637 514q94 79 146.5 147.5t59.5 153.5q9 97 -47 160t-151 63t-174 -81t-105 -204z" />
    <glyph glyph-name="three" unicode="3" horiz-adv-x="1333" 
d="M807 1198h-625l23 260h1028l-16 -192l-367 -363q166 -31 260.5 -159t79.5 -304q-19 -215 -191.5 -353t-420.5 -138q-242 0 -389 148.5t-144 381.5l305 47q5 -132 72.5 -216.5t173.5 -84.5q109 0 186 68t86 172t-55 172t-170 68q-72 0 -123 -23l-57 195z" />
    <glyph glyph-name="four" unicode="4" horiz-adv-x="1353" 
d="M389 584h340l51 592zM707 324h-687l17 188l643 946h471l-78 -874h170l-22 -260h-170l-29 -324h-344z" />
    <glyph glyph-name="five" unicode="5" horiz-adv-x="1359" 
d="M643 727h-434l129 731h868l-22 -260h-617l-47 -248h234q233 0 364.5 -137t112.5 -354q-13 -147 -96.5 -264t-219.5 -181.5t-299 -64.5q-245 0 -390 148.5t-142 383.5l305 45q0 -132 68 -216.5t180 -84.5q107 0 184 70t86 174q9 115 -62 186.5t-202 71.5z" />
    <glyph glyph-name="six" unicode="6" horiz-adv-x="1343" 
d="M633 227q103 0 176.5 75t83.5 192q9 113 -51 184.5t-164 71.5q-107 2 -182.5 -70t-85.5 -186q-9 -119 53.5 -193.5t169.5 -73.5zM213 815l524 643h383l-413 -493q86 14 124 14q196 0 310.5 -136.5t95.5 -348.5q-22 -241 -200 -393t-439 -152q-256 0 -405.5 147
t-129.5 379q7 83 50 176.5t100 163.5z" />
    <glyph glyph-name="seven" unicode="7" horiz-adv-x="1083" 
d="M1106 1257l-633 -1257h-358l598 1182h-639l24 276h1024z" />
    <glyph glyph-name="eight" unicode="8" horiz-adv-x="1431" 
d="M707 639q-106 0 -180 -58t-81 -147q-7 -90 56 -148.5t168 -58.5q106 0 179.5 58t80.5 149q9 89 -54.5 147t-168.5 58zM760 1243q-95 0 -161.5 -52t-74.5 -132q-6 -82 51 -134.5t152 -52.5q94 0 160.5 52.5t73.5 134.5q6 80 -50.5 132t-150.5 52zM782 1516
q234 0 375.5 -113.5t126.5 -292.5q-10 -115 -82 -210t-172 -126q121 -28 192.5 -136t59.5 -243q-11 -127 -96.5 -227.5t-226.5 -156.5t-312 -56q-261 0 -419.5 124t-141.5 316q12 135 102.5 243t217.5 136q-95 31 -150.5 125.5t-44.5 208.5q15 178 176 293t395 115z" />
    <glyph glyph-name="nine" unicode="9" horiz-adv-x="1343" 
d="M709 1231q-103 0 -176.5 -74.5t-83.5 -191.5q-9 -113 51 -184.5t164 -71.5q107 -2 182.5 70t85.5 186q9 119 -53.5 193t-169.5 73zM1128 643l-524 -643h-383l414 494q-93 -15 -125 -15q-196 0 -310.5 137t-95.5 349q22 241 200 392.5t439 151.5q256 0 405.5 -147
t129.5 -379q-7 -83 -50 -176.5t-100 -163.5z" />
    <glyph glyph-name="colon" unicode=":" horiz-adv-x="528" 
d="M215 -33q-77 0 -123 49t-39 125q6 75 60.5 123.5t132.5 48.5t124 -48.5t40 -123.5q-7 -76 -62 -125t-133 -49zM281 711q-78 0 -124 49t-40 125q8 75 62 123.5t132 48.5t123.5 -48.5t38.5 -123.5q-6 -76 -60 -125t-132 -49z" />
    <glyph glyph-name="semicolon" unicode=";" horiz-adv-x="534" 
d="M281 711q-78 0 -124 49t-40 125q8 75 62 123.5t132 48.5t123.5 -48.5t38.5 -123.5q-6 -76 -60 -125t-132 -49zM199 -33q-70 0 -111 48.5t-35 123.5q6 74 60.5 123t128.5 49q85 0 130.5 -66t35.5 -173q-9 -114 -74 -227.5t-156 -176.5l-147 53q69 53 116.5 122t51.5 124z
" />
    <glyph glyph-name="less" unicode="&#x3c;" horiz-adv-x="911" 
d="M254 524l537 -268l-25 -266l-741 395l22 279l813 395l-22 -268z" />
    <glyph glyph-name="equal" unicode="=" horiz-adv-x="1134" 
d="M84 494h963l-21 -244h-963zM131 1016h963l-23 -244h-962z" />
    <glyph glyph-name="greater" unicode="&#x3e;" horiz-adv-x="911" 
d="M887 664l-25 -279l-811 -395l23 266l583 268l-536 267l22 268z" />
    <glyph glyph-name="question" unicode="?" horiz-adv-x="1304" 
d="M575 -35q-76 0 -122.5 49.5t-40.5 124.5q8 75 62 124.5t132 49.5t124 -49.5t40 -124.5q-8 -75 -62.5 -124.5t-132.5 -49.5zM758 426h-283q13 156 70 248.5t172 165.5q42 27 65 43.5t52.5 43.5t44.5 57t18 65q6 82 -48.5 137t-143.5 55q-101 0 -177.5 -74.5t-101.5 -191.5
l-303 57q39 209 209.5 343t406.5 134q229 0 371 -123.5t125 -312.5q-8 -86 -48.5 -157t-96.5 -118t-138 -93q-95 -51 -140 -111t-54 -168z" />
    <glyph glyph-name="at" unicode="@" horiz-adv-x="2121" 
d="M1257 532q8 96 -46 159t-146 63q-93 0 -158 -63t-73 -159q-9 -95 45.5 -156t146.5 -61t157 61t74 156zM1106 1221q-206 0 -378.5 -88.5t-278.5 -246t-123 -354.5q-13 -143 21.5 -267.5t107 -212.5t181 -138.5t238.5 -50.5q81 0 170 22t148 54l-21 -224
q-63 -34 -149.5 -52.5t-165.5 -18.5q-179 0 -330.5 67t-254.5 183.5t-154.5 282t-34.5 355.5q17 191 104 356.5t224 283t321.5 184.5t390.5 67q207 0 380 -67t289.5 -184.5t174.5 -283t41 -356.5q-21 -243 -140.5 -391.5t-314.5 -148.5q-120 0 -198 69t-78 175
q-47 -66 -147.5 -109t-208.5 -43q-174 0 -271 126t-80 322t162.5 323.5t351.5 127.5q212 0 334 -126.5t103 -326.5l-19 -213q-5 -61 16 -103t72 -42q70 0 115 98.5t59 261.5q17 197 -61 354.5t-234.5 246t-361.5 88.5z" />
    <glyph glyph-name="A" unicode="A" horiz-adv-x="1550" 
d="M815 1163l-289 -676h459zM436 242l-100 -242h-363l617 1458h500l360 -1458h-360l-60 242h-594z" />
    <glyph glyph-name="B" unicode="B" horiz-adv-x="1548" 
d="M1053 446q7 84 -59 138.5t-175 54.5h-317l-33 -379h317q109 0 184.5 52t82.5 134zM852 1198h-301l-29 -326h301q100 0 167 45t73 117t-53.5 118t-157.5 46zM834 0h-734l129 1458h707q227 0 361.5 -112t119.5 -283q-9 -111 -75 -194.5t-162 -110.5q111 -28 172 -125
t49 -227q-15 -182 -173 -294t-394 -112z" />
    <glyph glyph-name="C" unicode="C" horiz-adv-x="1699" 
d="M840 244q138 0 257 85t165 216l319 -43q-38 -159 -151 -285.5t-276.5 -197t-346.5 -70.5q-224 0 -393.5 100t-253.5 278t-64 402q19 224 134.5 402t302 278t409.5 100q182 0 332 -72.5t241 -202t103 -292.5l-328 -37q-19 135 -121.5 222t-242.5 87q-196 0 -331.5 -135.5
t-154.5 -349.5q-19 -213 93.5 -349t306.5 -136z" />
    <glyph glyph-name="D" unicode="D" horiz-adv-x="1650" 
d="M100 0l129 1458h549q378 0 590.5 -200.5t183.5 -528.5q-28 -328 -276.5 -528.5t-626.5 -200.5h-549zM1210 729q19 211 -106.5 336t-349.5 125h-213l-80 -922h213q224 0 370.5 125t165.5 336z" />
    <glyph glyph-name="E" unicode="E" horiz-adv-x="1306" 
d="M487 625l-28 -349h710l-22 -276h-1047l129 1458h1024l-24 -276h-692l-27 -312h610l-22 -245h-611z" />
    <glyph glyph-name="F" unicode="F" horiz-adv-x="1224" 
d="M1020 522h-528l-46 -522h-346l129 1458h996l-27 -295h-651l-33 -379h528z" />
    <glyph glyph-name="G" unicode="G" horiz-adv-x="1777" 
d="M868 244q177 0 309.5 105.5t151.5 260.5h-448l18 217h782q1 -189 -62.5 -352t-174.5 -278.5t-269 -181.5t-341 -66q-232 0 -407.5 100t-263 278t-67.5 402q19 224 138 402t312 278t425 100q263 0 448 -145t213 -371l-323 -55q-23 120 -126.5 198t-238.5 78
q-201 0 -343 -136.5t-161 -348.5q-19 -211 102 -348t326 -137z" />
    <glyph glyph-name="H" unicode="H" horiz-adv-x="1617" 
d="M444 0h-344l127 1458h344l-49 -563h602l50 563h344l-127 -1458h-344l53 616h-602z" />
    <glyph glyph-name="I" unicode="I" horiz-adv-x="675" 
d="M229 1458h344l-127 -1458h-346z" />
    <glyph glyph-name="J" unicode="J" horiz-adv-x="1013" 
d="M494 494l84 964h344l-88 -999q-19 -221 -169.5 -360.5t-365.5 -139.5q-161 0 -289 41l25 264q100 -28 192 -28q108 0 182.5 71t84.5 187z" />
    <glyph glyph-name="K" unicode="K" horiz-adv-x="1447" 
d="M100 0l129 1458h344l-51 -581l537 581h416l-656 -688l541 -770h-418l-438 653l-58 -653h-346z" />
    <glyph glyph-name="L" unicode="L" horiz-adv-x="1193" 
d="M1057 0h-957l129 1458h344l-102 -1163h610z" />
    <glyph glyph-name="M" unicode="M" horiz-adv-x="2066" 
d="M528 1042l-92 -1042h-336l129 1458h453l319 -1071l504 1071h459l-127 -1458h-336l92 1042l-495 -1042h-258z" />
    <glyph glyph-name="N" unicode="N" horiz-adv-x="1622" 
d="M608 1458l496 -1042l90 1042h328l-127 -1458h-379l-498 1040l-90 -1040h-328l129 1458h379z" />
    <glyph glyph-name="O" unicode="O" horiz-adv-x="1810" 
d="M834 -51q-236 0 -411 98t-261 275.5t-66 406.5q19 228 136.5 405.5t310 276t428.5 98.5q237 0 412.5 -98.5t261 -276t65.5 -405.5q-31 -347 -274 -563.5t-602 -216.5zM944 1214q-204 0 -344.5 -135.5t-159.5 -349.5q-19 -213 98.5 -348t321.5 -137q204 0 345 135.5
t161 349.5q19 214 -99 349.5t-323 135.5z" />
    <glyph glyph-name="P" unicode="P" horiz-adv-x="1472" 
d="M772 1198h-233l-45 -520h233q141 0 237 73t105 187q9 116 -73.5 188t-223.5 72zM766 418h-297l-35 -418h-334l129 1458h631q264 0 418.5 -145.5t134.5 -374.5q-13 -152 -99.5 -270.5t-229.5 -184t-318 -65.5z" />
    <glyph glyph-name="Q" unicode="Q" horiz-adv-x="1810" 
d="M944 1214q-204 0 -344.5 -135.5t-159.5 -349.5q-19 -213 98.5 -348t321.5 -137q203 0 344.5 135.5t161.5 349.5q19 214 -99 349.5t-323 135.5zM1710 729q-19 -200 -110.5 -362t-241.5 -265l213 -327h-336l-139 211q-132 -37 -262 -37q-236 0 -411 98t-261 275.5
t-66 406.5q19 228 136.5 405.5t310 276t428.5 98.5q237 0 412.5 -98.5t261 -276t65.5 -405.5z" />
    <glyph glyph-name="R" unicode="R" horiz-adv-x="1576" 
d="M858 1198h-307l-41 -457h307q123 0 210.5 63t94.5 163q10 107 -64.5 169t-199.5 62zM489 500l-43 -500h-346l129 1458h707q255 0 402.5 -136.5t127.5 -354.5q-12 -147 -109.5 -261.5t-246.5 -160.5l305 -545h-385l-242 500h-299z" />
    <glyph glyph-name="S" unicode="S" horiz-adv-x="1466" 
d="M1333 455q-20 -225 -202.5 -365.5t-458.5 -140.5q-278 0 -445 150t-147 380h309q-9 -119 79.5 -194.5t236.5 -75.5q124 0 202 56t86 145q3 29 -5.5 52t-21 39.5t-40 30t-48.5 21t-63 15.5t-67.5 11.5t-75.5 10.5q-54 7 -94.5 13.5t-90 17.5t-86.5 23.5t-77 31.5t-68 41.5
t-53.5 54t-39.5 68.5t-20.5 84.5t-1.5 103.5q19 214 197 347.5t442 133.5q175 0 309 -64.5t202.5 -180t56.5 -260.5h-299q9 107 -71 176t-212 69q-121 0 -200 -51t-85 -131q-2 -22 2.5 -41.5t11 -34t23 -27t29.5 -21.5t39.5 -17t44 -13t52.5 -11t54.5 -8.5t59.5 -8.5
q69 -8 120 -16.5t112.5 -24.5t105.5 -36.5t86.5 -53t67.5 -73t37.5 -98.5t6.5 -128z" />
    <glyph glyph-name="T" unicode="T" horiz-adv-x="1288" 
d="M408 0l102 1171h-438l26 287h1219l-25 -287h-438l-102 -1171h-344z" />
    <glyph glyph-name="U" unicode="U" horiz-adv-x="1607" 
d="M1102 612l74 846h346l-76 -854q-25 -290 -223.5 -472.5t-487.5 -182.5q-190 0 -331.5 82.5t-211 232t-53.5 340.5l76 854h344l-74 -846q-13 -149 61.5 -257t215.5 -111q137 0 231.5 103t108.5 265z" />
    <glyph glyph-name="V" unicode="V" horiz-adv-x="1533" 
d="M100 1458h359l266 -1204l477 1204h359l-594 -1458h-527z" />
    <glyph glyph-name="W" unicode="W" horiz-adv-x="2418" 
d="M1466 1458l187 -1175l411 1175h351l-525 -1458h-495l-158 1030l-338 -1030h-498l-268 1458h348l207 -1175l397 1175h381z" />
    <glyph glyph-name="X" unicode="X" horiz-adv-x="1636" 
d="M-6 0l553 770l-414 688h399l299 -506l394 506h405l-555 -688l441 -770h-406l-311 578l-406 -578h-399z" />
    <glyph glyph-name="Y" unicode="Y" horiz-adv-x="1439" 
d="M487 0l45 508l-432 950h363l268 -647l367 647h368l-589 -950l-46 -508h-344z" />
    <glyph glyph-name="Z" unicode="Z" horiz-adv-x="1372" 
d="M51 225l801 963h-696l24 270h1141l-21 -225l-786 -963h723l-23 -270h-1183z" />
    <glyph glyph-name="bracketleft" unicode="[" horiz-adv-x="894" 
d="M508 1311l-129 -1471h397l-18 -209h-692l165 1889h693l-19 -209h-397z" />
    <glyph glyph-name="backslash" unicode="\" horiz-adv-x="985" 
d="M375 1458l469 -1929h-277l-467 1929h275z" />
    <glyph glyph-name="bracketright" unicode="]" horiz-adv-x="892" 
d="M631 -369h-694l18 209h397l129 1471h-397l18 209h693z" />
    <glyph glyph-name="asciicircum" unicode="^" horiz-adv-x="1226" 
d="M659 1268l-278 -449h-287l430 639h305l318 -639h-283z" />
    <glyph glyph-name="underscore" unicode="_" horiz-adv-x="1024" 
d="M-18 0h1024l-19 -221h-1024z" />
    <glyph glyph-name="grave" unicode="`" horiz-adv-x="708" 
d="M152 1520h292l213 -353h-239z" />
    <glyph glyph-name="a" unicode="a" horiz-adv-x="1384" 
d="M641 229q120 0 204 83.5t95 211.5q12 128 -58 211.5t-190 83.5t-204.5 -83.5t-96.5 -211.5q-11 -128 59.5 -211.5t190.5 -83.5zM975 903l14 146h307l-92 -1049h-307l12 145q-70 -89 -165.5 -137.5t-206.5 -48.5q-221 0 -348 158t-105 407t176.5 407.5t376.5 158.5
q109 0 196 -49t142 -138z" />
    <glyph glyph-name="b" unicode="b" horiz-adv-x="1370" 
d="M707 813q-120 0 -204 -82t-95 -207t59 -206.5t190 -81.5q119 0 204 81t95 207q11 125 -59.5 207t-189.5 82zM1264 524q-22 -249 -175 -407t-372 -158q-216 0 -336 168l-10 -127h-305l133 1520h309l-53 -598q146 168 360 168q220 0 345.5 -158.5t103.5 -407.5z" />
    <glyph glyph-name="c" unicode="c" horiz-adv-x="1277" 
d="M705 1090q206 0 349 -117.5t152 -298.5l-291 -37q-12 85 -77 139.5t-154 54.5q-113 0 -197 -87t-96 -220q-10 -133 58 -220t182 -87q90 0 163 54.5t103 140.5l285 -37q-29 -119 -114.5 -214.5t-206.5 -148.5t-255 -53q-163 0 -287.5 72.5t-186.5 201.5t-48 291
q22 246 197.5 406t423.5 160z" />
    <glyph glyph-name="d" unicode="d" horiz-adv-x="1370" 
d="M672 813q-118 0 -203 -82t-96 -207q-10 -126 60.5 -207t189.5 -81q120 0 204 81.5t95 206.5t-59.5 207t-190.5 82zM66 524q22 249 175 407.5t371 158.5q106 0 191 -43.5t141 -124.5l53 598h308l-134 -1520h-305l13 127q-70 -80 -164 -124t-201 -44q-218 0 -344 158
t-104 407z" />
    <glyph glyph-name="e" unicode="e" horiz-adv-x="1314" 
d="M410 623h514q-5 101 -71 166t-169 65q-100 0 -173 -62.5t-101 -168.5zM86 532q20 245 196 401.5t429 156.5t396.5 -156t121.5 -406q-3 -40 -12 -92l-824 2q11 -111 77 -177t169 -66q86 0 156 43.5t100 113.5l276 -39q-54 -154 -212 -254t-349 -100q-254 0 -400.5 160
t-123.5 413z" />
    <glyph glyph-name="f" unicode="f" horiz-adv-x="841" 
d="M573 1161l-8 -112h236l-23 -234h-233l-72 -815h-307l70 815h-146l21 234h145l12 131q15 171 117.5 276t253.5 105q106 0 203 -33l-23 -252q-54 14 -100 14q-60 0 -100 -36t-46 -93z" />
    <glyph glyph-name="g" unicode="g" horiz-adv-x="1370" 
d="M641 238q120 0 204 80.5t95 205.5q12 128 -58 211.5t-190 83.5t-204.5 -83.5t-96.5 -211.5q-11 -125 59.5 -205.5t190.5 -80.5zM592 -268q119 0 200 77t93 211l10 125q-146 -159 -360 -159q-217 0 -344 150.5t-107 387.5q22 247 176 405t371 158q216 0 334 -163l10 125
h307l-90 -1037q-14 -160 -96 -279.5t-214 -182t-298 -62.5q-215 0 -359.5 118t-152.5 300l276 31q12 -89 81 -147t163 -58z" />
    <glyph glyph-name="h" unicode="h" 
d="M199 1520h309l-53 -590q59 76 149 118t187 42q180 0 278.5 -118t83.5 -306l-59 -666h-308l54 602q8 97 -39 156.5t-137 60.5q-92 0 -160.5 -65t-77.5 -164l-51 -590h-309z" />
    <glyph glyph-name="i" unicode="i" horiz-adv-x="622" 
d="M182 1049h307l-90 -1049h-309zM348 1188q-78 0 -124 49t-40 125q8 75 62.5 123.5t132.5 48.5t123.5 -48.5t38.5 -123.5q-6 -76 -60.5 -125t-132.5 -49z" />
    <glyph glyph-name="j" unicode="j" horiz-adv-x="628" 
d="M90 -66l98 1115h308l-101 -1155q-15 -166 -120.5 -267.5t-262.5 -101.5q-128 0 -225 33l23 243q46 -14 122 -14q66 0 109 40.5t49 106.5zM354 1188q-78 0 -124 49t-40 125q6 75 61 123.5t132 48.5q78 0 124 -48.5t40 -123.5q-6 -76 -61 -125t-132 -49z" />
    <glyph glyph-name="k" unicode="k" horiz-adv-x="1206" 
d="M66 0l133 1520h309l-76 -858l389 387h371l-496 -492l418 -557h-373l-327 451l-39 -451h-309z" />
    <glyph glyph-name="l" unicode="l" horiz-adv-x="569" 
d="M199 1520h307l-133 -1520h-307z" />
    <glyph glyph-name="m" unicode="m" horiz-adv-x="1941" 
d="M393 0h-307l90 1049h297l-12 -125q55 79 140 122.5t181 43.5q113 0 199.5 -50t124.5 -137q57 86 157 136.5t210 50.5q178 0 279.5 -120.5t86.5 -310.5l-57 -659h-309l53 598q8 94 -40 156t-134 65q-89 0 -149.5 -62t-69.5 -159l-52 -598h-309l53 598q9 100 -37 160.5
t-131 60.5q-88 0 -146 -60.5t-67 -160.5z" />
    <glyph glyph-name="n" unicode="n" 
d="M176 1049h299l-12 -142q64 86 156 134.5t194 48.5q176 0 274.5 -122.5t81.5 -312.5l-57 -655h-307l53 602q8 97 -39 157t-137 60q-91 0 -160 -65.5t-78 -163.5l-51 -590h-307z" />
    <glyph glyph-name="o" unicode="o" horiz-adv-x="1333" 
d="M715 1090q258 0 406 -157t126 -409q-23 -251 -198.5 -408t-434.5 -157q-170 0 -296 71t-188 200t-48 294q23 252 198.5 409t434.5 157zM639 229q120 0 204.5 83t96.5 212q11 129 -59.5 212t-190.5 83q-121 0 -204.5 -83t-94.5 -212q-12 -129 57.5 -212t190.5 -83z" />
    <glyph glyph-name="p" unicode="p" horiz-adv-x="1370" 
d="M676 236q120 0 204 81.5t95 206.5q11 126 -59.5 207.5t-190.5 81.5q-118 0 -203 -82t-96 -207t59.5 -206.5t190.5 -81.5zM1282 524q-22 -249 -174.5 -407t-372.5 -158q-106 0 -191 43.5t-141 124.5l-51 -598h-309l133 1520h305l-12 -127q70 80 164 124t201 44
q218 0 344 -158.5t104 -407.5z" />
    <glyph glyph-name="q" unicode="q" horiz-adv-x="1370" 
d="M641 236q120 0 204 81.5t95 206.5t-59.5 207t-188.5 82q-120 0 -204.5 -81.5t-96.5 -207.5q-11 -125 59.5 -206.5t190.5 -81.5zM84 524q22 249 175.5 407.5t373.5 158.5q214 0 334 -168l10 127h305l-133 -1520h-307l51 598q-146 -168 -361 -168q-220 0 -345 158t-103 407
z" />
    <glyph glyph-name="r" unicode="r" horiz-adv-x="878" 
d="M176 1049h297l-12 -134q53 79 132 125.5t165 46.5q56 0 123 -26l-25 -273q-84 37 -170 37q-100 0 -167.5 -74.5t-76.5 -193.5l-49 -557h-307z" />
    <glyph glyph-name="s" unicode="s" horiz-adv-x="1161" 
d="M1059 332q-14 -165 -161.5 -271t-365.5 -106q-212 0 -339.5 111.5t-112.5 283.5h260q-6 -78 54.5 -128t160.5 -50q84 0 142 35t63 88q3 32 -14.5 55t-53.5 36.5t-74.5 21t-91.5 12.5q-59 7 -97.5 13.5t-87 18t-79 26t-62 38.5t-47.5 54.5t-24.5 73.5t-3.5 97
q9 101 75 182t172.5 126t233.5 45q211 0 338.5 -102.5t114.5 -260.5h-271q4 64 -52.5 105t-149.5 41q-72 0 -125.5 -33.5t-57.5 -85.5q-4 -48 47 -70.5t156 -38.5q44 -6 72 -10.5t71.5 -13t72 -17t65.5 -22.5t61 -30t48.5 -39t38 -49.5t20.5 -61t4 -74.5z" />
    <glyph glyph-name="t" unicode="t" horiz-adv-x="854" 
d="M184 340l43 475h-147l20 234h162l57 264h259l-23 -264h238l-21 -234h-237l-39 -444q-6 -66 28 -107t97 -41q47 0 110 17l-22 -248q-104 -33 -213 -33q-155 0 -240.5 106t-71.5 275z" />
    <glyph glyph-name="u" unicode="u" 
d="M1094 0h-297l12 143q-65 -87 -156.5 -135.5t-193.5 -48.5q-177 0 -275.5 121.5t-83.5 312.5l58 656h307l-51 -603q-9 -97 38 -157t136 -60q92 0 161 65.5t78 164.5l52 590h307z" />
    <glyph glyph-name="v" unicode="v" horiz-adv-x="1245" 
d="M795 0h-439l-274 1049h330l184 -816l330 816h327z" />
    <glyph glyph-name="w" unicode="w" horiz-adv-x="1882" 
d="M719 0h-389l-228 1049h320l149 -742l271 742h286l154 -748l279 748h309l-410 -1049h-389l-117 690z" />
    <glyph glyph-name="x" unicode="x" horiz-adv-x="1294" 
d="M385 0h-375l408 545l-297 504h364l179 -334l237 334h365l-385 -504l311 -545h-375l-184 367z" />
    <glyph glyph-name="y" unicode="y" horiz-adv-x="1245" 
d="M94 -436l21 227q58 -20 123 -20q90 0 144 54.5t103 164.5l-403 1059h336l225 -676l293 676h319l-499 -1086q-100 -220 -205 -328t-256 -108q-113 0 -201 37z" />
    <glyph glyph-name="z" unicode="z" horiz-adv-x="1165" 
d="M68 201l585 596h-514l23 252h934l-19 -201l-565 -596h535l-23 -252h-975z" />
    <glyph glyph-name="braceleft" unicode="{" horiz-adv-x="851" 
d="M612 -160h123l-18 -209h-305q-115 0 -180 70t-56 186l39 424q5 60 -29.5 97.5t-95.5 37.5h-20l24 279h21q61 0 101.5 37.5t45.5 97.5l35 404q10 115 87 185.5t191 70.5h306l-19 -209h-123q-64 0 -106.5 -39.5t-48.5 -104.5l-29 -336q-9 -103 -78 -170t-172 -73l-20 -2
l20 -2q101 -6 158.5 -73.5t48.5 -170.5l-31 -356q-6 -64 30 -104t101 -40z" />
    <glyph glyph-name="bar" unicode="|" horiz-adv-x="604" 
d="M231 1520h275l-174 -1991h-275z" />
    <glyph glyph-name="braceright" unicode="}" horiz-adv-x="849" 
d="M242 -369h-305l18 209h123q65 0 108.5 40t49.5 104l30 356q9 103 78 170.5t172 73.5l21 2l-21 2q-102 6 -159 73t-48 170l29 336q6 64 -30 104t-101 40h-123l18 209h306q116 0 179.5 -70.5t53.5 -185.5l-35 -404q-5 -60 29 -97.5t94 -37.5h21l-25 -279h-20
q-60 0 -101 -37.5t-45 -97.5l-37 -424q-10 -115 -87 -185.5t-193 -70.5z" />
    <glyph glyph-name="asciitilde" unicode="~" horiz-adv-x="1339" 
d="M184 487l-75 193q68 80 165.5 130t178.5 50q54 0 112.5 -23t109.5 -55t100.5 -64.5t99.5 -55.5t92 -23q58 0 117 32t102 83l80 -193q-70 -81 -164.5 -130.5t-175.5 -49.5q-54 0 -113.5 23t-111.5 55.5t-102.5 64.5t-102.5 55t-95 23q-54 0 -111.5 -31.5t-105.5 -83.5z
" />
    <glyph glyph-name="exclamdown" unicode="&#xa1;" horiz-adv-x="641" 
d="M74 -471l35 393l131 580h159l29 -580l-35 -393h-319zM365 1020q78 0 123.5 -48.5t39.5 -125.5q-8 -75 -62 -123.5t-132 -48.5t-123.5 48.5t-38.5 123.5q6 76 60.5 125t132.5 49z" />
    <glyph glyph-name="cent" unicode="&#xa2;" horiz-adv-x="1277" 
d="M721 -29l-16 -204h-275l19 210q-184 45 -287 194t-84 353q17 205 145 353.5t322 193.5l16 186h273l-15 -180q162 -33 267 -142t112 -261l-289 -37q-14 85 -78.5 139.5t-152.5 54.5q-115 0 -199 -87t-94 -220q-12 -133 56 -220t182 -87q90 0 163 54.5t103 140.5l285 -37
q-36 -151 -161.5 -261t-291.5 -143z" />
    <glyph glyph-name="sterling" unicode="&#xa3;" horiz-adv-x="1339" 
d="M1280 1071l-281 -45q-2 102 -44 163.5t-121 61.5q-75 0 -122 -56.5t-55 -147.5l-18 -216h453l-19 -206h-469q-33 -159 -101 -243.5t-175 -129.5h878l-22 -252h-1164l25 293q49 12 85 31.5t70 56t57 97.5t36 147h-199l19 206h204l21 226q18 200 153.5 326t344.5 126
q203 0 322.5 -122t121.5 -316z" />
    <glyph glyph-name="currency" unicode="&#xa4;" horiz-adv-x="1507" 
d="M725 225q121 0 205 83.5t96 215.5q11 132 -58 215.5t-190 83.5q-120 0 -204.5 -83.5t-94.5 -215.5q-12 -132 56.5 -215.5t189.5 -83.5zM1108 977l168 160l166 -154l-170 -164q76 -127 61 -295q-15 -171 -112 -297l145 -166l-197 -151l-141 160q-146 -78 -323 -78
q-180 0 -308 78l-178 -160l-166 151l176 166q-74 129 -59 297q15 167 113 295l-142 164l195 156l141 -160q146 78 322 78q177 0 309 -80z" />
    <glyph glyph-name="yen" unicode="&#xa5;" horiz-adv-x="1521" 
d="M160 625h352l-391 833h377l274 -670l377 670h381l-531 -833h349l-17 -183h-418l-10 -106h420l-16 -184h-418l-15 -152h-344l13 152h-424l16 184h424l10 106h-424z" />
    <glyph glyph-name="section" unicode="&#xa7;" horiz-adv-x="1306" 
d="M893 563q2 29 -10 52t-31.5 37t-50 24t-55 15t-58.5 9q-15 3 -65 15t-62 14q-73 -6 -125 -44.5t-57 -84.5q-3 -36 14.5 -63t52 -43t67.5 -25t79 -16q10 -2 53 -11.5t53 -11.5q80 6 135.5 43.5t59.5 89.5zM199 1071q14 164 157 268.5t355 104.5q183 0 308 -93.5
t148 -250.5l-274 -35q-6 75 -64.5 123.5t-144.5 48.5q-82 0 -138.5 -33.5t-60.5 -85.5q-2 -19 2 -35.5t17 -30t25.5 -24.5t37.5 -21t42 -17t51.5 -15.5t53 -13t58.5 -13.5q58 -12 89.5 -19.5t84.5 -23t83.5 -30t67.5 -39t56 -51.5t31 -65.5t8 -84.5q-9 -97 -86.5 -173
t-192.5 -102q81 -32 127 -106.5t39 -173.5q-15 -173 -165 -285t-365 -112q-186 0 -313.5 99t-141.5 253l275 37q8 -75 68 -124.5t145 -49.5q84 0 140 34.5t62 94.5q2 25 -5.5 46.5t-19 36.5t-36.5 29t-44.5 22t-57 18t-60 14.5l-67.5 13.5q-50 10 -86.5 18.5t-83 23t-79 30
t-66 39.5t-52.5 52.5t-30 67t-7 84.5q9 97 79.5 171.5t174.5 99.5q-74 33 -114 107t-31 171z" />
    <glyph glyph-name="dieresis" unicode="&#xa8;" horiz-adv-x="1026" 
d="M285 1167q-71 0 -112.5 43.5t-35.5 110.5q6 68 55 112t119 44t112 -44t36 -112t-55 -111t-119 -43zM815 1167q-69 0 -110 43.5t-35 110.5q4 67 53.5 111.5t120.5 44.5q69 0 110 -44t35 -112q-4 -67 -53.5 -110.5t-120.5 -43.5z" />
    <glyph glyph-name="copyright" unicode="&#xa9;" horiz-adv-x="2048" 
d="M1071 1235q-210 0 -381.5 -89.5t-276 -250t-122.5 -365.5q-14 -157 27 -290.5t126.5 -227t214.5 -146t287 -52.5q318 0 534 199t244 517q18 205 -57.5 365.5t-231 250t-364.5 89.5zM1067 1077q194 0 328 -114t147 -291l-211 -33q-15 104 -93.5 173t-184.5 69
q-136 0 -235.5 -100.5t-112.5 -256.5q-12 -155 69 -255.5t219 -100.5q110 0 203 72t125 182l195 -39q-40 -180 -193 -296t-350 -116q-239 0 -380.5 154.5t-119.5 398.5q10 119 59.5 222t127.5 175.5t183.5 114t223.5 41.5zM928 -371q-203 0 -369.5 66t-277 183.5
t-163.5 285.5t-36 366q22 258 156 460.5t355 315.5t492 113t472.5 -112t300 -314.5t75.5 -462.5q-17 -198 -99 -366t-213.5 -285.5t-310 -183.5t-382.5 -66z" />
    <glyph glyph-name="guillemotleft" unicode="&#xab;" horiz-adv-x="1435" 
d="M831 1049l-430 -517l338 -532h-325l-328 532l420 517h325zM1384 1049l-430 -517l338 -532h-325l-328 532l420 517h325z" />
    <glyph glyph-name="logicalnot" unicode="&#xac;" horiz-adv-x="1318" 
d="M969 143l35 381h-906l23 246h1126l-55 -627h-223z" />
    <glyph glyph-name="registered" unicode="&#xae;" horiz-adv-x="2048" 
d="M291 530q-14 -157 27 -290.5t126.5 -227t214.5 -146t287 -52.5q318 0 534 199t244 517q18 205 -57.5 365.5t-231 250t-364.5 89.5q-210 0 -381.5 -89.5t-276 -250t-122.5 -365.5zM1083 897h-211l-30 -340h219q83 0 139 47.5t62 126.5q7 78 -40.5 122t-138.5 44zM928 -371
q-203 0 -369.5 66t-277 183.5t-163.5 285.5t-36 366q22 258 156 460.5t355 315.5t492 113t472.5 -112t300 -314.5t75.5 -462.5q-17 -198 -99 -366t-213.5 -285.5t-310 -183.5t-382.5 -66zM1223 440l188 -420h-250l-153 398h-179l-34 -398h-222l91 1029h477
q165 0 261.5 -88.5t84.5 -227.5q-9 -108 -80 -186.5t-184 -106.5z" />
    <glyph glyph-name="macron" unicode="&#xaf;" horiz-adv-x="864" 
d="M842 1417l-17 -186h-694l16 186h695z" />
    <glyph glyph-name="degree" unicode="&#xb0;" horiz-adv-x="1081" 
d="M535 682q-205 0 -320 118t-98 312t152 312t339 118t319.5 -118.5t98.5 -311.5q-17 -194 -152 -312t-339 -118zM592 1346q-105 0 -175 -64.5t-79 -169.5t49.5 -169t163.5 -64q104 0 174.5 64.5t79.5 168.5t-50 169t-163 65z" />
    <glyph glyph-name="plusminus" unicode="&#xb1;" horiz-adv-x="1134" 
d="M59 219h963l-18 -219h-963zM684 393h-256l18 221h-352l19 222h352l20 213h256l-18 -213h352l-18 -222h-352z" />
    <glyph glyph-name="acute" unicode="&#xb4;" horiz-adv-x="727" 
d="M688 1520l-326 -353h-241l276 353h291z" />
    <glyph glyph-name="paragraph" unicode="&#xb6;" horiz-adv-x="1632" 
d="M1532 1237h-197l-145 -1671h-270l145 1671h-201l-147 -1671h-271l95 1057q-210 0 -327.5 114.5t-100.5 302.5q19 188 156.5 303t342.5 115h940z" />
    <glyph glyph-name="periodcentered" unicode="&#xb7;" horiz-adv-x="528" 
d="M268 442q-77 0 -123 48.5t-39 123.5q6 75 60.5 123.5t132.5 48.5t124 -48.5t40 -123.5q-8 -75 -62.5 -123.5t-132.5 -48.5z" />
    <glyph glyph-name="cedilla" unicode="&#xb8;" horiz-adv-x="649" 
d="M244 -233h-94l69 274h160l-47 -191q98 0 152.5 -54.5t45.5 -145.5q-8 -91 -82 -147t-186 -56q-82 0 -141 40.5t-72 106.5l103 60q12 -37 41.5 -60.5t64.5 -23.5q43 0 71.5 25.5t32.5 68.5q3 46 -29 74.5t-89 28.5z" />
    <glyph glyph-name="guillemotright" unicode="&#xbb;" horiz-adv-x="1433" 
d="M797 532l-420 -532h-326l430 532l-340 517h328zM1350 532l-420 -532h-326l430 532l-340 517h328z" />
    <glyph glyph-name="questiondown" unicode="&#xbf;" horiz-adv-x="1304" 
d="M524 598h283q-13 -154 -70.5 -246.5t-171.5 -165.5q-38 -25 -52.5 -35t-44.5 -34t-42.5 -41.5t-25.5 -44t-15 -54.5q-7 -83 48 -137.5t145 -54.5q102 0 177 74t99 192l305 -57q-39 -211 -209.5 -345t-406.5 -134q-229 0 -371 124.5t-125 313.5q11 126 84 211.5t199 154.5
q63 34 100 67t62.5 85.5t31.5 126.5zM711 1059q77 0 123 -49t40 -125q-8 -75 -62 -123.5t-132 -48.5t-124 48.5t-40 123.5q7 76 62 125t133 49z" />
    <glyph glyph-name="Agrave" unicode="&#xc0;" horiz-adv-x="1550" 
d="M795 1163l-289 -676h459zM416 242l-101 -242h-362l616 1458h502l361 -1458h-363l-59 242h-594zM702 1602l-249 311h299l204 -311h-254z" />
    <glyph glyph-name="Aacute" unicode="&#xc1;" horiz-adv-x="1550" 
d="M795 1163l-289 -676h459zM416 242l-101 -242h-362l616 1458h502l361 -1458h-363l-59 242h-594zM686 1602l260 311h299l-305 -311h-254z" />
    <glyph glyph-name="Acircumflex" unicode="&#xc2;" horiz-adv-x="1550" 
d="M795 1163l-289 -676h459zM416 242l-101 -242h-362l616 1458h502l361 -1458h-363l-59 242h-594zM850 1786l-166 -184h-223l248 311h305l194 -311h-223z" />
    <glyph glyph-name="Atilde" unicode="&#xc3;" horiz-adv-x="1550" 
d="M793 1163l-289 -676h461zM414 242l-101 -242h-362l616 1458h502l361 -1458h-363l-57 242h-596zM580 1671l-140 86q37 80 115 132.5t164 52.5q49 0 93 -17.5t71 -38t59 -38t59 -17.5q36 0 69.5 23.5t57.5 64.5l140 -86q-37 -79 -117.5 -131.5t-171.5 -52.5q-53 0 -98 17
t-70.5 38t-55.5 38t-57 17q-63 0 -118 -88z" />
    <glyph glyph-name="Adieresis" unicode="&#xc4;" horiz-adv-x="1550" 
d="M795 1163l-289 -676h459zM416 242l-101 -242h-362l616 1458h500l361 -1458h-361l-59 242h-594zM582 1604q-70 0 -112 45t-36 114q6 70 55.5 115t118.5 45q71 0 112.5 -45t35.5 -115q-6 -69 -55.5 -114t-118.5 -45zM1090 1604q-70 0 -112 45t-36 114q6 70 55.5 115
t118.5 45q71 0 112.5 -45t35.5 -115q-6 -69 -55 -114t-119 -45z" />
    <glyph glyph-name="Aring" unicode="&#xc5;" horiz-adv-x="1550" 
d="M791 1163l-289 -676h459zM850 1855q-34 0 -57.5 -20.5t-26.5 -54.5t16.5 -55t53.5 -21t57.5 21t26.5 55t-16.5 54.5t-53.5 20.5zM412 242l-101 -242h-362l616 1458h502l360 -1458h-362l-57 242h-596zM823 1554q-110 0 -174 63t-55 163q9 99 83 161t183 62
q110 0 174.5 -61.5t57.5 -161.5q-9 -100 -84 -163t-185 -63z" />
    <glyph glyph-name="AE" unicode="&#xc6;" horiz-adv-x="2041" 
d="M633 485h364l66 740zM1286 276h619l-25 -276h-926l23 242h-481l-142 -242h-381l858 1458h1158l-25 -278h-598l-29 -318h516l-20 -244h-516z" />
    <glyph glyph-name="Ccedilla" unicode="&#xc7;" horiz-adv-x="1699" 
d="M776 -233h-94l47 186q-202 17 -353 120.5t-225 274.5t-55 381q19 224 134.5 402t302 278t409.5 100q182 0 332 -72.5t241 -202t103 -292.5l-328 -37q-19 135 -121.5 222t-242.5 87q-196 0 -331.5 -135.5t-154.5 -349.5q-19 -213 93.5 -349t306.5 -136q138 0 257 85
t165 216l319 -43q-54 -222 -245.5 -374t-444.5 -175l-27 -103q98 0 153 -54.5t48 -145.5q-9 -91 -83 -147t-187 -56q-82 0 -141 40.5t-72 106.5l102 60q12 -37 42 -60.5t65 -23.5q44 0 71.5 25.5t32.5 68.5q3 46 -29 74.5t-90 28.5z" />
    <glyph glyph-name="Egrave" unicode="&#xc8;" horiz-adv-x="1306" 
d="M469 625l-31 -349h713l-25 -276h-1044l127 1458h1024l-25 -276h-692l-27 -312h611l-21 -245h-610zM354 1913h297l207 -311h-256z" />
    <glyph glyph-name="Eacute" unicode="&#xc9;" horiz-adv-x="1306" 
d="M469 625l-31 -349h713l-25 -276h-1044l127 1458h1024l-25 -276h-692l-27 -312h611l-21 -245h-610zM848 1913h297l-303 -311h-254z" />
    <glyph glyph-name="Ecircumflex" unicode="&#xca;" horiz-adv-x="1306" 
d="M469 625l-31 -349h713l-25 -276h-1044l127 1458h1024l-25 -276h-692l-27 -312h611l-21 -245h-610zM586 1602h-224l248 311h305l195 -311h-223l-135 184z" />
    <glyph glyph-name="Edieresis" unicode="&#xcb;" horiz-adv-x="1306" 
d="M467 625l-29 -349h713l-25 -276h-1046l129 1458h1024l-25 -276h-692l-27 -312h611l-23 -245h-610zM481 1604q-69 0 -110 45t-35 114q6 70 54.5 115t119.5 45q70 0 110.5 -44.5t34.5 -115.5q-6 -69 -55 -114t-119 -45zM991 1604q-70 0 -111.5 45t-35.5 114q6 70 55.5 115
t118.5 45q71 0 112 -45t35 -115q-6 -69 -55.5 -114t-118.5 -45z" />
    <glyph glyph-name="Igrave" unicode="&#xcc;" horiz-adv-x="675" 
d="M209 1458h346l-129 -1458h-344zM12 1913h297l207 -311h-256z" />
    <glyph glyph-name="Iacute" unicode="&#xcd;" horiz-adv-x="681" 
d="M209 1458h346l-129 -1458h-344zM506 1913h297l-303 -311h-254z" />
    <glyph glyph-name="Icircumflex" unicode="&#xce;" horiz-adv-x="675" 
d="M211 1458h344l-127 -1458h-346zM244 1602h-224l248 311h305l195 -311h-223l-135 184z" />
    <glyph glyph-name="Idieresis" unicode="&#xcf;" horiz-adv-x="669" 
d="M205 1458h346l-129 -1458h-344zM135 1604q-69 0 -110 45t-35 114q6 70 54.5 115t119.5 45t112 -45t35 -115q-6 -69 -56 -114t-120 -45zM645 1604q-70 0 -111.5 45t-35.5 114q6 70 55.5 115t118.5 45q71 0 112 -45t35 -115q-6 -69 -55 -114t-119 -45z" />
    <glyph glyph-name="Ntilde" unicode="&#xd1;" horiz-adv-x="1622" 
d="M588 1458l495 -1042l91 1042h327l-129 -1458h-379l-495 1040l-90 -1040h-328l127 1458h381zM614 1671l-139 86q37 80 115 132.5t164 52.5q49 0 93 -17.5t71 -38t59 -38t59 -17.5q36 0 69.5 23.5t57.5 64.5l140 -86q-37 -79 -117.5 -131.5t-171.5 -52.5q-53 0 -98 17
t-70.5 38t-55.5 38t-57 17q-64 0 -119 -88z" />
    <glyph glyph-name="Ograve" unicode="&#xd2;" horiz-adv-x="1810" 
d="M817 -51q-177 0 -322.5 57t-242 159t-143 247.5t-31.5 316.5q20 228 137 405.5t309 276t428 98.5q237 0 412.5 -98.5t261.5 -276t66 -405.5q-19 -229 -136.5 -406.5t-310 -275.5t-428.5 -98zM928 1214q-204 0 -345.5 -135.5t-160.5 -349.5q-19 -213 98.5 -348t321.5 -137
q204 0 345.5 135.5t160.5 349.5t-98.5 349.5t-321.5 135.5zM580 1913h297l206 -311h-256z" />
    <glyph glyph-name="Oacute" unicode="&#xd3;" horiz-adv-x="1810" 
d="M817 -51q-177 0 -322.5 57t-242 159t-143 247.5t-31.5 316.5q20 228 137 405.5t309 276t428 98.5q237 0 412.5 -98.5t261.5 -276t66 -405.5q-19 -229 -136.5 -406.5t-310 -275.5t-428.5 -98zM928 1214q-204 0 -345.5 -135.5t-160.5 -349.5q-19 -213 98.5 -348t321.5 -137
q204 0 345.5 135.5t160.5 349.5t-98.5 349.5t-321.5 135.5zM1073 1913h297l-303 -311h-254z" />
    <glyph glyph-name="Ocircumflex" unicode="&#xd4;" horiz-adv-x="1810" 
d="M928 1214q-204 0 -345.5 -135.5t-160.5 -349.5q-19 -213 98.5 -348t321.5 -137q204 0 345.5 135.5t160.5 349.5t-98.5 349.5t-321.5 135.5zM817 -51q-177 0 -322.5 57t-242 159t-143 247.5t-31.5 316.5q20 228 137 405.5t309 276t428 98.5q237 0 412.5 -98.5t261.5 -276
t66 -405.5q-19 -229 -136.5 -406.5t-310 -275.5t-428.5 -98zM977 1786l-166 -184h-223l248 311h305l194 -311h-223z" />
    <glyph glyph-name="Otilde" unicode="&#xd5;" horiz-adv-x="1810" 
d="M926 1214q-204 0 -344.5 -135.5t-159.5 -349.5q-20 -213 97.5 -348t322.5 -137q204 0 344.5 135.5t159.5 349.5q20 213 -98 349t-322 136zM815 -51q-236 0 -411 98t-261 275.5t-67 406.5q20 228 137 405.5t309.5 276t429.5 98.5q236 0 411 -98.5t261.5 -276t67.5 -405.5
q-31 -347 -274.5 -563.5t-602.5 -216.5zM705 1671l-138 86q38 80 115 132.5t164 52.5q49 0 93 -17.5t71 -38t59 -38t59 -17.5q36 0 69.5 24t55.5 64l140 -86q-36 -79 -116.5 -131.5t-172.5 -52.5q-52 0 -97 17t-70.5 38t-55.5 38t-56 17q-62 0 -120 -88z" />
    <glyph glyph-name="Odieresis" unicode="&#xd6;" horiz-adv-x="1810" 
d="M817 -51q-177 0 -322.5 57t-242 159t-143 247.5t-31.5 316.5q20 228 137 405.5t309 276t428 98.5q237 0 412.5 -98.5t261.5 -276t66 -405.5q-20 -229 -137.5 -406.5t-309.5 -275.5t-428 -98zM928 1214q-204 0 -345.5 -135.5t-160.5 -349.5q-19 -213 98.5 -348t321.5 -137
q204 0 345.5 135.5t160.5 349.5t-98.5 349.5t-321.5 135.5zM707 1604q-69 0 -110.5 45t-35.5 114q6 70 54.5 115t119.5 45q70 0 111 -44.5t35 -115.5q-6 -69 -55 -114t-119 -45zM1217 1604q-70 0 -112 45t-36 114q6 70 55.5 115t118.5 45q71 0 112.5 -45t35.5 -115
q-6 -69 -55.5 -114t-118.5 -45z" />
    <glyph glyph-name="multiply" unicode="&#xd7;" horiz-adv-x="913" 
d="M240 229l-162 177l213 202l-176 203l192 176l174 -199l211 201l162 -178l-213 -203l178 -202l-192 -177l-176 201z" />
    <glyph glyph-name="Oslash" unicode="&#xd8;" horiz-adv-x="1769" 
d="M913 1214q-192 0 -328 -137t-155 -348q-10 -115 23 -210t102 -159l496 830q-65 24 -138 24zM829 244q192 0 328.5 136.5t155.5 348.5q9 108 -20.5 200t-90.5 156l-491 -825q49 -16 118 -16zM547 -12l-164 -275h-217l211 355q-156 101 -234 274t-59 387q15 168 87 313
t184.5 247.5t264 161t320.5 58.5q147 0 274 -47l179 299l219 2l-230 -385q147 -103 220.5 -272t56.5 -377q-15 -168 -87 -313t-184.5 -247.5t-264 -161t-320.5 -58.5q-134 0 -256 39z" />
    <glyph glyph-name="Ugrave" unicode="&#xd9;" horiz-adv-x="1607" 
d="M1081 612l76 846h344l-76 -854q-25 -290 -222 -472.5t-486 -182.5q-290 0 -456.5 182.5t-141.5 472.5l76 854h344l-74 -846q-13 -149 61.5 -257t214.5 -111q137 0 231.5 103t108.5 265zM479 1913h297l207 -311h-256z" />
    <glyph glyph-name="Uacute" unicode="&#xda;" horiz-adv-x="1607" 
d="M1081 612l76 846h344l-76 -854q-25 -290 -222 -472.5t-486 -182.5q-290 0 -456.5 182.5t-141.5 472.5l76 854h344l-74 -846q-13 -149 61.5 -257t214.5 -111q137 0 231.5 103t108.5 265zM973 1913h297l-303 -311h-256z" />
    <glyph glyph-name="Ucircumflex" unicode="&#xdb;" horiz-adv-x="1607" 
d="M1081 612l76 846h344l-76 -854q-25 -290 -222 -472.5t-486 -182.5q-290 0 -456.5 182.5t-141.5 472.5l76 854h344l-74 -846q-13 -149 61.5 -257t214.5 -111q137 0 231.5 103t108.5 265zM711 1602h-226l250 311h303l197 -311h-225l-133 184z" />
    <glyph glyph-name="Udieresis" unicode="&#xdc;" horiz-adv-x="1607" 
d="M1081 612l74 846h346l-76 -854q-25 -290 -222.5 -472.5t-487.5 -182.5q-190 0 -331.5 82.5t-211 232t-53.5 340.5l76 854h344l-74 -846q-13 -149 61.5 -257t214.5 -111q137 0 231.5 103t108.5 265zM606 1604q-70 0 -111.5 45t-35.5 114q6 70 55.5 115t120.5 45
q69 0 110 -45t35 -115q-6 -69 -55 -114t-119 -45zM1114 1604q-69 0 -110 45t-35 114q6 70 54.5 115t119.5 45q70 0 110.5 -44.5t34.5 -115.5q-6 -69 -55 -114t-119 -45z" />
    <glyph glyph-name="Yacute" unicode="&#xdd;" horiz-adv-x="1439" 
d="M467 0l45 508l-432 950h364l267 -647l366 647h371l-592 -950l-43 -508h-346zM887 1913h299l-303 -311h-256z" />
    <glyph glyph-name="germandbls" unicode="&#xdf;" horiz-adv-x="1529" 
d="M510 981l-86 -981h-346l86 983q22 229 200 373.5t443 144.5q245 0 386 -118t126 -306q-9 -105 -73.5 -184t-160.5 -102q140 -25 224 -141.5t71 -274.5q-17 -186 -159.5 -306t-343.5 -120q-168 0 -340 86l81 221q104 -61 201 -61q89 0 150 60t69 153q9 117 -54.5 186.5
t-195.5 69.5h-94l19 208h96q76 0 128 50t60 129q7 89 -54 145.5t-165 56.5q-110 0 -184 -74t-84 -198z" />
    <glyph glyph-name="agrave" unicode="&#xe0;" horiz-adv-x="1384" 
d="M621 229q120 0 205 83.5t96 211.5t-59.5 211.5t-188.5 83.5q-120 0 -205 -83.5t-96 -211.5t59.5 -211.5t188.5 -83.5zM956 903l13 146h309l-92 -1049h-307l12 145q-70 -89 -166 -137.5t-207 -48.5q-221 0 -347.5 158t-104.5 407t175.5 407.5t374.5 158.5q111 0 198 -49
t142 -138zM586 1171l-264 353h290l215 -353h-241z" />
    <glyph glyph-name="aacute" unicode="&#xe1;" horiz-adv-x="1384" 
d="M621 229q120 0 205 83.5t96 211.5t-59.5 211.5t-188.5 83.5q-120 0 -205 -83.5t-96 -211.5t59.5 -211.5t188.5 -83.5zM956 903l13 146h309l-92 -1049h-307l12 145q-70 -89 -166 -137.5t-207 -48.5q-221 0 -347.5 158t-104.5 407t175.5 407.5t374.5 158.5q111 0 198 -49
t142 -138zM549 1171l276 353h291l-325 -353h-242z" />
    <glyph glyph-name="acircumflex" unicode="&#xe2;" horiz-adv-x="1384" 
d="M621 229q120 0 205 83.5t96 211.5t-59.5 211.5t-188.5 83.5q-120 0 -205 -83.5t-96 -211.5t59.5 -211.5t188.5 -83.5zM956 903l13 146h309l-92 -1049h-307l12 145q-70 -89 -166 -137.5t-207 -48.5q-221 0 -347.5 158t-104.5 407t175.5 407.5t374.5 158.5q111 0 198 -49
t142 -138zM713 1395l-170 -224h-226l254 353h303l195 -353h-227z" />
    <glyph glyph-name="atilde" unicode="&#xe3;" horiz-adv-x="1384" 
d="M623 229q120 0 205 83.5t96 211.5t-59.5 211.5t-188.5 83.5q-120 0 -205 -83.5t-96 -211.5t59.5 -211.5t188.5 -83.5zM958 903l13 146h309l-92 -1049h-307l12 145q-70 -89 -166 -137.5t-207 -48.5q-221 0 -347.5 158t-104.5 407t175.5 407.5t374.5 158.5q111 0 198 -49
t142 -138zM463 1221l-139 73q36 79 114 132t164 53q49 0 93 -17.5t71 -38t60.5 -38t62.5 -17.5q33 0 66 21t53 55l141 -74q-38 -80 -117.5 -132t-171.5 -52q-52 0 -97 17t-71 38t-57.5 38t-59.5 17q-67 0 -112 -75z" />
    <glyph glyph-name="adieresis" unicode="&#xe4;" horiz-adv-x="1384" 
d="M623 229q120 0 204.5 83.5t96.5 211.5q11 128 -59.5 211.5t-190.5 83.5q-119 0 -204 -84t-95 -211q-11 -128 59 -211.5t189 -83.5zM958 903l13 146h307l-92 -1049h-307l14 145q-71 -89 -167.5 -137.5t-205.5 -48.5q-223 0 -349 158t-103 407q22 249 175.5 407.5
t374.5 158.5q111 0 198 -49t142 -138zM428 1184q-71 0 -112 43t-35 110t55.5 110.5t118.5 43.5q70 0 111.5 -43t35.5 -111q-6 -67 -54.5 -110t-119.5 -43zM958 1184q-69 0 -110 43t-35 110q6 68 55 111t119 43t111 -43t35 -111q-4 -67 -54 -110t-121 -43z" />
    <glyph glyph-name="aring" unicode="&#xe5;" horiz-adv-x="1384" 
d="M614 229q120 0 204.5 83.5t96.5 211.5q11 128 -59 211.5t-190 83.5t-204 -83.5t-95 -211.5q-12 -128 57.5 -211.5t189.5 -83.5zM717 1536q-54 0 -90 -32.5t-39 -86.5q-5 -53 24.5 -86t81.5 -33q53 0 89.5 33.5t39.5 85.5q6 54 -23.5 86.5t-82.5 32.5zM950 903l13 146h307
l-92 -1049h-308l13 145q-70 -89 -166 -137.5t-205 -48.5q-223 0 -350 158t-105 407q23 249 177.5 407.5t375.5 158.5q110 0 196.5 -48.5t143.5 -138.5zM682 1151q-129 0 -203 73.5t-65 192.5q10 120 97 193t218 73q129 0 202.5 -73t63.5 -193q-9 -119 -96 -192.5t-217 -73.5
z" />
    <glyph glyph-name="ae" unicode="&#xe6;" horiz-adv-x="2166" 
d="M702 844q-126 0 -212.5 -89.5t-98.5 -230.5q-12 -140 60 -229.5t196 -89.5q123 0 210 88t99 231q13 141 -58 230.5t-196 89.5zM1253 596h523q3 107 -64 178.5t-178 71.5q-103 0 -179 -67.5t-102 -182.5zM985 903l12 146h197l-14 -166q62 96 168 151.5t241 55.5
q234 0 373 -156.5t119 -396.5q-10 -85 -17 -115h-821q12 -102 82 -164.5t176 -62.5q85 0 154 42.5t94 110.5l266 -37q-47 -154 -193 -253t-325 -99q-131 0 -235 57.5t-146 149.5l-14 -166h-197l13 145q-73 -89 -171.5 -137.5t-211.5 -48.5q-221 0 -347 158t-104 407
t175 407.5t374 158.5q113 0 203.5 -49.5t148.5 -137.5z" />
    <glyph glyph-name="ccedilla" unicode="&#xe7;" horiz-adv-x="1277" 
d="M571 -233h-96l51 196q-215 28 -338.5 182.5t-103.5 378.5q22 246 197.5 406t423.5 160q206 0 349 -117.5t152 -298.5l-291 -37q-12 85 -77 139.5t-154 54.5q-113 0 -197 -87t-96 -220q-10 -133 58 -220t182 -87q90 0 163 54.5t103 140.5l285 -37q-39 -161 -177.5 -273.5
t-318.5 -136.5l-27 -115q97 0 151.5 -54.5t47.5 -145.5q-8 -91 -82 -147t-188 -56q-80 0 -140 40.5t-73 106.5l104 60q10 -37 40 -60.5t65 -23.5q44 0 72.5 25.5t31.5 68.5q5 46 -27.5 74.5t-89.5 28.5z" />
    <glyph glyph-name="egrave" unicode="&#xe8;" horiz-adv-x="1314" 
d="M389 623h516q-5 101 -70.5 166t-168.5 65q-100 0 -173.5 -62.5t-103.5 -168.5zM66 532q22 246 197 402t429 156q252 0 395 -156.5t121 -405.5q-5 -64 -12 -92l-821 2q9 -111 75 -177t168 -66q87 0 158 43.5t101 113.5l274 -39q-53 -154 -211 -254t-350 -100
q-252 0 -399 160t-125 413zM596 1171l-264 353h291l215 -353h-242z" />
    <glyph glyph-name="eacute" unicode="&#xe9;" horiz-adv-x="1314" 
d="M389 623h516q-5 101 -70.5 166t-168.5 65q-100 0 -173.5 -62.5t-103.5 -168.5zM66 532q22 246 197 402t429 156q252 0 395.5 -156.5t120.5 -405.5q-5 -64 -12 -92l-821 2q9 -111 75 -177t168 -66q87 0 158 43.5t101 113.5l274 -39q-53 -154 -211 -254t-350 -100
q-252 0 -399 160t-125 413zM559 1171l277 353h290l-325 -353h-242z" />
    <glyph glyph-name="ecircumflex" unicode="&#xea;" horiz-adv-x="1314" 
d="M389 623h516q-5 101 -70.5 166t-168.5 65q-100 0 -173.5 -62.5t-103.5 -168.5zM66 532q22 246 197 402t429 156q252 0 395 -156.5t121 -405.5q-5 -64 -12 -92l-821 2q9 -111 75 -177t168 -66q87 0 158 43.5t101 113.5l274 -39q-53 -154 -211 -254t-350 -100
q-252 0 -399 160t-125 413zM723 1395l-170 -224h-225l254 353h303l194 -353h-227z" />
    <glyph glyph-name="edieresis" unicode="&#xeb;" horiz-adv-x="1314" 
d="M391 623h514q-3 101 -69.5 166t-169.5 65q-99 0 -173 -63t-102 -168zM68 532q22 246 197 402t429 156q252 0 395 -156.5t121 -405.5q-3 -40 -12 -92l-821 2q9 -111 74.5 -177t169.5 -66q86 0 157.5 44t100.5 113l274 -39q-54 -154 -212 -254t-349 -100q-252 0 -399 160
t-125 413zM438 1184q-71 0 -112 43t-35 110t55.5 110.5t118.5 43.5q70 0 111.5 -43t35.5 -111q-6 -67 -54.5 -110t-119.5 -43zM971 1184q-71 0 -112.5 43t-35.5 110q6 68 55 111t119 43t111.5 -43t36.5 -111q-6 -67 -55.5 -110t-118.5 -43z" />
    <glyph glyph-name="igrave" unicode="&#xec;" horiz-adv-x="579" 
d="M166 1049h307l-92 -1049h-307zM-41 1524h293l213 -353h-240z" />
    <glyph glyph-name="iacute" unicode="&#xed;" horiz-adv-x="583" 
d="M162 1049h307l-90 -1049h-309zM461 1524h291l-326 -353h-240z" />
    <glyph glyph-name="icircumflex" unicode="&#xee;" horiz-adv-x="579" 
d="M160 1049h307l-92 -1049h-307zM174 1171h-225l256 353h303l194 -353h-227l-129 224z" />
    <glyph glyph-name="idieresis" unicode="&#xef;" horiz-adv-x="587" 
d="M166 1049h307l-92 -1049h-307zM66 1184q-71 0 -112.5 43t-35.5 110t55.5 110.5t118.5 43.5q71 0 112.5 -43.5t35.5 -110.5t-54.5 -110t-119.5 -43zM598 1184q-71 0 -112 43t-35 110q6 68 55 111t119 43t111 -43t36 -111q-6 -67 -55.5 -110t-118.5 -43z" />
    <glyph glyph-name="ntilde" unicode="&#xf1;" 
d="M160 1049h299l-13 -142q63 85 156 134t195 49q176 0 274.5 -122.5t81.5 -312.5l-57 -655h-308l54 602q8 97 -39.5 157t-136.5 60q-92 0 -161.5 -65.5t-76.5 -163.5l-53 -590h-307zM424 1221l-139 73q36 79 114 132t164 53q49 0 93 -17.5t71 -38t60.5 -38t62.5 -17.5
q33 0 66 21t53 55l141 -74q-38 -80 -117.5 -132t-171.5 -52q-43 0 -80 11.5t-62.5 27.5t-48 32t-46.5 27.5t-47 11.5q-68 0 -113 -75z" />
    <glyph glyph-name="ograve" unicode="&#xf2;" horiz-adv-x="1335" 
d="M696 1090q258 0 406.5 -157t126.5 -409q-22 -250 -197.5 -407.5t-433.5 -157.5q-259 0 -406.5 157t-125.5 408q22 252 197 409t433 157zM621 229q121 0 205.5 83t95.5 212t-58.5 212t-189.5 83q-121 0 -205.5 -83t-95.5 -212t58.5 -212t189.5 -83zM334 1524h291l215 -353
h-240z" />
    <glyph glyph-name="oacute" unicode="&#xf3;" horiz-adv-x="1335" 
d="M696 1090q258 0 406.5 -157t126.5 -409q-22 -250 -197.5 -407.5t-433.5 -157.5q-259 0 -406.5 157t-125.5 408q22 252 197 409t433 157zM621 229q121 0 205.5 83t95.5 212t-58.5 212t-189.5 83q-121 0 -205.5 -83t-95.5 -212t58.5 -212t189.5 -83zM838 1524h292
l-327 -353h-240z" />
    <glyph glyph-name="ocircumflex" unicode="&#xf4;" horiz-adv-x="1335" 
d="M621 229q121 0 205.5 83t95.5 212t-58.5 212t-189.5 83q-121 0 -205.5 -83t-95.5 -212t58.5 -212t189.5 -83zM696 1090q258 0 406.5 -157t126.5 -409q-22 -250 -197.5 -407.5t-433.5 -157.5q-259 0 -406.5 157t-125.5 408q22 252 197 409t433 157zM725 1395l-170 -224
h-225l254 353h303l194 -353h-225z" />
    <glyph glyph-name="otilde" unicode="&#xf5;" horiz-adv-x="1335" 
d="M623 229q121 0 205.5 83t95.5 212t-58.5 212t-189.5 83q-121 0 -205.5 -83t-95.5 -212t58.5 -212t189.5 -83zM698 1090q258 0 406.5 -157t126.5 -409q-22 -250 -197.5 -407.5t-433.5 -157.5q-259 0 -406.5 157t-125.5 408q22 252 196.5 409t433.5 157zM463 1221l-139 73
q37 79 115.5 132t164.5 53q48 0 92 -17.5t71 -38t60 -38t62 -17.5q35 0 67.5 21t53.5 55l141 -74q-37 -80 -118 -132t-173 -52q-52 0 -96.5 17t-70 38t-56.5 38t-59 17q-67 0 -115 -75z" />
    <glyph glyph-name="odieresis" unicode="&#xf6;" horiz-adv-x="1335" 
d="M698 1090q258 0 406.5 -157t126.5 -409q-22 -250 -197.5 -407.5t-433.5 -157.5q-259 0 -407 157t-125 408q22 252 196.5 409t433.5 157zM623 229q120 0 204.5 83t96.5 212q11 129 -59 212t-191 83q-120 0 -204.5 -83t-94.5 -212q-12 -129 57.5 -212t190.5 -83zM440 1184
q-69 0 -111 43t-36 110t55.5 110.5t118.5 43.5q70 0 111.5 -43t35.5 -111q-6 -67 -54.5 -110t-119.5 -43zM973 1184q-71 0 -112.5 43t-35.5 110q6 68 55 111t119 43q71 0 112.5 -43.5t35.5 -110.5t-54.5 -110t-119.5 -43z" />
    <glyph glyph-name="divide" unicode="&#xf7;" horiz-adv-x="1093" 
d="M500 41q-68 0 -108 41.5t-34 105.5t53 106t113 42q68 0 108 -42t34 -106t-53 -105.5t-113 -41.5zM98 733h922l-21 -235h-921zM571 877q-66 0 -105.5 41.5t-33.5 105.5q4 64 51.5 105.5t114.5 41.5t106.5 -41t34.5 -106q-6 -64 -53 -105.5t-115 -41.5z" />
    <glyph glyph-name="oslash" unicode="&#xf8;" horiz-adv-x="1361" 
d="M702 868q-142 0 -241.5 -96t-112.5 -248q-12 -168 88 -262l355 594q-38 12 -89 12zM643 180q141 0 240 96t112 248q12 152 -71 248l-349 -586q30 -6 68 -6zM451 -20l-86 -144h-189l125 205q-119 71 -177.5 196t-45.5 287q22 252 201.5 409t443.5 157q96 0 192 -27l99 166
h188l-141 -234q110 -74 164.5 -196t42.5 -275q-15 -165 -101.5 -294t-228 -200t-315.5 -71q-79 0 -172 21z" />
    <glyph glyph-name="ugrave" unicode="&#xf9;" 
d="M1073 0h-299l12 143q-63 -87 -154.5 -135.5t-193.5 -48.5q-177 0 -276 122t-82 312l57 656h307l-51 -603q-9 -97 38 -157t136 -60q92 0 161.5 65.5t78.5 164.5l51 590h307zM303 1522l291 2l215 -353h-240z" />
    <glyph glyph-name="uacute" unicode="&#xfa;" 
d="M1073 0h-299l12 143q-63 -87 -154.5 -135.5t-193.5 -48.5q-177 0 -276 122t-82 312l57 656h307l-51 -603q-9 -97 38 -157t136 -60q92 0 161.5 65.5t78.5 164.5l51 590h307zM797 1524l290 -2l-327 -351h-240z" />
    <glyph glyph-name="ucircumflex" unicode="&#xfb;" 
d="M1073 0h-299l12 143q-63 -87 -154.5 -135.5t-193.5 -48.5q-177 0 -276 122t-82 312l57 656h307l-51 -603q-9 -97 38 -157t136 -60q92 0 161.5 65.5t78.5 164.5l51 590h307zM512 1171h-225l256 353h303l194 -353h-227l-131 224z" />
    <glyph glyph-name="udieresis" unicode="&#xfc;" 
d="M1075 0h-299l12 143q-63 -87 -155.5 -135.5t-194.5 -48.5q-176 0 -274.5 122t-81.5 312l57 656h307l-53 -603q-8 -97 39.5 -157t136.5 -60q92 0 161.5 65.5t76.5 164.5l53 590h307zM397 1182q-69 0 -110 44t-35 111q4 67 53.5 110.5t120.5 43.5q69 0 110 -43.5t35 -110.5
q-4 -67 -53.5 -111t-120.5 -44zM930 1182q-70 0 -112 43.5t-36 111.5q6 67 55.5 110.5t118.5 43.5q71 0 112.5 -43.5t35.5 -110.5q-6 -68 -55 -111.5t-119 -43.5z" />
    <glyph glyph-name="yacute" unicode="&#xfd;" horiz-adv-x="1245" 
d="M74 -436l20 227q55 -20 123 -20q90 0 144.5 54.5t103.5 164.5l-404 1059h336l226 -676l292 676h320l-500 -1086q-49 -107 -95 -183t-101.5 -135.5t-121.5 -88.5t-143 -29q-112 0 -200 37zM518 1171l277 353h290l-327 -353h-240z" />
    <glyph glyph-name="ydieresis" unicode="&#xff;" horiz-adv-x="1245" 
d="M76 -436l18 227q58 -20 123 -20q91 0 146 55t104 164l-404 1059h336l226 -676l293 676h319l-500 -1086q-100 -220 -206 -328t-257 -108q-110 0 -198 37zM395 1184q-69 0 -110 43t-37 110q6 67 55.5 110.5t118.5 43.5q70 0 111.5 -43t35.5 -111q-6 -67 -54.5 -110
t-119.5 -43zM928 1184q-71 0 -112.5 43t-35.5 110t55.5 110.5t118.5 43.5q71 0 112.5 -43.5t35.5 -110.5t-54.5 -110t-119.5 -43z" />
    <glyph glyph-name="Amacron" unicode="&#x100;" horiz-adv-x="1550" 
d="M799 1163l-289 -676h459zM420 242l-103 -242h-362l616 1458h502l361 -1458h-361l-59 242h-594zM512 1839h694l-16 -184h-692z" />
    <glyph glyph-name="amacron" unicode="&#x101;" horiz-adv-x="1384" 
d="M627 229q120 0 204 83.5t95 211.5q12 128 -58 211.5t-190 83.5t-204 -83.5t-95 -211.5q-12 -128 58 -211.5t190 -83.5zM963 903l12 146h307l-92 -1049h-307l12 145q-70 -89 -166 -137.5t-207 -48.5q-221 0 -347.5 158t-104.5 407q23 250 177 408t376 158
q110 0 196.5 -48.5t143.5 -138.5zM352 1409h695l-17 -184h-694z" />
    <glyph glyph-name="Abreve" unicode="&#x102;" horiz-adv-x="1550" 
d="M795 1163l-289 -676h459zM416 242l-101 -242h-362l616 1458h502l361 -1458h-363l-59 242h-594zM975 1913h194q-12 -141 -100 -226t-233 -85t-219 85.5t-62 225.5h195q-6 -61 22 -101t78 -40q51 0 85.5 39.5t39.5 101.5z" />
    <glyph glyph-name="abreve" unicode="&#x103;" horiz-adv-x="1384" 
d="M621 229q120 0 205 83.5t96 211.5t-59.5 211.5t-188.5 83.5q-120 0 -205 -83.5t-96 -211.5t59.5 -211.5t188.5 -83.5zM956 903l13 146h309l-92 -1049h-307l12 145q-70 -89 -166 -137.5t-207 -48.5q-221 0 -347.5 158t-104.5 407t175.5 407.5t374.5 158.5q111 0 198 -49
t142 -138zM817 1524h195q-13 -158 -97 -255.5t-241 -97.5t-224 97.5t-53 255.5h195q-6 -80 20.5 -130.5t75.5 -50.5t85 50.5t44 130.5z" />
    <glyph glyph-name="Aogonek" unicode="&#x104;" horiz-adv-x="1630" 
d="M815 1163l-289 -676h459zM1243 0h-153l-60 242h-594l-100 -242h-363l617 1458h500l360 -1458h-8q-221 -66 -234 -197q-7 -96 71.5 -155t213.5 -62l-14 -157q-140 0 -245.5 42.5t-159 118.5t-44.5 172q6 79 62 140.5t151 97.5z" />
    <glyph glyph-name="aogonek" unicode="&#x105;" horiz-adv-x="1462" 
d="M641 229q120 0 204 83.5t95 211.5q12 128 -58 211.5t-190 83.5t-204.5 -83.5t-96.5 -211.5q-11 -128 59.5 -211.5t190.5 -83.5zM995 0h-98l12 145q-70 -89 -165.5 -137.5t-206.5 -48.5q-221 0 -348 158t-105 407t176.5 407.5t376.5 158.5q109 0 196 -49t142 -138l14 146
h307l-92 -1049h-12q-221 -67 -231 -197q-9 -96 69.5 -155t214.5 -62l-14 -157q-213 0 -338 93t-113 240q7 79 63 141t152 97z" />
    <glyph glyph-name="Cacute" unicode="&#x106;" horiz-adv-x="1699" 
d="M821 244q138 0 258 85.5t164 215.5l320 -43q-39 -159 -151.5 -285.5t-276 -197t-347.5 -70.5q-167 0 -306.5 58.5t-233 161t-139 247.5t-31.5 313q14 167 85.5 312.5t183 248t261.5 161t318 58.5q181 0 331 -72.5t240.5 -202t101.5 -292.5l-325 -37q-19 135 -122.5 222
t-244.5 87q-195 0 -330.5 -135.5t-154.5 -349.5q-17 -214 94.5 -349.5t304.5 -135.5zM1020 1913h299l-303 -311h-256z" />
    <glyph glyph-name="cacute" unicode="&#x107;" horiz-adv-x="1277" 
d="M686 1090q206 0 348.5 -117.5t151.5 -298.5l-289 -37q-12 84 -77.5 139t-153.5 55q-113 0 -197 -87t-96 -220q-10 -133 57.5 -220t181.5 -87q89 0 163.5 55t103.5 140l284 -37q-46 -181 -209.5 -298.5t-367.5 -117.5q-162 0 -286 72.5t-186 201.5t-48 291
q22 246 196.5 406t423.5 160zM819 1524h291l-326 -353h-241z" />
    <glyph glyph-name="Ccircumflex" unicode="&#x108;" horiz-adv-x="1699" 
d="M821 244q138 0 258 85.5t164 215.5l320 -43q-39 -159 -151.5 -285.5t-276 -197t-347.5 -70.5q-167 0 -306.5 58.5t-233 161t-139 247.5t-31.5 313q14 167 85.5 312.5t183 248t261.5 161t318 58.5q181 0 331 -72.5t240.5 -202t101.5 -292.5l-325 -37q-19 135 -122.5 222
t-244.5 87q-195 0 -330.5 -135.5t-154.5 -349.5q-17 -214 94.5 -349.5t304.5 -135.5zM760 1602h-225l249 311h303l195 -311h-223l-133 184z" />
    <glyph glyph-name="ccircumflex" unicode="&#x109;" horiz-adv-x="1277" 
d="M686 1090q206 0 348.5 -117.5t151.5 -298.5l-289 -37q-12 84 -77.5 139t-153.5 55q-113 0 -197 -87t-96 -220q-10 -133 57.5 -220t181.5 -87q89 0 163.5 55t103.5 140l284 -37q-46 -181 -209.5 -298.5t-367.5 -117.5q-162 0 -286 72.5t-186 201.5t-48 291
q22 246 196.5 406t423.5 160zM537 1171h-226l254 353h303l195 -353h-227l-129 224z" />
    <glyph glyph-name="Cdotaccent" unicode="&#x10a;" horiz-adv-x="1699" 
d="M821 244q138 0 258 85.5t164 215.5l320 -43q-38 -159 -151.5 -285.5t-277 -197t-346.5 -70.5q-224 0 -393 100t-253 278t-64 402q19 224 134.5 402t302 278t409.5 100q182 0 332 -72.5t240.5 -202t102.5 -292.5l-327 -37q-17 135 -120.5 222t-244.5 87
q-195 0 -330.5 -135.5t-154.5 -349.5q-19 -213 93 -349t306 -136zM909 1602q-75 0 -118 44t-37 115q7 70 58.5 115t125.5 45t118 -45t38 -115q-8 -71 -59 -115t-126 -44z" />
    <glyph glyph-name="cdotaccent" unicode="&#x10b;" horiz-adv-x="1277" 
d="M684 1090q208 0 350.5 -117.5t151.5 -298.5l-291 -37q-12 85 -76.5 139.5t-152.5 54.5q-115 0 -199 -87t-94 -220q-12 -133 55.5 -220t181.5 -87q90 0 163.5 54.5t103.5 140.5l284 -37q-44 -181 -207 -298.5t-368 -117.5q-162 0 -286.5 72.5t-187.5 201.5t-49 291
q23 246 198.5 406t422.5 160zM688 1214q-74 0 -118 47t-38 119q6 70 58.5 117t126.5 47q73 0 117 -46.5t36 -117.5q-6 -72 -57.5 -119t-124.5 -47z" />
    <glyph glyph-name="Ccaron" unicode="&#x10c;" horiz-adv-x="1699" 
d="M819 244q138 0 258 85.5t164 215.5l320 -43q-39 -159 -151.5 -285.5t-276 -197t-347.5 -70.5q-167 0 -306.5 58.5t-233 161t-139 247.5t-31.5 313q20 224 135.5 402t302 278t410.5 100q181 0 331 -72.5t240.5 -202t101.5 -292.5l-325 -37q-19 135 -122.5 222t-244.5 87
q-195 0 -330 -135.5t-155 -349.5q-17 -214 94.5 -349.5t304.5 -135.5zM1087 1956h228l-256 -352h-303l-193 352h225l132 -223z" />
    <glyph glyph-name="ccaron" unicode="&#x10d;" horiz-adv-x="1277" 
d="M686 1090q206 0 348.5 -117.5t151.5 -298.5l-289 -37q-12 84 -77.5 139t-153.5 55q-113 0 -197 -87t-96 -220q-10 -133 57.5 -220t181.5 -87q89 0 163.5 55t103.5 140l284 -37q-46 -181 -209.5 -298.5t-367.5 -117.5q-162 0 -286 72.5t-186 201.5t-48 291
q22 246 196.5 406t423.5 160zM864 1524h228l-256 -353h-304l-192 353h225l131 -224z" />
    <glyph glyph-name="Dcaron" unicode="&#x10e;" horiz-adv-x="1650" 
d="M1188 729q19 211 -106.5 336t-348.5 125h-213l-82 -922h213q224 0 371 125t166 336zM629 0h-549l127 1458h549q378 0 591.5 -200.5t184.5 -528.5q-19 -217 -138 -382.5t-317.5 -256t-447.5 -90.5zM823 1731l170 223h228l-258 -352h-304l-192 352h225z" />
    <glyph glyph-name="dcaron" unicode="&#x10f;" horiz-adv-x="1644" 
d="M672 813q-118 0 -203 -82t-96 -207q-10 -126 60.5 -207t189.5 -81q120 0 204 81.5t95 206.5t-59.5 207t-190.5 82zM66 524q22 249 175 407.5t371 158.5q106 0 191 -43.5t141 -124.5l53 598h308l-134 -1520h-305l13 127q-70 -80 -164 -124t-201 -44q-218 0 -344 158
t-104 407zM1497 1225q-55 0 -86.5 39.5t-26.5 101.5q6 64 47.5 102.5t104.5 38.5q72 0 112 -50t33 -132q-9 -97 -64.5 -194.5t-131.5 -151.5l-115 47q51 38 86.5 94.5t40.5 104.5z" />
    <glyph glyph-name="Dcroat" unicode="&#x110;" horiz-adv-x="1720" 
d="M250 905l49 553h549q249 0 432 -90.5t272.5 -256t71.5 -382.5q-19 -217 -138.5 -382.5t-318 -256t-448.5 -90.5h-547l59 696h-198l18 209h199zM1280 729q19 211 -107 336t-350 125h-213l-24 -285h284l-18 -209h-285l-37 -428h213q224 0 371 125t166 336z" />
    <glyph glyph-name="dcroat" unicode="&#x111;" horiz-adv-x="1433" 
d="M672 813q-118 0 -203 -82t-96 -207q-10 -126 60.5 -207t189.5 -81q120 0 204 81.5t95 206.5t-59.5 207t-190.5 82zM944 922l25 278h-340l14 172h340l14 148h308l-15 -148h162l-16 -172h-160l-105 -1200h-305l13 127q-70 -80 -164 -124t-201 -44q-218 0 -344 158t-104 407
t175 407.5t371 158.5q106 0 191 -43.5t141 -124.5z" />
    <glyph glyph-name="Emacron" unicode="&#x112;" horiz-adv-x="1306" 
d="M471 625l-31 -349h713l-25 -276h-1044l129 1458h1024l-25 -276h-692l-26 -312h610l-23 -245h-610zM1106 1839l-14 -184h-695l17 184h692z" />
    <glyph glyph-name="emacron" unicode="&#x113;" horiz-adv-x="1314" 
d="M395 623h514q-5 101 -70.5 166t-168.5 65q-100 0 -173.5 -62.5t-101.5 -168.5zM72 532q22 246 197 402t429 156q252 0 395 -156.5t121 -405.5q-3 -40 -12 -92l-821 2q9 -111 74.5 -177t169.5 -66q86 0 156 43.5t100 113.5l276 -39q-54 -154 -212 -254t-349 -100
q-253 0 -400 160t-124 413zM381 1409h692l-16 -184h-692z" />
    <glyph glyph-name="Ebreve" unicode="&#x114;" horiz-adv-x="1306" 
d="M1079 625h-610l-31 -349h713l-25 -276h-1044l127 1458h1024l-25 -276h-692l-27 -312h611zM877 1913h194q-12 -140 -101 -225.5t-233 -85.5q-145 0 -218.5 85.5t-61.5 225.5h194q-6 -62 22 -101.5t79 -39.5t85.5 39.5t39.5 101.5z" />
    <glyph glyph-name="ebreve" unicode="&#x115;" horiz-adv-x="1314" 
d="M389 623h516q-5 101 -70.5 166t-168.5 65q-100 0 -173.5 -62.5t-103.5 -168.5zM66 532q22 246 197 402t429 156q252 0 395.5 -156.5t120.5 -405.5q-5 -64 -12 -92l-821 2q9 -111 75 -177t168 -66q87 0 158 43.5t101 113.5l274 -39q-53 -154 -211 -254t-350 -100
q-252 0 -399 160t-125 413zM844 1524h196q-15 -159 -98 -256t-240 -97q-158 0 -224.5 97t-53.5 256h197q-7 -79 19.5 -130t76.5 -51t85.5 51t41.5 130z" />
    <glyph glyph-name="Edotaccent" unicode="&#x116;" horiz-adv-x="1306" 
d="M467 625l-29 -349h713l-25 -276h-1046l129 1458h1024l-25 -276h-692l-27 -312h611l-23 -245h-610zM735 1602q-74 0 -116.5 44.5t-36.5 114.5t57 115t125 45q75 0 118.5 -44.5t37.5 -115.5q-6 -70 -58 -114.5t-127 -44.5z" />
    <glyph glyph-name="edotaccent" unicode="&#x117;" horiz-adv-x="1314" 
d="M389 623h514q-5 101 -70.5 166t-168.5 65q-100 0 -173.5 -62.5t-101.5 -168.5zM66 532q22 246 197 402t429 156q252 0 395 -156.5t121 -405.5q-3 -40 -12 -92l-821 2q9 -111 74 -177t169 -66q86 0 157 43.5t102 113.5l274 -39q-54 -154 -212 -254t-349 -100
q-252 0 -399 160t-125 413zM705 1214q-74 0 -118 47t-38 119q6 71 58.5 117.5t125.5 46.5t117.5 -46.5t38.5 -117.5q-6 -72 -58 -119t-126 -47z" />
    <glyph glyph-name="Eogonek" unicode="&#x118;" horiz-adv-x="1306" 
d="M860 0h-760l129 1458h1024l-24 -276h-692l-27 -312h610l-22 -245h-611l-28 -349h710l-22 -276h-88q-221 -66 -234 -197q-7 -96 71 -155t214 -62l-14 -157q-213 0 -338 92.5t-113 240.5q7 79 63.5 140.5t151.5 97.5z" />
    <glyph glyph-name="eogonek" unicode="&#x119;" horiz-adv-x="1314" 
d="M410 623h514q-5 101 -71 166t-169 65q-100 0 -173 -62.5t-101 -168.5zM569 -39q-236 14 -370.5 171.5t-112.5 399.5q20 245 196 401.5t429 156.5t396.5 -156t121.5 -406q-3 -40 -12 -92l-824 2q11 -111 77 -177t169 -66q86 0 156 43.5t100 113.5l276 -39
q-36 -103 -123.5 -185.5t-203.5 -125.5l8 -2q-227 -66 -240 -199q-7 -96 71.5 -155t213.5 -62l-14 -157q-212 0 -337.5 93t-113.5 240q12 125 137 201z" />
    <glyph glyph-name="Ecaron" unicode="&#x11a;" horiz-adv-x="1306" 
d="M467 625l-31 -349h713l-25 -276h-1044l127 1458h1024l-25 -276h-692l-27 -312h611l-21 -245h-610zM915 1954h228l-258 -352h-303l-193 352h225l131 -223z" />
    <glyph glyph-name="ecaron" unicode="&#x11b;" horiz-adv-x="1314" 
d="M389 623h516q-5 101 -70.5 166t-168.5 65q-100 0 -173.5 -62.5t-103.5 -168.5zM66 532q22 246 197 402t429 156q252 0 395 -156.5t121 -405.5q-5 -64 -12 -92l-821 2q9 -111 75 -177t168 -66q87 0 158 43.5t101 113.5l274 -39q-53 -154 -211 -254t-350 -100
q-252 0 -399 160t-125 413zM713 1300l170 224h227l-258 -353h-303l-193 353h226z" />
    <glyph glyph-name="Gcircumflex" unicode="&#x11c;" horiz-adv-x="1777" 
d="M852 244q175 0 308.5 105.5t152.5 260.5h-451l19 217h784q0 -189 -63.5 -352t-175.5 -278.5t-269.5 -181.5t-339.5 -66q-231 0 -407 100t-263.5 278t-68.5 402q19 223 138 401.5t312 278.5t424 100q263 0 449 -145t215 -371l-324 -55q-25 120 -127.5 198t-238.5 78
q-201 0 -343 -136.5t-161 -348.5q-19 -211 102.5 -348t327.5 -137zM811 1602h-225l250 311h305l194 -311h-223l-135 184z" />
    <glyph glyph-name="gcircumflex" unicode="&#x11d;" horiz-adv-x="1370" 
d="M623 238q120 0 204 80.5t95 205.5q11 128 -59.5 211.5t-188.5 83.5q-120 0 -205 -83.5t-96 -211.5q-11 -125 59.5 -205.5t190.5 -80.5zM573 -268q120 0 200.5 77t90.5 211l13 125q-146 -159 -361 -159q-143 0 -250.5 68t-160.5 191t-39 279q22 247 175.5 405t370.5 158
t332 -163l12 125h308l-93 -1037q-14 -160 -96 -279.5t-213.5 -182t-296.5 -62.5q-215 0 -361 118.5t-153 299.5l279 31q12 -89 80.5 -147t162.5 -58zM719 1395l-170 -224h-225l254 353h303l194 -353h-227z" />
    <glyph glyph-name="Gbreve" unicode="&#x11e;" horiz-adv-x="1777" 
d="M852 244q175 0 308.5 105.5t152.5 260.5h-451l19 217h784q0 -189 -63.5 -352t-175.5 -278.5t-269.5 -181.5t-339.5 -66q-231 0 -407 100t-263.5 278t-68.5 402q19 223 138 401.5t312 278.5t424 100q263 0 449 -145t215 -371l-324 -55q-25 120 -127.5 198t-238.5 78
q-201 0 -343 -136.5t-161 -348.5q-19 -211 102.5 -348t327.5 -137zM1102 1913h192q-12 -141 -100 -226t-233 -85t-218 85.5t-61 225.5h192q-5 -62 23.5 -101.5t79.5 -39.5q49 0 84 39.5t41 101.5z" />
    <glyph glyph-name="gbreve" unicode="&#x11f;" horiz-adv-x="1370" 
d="M623 238q120 0 204 80.5t95 205.5q11 128 -59.5 211.5t-188.5 83.5q-120 0 -205 -83.5t-96 -211.5q-11 -125 59.5 -205.5t190.5 -80.5zM573 -268q120 0 200.5 77t90.5 211l13 125q-146 -159 -361 -159q-143 0 -250.5 68t-160.5 191t-39 279q22 247 175.5 405t370.5 158
t332 -163l12 125h308l-93 -1037q-14 -160 -96 -279.5t-213.5 -182t-296.5 -62.5q-215 0 -361 118.5t-153 299.5l279 31q12 -89 80.5 -147t162.5 -58zM840 1524h196q-15 -159 -99 -256t-241 -97q-80 0 -138 27t-89 76t-43 111.5t-6 138.5h196q-8 -80 19 -130.5t78 -50.5
q50 0 85.5 51t41.5 130z" />
    <glyph glyph-name="Gdotaccent" unicode="&#x120;" horiz-adv-x="1777" 
d="M852 244q175 0 308.5 105.5t150.5 260.5h-449l19 217h782q1 -252 -107.5 -452.5t-302 -313t-436.5 -112.5q-231 0 -407 100t-263.5 278t-68.5 402q14 168 87 313t188 247.5t270.5 161t328.5 58.5q263 0 449 -145t215 -371l-326 -55q-23 120 -126 198t-238 78
q-201 0 -343 -136.5t-161 -348.5q-19 -211 102.5 -348t327.5 -137zM961 1602q-74 0 -118 44.5t-38 114.5q7 70 58.5 115t125.5 45q75 0 118.5 -44.5t37.5 -115.5q-6 -70 -57.5 -114.5t-126.5 -44.5z" />
    <glyph glyph-name="gdotaccent" unicode="&#x121;" horiz-adv-x="1370" 
d="M621 238q120 0 204.5 80.5t96.5 205.5q11 128 -59.5 211.5t-190.5 83.5t-204 -83.5t-95 -211.5q-11 -125 59.5 -205.5t188.5 -80.5zM571 -268q119 0 200 77t93 211l10 125q-143 -159 -358 -159q-218 0 -345.5 150.5t-107.5 387.5q23 247 177.5 405t371.5 158t332 -163
l10 125h308l-91 -1037q-14 -160 -96 -279.5t-214 -182t-298 -62.5q-215 0 -359.5 118t-152.5 300l279 31q12 -89 80.5 -147t160.5 -58zM700 1214q-73 0 -117 47t-38 119q6 71 58.5 117.5t125.5 46.5q74 0 117.5 -47t36.5 -117q-6 -72 -58 -119t-125 -47z" />
    <glyph glyph-name="Gcommaaccent" unicode="&#x122;" horiz-adv-x="1777" 
d="M868 244q177 0 309.5 105.5t151.5 260.5h-448l18 217h782q1 -189 -62.5 -352t-174.5 -278.5t-269 -181.5t-341 -66q-232 0 -407.5 100t-263 278t-67.5 402q19 224 138 402t312 278t425 100q263 0 448 -145t213 -371l-323 -55q-23 120 -126.5 198t-238.5 78
q-201 0 -343 -136.5t-161 -348.5q-19 -211 102 -348t326 -137zM788 -438q-55 0 -85 38.5t-25 100.5q6 65 47 104t104 39q72 0 112 -50t34 -132q-9 -98 -65 -196t-134 -150l-112 45q50 38 84.5 94.5t39.5 106.5z" />
    <glyph glyph-name="gcommaaccent" unicode="&#x123;" horiz-adv-x="1370" 
d="M614 238q120 0 204 80.5t95 205.5q12 128 -57.5 211.5t-189.5 83.5t-204 -83.5t-95 -211.5q-12 -125 57.5 -205.5t189.5 -80.5zM565 -268q119 0 200 77t93 211l10 125q-143 -159 -360 -159q-216 0 -343.5 150.5t-107.5 387.5q22 247 177 405t372 158t332 -163l10 125h307
l-90 -1037q-14 -160 -96 -279.5t-214 -182t-298 -62.5q-215 0 -359.5 118t-152.5 300l279 31q10 -89 78.5 -147t162.5 -58zM733 1446q55 0 86.5 -39.5t26.5 -101.5q-6 -63 -47.5 -102.5t-104.5 -39.5q-72 0 -112 50.5t-33 132.5q9 98 64 195t132 151l115 -45
q-51 -40 -86.5 -97t-40.5 -104z" />
    <glyph glyph-name="Itilde" unicode="&#x128;" horiz-adv-x="684" 
d="M80 0l129 1458h344l-127 -1458h-346zM137 1671l-137 86q38 80 115 132.5t164 52.5q49 0 93 -17.5t71 -38t59 -38t59 -17.5q36 0 69.5 24t55.5 64l139 -86q-36 -79 -116 -131.5t-172 -52.5q-52 0 -97 17t-70.5 38t-55.5 38t-56 17q-63 0 -121 -88z" />
    <glyph glyph-name="itilde" unicode="&#x129;" horiz-adv-x="600" 
d="M63 0l93 1049h307l-90 -1049h-310zM78 1221l-139 73q37 79 115.5 132t164.5 53q48 0 92 -17.5t71 -38t60 -38t62 -17.5q72 0 121 76l139 -74q-36 -79 -116.5 -131.5t-172.5 -52.5q-52 0 -97 17t-71 38t-57.5 38t-59.5 17q-64 0 -112 -75z" />
    <glyph glyph-name="Imacron" unicode="&#x12a;" horiz-adv-x="659" 
d="M205 1458h344l-127 -1458h-346zM756 1839l-17 -184h-692l16 184h693z" />
    <glyph glyph-name="imacron" unicode="&#x12b;" horiz-adv-x="585" 
d="M170 1049h307l-92 -1049h-307zM700 1409l-16 -184h-692l16 184h692z" />
    <glyph glyph-name="Iogonek" unicode="&#x12e;" horiz-adv-x="698" 
d="M240 0h-140l129 1458h344l-127 -1458h-8q-220 -65 -233 -197q-7 -96 71 -155t213 -62l-14 -157q-212 0 -337 92.5t-113 240.5q7 79 63.5 140.5t151.5 97.5z" />
    <glyph glyph-name="iogonek" unicode="&#x12f;" horiz-adv-x="614" 
d="M188 0h-102l92 1049h307l-92 -1049h-6q-222 -66 -235 -197q-7 -96 71 -155t213 -64l-14 -157q-213 0 -338 93t-113 240q7 79 64 142t153 98zM344 1188q-78 0 -124 49t-40 125q6 75 61 123.5t132 48.5q78 0 124 -48.5t40 -123.5q-6 -76 -60.5 -125t-132.5 -49z" />
    <glyph glyph-name="Idotaccent" unicode="&#x130;" horiz-adv-x="673" 
d="M209 1458h344l-127 -1458h-346zM393 1602q-75 0 -118 44t-37 115q7 70 58.5 115t125.5 45q75 0 118.5 -44.5t37.5 -115.5q-8 -71 -59 -115t-126 -44z" />
    <glyph glyph-name="dotlessi" unicode="&#x131;" horiz-adv-x="573" 
d="M178 1049h307l-90 -1049h-309z" />
    <glyph glyph-name="IJ" unicode="&#x132;" horiz-adv-x="1613" 
d="M229 1458h344l-127 -1458h-346zM1083 494l86 964h344l-88 -999q-19 -221 -169.5 -360.5t-364.5 -139.5q-161 0 -289 41l23 264q103 -28 194 -28q108 0 181.5 71t82.5 187z" />
    <glyph glyph-name="ij" unicode="&#x133;" horiz-adv-x="1183" 
d="M182 1049h307l-90 -1049h-309zM647 -66l98 1115h308l-101 -1155q-15 -166 -120.5 -267.5t-262.5 -101.5q-128 0 -225 33l23 243q46 -14 122 -14q66 0 109 40.5t49 106.5zM348 1188q-78 0 -124 49t-40 125q8 75 62.5 123.5t132.5 48.5t123.5 -48.5t38.5 -123.5
q-6 -76 -60.5 -125t-132.5 -49zM909 1188q-77 0 -122.5 49t-38.5 125q6 75 60.5 123.5t131.5 48.5q78 0 124 -48.5t40 -123.5q-6 -76 -61.5 -125t-133.5 -49z" />
    <glyph glyph-name="Kcommaaccent" unicode="&#x136;" horiz-adv-x="1447" 
d="M100 0l129 1458h344l-51 -581l537 581h416l-656 -688l541 -770h-418l-438 653l-58 -653h-346zM629 -434q-55 0 -86 38.5t-25 100.5q4 64 46.5 102.5t105.5 38.5q71 0 110.5 -50.5t32.5 -131.5q-7 -96 -63.5 -193.5t-133.5 -152.5l-114 47q51 38 86.5 94.5t40.5 106.5z
" />
    <glyph glyph-name="kcommaaccent" unicode="&#x137;" horiz-adv-x="1206" 
d="M66 0l133 1520h309l-76 -858l389 387h371l-496 -492l418 -557h-373l-327 451l-39 -451h-309zM498 -426q-55 0 -86.5 39t-26.5 100q6 65 47.5 104.5t104.5 39.5q72 0 112 -50.5t33 -132.5q-9 -98 -64.5 -195.5t-132.5 -150.5l-114 45q51 40 87 96t40 105z" />
    <glyph glyph-name="Lacute" unicode="&#x139;" horiz-adv-x="1193" 
d="M1036 0h-954l127 1458h344l-100 -1163h610zM512 1913h297l-303 -311h-254z" />
    <glyph glyph-name="lacute" unicode="&#x13a;" horiz-adv-x="802" 
d="M180 1520h309l-133 -1520h-307zM461 1933h297l-305 -329h-250z" />
    <glyph glyph-name="Lcommaaccent" unicode="&#x13b;" horiz-adv-x="1193" 
d="M1057 0h-957l129 1458h344l-102 -1163h610zM522 -434q-55 0 -85.5 38.5t-24.5 100.5q4 64 46 102.5t105 38.5q71 0 111 -50.5t33 -131.5q-7 -96 -63.5 -193.5t-133.5 -152.5l-115 47q51 38 86.5 94.5t40.5 106.5z" />
    <glyph glyph-name="lcommaaccent" unicode="&#x13c;" horiz-adv-x="585" 
d="M199 1520h309l-133 -1520h-309zM162 -436q-55 0 -86 39.5t-25 99.5q6 65 47.5 104t104.5 39q72 0 111.5 -50t31.5 -132q-8 -98 -63 -196t-133 -150l-113 45q50 40 85.5 96t39.5 105z" />
    <glyph glyph-name="Lcaron" unicode="&#x13d;" horiz-adv-x="1200" 
d="M1053 0h-955l127 1458h346l-102 -1163h610zM815 1237q-55 0 -85 39t-25 100q6 65 47 104.5t104 39.5q72 0 111.5 -50.5t33.5 -132.5q-9 -98 -64.5 -195t-133.5 -151l-113 45q52 40 87 96t38 105z" />
    <glyph glyph-name="lcaron" unicode="&#x13e;" horiz-adv-x="872" 
d="M66 0l133 1520h309l-133 -1520h-309zM725 1225q-56 0 -87 39.5t-26 101.5q6 64 47.5 102.5t104.5 38.5q72 0 112 -50t33 -132q-9 -97 -64.5 -194.5t-131.5 -151.5l-115 47q51 38 86.5 94.5t40.5 104.5z" />
    <glyph glyph-name="Lslash" unicode="&#x141;" horiz-adv-x="1064" 
d="M23 578l229 137l65 743h345l-46 -522l603 367l-23 -265l-604 -364l-33 -379h610l-26 -295h-955l41 453l-229 -140z" />
    <glyph glyph-name="lslash" unicode="&#x142;" horiz-adv-x="974" 
d="M938 934l-297 -180l-68 -754h-307l49 557l-297 -180l25 264l295 180l61 699h308l-43 -502l297 180z" />
    <glyph glyph-name="Nacute" unicode="&#x143;" horiz-adv-x="1622" 
d="M588 1458l495 -1042l93 1042h325l-127 -1458h-379l-495 1040l-92 -1040h-326l127 1458h379zM981 1913h297l-303 -311h-254z" />
    <glyph glyph-name="nacute" unicode="&#x144;" 
d="M158 1049h299l-13 -142q63 85 156 134t195 49q176 0 274.5 -122.5t81.5 -312.5l-57 -655h-308l54 602q8 97 -39.5 157t-136.5 60q-91 0 -161 -65.5t-77 -163.5l-51 -590h-309zM858 1524h291l-328 -353h-239z" />
    <glyph glyph-name="Ncommaaccent" unicode="&#x145;" horiz-adv-x="1622" 
d="M608 1458l496 -1042l90 1042h328l-127 -1458h-379l-498 1040l-90 -1040h-328l129 1458h379zM690 -438q-55 0 -85.5 39.5t-24.5 101.5q6 64 47 102.5t104 38.5q72 0 111.5 -50t31.5 -132q-8 -97 -63 -194.5t-133 -151.5l-115 47q51 38 86.5 94.5t40.5 104.5z" />
    <glyph glyph-name="ncommaaccent" unicode="&#x146;" 
d="M176 1049h299l-12 -142q64 86 156 134.5t194 48.5q176 0 274.5 -122.5t81.5 -312.5l-57 -655h-307l53 602q8 97 -39 157t-137 60q-91 0 -160 -65.5t-78 -163.5l-51 -590h-307zM543 -438q-55 0 -86 39.5t-25 101.5q4 64 45.5 102.5t106.5 38.5q71 0 110.5 -50.5
t32.5 -131.5q-7 -96 -63.5 -193.5t-133.5 -152.5l-114 45q51 40 86.5 97t40.5 104z" />
    <glyph glyph-name="Ncaron" unicode="&#x147;" horiz-adv-x="1622" 
d="M588 1458l493 -1042l93 1042h325l-127 -1458h-379l-495 1040l-92 -1040h-326l127 1458h381zM1049 1954h227l-256 -352h-303l-195 352h226l131 -223z" />
    <glyph glyph-name="ncaron" unicode="&#x148;" 
d="M158 1049h299l-13 -142q63 85 156 134t195 49q176 0 274.5 -122.5t81.5 -312.5l-57 -655h-308l54 602q8 97 -39.5 157t-136.5 60q-92 0 -161.5 -65.5t-76.5 -163.5l-51 -590h-309zM903 1524h227l-256 -353h-305l-192 353h225l131 -224z" />
    <glyph glyph-name="Omacron" unicode="&#x14c;" horiz-adv-x="1810" 
d="M819 -51q-236 0 -411 98t-260.5 275.5t-65.5 406.5q19 228 136 405.5t309.5 276t428.5 98.5q237 0 412.5 -98.5t261.5 -276t66 -405.5q-31 -347 -274.5 -563.5t-602.5 -216.5zM930 1214q-204 0 -344.5 -135.5t-159.5 -349.5q-19 -213 98.5 -348t321.5 -137
q204 0 345 135.5t161 349.5q19 214 -99.5 349.5t-322.5 135.5zM1331 1839l-14 -184h-694l16 184h692z" />
    <glyph glyph-name="omacron" unicode="&#x14d;" horiz-adv-x="1335" 
d="M702 1090q258 0 406.5 -157t126.5 -409q-15 -165 -100 -294t-224 -200t-309 -71t-296 71t-188 200t-48 294q23 252 198 409t434 157zM627 229q120 0 204.5 83t94.5 212q12 129 -58 212t-190 83q-121 0 -204.5 -83t-94.5 -212q-12 -129 57.5 -212t190.5 -83zM1075 1409
l-14 -184h-694l16 184h692z" />
    <glyph glyph-name="Obreve" unicode="&#x14e;" horiz-adv-x="1810" 
d="M928 1214q-204 0 -345.5 -135.5t-160.5 -349.5q-19 -213 98.5 -348t321.5 -137q204 0 345.5 135.5t160.5 349.5t-98.5 349.5t-321.5 135.5zM817 -51q-177 0 -322.5 57t-242 159t-143 247.5t-31.5 316.5q20 228 137 405.5t309 276t428 98.5q237 0 412.5 -98.5t261.5 -276
t66 -405.5q-19 -229 -136.5 -406.5t-310 -275.5t-428.5 -98zM1102 1913h192q-11 -140 -99 -225.5t-232 -85.5q-146 0 -219.5 85.5t-61.5 225.5h195q-6 -62 21.5 -101.5t78.5 -39.5t85.5 39.5t39.5 101.5z" />
    <glyph glyph-name="obreve" unicode="&#x14f;" horiz-adv-x="1335" 
d="M621 229q121 0 205.5 83t95.5 212t-58.5 212t-189.5 83q-121 0 -205.5 -83t-95.5 -212t58.5 -212t189.5 -83zM696 1090q258 0 406.5 -157t126.5 -409q-22 -250 -197.5 -407.5t-433.5 -157.5q-259 0 -406.5 157t-125.5 408q22 252 197 409t433 157zM846 1524h196
q-13 -159 -96.5 -256t-240.5 -97t-224 97.5t-53 255.5h195q-7 -79 19.5 -130t76.5 -51t85.5 51t41.5 130z" />
    <glyph glyph-name="Ohungarumlaut" unicode="&#x150;" horiz-adv-x="1810" 
d="M817 -51q-177 0 -322.5 57t-242 159t-143 247.5t-31.5 316.5q20 228 137 405.5t309 276t428 98.5q237 0 412.5 -98.5t261.5 -276t66 -405.5q-19 -229 -136.5 -406.5t-310 -275.5t-428.5 -98zM928 1214q-204 0 -345.5 -135.5t-160.5 -349.5q-19 -213 98.5 -348t321.5 -137
q204 0 345.5 135.5t160.5 349.5t-98.5 349.5t-321.5 135.5zM883 1913h274l-283 -311h-223zM1280 1913h274l-307 -311h-223z" />
    <glyph glyph-name="ohungarumlaut" unicode="&#x151;" horiz-adv-x="1333" 
d="M618 229q122 0 207 83t95 212q11 129 -58.5 212t-189.5 83q-121 0 -205.5 -83t-95.5 -212t58 -212t189 -83zM694 1090q258 0 406.5 -157t126.5 -409q-22 -250 -197.5 -407.5t-433.5 -157.5q-260 0 -408 157.5t-125 407.5q22 252 197 409t434 157zM391 1171l246 369h285
l-310 -369h-221zM758 1171l278 369h291l-342 -369h-227z" />
    <glyph glyph-name="OE" unicode="&#x152;" horiz-adv-x="2168" 
d="M1063 307l74 842q-75 53 -209 53q-195 0 -332 -132t-156 -341q-19 -208 93 -340.5t301 -132.5q142 0 229 51zM96 729q19 228 127 402t289 270t410 96q138 0 245 -39h947l-25 -276h-614l-27 -320h532l-22 -244h-533l-28 -342h635l-25 -276h-965q-119 -39 -256 -39
q-229 0 -393 96t-240.5 270t-56.5 402z" />
    <glyph glyph-name="oe" unicode="&#x153;" horiz-adv-x="2172" 
d="M641 229q120 0 204.5 83t94.5 212q12 129 -58 212t-190 83q-121 0 -205 -83t-96 -212q-11 -129 59 -212t191 -83zM1268 623h514q-5 101 -71 166t-169 65q-100 0 -173 -62.5t-101 -168.5zM1065 156q-77 -94 -191 -145.5t-258 -51.5q-259 0 -406.5 157t-125.5 408
q22 252 197.5 409t433.5 157q286 0 413 -195q162 195 451 195q246 0 388 -156.5t120 -405.5q-4 -48 -12 -90h-822q9 -111 74.5 -177t167.5 -66q86 0 157.5 43.5t102.5 113.5l262 -49q-37 -99 -118.5 -177.5t-192 -122.5t-229.5 -44q-142 0 -246.5 51.5t-165.5 145.5z" />
    <glyph glyph-name="Racute" unicode="&#x154;" horiz-adv-x="1576" 
d="M838 1198h-308l-38 -457h305q123 0 210.5 63t96.5 163q9 108 -66 169.5t-200 61.5zM469 500l-43 -500h-344l127 1458h709q254 0 401 -136.5t127 -354.5q-12 -147 -109.5 -261.5t-246.5 -160.5l305 -545h-385l-242 500h-299zM692 1602l262 311h297l-303 -311h-256z" />
    <glyph glyph-name="racute" unicode="&#x155;" horiz-adv-x="923" 
d="M158 1049h295l-11 -134q54 80 131.5 126t163.5 46q60 0 123 -26l-22 -273q-84 37 -170 37q-99 0 -167 -74.5t-79 -193.5l-47 -557h-309zM653 1524h291l-326 -353h-241z" />
    <glyph glyph-name="Rcommaaccent" unicode="&#x156;" horiz-adv-x="1576" 
d="M858 1198h-307l-41 -457h307q123 0 210.5 63t94.5 163q10 107 -64.5 169t-199.5 62zM489 500l-43 -500h-346l129 1458h707q255 0 402.5 -136.5t127.5 -354.5q-12 -147 -109.5 -261.5t-246.5 -160.5l305 -545h-385l-242 500h-299zM674 -438q-55 0 -86 39.5t-25 101.5
q6 64 47.5 102.5t104.5 38.5q72 0 111.5 -50t31.5 -132q-8 -97 -63 -194.5t-133 -151.5l-113 47q49 38 84.5 95t40.5 104z" />
    <glyph glyph-name="rcommaaccent" unicode="&#x157;" horiz-adv-x="876" 
d="M86 0l90 1049h297l-12 -134q53 79 132 125.5t165 46.5q56 0 123 -26l-25 -273q-84 37 -170 37q-100 0 -167.5 -74.5t-76.5 -193.5l-49 -557h-307zM186 -438q-55 0 -85.5 39.5t-24.5 101.5q6 64 47 102.5t104 38.5q71 0 111 -50.5t33 -131.5q-7 -97 -63 -194.5
t-134 -151.5l-115 45q51 40 86.5 97t40.5 104z" />
    <glyph glyph-name="Rcaron" unicode="&#x158;" horiz-adv-x="1576" 
d="M836 1198h-308l-39 -457h308q122 0 209 63t96 163q9 108 -65.5 169.5t-200.5 61.5zM467 500l-43 -500h-344l127 1458h708q254 0 402 -136.5t129 -354.5q-13 -147 -111.5 -261.5t-247.5 -160.5l306 -545h-383l-244 500h-299zM852 1731l170 223h227l-258 -352h-303
l-192 352h225z" />
    <glyph glyph-name="rcaron" unicode="&#x159;" horiz-adv-x="878" 
d="M158 1049h295l-11 -134q54 80 131.5 126t163.5 46q60 0 123 -26l-22 -273q-84 37 -170 37q-99 0 -167 -74.5t-79 -193.5l-47 -557h-309zM698 1524h228l-256 -353h-303l-193 353h225l131 -224z" />
    <glyph glyph-name="Sacute" unicode="&#x15a;" horiz-adv-x="1466" 
d="M1315 455q-19 -225 -202 -365.5t-460 -140.5q-278 0 -445 150t-147 380h312q-10 -118 77.5 -194t235.5 -76q124 0 202.5 56t86.5 145q3 29 -5.5 52t-21 39.5t-39.5 30t-48.5 21t-63.5 15.5t-67.5 12t-76.5 10q-54 7 -94.5 13.5t-90 17.5t-86.5 23.5t-76.5 31.5
t-67.5 41.5t-53 54t-39 68.5t-20 84.5t-1 103.5q19 214 196 347.5t441 133.5q131 0 241 -38t185 -104.5t112.5 -160.5t28.5 -202h-299q10 107 -70 176t-212 69q-120 0 -198.5 -51t-86.5 -131q-2 -22 2 -41.5t11 -34t23.5 -27t29.5 -21.5t39.5 -17t44 -13t51.5 -11t54 -9
t60 -8q69 -8 120 -16.5t113 -24.5t106 -36.5t87 -53t67.5 -73t37 -98.5t6.5 -128zM893 1913h297l-303 -311h-256z" />
    <glyph glyph-name="sacute" unicode="&#x15b;" horiz-adv-x="1177" 
d="M1044 332q-14 -165 -161.5 -271t-366.5 -106q-212 0 -338.5 111.5t-111.5 283.5h260q-6 -78 54.5 -128t160.5 -50q84 0 141.5 35t62.5 88q2 26 -10 46t-32.5 32.5t-53.5 22.5t-64.5 15t-72.5 9q-59 7 -97.5 13.5t-87 18t-79 26t-62 38.5t-47.5 54.5t-24.5 73.5t-3.5 97
q9 101 75 182t172.5 126t233.5 45q211 0 338.5 -102.5t113.5 -260.5h-270q4 64 -53 105t-150 41q-72 0 -125 -33.5t-57 -85.5q-2 -25 11.5 -43.5t44 -31t62.5 -19.5t83 -15q44 -6 72.5 -10.5t71.5 -13t72 -17t66 -22.5t61 -30t48.5 -39t38 -49.5t20.5 -61t4 -74.5zM741 1524
h291l-327 -353h-240z" />
    <glyph glyph-name="Scircumflex" unicode="&#x15c;" horiz-adv-x="1466" 
d="M1315 455q-19 -225 -202 -365.5t-460 -140.5q-278 0 -445 150t-147 380h312q-10 -118 77.5 -194t235.5 -76q124 0 202.5 56t86.5 145q3 29 -5.5 52t-21 39.5t-39.5 30t-48.5 21t-63.5 15.5t-67.5 12t-76.5 10q-54 7 -94.5 13.5t-90 17.5t-86.5 23.5t-76.5 31.5
t-67.5 41.5t-53 54t-39 68.5t-20 84.5t-1 103.5q19 214 196 347.5t441 133.5q131 0 241 -38t185 -104.5t112.5 -160.5t28.5 -202h-299q10 107 -70 176t-212 69q-120 0 -198.5 -51t-86.5 -131q-2 -22 2 -41.5t11 -34t23.5 -27t29.5 -21.5t39.5 -17t44 -13t51.5 -11t54 -9
t60 -8q69 -8 120 -16.5t113 -24.5t106 -36.5t87 -53t67.5 -73t37 -98.5t6.5 -128zM631 1602h-225l249 311h306l194 -311h-225l-133 184z" />
    <glyph glyph-name="scircumflex" unicode="&#x15d;" horiz-adv-x="1177" 
d="M1044 332q-14 -165 -161.5 -271t-366.5 -106q-212 0 -338.5 111.5t-111.5 283.5h260q-6 -78 54.5 -128t160.5 -50q84 0 141.5 35t62.5 88q2 26 -10 46t-32.5 32.5t-53.5 22.5t-64.5 15t-72.5 9q-59 7 -97.5 13.5t-87 18t-79 26t-62 38.5t-47.5 54.5t-24.5 73.5t-3.5 97
q9 101 75 182t172.5 126t233.5 45q211 0 338.5 -102.5t113.5 -260.5h-270q4 64 -53 105t-150 41q-72 0 -125 -33.5t-57 -85.5q-2 -25 11.5 -43.5t44 -31t62.5 -19.5t83 -15q44 -6 72.5 -10.5t71.5 -13t72 -17t66 -22.5t61 -30t48.5 -39t38 -49.5t20.5 -61t4 -74.5zM457 1171
h-226l256 353h304l194 -353h-227l-131 224z" />
    <glyph glyph-name="Scedilla" unicode="&#x15e;" horiz-adv-x="1466" 
d="M596 -233h-94l47 190q-227 32 -357.5 175.5t-111.5 346.5h309q-9 -119 79.5 -194.5t236.5 -75.5q124 0 202 56t86 145q3 29 -5.5 52t-21 39.5t-40 30t-48.5 21t-63 15.5t-67.5 11.5t-75.5 10.5q-54 7 -94.5 13.5t-90 17.5t-86.5 23.5t-77 31.5t-68 41.5t-53.5 54
t-39.5 68.5t-20.5 84.5t-1.5 103.5q19 214 197 347.5t442 133.5q175 0 309 -64.5t202.5 -180t56.5 -260.5h-299q9 107 -71 176t-212 69q-121 0 -200 -51t-85 -131q-2 -22 2.5 -41.5t11 -34t23 -27t29.5 -21.5t39.5 -17t44 -13t52.5 -11t54.5 -8.5t59.5 -8.5q69 -8 120 -16.5
t112.5 -24.5t105.5 -36.5t86.5 -53t67.5 -73t37.5 -98.5t6.5 -128q-19 -217 -190.5 -356.5t-433.5 -149.5l-25 -99q97 0 151.5 -54.5t47.5 -145.5t-81.5 -147t-187.5 -56q-82 0 -141 40.5t-74 106.5l105 60q11 -37 40 -60.5t66 -23.5q43 0 71.5 26t31.5 68q5 46 -27.5 74.5
t-89.5 28.5z" />
    <glyph glyph-name="scedilla" unicode="&#x15f;" horiz-adv-x="1177" 
d="M512 -233h-94l49 192q-184 19 -290 126.5t-93 264.5h260q-6 -78 54.5 -128t160.5 -50q84 0 142 35t63 88q3 32 -14.5 55t-53.5 36.5t-74.5 21t-91.5 12.5q-59 7 -97.5 13.5t-87 18t-79 26t-62 38.5t-47.5 54.5t-24.5 73.5t-3.5 97q9 101 75 182t172.5 126t233.5 45
q211 0 338.5 -102.5t114.5 -260.5h-270q4 64 -53 105t-150 41q-72 0 -125 -33.5t-57 -85.5q-4 -48 46.5 -70.5t155.5 -38.5q44 -6 72 -10.5t71.5 -13t72 -17t65.5 -22.5t61 -30t48.5 -39t38 -49.5t20.5 -61t4 -74.5q-12 -146 -131.5 -248t-304.5 -125l-27 -109
q98 0 153 -54.5t46 -145.5q-7 -91 -81.5 -147t-187.5 -56q-82 0 -141 40.5t-72 106.5l103 60q12 -37 41.5 -60.5t64.5 -23.5q43 0 72 25.5t33 68.5q3 46 -29.5 74.5t-89.5 28.5z" />
    <glyph glyph-name="Scaron" unicode="&#x160;" horiz-adv-x="1466" 
d="M1313 455q-19 -225 -202 -365.5t-460 -140.5q-183 0 -322.5 68t-210.5 189t-59 273h312q-10 -118 77.5 -194t235.5 -76q126 0 204.5 56t86.5 145q2 33 -7 59t-34 44t-48.5 29.5t-70 21t-76 14t-88.5 12.5q-54 7 -94.5 13.5t-90 17.5t-86.5 23.5t-76.5 31.5t-67.5 41.5
t-53 54t-39 68.5t-20 84.5t-1 103.5q19 214 196 347.5t441 133.5q266 0 426.5 -143t140.5 -362h-297q9 107 -72 176t-213 69q-120 0 -198 -51t-86 -131q-2 -22 2 -41.5t11 -34t23.5 -27t29.5 -21.5t39.5 -17t44 -13t51.5 -11t54 -9t60 -8q69 -8 120 -16.5t113 -24.5
t106 -36.5t87 -53t67.5 -73t37 -98.5t6.5 -128zM958 1954h228l-256 -352h-303l-193 352h225l132 -223z" />
    <glyph glyph-name="scaron" unicode="&#x161;" horiz-adv-x="1177" 
d="M1044 332q-14 -165 -161.5 -271t-366.5 -106q-212 0 -338.5 111.5t-111.5 283.5h260q-6 -78 54.5 -128t160.5 -50q84 0 141.5 35t62.5 88q2 26 -10 46t-32.5 32.5t-53.5 22.5t-64.5 15t-72.5 9q-59 7 -97.5 13.5t-87 18t-79 26t-62 38.5t-47.5 54.5t-24.5 73.5t-3.5 97
q9 101 75 182t172.5 126t233.5 45q211 0 338.5 -102.5t113.5 -260.5h-270q4 64 -53 105t-150 41q-72 0 -125 -33.5t-57 -85.5q-2 -25 11.5 -43.5t44 -31t62.5 -19.5t83 -15q44 -6 72.5 -10.5t71.5 -13t72 -17t66 -22.5t61 -30t48.5 -39t38 -49.5t20.5 -61t4 -74.5zM768 1524
h227l-256 -353h-303l-192 353h225l131 -224z" />
    <glyph glyph-name="Tcommaaccent" unicode="&#x162;" horiz-adv-x="1288" 
d="M408 0l102 1171h-438l26 287h1219l-25 -287h-438l-102 -1171h-344zM520 -436q-55 0 -85.5 38.5t-24.5 100.5q5 65 46 104t105 39q71 0 111 -50.5t33 -133.5q-7 -96 -63.5 -193.5t-133.5 -152.5l-115 47q51 38 86.5 94.5t40.5 106.5z" />
    <glyph glyph-name="tcommaaccent" unicode="&#x163;" horiz-adv-x="854" 
d="M184 340l43 475h-147l20 234h162l57 264h259l-23 -264h238l-21 -234h-237l-39 -444q-6 -66 28 -107t97 -41q47 0 110 17l-22 -248q-104 -33 -213 -33q-155 0 -240.5 106t-71.5 275zM393 -438q-56 0 -86.5 39t-25.5 102q6 64 47 102.5t104 38.5q72 0 112.5 -50.5
t33.5 -131.5q-9 -97 -64.5 -194.5t-132.5 -151.5l-115 45q51 40 86.5 97t40.5 104z" />
    <glyph glyph-name="Tcaron" unicode="&#x164;" horiz-adv-x="1288" 
d="M385 0l102 1171h-436l25 287h1220l-24 -287h-438l-103 -1171h-346zM879 1954h227l-256 -352h-303l-195 352h226l131 -223z" />
    <glyph glyph-name="tcaron" unicode="&#x165;" horiz-adv-x="911" 
d="M170 340l43 475h-147l20 234h162l55 264h260l-22 -264h237l-20 -234h-238l-39 -444q-6 -67 27.5 -107.5t97.5 -40.5q48 0 111 17l-23 -248q-104 -33 -213 -33q-155 0 -240 106t-71 275zM748 1366q-55 0 -86.5 39t-26.5 100q6 65 47 104.5t104 39.5q72 0 112.5 -50.5
t33.5 -132.5q-9 -98 -64.5 -195t-132.5 -151l-114 45q51 40 87 96t40 105z" />
    <glyph glyph-name="Utilde" unicode="&#x168;" horiz-adv-x="1607" 
d="M1081 612l74 846h344l-74 -854q-17 -191 -112.5 -340.5t-251.5 -232t-346 -82.5q-290 0 -456 182.5t-140 472.5l74 854h344l-74 -846q-8 -96 20.5 -178t95.5 -135t162 -55q136 0 231 103t109 265zM604 1671l-137 86q36 80 113 132.5t163 52.5q50 0 94.5 -17.5t71 -38
t59 -38t60.5 -17.5q35 0 68 24t57 64l139 -86q-38 -80 -117 -132t-171 -52q-52 0 -97 17t-70.5 38t-55.5 38t-56 17q-66 0 -121 -88z" />
    <glyph glyph-name="utilde" unicode="&#x169;" 
d="M1167 1049l-92 -1049h-299l12 143q-63 -86 -155 -135t-193 -49q-177 0 -276 122t-82 312l57 656h307l-51 -603q-9 -97 38 -157t136 -60q92 0 161.5 65.5t78.5 164.5l51 590h307zM422 1221l-139 73q36 79 114 132t164 53q48 0 92 -17.5t71 -39t60 -39t62 -17.5
q35 0 67.5 21.5t53.5 56.5l141 -76q-38 -79 -118 -131.5t-171 -52.5q-43 0 -80 11.5t-62.5 27.5t-48 32t-46.5 27.5t-47 11.5q-67 0 -113 -73z" />
    <glyph glyph-name="Umacron" unicode="&#x16a;" horiz-adv-x="1607" 
d="M1085 612l74 846h344l-73 -854q-25 -290 -223.5 -472.5t-487.5 -182.5t-455.5 182.5t-140.5 472.5l74 854h346l-74 -846q-13 -149 61 -257t215 -111q137 0 231.5 103t108.5 265zM1231 1839l-17 -184h-692l17 184h692z" />
    <glyph glyph-name="umacron" unicode="&#x16b;" 
d="M1079 0h-299l13 143q-63 -87 -156 -135.5t-195 -48.5q-176 0 -274.5 122t-81.5 312l57 656h308l-54 -603q-8 -97 39 -157t137 -60t159.5 65.5t78.5 164.5l51 590h307zM1034 1409l-16 -186h-692l14 186h694z" />
    <glyph glyph-name="Ubreve" unicode="&#x16c;" horiz-adv-x="1607" 
d="M1081 612l76 846h344l-76 -854q-25 -290 -222 -472.5t-486 -182.5q-290 0 -456.5 182.5t-141.5 472.5l76 854h344l-74 -846q-13 -149 61.5 -257t214.5 -111q137 0 231.5 103t108.5 265zM1001 1913h193q-12 -141 -100.5 -226t-233.5 -85q-144 0 -217.5 85.5t-62.5 225.5
h194q-5 -62 23.5 -101.5t79.5 -39.5q49 0 83.5 39.5t40.5 101.5z" />
    <glyph glyph-name="ubreve" unicode="&#x16d;" 
d="M1165 1049l-92 -1049h-299l12 143q-63 -87 -154.5 -135.5t-193.5 -48.5q-177 0 -276 122t-82 312l57 656h307l-51 -603q-9 -97 38 -157t136 -60q92 0 161.5 65.5t78.5 164.5l51 590h307zM805 1524h194q-6 -77 -28.5 -139.5t-62.5 -111t-102.5 -75.5t-143.5 -27t-139 27
t-89.5 75.5t-43.5 111t-5 139.5h195q-6 -82 20.5 -132.5t75.5 -50.5q51 0 86 50.5t43 132.5z" />
    <glyph glyph-name="Uring" unicode="&#x16e;" horiz-adv-x="1607" 
d="M885 1966q-54 0 -90 -32.5t-39 -86.5q-5 -53 24.5 -85.5t81.5 -32.5q53 0 89 33t40 85q4 54 -24.5 86.5t-81.5 32.5zM1073 612l74 846h346l-76 -854q-25 -290 -223 -472.5t-487 -182.5q-190 0 -331.5 82.5t-211 232t-53.5 340.5l73 854h346l-73 -846q-13 -149 61 -257
t215 -111q137 0 231.5 103t108.5 265zM850 1581q-129 0 -203.5 74t-64.5 192q10 120 97 193.5t218 73.5q129 0 202.5 -73.5t63.5 -193.5q-11 -119 -97 -192.5t-216 -73.5z" />
    <glyph glyph-name="uring" unicode="&#x16f;" 
d="M686 1536q-52 0 -88 -33t-41 -86t25 -86t84 -33q52 0 88 33t41 86q4 52 -26 85.5t-83 33.5zM1159 1049l-92 -1049h-299l12 143q-63 -87 -155.5 -135.5t-194.5 -48.5q-176 0 -274.5 122t-81.5 312l57 656h307l-53 -603q-8 -97 39 -157t137 -60t159.5 65.5t78.5 164.5
l51 590h309zM653 1149q-130 0 -204.5 74.5t-63.5 193.5t97.5 192.5t215.5 73.5q130 0 205 -73.5t64 -192.5t-98 -193.5t-216 -74.5z" />
    <glyph glyph-name="Uhungarumlaut" unicode="&#x170;" horiz-adv-x="1607" 
d="M1081 612l76 846h344l-76 -854q-25 -290 -222 -472.5t-486 -182.5q-290 0 -456.5 182.5t-141.5 472.5l76 854h344l-74 -846q-13 -149 61.5 -257t214.5 -111q137 0 231.5 103t108.5 265zM776 1913h277l-283 -311h-225zM1174 1913h274l-305 -311h-223z" />
    <glyph glyph-name="uhungarumlaut" unicode="&#x171;" horiz-adv-x="1232" 
d="M1073 0h-299l12 143q-63 -87 -155.5 -135.5t-194.5 -48.5q-176 0 -274.5 122t-81.5 312l57 656h307l-53 -603q-8 -97 39.5 -157t136.5 -60q91 0 161 66t77 164l51 590h309zM575 1540h287l-311 -371h-221zM975 1540l293 -2l-342 -367h-228z" />
    <glyph glyph-name="Uogonek" unicode="&#x172;" horiz-adv-x="1607" 
d="M684 -49q-176 11 -305.5 96t-192.5 230t-47 327l76 854h344l-74 -846q-13 -149 61.5 -257t215.5 -111q137 0 231.5 103t108.5 265l74 846h346l-76 -854q-22 -252 -177.5 -426t-391.5 -217q-128 -62 -134 -160q-9 -96 69.5 -155t213.5 -62l-12 -157q-213 0 -339 93
t-112 240q9 115 121 191z" />
    <glyph glyph-name="uogonek" unicode="&#x173;" horiz-adv-x="1349" 
d="M879 0h-82l12 143q-65 -87 -156.5 -135.5t-193.5 -48.5q-177 0 -275.5 121.5t-83.5 312.5l58 656h307l-51 -603q-9 -97 38 -157t136 -60q92 0 161 65.5t78 164.5l52 590h307l-92 -1049h-19q-214 -67 -223 -195q-9 -95 70 -154.5t215 -62.5l-15 -157q-213 0 -337.5 93
t-112.5 240q6 77 60.5 138.5t146.5 97.5z" />
    <glyph glyph-name="Wcircumflex" unicode="&#x174;" horiz-adv-x="2418" 
d="M1446 1458l188 -1175l412 1175h348l-524 -1458h-496l-157 1030l-338 -1030h-498l-268 1458h348l209 -1175l397 1175h379zM1114 1602h-223l248 311h305l194 -311h-223l-135 184z" />
    <glyph glyph-name="wcircumflex" unicode="&#x175;" horiz-adv-x="1882" 
d="M698 0h-389l-227 1049h319l150 -742l270 742h287l154 -748l278 748h309l-411 -1049h-389l-115 690zM827 1171h-225l254 353h305l195 -353h-228l-131 224z" />
    <glyph glyph-name="Ycircumflex" unicode="&#x176;" horiz-adv-x="1439" 
d="M467 0l45 508l-432 950h364l267 -647l366 647h371l-592 -950l-43 -508h-346zM627 1602h-226l250 311h303l195 -311h-223l-135 184z" />
    <glyph glyph-name="ycircumflex" unicode="&#x177;" horiz-adv-x="1245" 
d="M74 -436l20 227q55 -20 123 -20q89 0 144 55t104 164l-404 1059h336l226 -676l292 676h320l-500 -1086q-49 -107 -95 -183t-101.5 -135.5t-121.5 -88.5t-143 -29q-112 0 -200 37zM510 1171h-225l254 353h305l194 -353h-227l-131 224z" />
    <glyph glyph-name="Ydieresis" unicode="&#x178;" horiz-adv-x="1439" 
d="M467 0l45 508l-432 950h362l269 -647l366 647h369l-590 -950l-45 -508h-344zM522 1604q-70 0 -111.5 45t-35.5 114q6 70 55.5 115t118.5 45q71 0 112 -45t35 -115q-6 -69 -55 -114t-119 -45zM1030 1604q-70 0 -111.5 45t-35.5 114q6 70 55.5 115t120.5 45q69 0 110 -45
t35 -115q-6 -69 -55 -114t-119 -45z" />
    <glyph glyph-name="Zacute" unicode="&#x179;" horiz-adv-x="1372" 
d="M31 225l800 963h-696l25 270h1140l-18 -225l-788 -963h723l-23 -270h-1182zM854 1913h297l-303 -311h-254z" />
    <glyph glyph-name="zacute" unicode="&#x17a;" horiz-adv-x="1165" 
d="M45 201l588 596h-514l22 252h934l-18 -201l-565 -596h534l-22 -252h-975zM754 1524h290l-327 -353h-240z" />
    <glyph glyph-name="Zdotaccent" unicode="&#x17b;" horiz-adv-x="1372" 
d="M31 225l800 963h-696l25 270h1140l-20 -225l-786 -963h723l-23 -270h-1184zM741 1602q-74 0 -116.5 44.5t-36.5 114.5t57 115t125 45q75 0 118.5 -44.5t37.5 -115.5q-6 -70 -58 -114.5t-127 -44.5z" />
    <glyph glyph-name="zdotaccent" unicode="&#x17c;" horiz-adv-x="1165" 
d="M45 201l586 596h-514l22 252h934l-16 -201l-568 -596h535l-20 -252h-977zM623 1214q-74 0 -118 47t-38 119q6 71 58.5 117.5t125.5 46.5t116.5 -46.5t37.5 -117.5q-6 -72 -57.5 -119t-124.5 -47z" />
    <glyph glyph-name="Zcaron" unicode="&#x17d;" horiz-adv-x="1372" 
d="M29 225l800 963h-696l25 270h1140l-18 -225l-788 -963h725l-25 -270h-1182zM922 1954h227l-258 -352h-303l-193 352h226l131 -223z" />
    <glyph glyph-name="zcaron" unicode="&#x17e;" horiz-adv-x="1165" 
d="M45 201l588 596h-514l22 252h934l-18 -201l-565 -596h534l-22 -252h-975zM799 1524h227l-256 -353h-303l-193 353h226l131 -224z" />
    <glyph glyph-name="Aacutering" unicode="&#x1fa;" horiz-adv-x="1550" 
d="M782 1163l-288 -676h458zM836 1792q-34 0 -57.5 -21t-26.5 -55t16 -55t53 -21t57.5 21t26.5 55t-16 55t-53 21zM403 242l-100 -242h-362l616 1458h502l358 -1458h-360l-60 242h-594zM809 1493q-110 0 -174 62.5t-55 160.5q9 100 83.5 163t184.5 63q109 0 173 -63t56 -163
q-9 -100 -83.5 -161.5t-184.5 -61.5zM713 1970l219 230h280l-243 -230h-256z" />
    <glyph glyph-name="aacutering" unicode="&#x1fb;" horiz-adv-x="1384" 
d="M604 229q120 0 204.5 83.5t96.5 211.5q11 128 -59.5 211.5t-190.5 83.5q-119 0 -204 -84t-95 -211q-11 -128 59 -211.5t189 -83.5zM721 1446q-34 0 -57.5 -21t-26.5 -55t16.5 -56t53.5 -22t57.5 22t26.5 56t-16.5 55t-53.5 21zM940 903l12 146h308l-93 -1049h-307l14 145
q-71 -89 -167 -137.5t-205 -48.5q-223 0 -349.5 158t-103.5 407q22 249 176 407.5t375 158.5q111 0 198 -49t142 -138zM694 1145q-110 0 -174 62.5t-55 162.5t83.5 161.5t184.5 61.5q109 0 173 -62.5t57 -162.5q-9 -98 -84 -160.5t-185 -62.5zM676 1647l229 266h273
l-256 -266h-246z" />
    <glyph glyph-name="AEacute" unicode="&#x1fc;" horiz-adv-x="2041" 
d="M614 485h365l65 740zM1268 276h618l-24 -276h-926l22 242h-481l-141 -242h-383l860 1458h1157l-24 -278h-598l-29 -318h516l-20 -244h-517zM1071 1573l260 311h297l-303 -311h-254z" />
    <glyph glyph-name="aeacute" unicode="&#x1fd;" horiz-adv-x="2166" 
d="M684 844q-126 0 -212.5 -89.5t-98.5 -230.5q-12 -139 59.5 -229t194.5 -90t211 88t100 231q12 141 -59.5 230.5t-194.5 89.5zM1235 596h522q3 108 -63.5 179t-177.5 71q-103 0 -179 -67.5t-102 -182.5zM965 903l12 146h199l-15 -166q62 96 168 151.5t242 55.5
q234 0 372.5 -156.5t116.5 -396.5q-4 -71 -14 -115h-821q11 -102 81 -164.5t175 -62.5q85 0 155 43t95 110l266 -37q-47 -154 -193.5 -253t-326.5 -99q-130 0 -233.5 57.5t-145.5 149.5l-15 -166h-196l12 145q-73 -89 -171.5 -137.5t-211.5 -48.5q-221 0 -347 158t-103 407
q22 250 174.5 408t373.5 158q113 0 203.5 -49.5t147.5 -137.5zM958 1167l275 353h293l-328 -353h-240z" />
    <glyph glyph-name="Oslashacute" unicode="&#x1fe;" horiz-adv-x="1769" 
d="M907 1214q-192 0 -328 -137t-155 -348q-10 -115 23 -210t102 -159l495 830q-61 24 -137 24zM823 244q192 0 328.5 136.5t155.5 348.5q10 108 -19.5 199.5t-91.5 156.5l-489 -825q47 -16 116 -16zM541 -12l-164 -275h-217l211 355q-155 101 -233 274t-60 387
q15 168 87 313t184.5 247.5t264 161t320.5 58.5q150 0 274 -47l181 299l217 2l-230 -385q147 -103 221 -272.5t56 -376.5q-15 -168 -87 -313t-184.5 -247.5t-264 -161t-320.5 -58.5q-134 0 -256 39zM817 1581l262 311h297l-303 -311h-256z" />
    <glyph glyph-name="oslashacute" unicode="&#x1ff;" horiz-adv-x="1361" 
d="M690 868q-142 0 -241.5 -96t-112.5 -248q-15 -167 86 -262l356 594q-41 12 -88 12zM629 180q143 0 242 96t112 248q12 151 -72 248l-348 -586q30 -6 66 -6zM436 -20l-84 -144h-188l125 205q-119 71 -177.5 196t-45.5 287q22 252 200.5 409t442.5 157q94 0 194 -27l98 166
h189l-143 -234q111 -74 165 -195.5t41 -275.5q-22 -251 -200.5 -408t-442.5 -157q-81 0 -174 21zM854 1524h291l-328 -353h-239z" />
    <glyph glyph-name="Scommaaccent" unicode="&#x218;" horiz-adv-x="1466" 
d="M1333 455q-20 -225 -202.5 -365.5t-458.5 -140.5q-278 0 -445 150t-147 380h309q-9 -119 79.5 -194.5t236.5 -75.5q124 0 202 56t86 145q3 29 -5.5 52t-21 39.5t-40 30t-48.5 21t-63 15.5t-67.5 11.5t-75.5 10.5q-54 7 -94.5 13.5t-90 17.5t-86.5 23.5t-77 31.5t-68 41.5
t-53.5 54t-39.5 68.5t-20.5 84.5t-1.5 103.5q19 214 197 347.5t442 133.5q175 0 309 -64.5t202.5 -180t56.5 -260.5h-299q9 107 -71 176t-212 69q-121 0 -200 -51t-85 -131q-2 -22 2.5 -41.5t11 -34t23 -27t29.5 -21.5t39.5 -17t44 -13t52.5 -11t54.5 -8.5t59.5 -8.5
q69 -8 120 -16.5t112.5 -24.5t105.5 -36.5t86.5 -53t67.5 -73t37.5 -98.5t6.5 -128zM598 -438q-55 0 -86 39.5t-25 101.5q4 63 46.5 102t105.5 39q71 0 110.5 -50.5t32.5 -131.5q-7 -97 -63 -194t-133 -152l-115 45q51 40 86.5 97t40.5 104z" />
    <glyph glyph-name="scommaaccent" unicode="&#x219;" horiz-adv-x="1177" 
d="M1063 332q-14 -165 -161 -271t-365 -106q-212 0 -340 111.5t-113 283.5h260q-6 -78 54.5 -128t160.5 -50q84 0 142 35t63 88q3 32 -14.5 55t-53.5 36.5t-74.5 21t-91.5 12.5q-59 7 -97.5 13.5t-87 18t-79 26t-62 38.5t-47.5 54.5t-24.5 73.5t-3.5 97q9 101 75 182
t172.5 126t233.5 45q211 0 338.5 -102.5t114.5 -260.5h-270q4 64 -53 105t-150 41q-72 0 -125 -33.5t-57 -85.5q-4 -48 46.5 -70.5t155.5 -38.5q44 -6 72 -10.5t71.5 -13t72 -17t65.5 -22.5t61 -30t48.5 -39t38 -49.5t20.5 -61t4 -74.5zM469 -438q-55 0 -86 39.5t-25 101.5
q6 64 47.5 102.5t104.5 38.5q72 0 111.5 -50t31.5 -132q-8 -97 -63 -194.5t-133 -151.5l-113 45q50 40 85.5 97t39.5 104z" />
    <glyph glyph-name="circumflex" unicode="&#x2c6;" horiz-adv-x="925" 
d="M121 1167l256 353h303l194 -353h-227l-129 224l-172 -224h-225z" />
    <glyph glyph-name="caron" unicode="&#x2c7;" horiz-adv-x="925" 
d="M678 1520h227l-256 -353h-303l-194 353h225l133 -224z" />
    <glyph glyph-name="breve" unicode="&#x2d8;" horiz-adv-x="788" 
d="M571 1520h197q-15 -159 -98 -256t-240 -97t-223.5 97t-52.5 256h194q-7 -79 19.5 -130t76.5 -51t85.5 51t41.5 130z" />
    <glyph glyph-name="dotaccent" unicode="&#x2d9;" horiz-adv-x="512" 
d="M291 1147q-74 0 -117.5 47t-36.5 119q6 71 57.5 117.5t124.5 46.5q75 0 118.5 -46.5t37.5 -117.5q-6 -72 -57.5 -119t-126.5 -47z" />
    <glyph glyph-name="ring" unicode="&#x2da;" horiz-adv-x="753" 
d="M403 1110q-130 0 -204.5 73.5t-63.5 192.5q10 120 97.5 194.5t216.5 74.5q130 0 204.5 -74.5t63.5 -194.5q-10 -118 -97.5 -192t-216.5 -74zM436 1495q-53 0 -89 -32.5t-40 -86.5q-5 -53 25 -86t84 -33q52 0 88 33t41 86q4 54 -26 86.5t-83 32.5z" />
    <glyph glyph-name="ogonek" unicode="&#x2db;" horiz-adv-x="651" 
d="M356 20l127 -20q-226 -66 -239 -199q-7 -96 70.5 -155t213.5 -62l-14 -157q-213 0 -338 93t-113 240q9 95 87 163.5t206 96.5z" />
    <glyph glyph-name="tilde" unicode="&#x2dc;" horiz-adv-x="991" 
d="M272 1208l-139 74q37 79 116 131.5t165 52.5q48 0 92 -17t71 -38t59.5 -38t61.5 -17q35 0 67.5 21t53.5 55l142 -76q-38 -79 -118.5 -132t-170.5 -53q-53 0 -98 17.5t-71 38t-57 38t-59 17.5q-65 0 -115 -74z" />
    <glyph glyph-name="hungarumlaut" unicode="&#x2dd;" horiz-adv-x="1077" 
d="M367 1536h284l-309 -369h-221zM766 1536h293l-344 -369h-228z" />
    <glyph glyph-name="Wgrave" unicode="&#x1e80;" horiz-adv-x="2418" 
d="M1446 1458l188 -1175l412 1175h348l-524 -1458h-496l-157 1030l-338 -1030h-498l-268 1458h348l209 -1175l397 1175h379zM883 1913h299l204 -311h-253z" />
    <glyph glyph-name="wgrave" unicode="&#x1e81;" horiz-adv-x="1882" 
d="M698 0h-389l-227 1049h319l150 -742l270 742h287l154 -748l278 748h309l-411 -1049h-389l-115 690zM606 1524h291l215 -353h-240z" />
    <glyph glyph-name="Wacute" unicode="&#x1e82;" horiz-adv-x="2418" 
d="M1446 1458l188 -1175l412 1175h348l-524 -1458h-496l-157 1030l-338 -1030h-498l-268 1458h348l209 -1175l397 1175h379zM1376 1913h299l-305 -311h-254z" />
    <glyph glyph-name="wacute" unicode="&#x1e83;" horiz-adv-x="1882" 
d="M698 0h-389l-227 1049h319l150 -742l270 742h287l154 -748l278 748h309l-411 -1049h-389l-115 690zM1112 1524h291l-328 -353h-239z" />
    <glyph glyph-name="Wdieresis" unicode="&#x1e84;" horiz-adv-x="2418" 
d="M1446 1458l188 -1175l412 1175h348l-524 -1458h-496l-157 1030l-338 -1030h-498l-268 1458h348l209 -1175l395 1175h381zM1012 1604q-70 0 -112 45t-36 114q6 70 55.5 115t118.5 45q71 0 112.5 -45t35.5 -115q-6 -69 -55.5 -114t-118.5 -45zM1520 1604q-70 0 -112 45
t-36 114q6 70 55.5 115t118.5 45q71 0 112.5 -45t35.5 -115q-6 -69 -55 -114t-119 -45z" />
    <glyph glyph-name="wdieresis" unicode="&#x1e85;" horiz-adv-x="1882" 
d="M698 0h-389l-225 1049h319l150 -742l270 742h287l154 -748l278 748h309l-411 -1049h-389l-115 690zM713 1184q-69 0 -110.5 43t-37.5 110q6 67 55.5 110.5t118.5 43.5q71 0 112.5 -43.5t35.5 -110.5t-54.5 -110t-119.5 -43zM1245 1184q-71 0 -112 43t-35 110t55.5 110.5
t118.5 43.5q70 0 111.5 -43t35.5 -111q-6 -67 -54.5 -110t-119.5 -43z" />
    <glyph glyph-name="Germandbls" unicode="&#x1e9e;" horiz-adv-x="1529" 
d="M510 981l-86 -981h-346l86 983q22 229 200 373.5t443 144.5q245 0 386 -118t126 -306q-9 -105 -73.5 -184t-160.5 -102q140 -25 224 -141.5t71 -274.5q-17 -186 -159.5 -306t-343.5 -120q-168 0 -340 86l81 221q104 -61 201 -61q89 0 150 60t69 153q9 117 -54.5 186.5
t-195.5 69.5h-94l19 208h96q76 0 128 50t60 129q7 89 -54 145.5t-165 56.5q-110 0 -184 -74t-84 -198z" />
    <glyph glyph-name="Ygrave" unicode="&#x1ef2;" horiz-adv-x="1439" 
d="M467 0l45 508l-432 950h364l267 -647l366 647h371l-592 -950l-43 -508h-346zM393 1913h299l205 -311h-254z" />
    <glyph glyph-name="ygrave" unicode="&#x1ef3;" horiz-adv-x="1245" 
d="M74 -436l20 227q55 -20 123 -20q89 0 144 55t104 164l-404 1059h336l226 -676l292 676h320l-500 -1086q-49 -107 -95 -183t-101.5 -135.5t-121.5 -88.5t-143 -29q-112 0 -200 37zM555 1171l-266 353h291l215 -353h-240z" />
    <glyph glyph-name="endash" unicode="&#x2013;" horiz-adv-x="1339" 
d="M1286 762l-20 -252h-1168l21 252h1167z" />
    <glyph glyph-name="emdash" unicode="&#x2014;" horiz-adv-x="1685" 
d="M88 762h1577l-23 -252h-1576z" />
    <glyph glyph-name="quoteleft" unicode="&#x2018;" horiz-adv-x="534" 
d="M328 1217q70 0 110.5 -48t34.5 -125q-7 -75 -60.5 -123.5t-127.5 -48.5q-85 0 -131 66.5t-37 175.5q10 114 75 226.5t156 175.5l146 -54q-68 -53 -115 -121.5t-51 -123.5z" />
    <glyph glyph-name="quoteright" unicode="&#x2019;" horiz-adv-x="534" 
d="M285 1171q-71 0 -112 48t-34 124q6 74 60 123.5t127 49.5q86 0 131.5 -66.5t36.5 -175.5q-9 -114 -74.5 -227t-157.5 -175l-145 54q68 53 115 121.5t53 123.5z" />
    <glyph glyph-name="quotesinglbase" unicode="&#x201a;" horiz-adv-x="534" 
d="M231 -33q-70 0 -110.5 48.5t-34.5 123.5q6 74 60 123t128 49q85 0 130.5 -66t35.5 -173q-9 -114 -73.5 -227.5t-155.5 -176.5l-148 53q69 53 116.5 122t51.5 124z" />
    <glyph glyph-name="quotedblleft" unicode="&#x201c;" horiz-adv-x="1007" 
d="M477 1044q-6 -74 -60 -123t-128 -49q-85 0 -131 66.5t-37 175.5q10 114 75 226.5t156 175.5l146 -54q-68 -53 -115 -121.5t-51 -123.5q70 0 110.5 -48t34.5 -125zM940 1044q-6 -74 -59.5 -123t-126.5 -49q-86 0 -131.5 66.5t-36.5 175.5q9 114 74 226.5t157 175.5
l146 -54q-69 -53 -116.5 -121.5t-51.5 -123.5q71 0 111.5 -48.5t33.5 -124.5z" />
    <glyph glyph-name="quotedblright" unicode="&#x201d;" horiz-adv-x="1001" 
d="M143 1354q6 74 60.5 123t128.5 49q85 0 131 -66.5t37 -173.5q-10 -114 -75.5 -227t-156.5 -176l-147 53q69 53 116.5 122t51.5 124q-70 0 -111 48.5t-35 123.5zM606 1354q7 75 61 123.5t128 48.5q85 0 131 -66.5t37 -173.5q-10 -114 -75.5 -227t-156.5 -176l-145 53
q68 53 115 122t51 124q-70 0 -111 48.5t-35 123.5z" />
    <glyph glyph-name="quotedblbase" unicode="&#x201e;" horiz-adv-x="1001" 
d="M90 141q6 74 60.5 123t128.5 49q85 0 130.5 -66t36.5 -175q-11 -114 -75.5 -227.5t-155.5 -174.5l-147 54q69 53 116.5 121.5t51.5 123.5q-71 0 -111.5 48t-34.5 124zM555 141q6 75 59 123.5t127 48.5q86 0 131.5 -66t36.5 -175q-9 -113 -74.5 -226.5t-156.5 -175.5
l-146 54q68 53 115 121.5t51 123.5q-69 0 -109.5 48t-33.5 124z" />
    <glyph glyph-name="bullet" unicode="&#x2022;" horiz-adv-x="628" 
d="M313 414q-100 0 -159 62t-50 159q7 96 77.5 158.5t170.5 62.5q99 0 157.5 -62.5t49.5 -158.5q-7 -97 -76.5 -159t-169.5 -62z" />
    <glyph glyph-name="ellipsis" unicode="&#x2026;" horiz-adv-x="1470" 
d="M248 -33q-77 0 -123.5 49t-40.5 125q8 75 62.5 123.5t132.5 48.5t123.5 -48.5t39.5 -123.5q-8 -77 -62 -125.5t-132 -48.5zM719 -33q-78 0 -124 49t-40 125q6 75 61 123.5t132 48.5q78 0 123.5 -48.5t39.5 -123.5q-6 -76 -60 -125t-132 -49zM1188 -33q-77 0 -123 49
t-39 125q6 75 61 123.5t132 48.5q78 0 123.5 -48.5t39.5 -123.5q-6 -76 -61 -125t-133 -49z" />
    <glyph glyph-name="perthousand" unicode="&#x2030;" horiz-adv-x="3153" 
d="M1190 410q17 192 150 315t325 123q193 0 305.5 -123t95.5 -315q-17 -193 -151 -316t-326 -123t-304 123t-95 316zM1808 410q8 80 -38.5 131t-127.5 51q-79 0 -133.5 -51t-62.5 -131q-6 -81 40 -131t126 -50t135 50t61 131zM2159 410q17 192 150.5 315t326.5 123
t304.5 -123t94.5 -315q-17 -194 -150.5 -316.5t-326.5 -122.5q-192 0 -304 123t-95 316zM2777 410q8 80 -38.5 131t-125.5 51q-81 0 -135.5 -51t-62.5 -131q-6 -82 39.5 -131.5t125.5 -49.5q82 0 136.5 50t60.5 131zM115 1110q17 193 151 315.5t326 122.5q194 0 306 -122.5
t95 -315.5q-17 -192 -151 -315t-326 -123q-193 0 -305.5 123t-95.5 315zM735 1110q6 82 -39.5 132t-126.5 50q-82 0 -136 -50t-60 -132q-8 -80 38.5 -131t125.5 -51q81 0 135.5 51t62.5 131zM1520 1520h292l-1150 -1520h-293z" />
    <glyph glyph-name="guilsinglleft" unicode="&#x2039;" horiz-adv-x="821" 
d="M782 1049l-430 -517l338 -532h-328l-325 532l418 517h327z" />
    <glyph glyph-name="guilsinglright" unicode="&#x203a;" horiz-adv-x="821" 
d="M786 532l-419 -532h-326l430 532l-340 517h328z" />
    <glyph glyph-name="lira" unicode="&#x20a4;" horiz-adv-x="1337" 
d="M838 1249q-78 0 -126 -58.5t-57 -154.5l-12 -155h455l-15 -160h-454q-2 -18 -6.5 -49.5t-6.5 -44.5h459l-14 -160h-512q-68 -178 -225 -246h878l-18 -221h-1164l25 287q65 14 113.5 56.5t79.5 135.5h-168l14 148h213q7 30 12 94h-217l14 160h218l14 174q17 200 153 327
t338 127q209 0 327.5 -121t123.5 -317l-283 -45q-3 103 -42.5 163t-116.5 60z" />
    <glyph glyph-name="Euro" unicode="&#x20ac;" horiz-adv-x="1869" 
d="M1008 244q138 0 258 85.5t164 215.5l319 -43q-38 -159 -151 -285.5t-276.5 -197t-346.5 -70.5q-281 0 -471.5 155t-233.5 412h-215l15 162h190q1 8 2 25.5t2 25.5q1 9 3 28.5t3 28.5h-190l14 162h217q88 254 304.5 407.5t494.5 153.5q182 0 332 -72.5t241 -202
t103 -292.5l-328 -37q-17 135 -120 222t-244 87q-138 0 -250 -71t-174 -195h436l-14 -162h-476q-10 -44 -10 -108h475l-14 -162h-436q39 -126 139 -199t238 -73z" />
    <glyph glyph-name="trademark" unicode="&#x2122;" horiz-adv-x="2392" 
d="M274 307l82 930h-278l20 221h815l-20 -221h-279l-82 -930h-258zM2023 1079l-364 -772h-182l-230 772l-67 -772h-246l102 1151h318l241 -809l381 809h326l-100 -1151h-246z" />
    <glyph glyph-name="minus" unicode="&#x2212;" horiz-adv-x="1011" 
d="M119 762h839l-20 -252h-840z" />
    <glyph glyph-name="approxequal" unicode="&#x2248;" horiz-adv-x="950" 
 />
    <glyph glyph-name="notequal" unicode="&#x2260;" horiz-adv-x="1134" 
d="M72 494h338l122 278h-436l21 244h518l129 299h205l-129 -299h239l-20 -244h-322l-121 -278h418l-20 -244h-500l-143 -332h-207l145 332h-258z" />
    <glyph glyph-name="lessequal" unicode="&#x2264;" horiz-adv-x="929" 
d="M817 217l-20 -217h-758l20 217h758zM111 823l780 246l-19 -211l-571 -174l541 -174l-19 -209l-737 244z" />
    <glyph glyph-name="greaterequal" unicode="&#x2265;" horiz-adv-x="929" 
d="M59 217h758l-18 -217h-760zM84 510l571 174l-540 174l18 211l737 -246l-24 -278l-780 -244z" />
    <glyph glyph-name="commaaccent" unicode="&#xf6c3;" horiz-adv-x="471" 
d="M195 -68q-55 0 -86 39t-25 101q5 65 45.5 104t103.5 39q72 0 112.5 -50.5t33.5 -131.5q-9 -98 -64.5 -195.5t-132.5 -150.5l-114 45q51 38 87 94.5t40 105.5z" />
    <glyph glyph-name="acute.case" horiz-adv-x="702" 
d="M684 1520l-303 -312h-256l260 312h299z" />
    <glyph glyph-name="breve.case" horiz-adv-x="786" 
d="M573 1520h193q-12 -141 -100.5 -226.5t-233.5 -85.5t-217.5 85.5t-60.5 226.5h192q-5 -63 23.5 -102.5t79.5 -39.5q49 0 83.5 39.5t40.5 102.5z" />
    <glyph glyph-name="caron.case" horiz-adv-x="919" 
d="M678 1520h223l-250 -312h-305l-194 312h225l133 -185z" />
    <glyph glyph-name="circumflex.case" horiz-adv-x="919" 
d="M125 1208l250 312h303l196 -312h-225l-133 185l-166 -185h-225z" />
    <glyph glyph-name="dieresis.case" horiz-adv-x="1001" 
d="M283 1118q-71 0 -112.5 44.5t-35.5 113.5q6 70 55.5 115t118.5 45q71 0 112.5 -45t35.5 -115q-6 -69 -55.5 -113.5t-118.5 -44.5zM791 1118q-71 0 -112.5 44.5t-35.5 113.5q6 70 55.5 115t118.5 45q71 0 112.5 -45t35.5 -115q-6 -69 -55 -113.5t-119 -44.5z" />
    <glyph glyph-name="dotaccent.case" horiz-adv-x="512" 
d="M291 1147q-74 0 -117 45t-37 115t57 114.5t125 44.5q75 0 118.5 -44.5t37.5 -114.5t-57.5 -115t-126.5 -45z" />
    <glyph glyph-name="grave.case" horiz-adv-x="702" 
d="M160 1698h299l205 -312h-254z" />
    <glyph glyph-name="hungarumlaut.case" horiz-adv-x="1048" 
d="M356 1520h275l-281 -312h-225zM754 1520h274l-307 -312h-223z" />
    <glyph glyph-name="ijacute" horiz-adv-x="1185" 
d="M168 1049h309l-92 -1049h-307zM676 -70l98 1119h307l-100 -1131q-13 -166 -119 -267.5t-264 -101.5q-126 0 -223 33l18 215q54 -14 113 -14q73 1 118.5 41t51.5 106zM469 1520h291l-328 -353h-239zM1061 1520h291l-326 -353h-242z" />
    <glyph glyph-name="ring.case" horiz-adv-x="669" 
d="M365 1106q-110 0 -174.5 62.5t-55.5 162.5q7 98 82 160.5t184 62.5q110 0 174.5 -62.5t55.5 -162.5q-7 -98 -82 -160.5t-184 -62.5zM391 1407q-34 0 -57.5 -21t-26.5 -55t16.5 -56t53.5 -22t57.5 22t26.5 56q2 34 -17.5 55t-52.5 21z" />
    <glyph glyph-name="tilde.case" horiz-adv-x="991" 
d="M274 1237l-139 86q37 79 115 131.5t164 52.5q49 0 93.5 -17t71 -38t59 -38t60.5 -17q35 0 68 23.5t57 62.5l140 -84q-38 -80 -118.5 -133.5t-170.5 -53.5q-53 0 -98 17.5t-70.5 39t-55 39t-55.5 17.5q-66 0 -121 -88z" />
    </font>
</defs>
</svg>
