<?xml version="1.0" standalone="no"?>
<!DOCTYPE svg PUBLIC "-//W3C//DTD SVG 1.1//EN" "http://www.w3.org/Graphics/SVG/1.1/DTD/svg11.dtd" >
<svg xmlns="http://www.w3.org/2000/svg" xmlns:xlink="http://www.w3.org/1999/xlink" version="1.1">
<metadata>
Created by FontForge 20170731 at Sun Nov 22 12:00:15 2020
 By Aleksey,,,
 Copyright (c) 2017 by Alexander Slobzheninov. All rights reserved.
</metadata>
<defs>
<font id="Objectivity-LightSlanted" horiz-adv-x="1236" >
  <font-face 
    font-family="Objectivity Light"
    font-weight="300"
    font-style="oblique"
    font-stretch="normal"
    units-per-em="2048"
    panose-1="0 0 0 0 0 0 0 0 0 0"
    ascent="1638"
    descent="-410"
    x-height="1030"
    cap-height="1440"
    bbox="-205 -573 2913.87 2038"
    underline-thickness="102"
    underline-position="-358"
    unicode-range="U+000D-F6C3"
  />
<missing-glyph horiz-adv-x="1024" 
 />
    <glyph glyph-name=".notdef" horiz-adv-x="1024" 
 />
    <glyph glyph-name=".null" horiz-adv-x="0" 
 />
    <glyph glyph-name="nonmarkingreturn" horiz-adv-x="682" 
 />
    <glyph glyph-name="NULL" horiz-adv-x="1460" 
d="M1333 1440l-127 -1440h-1079l127 1440h1079zM240 96h870l109 1245h-871z" />
    <glyph glyph-name="NULL" horiz-adv-x="1460" 
d="M1333 1440l-127 -1440h-1079l127 1440h1079zM240 96h870l109 1245h-871z" />
    <glyph glyph-name="CR" unicode="&#xd;" horiz-adv-x="61" 
 />
    <glyph glyph-name="space" unicode=" " horiz-adv-x="622" 
 />
    <glyph glyph-name="exclam" unicode="!" horiz-adv-x="423" 
d="M147 -23q-38 0 -60 24t-19 62q3 36 29.5 60t64.5 24t59.5 -23.5t18.5 -60.5q-3 -38 -29.5 -62t-63.5 -24zM336 1440l-33 -375l-78 -662h-82l39 662l33 375h121z" />
    <glyph glyph-name="quotedbl" unicode="&#x22;" horiz-adv-x="616" 
d="M246 1159l-39 -356h-88l22 356l25 279h104zM551 1159l-39 -356h-88l22 356l25 279h102z" />
    <glyph glyph-name="numbersign" unicode="#" horiz-adv-x="1941" 
d="M825 961l-131 -369h396l129 369h-394zM1720 592l-8 -92h-551l-176 -500h-104l176 500h-395l-179 -500h-104l178 500h-475l8 92h500l131 369h-496l6 92h523l161 454h105l-162 -454h393l162 454h105l-162 -454h506l-7 -92h-532l-129 -369h526z" />
    <glyph glyph-name="dollar" unicode="$" horiz-adv-x="1425" 
d="M688 -51l-16 -199h-115l16 203q-225 22 -355.5 162.5t-111.5 345.5h119q-15 -177 108.5 -289.5t330.5 -112.5q193 0 320.5 93.5t139.5 244.5q3 35 -3 64.5t-16.5 52t-33 42t-42 32.5t-55.5 25.5t-60.5 19.5t-70 15t-72 11.5t-77.5 10.5q-54 7 -89 12.5t-85.5 15t-83.5 20
t-73.5 27t-66.5 35.5t-52 46.5t-39.5 60t-20 75t-2.5 91.5q15 181 161 302.5t366 133.5l16 190h115l-17 -192q216 -20 343 -152t110 -323l-117 -2q14 161 -103.5 265.5t-312.5 104.5q-184 -1 -306 -89.5t-134 -227.5q-3 -35 3 -65t16.5 -53t32.5 -42.5t42 -33t55 -26
t61 -19.5t70.5 -15t73 -12t78.5 -11q103 -14 160 -24.5t138.5 -38t122.5 -63.5t69 -100t20 -150q-15 -195 -169 -323t-388 -138z" />
    <glyph glyph-name="percent" unicode="%" horiz-adv-x="2082" 
d="M1122 391q15 181 141 296.5t308 115.5q180 0 286 -115.5t91 -296.5q-17 -182 -142.5 -296.5t-306.5 -114.5q-182 0 -288 115t-89 296zM1833 391q11 131 -65.5 214t-206.5 83q-131 0 -223.5 -83.5t-102.5 -213.5q-11 -130 66 -213.5t208 -83.5q130 0 221.5 84t102.5 213z
M135 1110q15 180 141.5 296t309.5 116q180 0 286 -116t91 -296q-17 -182 -142.5 -297t-306.5 -115q-183 0 -289.5 115.5t-89.5 296.5zM848 1110q10 130 -66 212.5t-207 82.5q-132 0 -223.5 -82.5t-101.5 -212.5q-12 -130 65 -213.5t209 -83.5q130 0 221 83t103 214z
M1548 1501h138l-1149 -1501h-138z" />
    <glyph glyph-name="ampersand" unicode="&#x26;" horiz-adv-x="1595" 
d="M979 252q-45 47 -214.5 215t-223.5 225q-141 -56 -222 -133.5t-94 -202.5q-12 -129 84 -213t256 -84q227 0 414 193zM602 788q43 -44 221.5 -218.5t233.5 -231.5q110 137 203 358h118q-114 -268 -245 -430q30 -30 138.5 -134.5t135.5 -131.5h-168l-184 180
q-225 -231 -506 -231q-207 0 -332.5 114t-110.5 289q7 83 38 150t82.5 116.5t107.5 84t129 65.5q-152 175 -137 348q14 154 131 254t284 100q157 0 259.5 -97.5t111.5 -250.5l-115 -20q-5 114 -74.5 187t-181.5 73q-120 0 -203.5 -70t-93.5 -180q-16 -150 158 -324z" />
    <glyph glyph-name="quotesingle" unicode="'" horiz-adv-x="311" 
d="M246 1159l-39 -356h-88l24 356l23 281h104z" />
    <glyph glyph-name="parenleft" unicode="(" horiz-adv-x="653" 
d="M479 -369h-127q-134 147 -201 405.5t-42 536.5t136.5 535.5t270.5 404.5h127q-174 -157 -289.5 -409.5t-140.5 -530.5q-25 -283 47 -536t219 -406z" />
    <glyph glyph-name="parenright" unicode=")" horiz-adv-x="653" 
d="M104 -369h-129q174 153 290.5 405.5t142.5 536.5q23 278 -49 530.5t-218 409.5h127q134 -147 201.5 -405t42.5 -535q-25 -278 -137 -536.5t-271 -405.5z" />
    <glyph glyph-name="asterisk" unicode="*" horiz-adv-x="1034" 
d="M938 803l-53 -80l-307 188l-31 -372h-92l34 372l-337 -188l-41 80l342 186l-310 185l54 79l307 -188l31 375h92l-35 -375l340 188l39 -79l-342 -185z" />
    <glyph glyph-name="plus" unicode="+" horiz-adv-x="1171" 
d="M610 184h-114l36 412h-423l10 106h422l34 383h115l-33 -383h424l-10 -106h-424z" />
    <glyph glyph-name="comma" unicode="," horiz-adv-x="393" 
d="M186 -23q-38 0 -60.5 23.5t-19.5 60.5t30 60.5t65 23.5q41 0 64.5 -31.5t19.5 -82.5q-6 -86 -50 -166t-106 -117l-49 45q41 26 71.5 78t34.5 106z" />
    <glyph glyph-name="hyphen" unicode="-" horiz-adv-x="1048" 
d="M135 696h840l-10 -106h-840z" />
    <glyph glyph-name="period" unicode="." horiz-adv-x="378" 
d="M182 -23q-38 0 -60.5 24t-19.5 62q3 36 30 60t65 24q37 0 58.5 -23.5t18.5 -60.5q-3 -38 -29 -62t-63 -24z" />
    <glyph glyph-name="slash" unicode="/" horiz-adv-x="880" 
d="M754 1440h114l-784 -1911h-113z" />
    <glyph glyph-name="zero" unicode="0" horiz-adv-x="1480" 
d="M670 -51q-172 0 -299.5 99t-187 274.5t-40.5 396.5t109.5 397t235.5 275.5t317 99.5t299.5 -99.5t187.5 -275.5t41 -397t-109.5 -396.5t-235.5 -274.5t-318 -99zM797 1380q-138 0 -254.5 -85t-189.5 -235.5t-89 -340.5q-17 -190 29 -340.5t147.5 -235t239.5 -84.5t254 85
t189 235t89 340t-30 340.5t-147 235.5t-238 85z" />
    <glyph glyph-name="one" unicode="1" horiz-adv-x="741" 
d="M348 0l111 1272l-363 -271l13 148l393 291h92l-125 -1440h-121z" />
    <glyph glyph-name="two" unicode="2" horiz-adv-x="1216" 
d="M281 1018l-115 22q43 196 191 323.5t331 127.5q195 0 311 -129t99 -326q-7 -76 -30.5 -140.5t-71 -127.5t-100 -115.5t-138.5 -128.5l-467 -413h702l-8 -111h-903l6 76l619 549q128 114 194 206t76 205q12 150 -71.5 247t-225.5 97q-141 0 -252.5 -100.5t-146.5 -261.5z
" />
    <glyph glyph-name="three" unicode="3" horiz-adv-x="1269" 
d="M918 1329h-660l10 111h840l-6 -82l-459 -465h10q213 0 339.5 -131t107.5 -336q-19 -207 -171 -342t-368 -135q-203 0 -334.5 135t-130.5 340l111 18q0 -166 101.5 -274.5t258.5 -108.5q166 0 283.5 103.5t130.5 263.5t-87 263.5t-267 103.5q-94 0 -158 -33l-31 86z" />
    <glyph glyph-name="four" unicode="4" horiz-adv-x="1169" 
d="M197 496h526l72 831zM713 385h-682l6 78l711 977h178l-82 -944h182l-10 -111h-182l-33 -385h-121z" />
    <glyph glyph-name="five" unicode="5" horiz-adv-x="1284" 
d="M592 797h-326l121 643h709l-9 -111h-610l-76 -422h209q244 0 384.5 -134t123.5 -345q-19 -209 -171 -344t-369 -135q-204 0 -335 134t-128 339l110 20q-3 -166 99 -274.5t262 -108.5q166 0 281.5 103.5t129.5 263.5q15 163 -97 267t-308 104z" />
    <glyph glyph-name="six" unicode="6" horiz-adv-x="1214" 
d="M559 59q161 0 277 113t131 285q14 168 -82 276.5t-258 108.5q-170 1 -290.5 -108t-135.5 -277q-14 -173 87 -285.5t271 -112.5zM213 764l584 676h147l-457 -527q91 37 177 37q203 -2 322.5 -140.5t100.5 -352.5q-20 -221 -172.5 -364.5t-367.5 -143.5q-222 0 -354 141.5
t-113 358.5q8 78 45 166.5t88 148.5z" />
    <glyph glyph-name="seven" unicode="7" horiz-adv-x="1042" 
d="M1057 1364l-695 -1364h-131l676 1329h-823l10 111h969z" />
    <glyph glyph-name="eight" unicode="8" horiz-adv-x="1349" 
d="M672 711q-173 0 -294.5 -93t-133.5 -235q-13 -142 92 -236t278 -94q174 0 296 93.5t134 236.5q12 142 -93.5 235t-278.5 93zM731 1380q-152 0 -257.5 -78.5t-115.5 -199.5q-11 -122 81 -201.5t243 -79.5t255.5 79.5t115.5 201.5q10 121 -80.5 199.5t-241.5 78.5z
M741 1491q203 0 325.5 -106.5t109.5 -272.5q-10 -125 -95 -219.5t-209 -122.5q145 -29 228.5 -139t70.5 -256q-15 -186 -174.5 -306t-390.5 -120t-370.5 120t-122.5 306q12 146 114.5 256t253.5 139q-119 28 -186 122t-57 220q15 166 157 272.5t346 106.5z" />
    <glyph glyph-name="nine" unicode="9" horiz-adv-x="1214" 
d="M653 1380q-163 -1 -277.5 -113t-129.5 -284q-15 -167 81 -277t257 -110q171 0 292 109.5t134 277.5q15 172 -86 284.5t-271 112.5zM999 676l-583 -676h-150l459 526q-82 -37 -178 -37q-203 0 -322 139.5t-100 354.5q19 221 171.5 363.5t369.5 142.5q221 0 353.5 -140.5
t113.5 -357.5q-8 -78 -45.5 -167.5t-88.5 -147.5z" />
    <glyph glyph-name="colon" unicode=":" horiz-adv-x="378" 
d="M145 -23q-38 0 -59.5 24t-17.5 62q3 36 29.5 60t62.5 24q38 0 60.5 -23.5t19.5 -60.5q-4 -38 -31 -62t-64 -24zM217 803q-37 0 -59 24t-19 62q3 36 29.5 60t62.5 24q38 0 60.5 -23.5t19.5 -60.5q-3 -38 -29.5 -62t-64.5 -24z" />
    <glyph glyph-name="semicolon" unicode=";" horiz-adv-x="393" 
d="M217 803q-37 0 -59 24t-19 62q3 36 29.5 60t62.5 24q38 0 60.5 -23.5t19.5 -60.5q-3 -38 -29.5 -62t-64.5 -24zM152 -23q-38 0 -60.5 23.5t-19.5 60.5t29 60.5t63 23.5q43 0 66.5 -31.5t19.5 -82.5q-8 -86 -52.5 -166t-105.5 -117l-49 45q43 26 74 78t35 106z" />
    <glyph glyph-name="less" unicode="&#x3c;" horiz-adv-x="962" 
d="M172 514l629 -401l-10 -113l-721 461l10 106l801 463l-9 -115z" />
    <glyph glyph-name="equal" unicode="=" horiz-adv-x="1171" 
d="M100 442h963l-8 -106h-963zM145 956h963l-8 -106h-963z" />
    <glyph glyph-name="greater" unicode="&#x3e;" horiz-adv-x="960" 
d="M891 567l-10 -106l-801 -461l10 113l698 401l-628 401l10 115z" />
    <glyph glyph-name="question" unicode="?" horiz-adv-x="1200" 
d="M510 -25q-37 0 -59 24t-19 62q3 37 29.5 61.5t64.5 24.5q37 0 59 -24.5t19 -61.5t-29.5 -61.5t-64.5 -24.5zM600 348h-113q9 109 42 184.5t83 123.5t138 102q44 28 66.5 43t57.5 44.5t53 55.5t34 64.5t20 83.5q12 141 -78 236t-239 95q-153 0 -260 -103.5t-142 -270.5
l-112 22q44 205 186.5 334t339.5 129q199 0 321 -126.5t105 -315.5q-5 -58 -24 -108t-42.5 -84t-66 -70.5t-74 -58t-88.5 -56.5q-108 -66 -152.5 -132t-54.5 -192z" />
    <glyph glyph-name="at" unicode="@" horiz-adv-x="2078" 
d="M1356 530q14 158 -69 254.5t-232 96.5q-146 0 -248 -98t-115 -253q-14 -151 70.5 -246.5t230.5 -95.5q145 0 248 96.5t115 245.5zM1092 1321q-172 0 -326.5 -59.5t-269.5 -163.5t-188.5 -250.5t-88.5 -315.5q-19 -224 60.5 -402.5t241 -279t374.5 -100.5q73 0 155 21.5
t136 52.5l-10 -111q-129 -63 -291 -63q-242 0 -427 113.5t-278 315.5t-71 453q22 254 157.5 457.5t355 318.5t480.5 115q196 0 360 -67t274 -184.5t164 -283t37 -356.5q-23 -246 -117.5 -396t-246.5 -150q-107 0 -167.5 78t-51.5 227q-51 -93 -158.5 -149t-234.5 -56
q-185 0 -291.5 126.5t-89.5 319.5q17 197 153.5 324t329.5 127t307.5 -121t99.5 -307l-22 -260q-7 -100 28 -156.5t103 -56.5q69 0 121.5 60.5t82.5 159.5t42 230q15 170 -32 316.5t-143.5 250.5t-240.5 163t-317 59z" />
    <glyph glyph-name="A" unicode="A" horiz-adv-x="1380" 
d="M743 1329l-436 -919h713zM264 309l-147 -309h-129l680 1440h170l428 -1440h-129l-93 309h-780z" />
    <glyph glyph-name="B" unicode="B" horiz-adv-x="1384" 
d="M1092 412q10 130 -89 214.5t-262 84.5h-432l-51 -600h430q164 0 278 85t126 216zM807 1329h-442l-46 -508h445q140 0 237.5 71t106.5 181q9 112 -75.5 184t-225.5 72zM690 0h-563l127 1440h573q189 0 302.5 -103.5t99.5 -261.5q-10 -112 -88 -196.5t-193 -112.5
q128 -26 201 -125.5t61 -232.5q-15 -177 -162 -292.5t-358 -115.5z" />
    <glyph glyph-name="C" unicode="C" horiz-adv-x="1681" 
d="M817 59q204 0 372 118.5t226 297.5l115 -24q-68 -215 -271.5 -358.5t-449.5 -143.5q-216 0 -380 99t-245 275t-61 396q14 166 83.5 309.5t177.5 245t253 159.5t307 58q245 0 422.5 -149.5t208.5 -374.5l-121 -17q-27 184 -173.5 307t-346.5 123q-182 0 -334 -84.5
t-246 -235.5t-110 -341q-16 -189 51.5 -340t204 -235.5t317.5 -84.5z" />
    <glyph glyph-name="D" unicode="D" horiz-adv-x="1554" 
d="M127 0l127 1440h397q249 0 432.5 -89.5t274 -253.5t72.5 -378q-19 -214 -138 -377.5t-318 -252.5t-448 -89h-399zM1309 719q16 183 -61.5 322t-234.5 213.5t-370 74.5h-278l-107 -1218h279q323 0 535 166t237 442z" />
    <glyph glyph-name="E" unicode="E" horiz-adv-x="1300" 
d="M307 694l-51 -583h877l-9 -111h-997l127 1440h975l-10 -111h-857l-47 -528h777l-11 -107h-774z" />
    <glyph glyph-name="F" unicode="F" horiz-adv-x="1163" 
d="M946 610h-645l-53 -610h-121l127 1440h887l-8 -111h-768l-54 -614h645z" />
    <glyph glyph-name="G" unicode="G" horiz-adv-x="1763" 
d="M834 59q176 0 325 80t242.5 223.5t109.5 321.5h-626l8 104h747q-4 -180 -68 -336t-171.5 -266.5t-257.5 -173.5t-320 -63q-220 0 -387 99t-249.5 275t-63.5 396t133 396.5t298 276t404 99.5q248 0 426.5 -144.5t206.5 -367.5l-114 -21q-29 183 -179 302.5t-350 119.5
q-186 0 -341 -84.5t-251 -235.5t-112 -341q-17 -187 52.5 -338t210.5 -236.5t327 -85.5z" />
    <glyph glyph-name="H" unicode="H" horiz-adv-x="1472" 
d="M246 0h-121l127 1440h121l-56 -635h854l56 635h121l-125 -1440h-121l59 694h-854z" />
    <glyph glyph-name="I" unicode="I" horiz-adv-x="501" 
d="M254 1440h121l-127 -1440h-121z" />
    <glyph glyph-name="J" unicode="J" horiz-adv-x="927" 
d="M592 432l88 1008h121l-88 -1008q-18 -220 -144.5 -346.5t-312.5 -126.5q-123 0 -248 41l10 109q122 -39 232 -39q140 0 233.5 94.5t108.5 267.5z" />
    <glyph glyph-name="K" unicode="K" horiz-adv-x="1193" 
d="M127 0l127 1440h121l-56 -627l703 627h164l-768 -680l657 -760h-160l-606 707l-61 -707h-121z" />
    <glyph glyph-name="L" unicode="L" horiz-adv-x="1159" 
d="M1024 0h-897l127 1440h121l-117 -1329h776z" />
    <glyph glyph-name="M" unicode="M" horiz-adv-x="1886" 
d="M360 1282l-112 -1282h-121l127 1440h174l465 -1280l690 1280h176l-127 -1440h-121l113 1284l-692 -1284h-103z" />
    <glyph glyph-name="N" unicode="N" horiz-adv-x="1478" 
d="M412 1440l706 -1290l113 1290h121l-127 -1440h-158l-707 1288l-112 -1288h-121l127 1440h158z" />
    <glyph glyph-name="O" unicode="O" horiz-adv-x="1785" 
d="M823 -51q-222 0 -389 98.5t-249 274t-62 397.5q19 222 132 398t297 275t406 99q165 0 303 -58t230 -159.5t137 -245t31 -309.5t-84.5 -309.5t-180.5 -244.5t-258 -158.5t-313 -57.5zM948 1380q-186 0 -341 -84.5t-251 -235.5t-112 -341q-17 -188 52.5 -339t210.5 -236
t327 -85q139 0 263 49.5t216.5 136.5t152 209.5t72.5 264.5q16 190 -53.5 341t-210 235.5t-326.5 84.5z" />
    <glyph glyph-name="P" unicode="P" horiz-adv-x="1341" 
d="M715 1329h-353l-65 -741h352q203 0 339 102t149 266q15 166 -102 269.5t-320 103.5zM653 475h-366l-41 -475h-119l127 1440h483q250 0 394.5 -135t125.5 -349q-19 -212 -187 -346.5t-417 -134.5z" />
    <glyph glyph-name="Q" unicode="Q" horiz-adv-x="1785" 
d="M948 1380q-186 0 -341 -84.5t-251 -235.5t-112 -341q-17 -188 52.5 -339t210.5 -236t327 -85q139 0 263 49.5t216.5 136.5t152 209.5t72.5 264.5q16 190 -53.5 341t-210 235.5t-326.5 84.5zM1659 719q-19 -203 -116.5 -369t-254.5 -268l223 -307h-145l-186 252
q-167 -78 -357 -78q-222 0 -389 98.5t-249 274t-62 397.5q19 222 132 398t297 275t406 99q165 0 303 -58t230 -159.5t137 -245t31 -309.5z" />
    <glyph glyph-name="R" unicode="R" horiz-adv-x="1449" 
d="M854 1329h-489l-58 -661h490q175 0 293 90.5t131 236.5q12 153 -89.5 243.5t-277.5 90.5zM297 557l-49 -557h-121l127 1440h616q225 0 355.5 -124t113.5 -321q-13 -159 -125 -274t-280 -146l319 -575h-141l-305 559z" />
    <glyph glyph-name="S" unicode="S" horiz-adv-x="1425" 
d="M1253 410q-17 -203 -182.5 -332t-413.5 -129q-255 0 -408.5 144.5t-133.5 367.5h118q-15 -177 108.5 -289.5t330.5 -112.5q194 0 321.5 93.5t139.5 244.5q4 52 -8 92t-46 67t-65.5 45t-94 32t-101.5 20.5t-116 16.5q-54 7 -89 12.5t-85.5 15t-83.5 20t-73.5 27
t-66.5 35.5t-52 46.5t-39.5 60t-20 75t-2.5 91.5q15 190 175.5 314t396.5 124q161 0 284.5 -62t186.5 -171.5t51 -245.5l-117 -2q14 161 -103 265.5t-312 104.5q-184 -1 -306.5 -90t-134.5 -227q-3 -35 3 -65t16.5 -53t32.5 -42.5t42 -33t55 -26t61 -19.5t70.5 -15t73 -12
t78.5 -11q103 -14 160 -24.5t138.5 -38t122.5 -63.5t69 -100t20 -150z" />
    <glyph glyph-name="T" unicode="T" horiz-adv-x="1198" 
d="M475 0l117 1329h-496l8 111h1115l-11 -111h-495l-117 -1329h-121z" />
    <glyph glyph-name="U" unicode="U" horiz-adv-x="1480" 
d="M1174 580l73 860h121l-74 -860q-25 -280 -197.5 -455.5t-422.5 -175.5q-252 0 -394.5 175.5t-117.5 455.5l76 860h120l-75 -860q-21 -227 89 -374t310 -147t335 143.5t157 377.5z" />
    <glyph glyph-name="V" unicode="V" horiz-adv-x="1370" 
d="M115 1440h129l387 -1340l622 1340h127l-671 -1440h-174z" />
    <glyph glyph-name="W" unicode="W" horiz-adv-x="2109" 
d="M1206 1440l248 -1344l512 1344h125l-551 -1440h-186l-248 1307l-475 -1307h-187l-301 1440h125l279 -1344l487 1344h172z" />
    <glyph glyph-name="X" unicode="X" horiz-adv-x="1327" 
d="M8 0l567 760l-421 680h145l373 -602l481 602h147l-548 -680l440 -760h-143l-392 680l-505 -680h-144z" />
    <glyph glyph-name="Y" unicode="Y" horiz-adv-x="1239" 
d="M498 0l49 563l-432 877h135l366 -758l498 758h137l-583 -877l-50 -563h-120z" />
    <glyph glyph-name="Z" unicode="Z" horiz-adv-x="1284" 
d="M25 80l1044 1253h-915l10 107h1083l-8 -80l-1044 -1256h956l-10 -104h-1123z" />
    <glyph glyph-name="bracketleft" unicode="[" horiz-adv-x="905" 
d="M358 1407l-147 -1683h528l-8 -93h-639l164 1870h639l-8 -94h-529z" />
    <glyph glyph-name="backslash" unicode="\" horiz-adv-x="880" 
d="M252 1440l450 -1911h-114l-451 1911h115z" />
    <glyph glyph-name="bracketright" unicode="]" horiz-adv-x="905" 
d="M616 -369h-639l9 93h528l148 1683h-529l8 94h639z" />
    <glyph glyph-name="asciicircum" unicode="^" horiz-adv-x="1169" 
d="M641 1360l-420 -541h-121l484 621h129l372 -621h-118z" />
    <glyph glyph-name="underscore" unicode="_" horiz-adv-x="1024" 
d="M-8 0h1024l-8 -100h-1024z" />
    <glyph glyph-name="grave" unicode="`" horiz-adv-x="581" 
d="M170 1499l131 2l213 -334h-123z" />
    <glyph glyph-name="a" unicode="a" horiz-adv-x="1363" 
d="M606 63q184 0 318 128.5t151 322.5t-95 322.5t-296 128.5q-187 0 -319.5 -127t-149.5 -324q-17 -195 93.5 -323t297.5 -128zM1102 807l18 223h115l-90 -1030h-115l21 221q-73 -122 -195.5 -192t-269.5 -70q-232 0 -369 157t-115 398q22 243 185.5 400t396.5 157
q147 0 256.5 -70.5t161.5 -193.5z" />
    <glyph glyph-name="b" unicode="b" horiz-adv-x="1359" 
d="M731 961q-187 0 -319.5 -126.5t-149.5 -320.5q-17 -193 93 -318.5t298 -125.5q186 0 319 125.5t150 318.5q17 194 -93.5 320.5t-297.5 126.5zM1235 514q-22 -242 -186 -398.5t-396 -156.5q-147 0 -256 69.5t-159 190.5l-21 -219h-111l132 1501h114l-61 -688
q73 120 194 189t267 69q230 0 367.5 -158t115.5 -399z" />
    <glyph glyph-name="c" unicode="c" horiz-adv-x="1234" 
d="M686 1071q181 0 309.5 -104.5t147.5 -266.5l-113 -16q-20 124 -119 204.5t-233 80.5q-183 0 -314.5 -128.5t-148.5 -326.5q-17 -196 91.5 -324.5t291.5 -128.5q135 0 247.5 76t155.5 195l109 -17q-49 -155 -196 -255.5t-324 -100.5q-233 0 -371.5 157t-116.5 398
q22 243 187 400t397 157z" />
    <glyph glyph-name="d" unicode="d" horiz-adv-x="1359" 
d="M666 961q-187 0 -319.5 -126.5t-149.5 -320.5q-17 -193 93 -318.5t298 -125.5q186 0 319 125.5t150 318.5q17 194 -93.5 320.5t-297.5 126.5zM84 514q20 241 185 399t397 158q146 0 253.5 -69t159.5 -189l62 688h112l-131 -1501h-110l18 219q-72 -120 -194 -190t-269 -70
q-114 0 -209 41.5t-159 114.5t-95 176.5t-20 222.5z" />
    <glyph glyph-name="e" unicode="e" horiz-adv-x="1296" 
d="M225 580h854q-3 171 -110.5 278t-278.5 107q-176 0 -304.5 -107t-160.5 -278zM102 520q22 240 190.5 395.5t409.5 155.5q234 0 372 -155.5t118 -395.5q-1 -7 -3.5 -23.5t-2.5 -19.5h-971q-5 -182 106 -298t289 -116q133 0 252 74.5t170 188.5l109 -19
q-61 -151 -213 -249.5t-322 -98.5q-158 0 -278 72t-180 200t-46 289z" />
    <glyph glyph-name="f" unicode="f" horiz-adv-x="739" 
d="M424 1260l-21 -230h277l-10 -98h-275l-82 -932h-112l82 932h-177l9 98h176l20 238q12 128 87.5 201t187.5 73q77 0 147 -24l-8 -101q-67 19 -127 19q-73 0 -120 -45.5t-54 -130.5z" />
    <glyph glyph-name="g" unicode="g" horiz-adv-x="1359" 
d="M606 70q187 0 319.5 126t149.5 318q17 196 -94 323.5t-297 127.5q-189 0 -320.5 -127t-148.5 -324q-17 -193 94.5 -318.5t296.5 -125.5zM580 -408q182 0 306.5 114.5t141.5 301.5l19 209q-76 -118 -196 -185t-263 -67q-153 0 -269 70.5t-173.5 196.5t-43.5 282
q22 242 186 398.5t396 156.5q145 0 253 -67t163 -185l18 213h113l-90 -1022q-20 -234 -179 -377t-389 -143q-204 0 -344 114t-149 289l110 15q11 -137 120.5 -225.5t269.5 -88.5z" />
    <glyph glyph-name="h" unicode="h" 
d="M238 1501h114l-57 -647q59 99 165 158t226 59q194 0 299 -130t86 -335l-53 -606h-113l53 606q14 160 -65 259.5t-229 99.5t-264.5 -102t-127.5 -255l-53 -608h-113z" />
    <glyph glyph-name="i" unicode="i" horiz-adv-x="493" 
d="M219 1030h113l-90 -1030h-113zM293 1237q-37 0 -59 24t-19 62q3 37 29.5 60.5t64.5 23.5q37 0 59 -23.5t19 -60.5q-3 -38 -29.5 -62t-64.5 -24z" />
    <glyph glyph-name="j" unicode="j" horiz-adv-x="487" 
d="M106 -186l107 1216h113l-109 -1225q-9 -115 -84 -188.5t-182 -73.5q-80 0 -156 27l10 104q67 -24 132 -24q68 0 114.5 45.5t54.5 118.5zM287 1237q-38 0 -60.5 24t-19.5 62q5 37 30.5 60.5t63.5 23.5q37 0 59 -23.5t19 -60.5q-3 -38 -29 -62t-63 -24z" />
    <glyph glyph-name="k" unicode="k" horiz-adv-x="1034" 
d="M106 0l132 1501h114l-80 -905l533 434h158l-596 -485l524 -545h-156l-473 492l-43 -492h-113z" />
    <glyph glyph-name="l" unicode="l" horiz-adv-x="454" 
d="M238 1501h112l-131 -1501h-113z" />
    <glyph glyph-name="m" unicode="m" horiz-adv-x="1894" 
d="M240 0h-115l90 1030h111l-13 -147q55 89 144 138.5t198 49.5q132 0 223.5 -66.5t118.5 -177.5q50 111 153.5 176.5t235.5 65.5q179 0 280.5 -123t82.5 -319l-53 -627h-113l53 627q13 151 -61.5 244.5t-208.5 93.5q-140 0 -236.5 -94t-109.5 -244l-53 -627h-115l55 627
q14 152 -59.5 245t-208.5 93q-142 0 -237 -93t-109 -245z" />
    <glyph glyph-name="n" unicode="n" 
d="M215 1030h115l-17 -172q60 97 170 155t232 58q193 0 293.5 -129.5t81.5 -335.5l-54 -606h-112l53 606q14 161 -59.5 260t-221.5 99q-153 0 -272 -102.5t-131 -254.5l-53 -608h-115z" />
    <glyph glyph-name="o" unicode="o" horiz-adv-x="1290" 
d="M692 1071q156 0 273.5 -71t176 -198.5t44.5 -287.5q-13 -160 -93.5 -287t-210.5 -197.5t-286 -70.5q-157 0 -275 70.5t-176.5 197.5t-44.5 287q22 243 188.5 400t403.5 157zM604 63q187 0 319.5 128t149.5 323q17 196 -93 323.5t-298 127.5q-187 0 -319.5 -127
t-149.5 -324q-17 -195 93.5 -323t297.5 -128z" />
    <glyph glyph-name="p" unicode="p" horiz-adv-x="1359" 
d="M672 70q187 0 319.5 125t149.5 319q17 195 -93 321t-298 126q-186 0 -319 -126.5t-150 -320.5q-17 -193 94 -318.5t297 -125.5zM1253 514q-20 -241 -184.5 -398t-396.5 -157q-146 0 -254 69t-160 189l-59 -688h-115l131 1501h111l-19 -221q71 122 193.5 192t269.5 70
q230 0 367.5 -158t115.5 -399z" />
    <glyph glyph-name="q" unicode="q" horiz-adv-x="1359" 
d="M606 70q187 0 319.5 125t149.5 319t-93.5 320.5t-297.5 126.5q-186 0 -319 -126t-150 -321q-17 -193 93 -318.5t298 -125.5zM102 514q22 241 187 399t395 158q147 0 256.5 -70t161.5 -192l18 221h111l-131 -1501h-113l60 688q-73 -120 -194 -189t-265 -69q-153 0 -269 71
t-173.5 198t-43.5 286z" />
    <glyph glyph-name="r" unicode="r" horiz-adv-x="794" 
d="M215 1030h111l-15 -162q52 96 130.5 148.5t176.5 52.5q72 0 146 -33l-10 -108q-73 37 -152 37q-127 0 -212 -104.5t-99 -274.5l-51 -586h-113z" />
    <glyph glyph-name="s" unicode="s" horiz-adv-x="1077" 
d="M948 287q-12 -142 -138 -235t-306 -93q-192 0 -308 106t-102 269h111q-9 -118 77.5 -194.5t229.5 -76.5q133 0 224.5 61.5t99.5 154.5q3 42 -15 74.5t-46.5 52t-74.5 34.5t-82.5 21.5t-87.5 13.5q-53 8 -88 14.5t-79.5 18t-73 25t-58 35t-45 47.5t-24 63t-4.5 82
q12 134 130 222.5t283 88.5q182 0 293 -97.5t99 -248.5l-111 2q7 104 -75 171t-216 67q-117 0 -201.5 -58.5t-91.5 -148.5q-3 -34 8.5 -60t33 -44t59.5 -31.5t79.5 -22.5t102.5 -18q49 -8 82 -14t79.5 -18.5t78 -26.5t66 -36.5t53.5 -49.5t30.5 -65.5t7.5 -84.5z" />
    <glyph glyph-name="t" unicode="t" horiz-adv-x="759" 
d="M213 233l61 699h-176l8 96h181l32 238h97l-21 -238h277l-8 -96h-277l-61 -696q-6 -78 34 -127t113 -50q60 0 135 21l-8 -98q-71 -23 -158 -23q-115 0 -177.5 74.5t-51.5 199.5z" />
    <glyph glyph-name="u" unicode="u" 
d="M1018 0h-113l15 172q-60 -98 -169 -155.5t-231 -57.5q-193 0 -294 129t-83 334l54 608h112l-51 -608q-14 -160 59.5 -259.5t221.5 -99.5q99 0 188 45.5t147.5 128t67.5 183.5l53 610h113z" />
    <glyph glyph-name="v" unicode="v" horiz-adv-x="1146" 
d="M606 0h-155l-332 1030h123l295 -936l458 936h123z" />
    <glyph glyph-name="w" unicode="w" horiz-adv-x="1787" 
d="M559 0h-151l-269 1030h121l234 -915l374 915h138l221 -917l393 917h119l-449 -1030h-151l-211 899z" />
    <glyph glyph-name="x" unicode="x" horiz-adv-x="1079" 
d="M188 0h-139l412 537l-301 493h135l252 -422l327 422h134l-385 -493l315 -537h-135l-268 459z" />
    <glyph glyph-name="y" unicode="y" horiz-adv-x="1157" 
d="M45 -428l10 102q70 -24 127 -24q41 0 76.5 16.5t63.5 42.5t57 69.5t52 85t54 101.5q14 27 21 41l-387 1024h127l327 -885l433 885h120l-512 -1038q-31 -64 -52 -105t-51 -93t-54 -84.5t-56.5 -67t-64 -53.5t-70.5 -31.5t-82 -12.5q-73 0 -139 27z" />
    <glyph glyph-name="z" unicode="z" horiz-adv-x="1124" 
d="M66 74l798 850h-704l10 106h874l-6 -76l-798 -850h745l-10 -104h-916z" />
    <glyph glyph-name="braceleft" unicode="{" horiz-adv-x="724" 
d="M449 -276h112l-8 -93h-147q-101 0 -159.5 67.5t-49.5 172.5l43 494q6 65 -26.5 105t-90.5 40h-21l13 131h20q57 0 97 40.5t44 104.5l41 474q11 106 80.5 173.5t169.5 67.5h150l-8 -94h-113q-68 0 -115 -46.5t-53 -119.5l-41 -463q-7 -83 -57 -138.5t-121 -61.5l-21 -3
l21 -2q70 -4 109.5 -60t33.5 -138l-43 -486q-6 -72 33.5 -118.5t106.5 -46.5z" />
    <glyph glyph-name="bar" unicode="|" horiz-adv-x="489" 
d="M256 1501h109l-172 -1972h-109z" />
    <glyph glyph-name="braceright" unicode="}" horiz-adv-x="724" 
d="M125 -369h-148l9 93h110q68 0 116 46.5t54 118.5l41 486q8 82 58 138t120 60l23 2l-21 3q-71 6 -110.5 61.5t-32.5 138.5l39 463q7 73 -32 119.5t-107 46.5h-111l8 94h148q100 0 158 -67.5t49 -173.5l-41 -474q-6 -64 26.5 -104.5t89.5 -40.5h21l-12 -131h-21
q-57 0 -96 -40t-45 -105l-43 -494q-9 -104 -79.5 -172t-170.5 -68z" />
    <glyph glyph-name="asciitilde" unicode="~" horiz-adv-x="1263" 
d="M174 600l-47 76q58 61 136 98t147 37q55 0 114 -24.5t109.5 -60t99 -71t101 -60t98.5 -24.5q50 0 102 26t94 71l48 -76q-54 -57 -124.5 -91t-133.5 -34q-54 0 -112 25t-108 60.5t-99 71t-102.5 60.5t-101.5 25q-112 0 -221 -109z" />
    <glyph glyph-name="exclamdown" unicode="&#xa1;" horiz-adv-x="423" 
d="M66 -471l32 375l78 659h82l-37 -659l-33 -375h-122zM256 991q37 0 59 -24t19 -62q-3 -37 -29.5 -61.5t-64.5 -24.5q-37 0 -59 24.5t-19 61.5t29.5 61.5t64.5 24.5z" />
    <glyph glyph-name="cent" unicode="&#xa2;" horiz-adv-x="1234" 
d="M645 -37l-14 -176h-115l16 174q-213 19 -335.5 173t-102.5 380q20 228 169.5 382t365.5 173l14 168h115l-17 -170q159 -19 269 -120t127 -247l-113 -16q-22 125 -121.5 205t-232.5 80q-182 0 -313 -128.5t-150 -326.5q-17 -196 92.5 -324.5t292.5 -128.5q135 0 247.5 76
t153.5 195l111 -17q-46 -140 -173 -237.5t-286 -114.5z" />
    <glyph glyph-name="sterling" unicode="&#xa3;" horiz-adv-x="1198" 
d="M1116 1059l-110 -19q3 153 -65 251t-187 98q-114 0 -191.5 -87.5t-89.5 -224.5l-27 -303h533l-8 -106h-537q-19 -178 -58.5 -297.5t-88 -178.5t-115.5 -88h864l-8 -104h-989l12 145q52 8 92 34.5t77 83t63 158t39 247.5h-205l10 106h205l26 303q15 182 126.5 298
t275.5 116q166 0 262 -120.5t94 -311.5z" />
    <glyph glyph-name="currency" unicode="&#xa4;" horiz-adv-x="1531" 
d="M723 80q189 0 320.5 122.5t148.5 311.5q15 191 -95 313.5t-298 122.5q-185 0 -317.5 -123t-147.5 -313q-17 -189 92.5 -311.5t296.5 -122.5zM1155 924l229 204l64 -75l-225 -203q100 -142 82 -336q-18 -196 -142 -336l191 -203l-78 -75l-193 204q-153 -122 -368 -122
q-211 0 -346 122l-228 -204l-69 73l229 205q-100 142 -82 336q15 193 139 336l-188 205l78 73l192 -202q159 121 369 121t346 -123z" />
    <glyph glyph-name="yen" unicode="&#xa5;" horiz-adv-x="1355" 
d="M96 584h475l-436 854l137 2l400 -799l534 799h142l-586 -856h473l-8 -105h-508l-21 -219h508l-8 -104h-508l-14 -156h-121l14 156h-510l11 104h508l20 219h-510z" />
    <glyph glyph-name="section" unicode="&#xa7;" 
d="M967 571q3 35 -6.5 64t-24 48t-44 35t-51.5 24t-62.5 15.5t-60.5 10t-60 6.5q-13 1 -19 2q-48 5 -64 8q-144 -6 -234.5 -62.5t-98.5 -141.5q-2 -27 2.5 -50t13 -40.5t26 -32.5t33 -25t42 -19t46 -14t51.5 -10t52 -7.5t55 -6.5q14 -3 66 -8q151 4 240.5 58.5t97.5 145.5z
M233 1100q13 149 138.5 246.5t302.5 97.5q168 0 277.5 -104t109.5 -263l-115 -12q3 117 -76.5 192.5t-205.5 75.5q-130 0 -218.5 -63t-97.5 -162q-3 -37 6 -67t23.5 -51t44 -39t53.5 -28t68.5 -20.5t72 -15.5t78.5 -13q45 -7 67.5 -11t64 -13t64 -16.5t55.5 -20.5t51 -27
t39 -34.5t30.5 -44t15 -54.5t2.5 -67q-8 -100 -82.5 -171t-195.5 -91q94 -28 145 -97.5t41 -177.5q-9 -106 -71.5 -189.5t-165.5 -130t-228 -46.5q-177 0 -291 103t-114 261l119 14q-2 -119 81 -193.5t218 -74.5q138 0 230 67.5t101 178.5q5 54 -14.5 94t-44 61.5t-84 39
t-92.5 23.5t-111 16q-4 1 -6 1q-53 8 -87 13.5t-82 17t-77.5 25t-62 35t-50 48t-27 64.5t-5.5 84q8 99 83 170.5t196 93.5q-86 29 -134 99t-39 176z" />
    <glyph glyph-name="dieresis" unicode="&#xa8;" horiz-adv-x="851" 
d="M236 1217q-38 0 -59.5 23t-18.5 60q3 38 28.5 61t63.5 23q39 0 61 -23t19 -61q-5 -37 -30.5 -60t-63.5 -23zM707 1217q-38 0 -59.5 23t-18.5 60q3 38 29 61t63 23q39 0 61 -23t19 -61q-3 -37 -29.5 -60t-64.5 -23z" />
    <glyph glyph-name="copyright" unicode="&#xa9;" horiz-adv-x="1867" 
d="M983 1229q-154 0 -292.5 -54.5t-240.5 -149.5t-167 -227t-78 -282q-18 -206 59 -370t232.5 -255.5t361.5 -91.5t378 91.5t278 255.5t124 370q13 150 -29 282t-128 227t-215 149.5t-283 54.5zM979 1067q167 0 293.5 -93.5t154.5 -238.5l-88 -22q-31 120 -133 192t-239 72
q-192 0 -327.5 -130.5t-154.5 -332.5t95 -332.5t309 -130.5q137 0 257 78t169 199l78 -25q-57 -149 -202 -245.5t-312 -96.5q-235 0 -373.5 156t-116.5 397q13 159 93 285.5t210.5 197t286.5 70.5zM850 -289q-233 0 -408 103t-262 286.5t-67 415.5q14 169 87.5 317.5
t189 254.5t271.5 167.5t330 61.5t319.5 -60t243 -165t145 -254t32.5 -322q-20 -232 -139.5 -415.5t-313.5 -286.5t-428 -103z" />
    <glyph glyph-name="guillemotleft" unicode="&#xab;" horiz-adv-x="1243" 
d="M694 1030l-467 -516l377 -514h-139l-373 514l465 516h137zM1163 1030l-467 -516l377 -514h-139l-375 514l465 516h139z" />
    <glyph glyph-name="logicalnot" unicode="&#xac;" horiz-adv-x="1300" 
d="M1063 143l41 465h-977l8 103h1071l-49 -568h-94z" />
    <glyph glyph-name="registered" unicode="&#xae;" horiz-adv-x="1867" 
d="M205 518q-14 -154 28 -287t127.5 -227.5t214 -148.5t283.5 -54q206 0 378 92t278 255.5t124 369.5q13 151 -29 283.5t-127.5 227.5t-214.5 149.5t-282 54.5q-155 0 -294 -54.5t-241 -149.5t-167 -227.5t-78 -283.5zM1051 950h-320l-39 -438h326q100 0 170.5 62t79.5 159
q9 99 -51.5 158t-165.5 59zM850 -285q-232 0 -407.5 103t-262.5 286t-67 414q14 170 87.5 319t189 255t271.5 167.5t330 61.5q233 0 409 -102.5t263.5 -286t67.5 -414.5t-139.5 -414t-314 -286t-427.5 -103zM1079 438l211 -413h-108l-205 405h-291l-37 -405h-94l88 1007h430
q138 0 219.5 -85t69.5 -216q-9 -113 -88 -194.5t-195 -98.5z" />
    <glyph glyph-name="macron" unicode="&#xaf;" horiz-adv-x="851" 
d="M807 1360l-8 -88h-643l8 88h643z" />
    <glyph glyph-name="degree" unicode="&#xb0;" horiz-adv-x="1030" 
d="M512 711q-186 0 -289 109t-88 288q15 180 138 289.5t309 109.5q184 0 286.5 -109.5t87.5 -289.5q-15 -178 -137 -287.5t-307 -109.5zM575 1417q-143 0 -238.5 -85t-107.5 -224q-12 -138 68 -222.5t223 -84.5q141 0 235.5 84.5t106.5 222.5q12 139 -67 224t-220 85z" />
    <glyph glyph-name="plusminus" unicode="&#xb1;" horiz-adv-x="1146" 
d="M68 106h940l-11 -106h-938zM621 381h-117l24 281h-411l10 108h412l22 260h115l-23 -260h412l-8 -108h-412z" />
    <glyph glyph-name="acute" unicode="&#xb4;" horiz-adv-x="581" 
d="M543 1499l-279 -332h-123l273 334z" />
    <glyph glyph-name="paragraph" unicode="&#xb6;" horiz-adv-x="1392" 
d="M1278 1343h-186l-158 -1806h-107l158 1806h-268l-158 -1806h-106l100 1143q-205 0 -320 104t-100 275q15 170 150 275.5t338 105.5h665z" />
    <glyph glyph-name="periodcentered" unicode="&#xb7;" horiz-adv-x="378" 
d="M205 506q-38 0 -60 23.5t-18 60.5q3 38 29 62t63 24q38 0 60 -24t18 -62q-3 -37 -29 -60.5t-63 -23.5z" />
    <glyph glyph-name="cedilla" unicode="&#xb8;" horiz-adv-x="645" 
d="M276 -195h-77l43 207h82l-29 -141q106 0 165 -61t50 -158q-7 -91 -73 -148t-163 -57q-84 0 -140 47.5t-64 122.5l75 18q9 -51 46 -81.5t88 -30.5q61 0 101 36t46 95q6 69 -35 110t-115 41z" />
    <glyph glyph-name="guillemotright" unicode="&#xbb;" horiz-adv-x="1239" 
d="M680 514l-463 -514h-139l467 514l-377 516h139zM1149 514l-465 -514h-139l467 514l-377 516h139z" />
    <glyph glyph-name="questiondown" unicode="&#xbf;" horiz-adv-x="1200" 
d="M578 653h112q-7 -83 -25 -143.5t-53 -108t-77.5 -82t-108.5 -75.5q-45 -29 -66 -43t-57 -44.5t-53 -55.5t-33.5 -64.5t-19.5 -83.5q-12 -142 77.5 -237t239.5 -95q152 0 259 104t142 271l113 -23q-44 -205 -186 -333.5t-340 -128.5q-199 0 -321 126.5t-105 315.5
q3 42 14 79.5t24 66t37.5 58t43.5 48.5t53.5 44.5t57 40t63.5 40.5q108 66 152.5 131.5t56.5 191.5zM668 1026q38 0 59 -24t18 -62q-3 -37 -29 -61.5t-63 -24.5q-38 0 -60.5 24.5t-19.5 61.5q5 37 31 61.5t64 24.5z" />
    <glyph glyph-name="Agrave" unicode="&#xc0;" horiz-adv-x="1380" 
d="M725 1329l-436 -919h712zM246 309l-148 -309h-129l680 1440h170l426 -1440h-127l-92 309h-780zM682 1583l-199 291h135l195 -291h-131z" />
    <glyph glyph-name="Aacute" unicode="&#xc1;" horiz-adv-x="1380" 
d="M725 1329l-436 -919h712zM246 309l-148 -309h-129l680 1440h170l426 -1440h-127l-92 309h-780zM672 1583l246 291h135l-248 -291h-133z" />
    <glyph glyph-name="Acircumflex" unicode="&#xc2;" horiz-adv-x="1380" 
d="M725 1329l-436 -919h712zM246 309l-148 -309h-129l680 1440h170l426 -1440h-127l-92 309h-780zM766 1806l-217 -223h-125l285 291h129l231 -291h-121z" />
    <glyph glyph-name="Atilde" unicode="&#xc3;" horiz-adv-x="1380" 
d="M727 1329l-436 -919h713zM248 309l-148 -309h-129l680 1440h170l426 -1440h-127l-92 309h-780zM498 1653l-66 49q30 53 89.5 87t127.5 34q46 0 85 -17t62 -37.5t56.5 -37.5t69.5 -17q46 0 84 23t59 61l68 -45q-29 -56 -91 -90.5t-135 -34.5q-48 0 -88 17t-62.5 37.5
t-53.5 37.5t-64 17q-84 0 -141 -84z" />
    <glyph glyph-name="Adieresis" unicode="&#xc4;" horiz-adv-x="1380" 
d="M729 1329l-436 -919h713zM250 309l-148 -309h-129l680 1440h170l428 -1440h-129l-92 309h-780zM539 1604q-37 0 -59 23.5t-19 60.5t29.5 60.5t64.5 23.5q37 0 59 -23.5t19 -60.5t-29.5 -60.5t-64.5 -23.5zM971 1604q-38 0 -60.5 23.5t-19.5 60.5t29.5 60.5t64.5 23.5
q37 0 59 -23.5t19 -60.5t-29 -60.5t-63 -23.5z" />
    <glyph glyph-name="Aring" unicode="&#xc5;" horiz-adv-x="1380" 
d="M723 1329l-436 -919h712zM766 1817q-44 0 -75 -27t-34 -70q-5 -43 21 -70.5t70 -27.5q43 0 73 27.5t35 70.5q3 43 -22 70t-68 27zM244 309l-146 -309h-131l680 1440h170l428 -1440h-129l-92 309h-780zM739 1542q-80 0 -127 50t-41 128q8 77 64 126.5t135 49.5
t126.5 -49.5t41.5 -126.5q-6 -78 -62.5 -128t-136.5 -50z" />
    <glyph glyph-name="AE" unicode="&#xc6;" horiz-adv-x="1861" 
d="M375 416h489l80 930zM950 111h744l-11 -111h-856l27 309h-541l-190 -309h-135l880 1440h922l-10 -111h-723l-47 -547h641l-9 -104h-643z" />
    <glyph glyph-name="Ccedilla" unicode="&#xc7;" horiz-adv-x="1681" 
d="M813 -195h-78l31 146q-205 10 -358 110.5t-228.5 272.5t-56.5 385q14 166 83.5 309.5t177.5 245t253 159.5t307 58q245 0 422.5 -149.5t208.5 -374.5l-121 -17q-27 184 -173.5 307t-346.5 123q-182 0 -334 -84.5t-246 -235.5t-110 -341q-16 -189 51.5 -340t204 -235.5
t317.5 -84.5q204 0 372 118.5t226 297.5l115 -24q-67 -206 -257.5 -348t-424.5 -154l-17 -78q107 0 166 -61t50 -158q-7 -91 -73 -148t-163 -57q-84 0 -140.5 47.5t-64.5 122.5l76 18q9 -51 45.5 -81.5t87.5 -30.5q61 0 101.5 36t46.5 95q6 69 -34.5 110t-115.5 41z" />
    <glyph glyph-name="Egrave" unicode="&#xc8;" horiz-adv-x="1300" 
d="M287 694l-51 -583h878l-10 -111h-995l124 1440h977l-10 -111h-858l-45 -528h774l-8 -107h-776zM479 1874h135l193 -291h-131z" />
    <glyph glyph-name="Eacute" unicode="&#xc9;" horiz-adv-x="1300" 
d="M287 694l-51 -583h878l-10 -111h-995l124 1440h977l-10 -111h-858l-45 -528h774l-8 -107h-776zM911 1874h136l-248 -291h-131z" />
    <glyph glyph-name="Ecircumflex" unicode="&#xca;" horiz-adv-x="1300" 
d="M287 694l-51 -583h878l-10 -111h-995l124 1440h977l-10 -111h-858l-45 -528h774l-8 -107h-776zM543 1583h-123l282 291h129l234 -291h-123l-180 223z" />
    <glyph glyph-name="Edieresis" unicode="&#xcb;" horiz-adv-x="1300" 
d="M291 694l-51 -583h878l-10 -111h-995l125 1440h976l-10 -111h-858l-45 -528h776l-10 -107h-776zM532 1604q-37 0 -58.5 23.5t-18.5 60.5t29.5 60.5t64.5 23.5q37 0 59 -23.5t19 -60.5t-30 -60.5t-65 -23.5zM965 1604q-38 0 -60.5 23.5t-19.5 60.5q5 37 31 60.5t63 23.5
t59 -23.5t19 -60.5t-29 -60.5t-63 -23.5z" />
    <glyph glyph-name="Igrave" unicode="&#xcc;" horiz-adv-x="509" 
d="M236 1440h120l-127 -1440h-120zM43 1874h135l195 -291h-131z" />
    <glyph glyph-name="Iacute" unicode="&#xcd;" horiz-adv-x="505" 
d="M240 1440h122l-126 -1440h-121zM483 1874h135l-249 -291h-131z" />
    <glyph glyph-name="Icircumflex" unicode="&#xce;" horiz-adv-x="509" 
d="M240 1440h120l-124 -1440h-121zM113 1583h-123l282 291h129l234 -291h-123l-180 223z" />
    <glyph glyph-name="Idieresis" unicode="&#xcf;" horiz-adv-x="503" 
d="M240 1440h120l-127 -1440h-120zM98 1604q-37 0 -59 23.5t-19 60.5t30 60.5t65 23.5q37 0 59 -23.5t19 -60.5t-30 -60.5t-65 -23.5zM530 1604q-38 0 -60 23.5t-19 60.5q3 36 30 60t64 24t59 -23.5t19 -60.5t-29.5 -60.5t-63.5 -23.5z" />
    <glyph glyph-name="Ntilde" unicode="&#xd1;" horiz-adv-x="1478" 
d="M395 1440l705 -1290l112 1290h121l-125 -1440h-157l-707 1288l-113 -1288h-120l125 1440h159zM539 1653l-66 49q30 53 89.5 87t127.5 34q46 0 85.5 -17t62.5 -37.5t57 -37.5t70 -17q45 0 83 23t60 61l68 -45q-29 -56 -91 -90.5t-135 -34.5q-48 0 -88 17t-62.5 37.5
t-54 37.5t-65.5 17q-84 0 -141 -84z" />
    <glyph glyph-name="Ograve" unicode="&#xd2;" horiz-adv-x="1785" 
d="M807 -51q-222 0 -389 98.5t-250 274t-64 397.5q20 222 134 398t298 275t404 99q222 0 389 -99t249.5 -275t63.5 -398q-15 -166 -85.5 -309.5t-180 -244.5t-257 -158.5t-312.5 -57.5zM932 1380q-186 0 -341.5 -84.5t-252 -235.5t-113.5 -341q-16 -188 54 -339t210.5 -236
t325.5 -85q186 0 341.5 84.5t252 235.5t113.5 340q16 190 -53.5 341t-210 235.5t-326.5 84.5zM686 1874h135l193 -291h-131z" />
    <glyph glyph-name="Oacute" unicode="&#xd3;" horiz-adv-x="1785" 
d="M807 -51q-222 0 -389 98.5t-250 274t-64 397.5q20 222 134 398t298 275t404 99q222 0 389 -99t249.5 -275t63.5 -398q-15 -166 -85.5 -309.5t-180 -244.5t-257 -158.5t-312.5 -57.5zM932 1380q-186 0 -341.5 -84.5t-252 -235.5t-113.5 -341q-16 -188 54 -339t210.5 -236
t325.5 -85q186 0 341.5 84.5t252 235.5t113.5 340q16 190 -53.5 341t-210 235.5t-326.5 84.5zM1118 1874h135l-247 -291h-132z" />
    <glyph glyph-name="Ocircumflex" unicode="&#xd4;" horiz-adv-x="1785" 
d="M932 1380q-186 0 -341.5 -84.5t-252 -235.5t-113.5 -341q-16 -188 53.5 -339t210 -236t326.5 -85t341.5 84.5t252 235.5t113.5 340q16 190 -53.5 341t-210 235.5t-326.5 84.5zM807 -51q-222 0 -389 98.5t-250 274t-64 397.5q20 222 134 398t298 275t404 99q222 0 389 -99
t249.5 -275t63.5 -398q-15 -166 -85.5 -309.5t-180 -244.5t-257 -158.5t-312.5 -57.5zM969 1806l-219 -223h-123l282 291h129l232 -291h-121z" />
    <glyph glyph-name="Otilde" unicode="&#xd5;" horiz-adv-x="1785" 
d="M934 1380q-186 0 -341.5 -84.5t-251.5 -235.5t-112 -341q-17 -188 52.5 -339t210 -236t325.5 -85q186 0 341.5 84.5t252 235.5t113.5 340q16 190 -53.5 341t-210 235.5t-326.5 84.5zM809 -51q-222 0 -389 98.5t-249 274t-62 397.5q19 222 132 398t297 275t406 99
q165 0 303 -58t230 -159.5t137 -245t31 -309.5t-84.5 -309.5t-180.5 -244.5t-258 -158.5t-313 -57.5zM686 1653l-65 49q30 53 89.5 87t127.5 34q46 0 85 -17t62.5 -37.5t57 -37.5t69.5 -17q45 0 83 23t60 61l68 -45q-30 -56 -91 -90.5t-134 -34.5q-48 0 -88 17t-63 37.5
t-54.5 37.5t-65.5 17q-84 0 -141 -84z" />
    <glyph glyph-name="Odieresis" unicode="&#xd6;" horiz-adv-x="1785" 
d="M811 -51q-222 0 -389 98.5t-249 274t-62 397.5q19 222 132 398t297 275t406 99q165 0 303 -58t230 -159.5t137 -245t31 -309.5t-84.5 -309.5t-180.5 -244.5t-258 -158.5t-313 -57.5zM936 1380q-186 0 -341.5 -84.5t-251.5 -235.5t-112 -341q-17 -188 52.5 -339
t210.5 -236t327 -85q185 0 340 84.5t251.5 235.5t113.5 340q16 190 -53.5 341t-210 235.5t-326.5 84.5zM739 1604q-37 0 -58.5 23.5t-18.5 60.5t29.5 60.5t64.5 23.5q37 0 59 -23.5t19 -60.5t-30 -60.5t-65 -23.5zM1171 1604q-38 0 -60 23.5t-19 60.5q3 36 30 60t64 24
t59 -23.5t19 -60.5t-29.5 -60.5t-63.5 -23.5z" />
    <glyph glyph-name="multiply" unicode="&#xd7;" horiz-adv-x="780" 
d="M162 307l-66 70l238 233l-197 234l80 69l193 -229l233 229l68 -69l-238 -234l197 -233l-78 -70l-195 230z" />
    <glyph glyph-name="Oslash" unicode="&#xd8;" horiz-adv-x="1744" 
d="M915 1380q-179 0 -329.5 -85t-244.5 -236t-110 -340q-17 -188 51.5 -338.5t202.5 -233.5l697 1174q-124 59 -267 59zM801 59q272 0 465.5 186t218.5 474q15 176 -42.5 319t-174.5 230l-690 -1168q103 -41 223 -41zM516 -2l-166 -285h-121l195 330q-165 95 -249 273
t-64 403q19 220 130.5 396.5t291 276t393.5 99.5q172 0 315 -70l201 340h119l-230 -389q147 -101 220 -271.5t55 -381.5q-19 -220 -130.5 -396t-291 -275t-393.5 -99q-145 0 -275 49z" />
    <glyph glyph-name="Ugrave" unicode="&#xd9;" horiz-adv-x="1480" 
d="M1153 580l76 860h121l-76 -860q-25 -280 -197 -455.5t-424 -175.5q-165 0 -287 79.5t-180.5 223.5t-42.5 328l74 860h121l-74 -860q-21 -227 89.5 -374t310.5 -147t334.5 143.5t154.5 377.5zM545 1874h135l192 -291h-131z" />
    <glyph glyph-name="Uacute" unicode="&#xda;" horiz-adv-x="1480" 
d="M1153 580l76 860h121l-76 -860q-25 -280 -197 -455.5t-424 -175.5q-165 0 -287 79.5t-180.5 223.5t-42.5 328l74 860h121l-74 -860q-21 -227 89.5 -374t310.5 -147t334.5 143.5t154.5 377.5zM954 1874h136l-248 -291h-133z" />
    <glyph glyph-name="Ucircumflex" unicode="&#xdb;" horiz-adv-x="1480" 
d="M1153 580l76 860h121l-76 -860q-25 -280 -197 -455.5t-424 -175.5q-165 0 -287 79.5t-180.5 223.5t-42.5 328l74 860h121l-74 -860q-21 -227 89.5 -374t310.5 -147t334.5 143.5t154.5 377.5zM598 1583h-125l285 291h129l231 -291h-123l-180 223z" />
    <glyph glyph-name="Udieresis" unicode="&#xdc;" horiz-adv-x="1480" 
d="M1159 580l74 860h121l-74 -860q-25 -280 -198 -455.5t-425 -175.5q-165 0 -287 79.5t-180.5 223.5t-42.5 328l76 860h121l-76 -860q-21 -227 89.5 -374t310.5 -147t334.5 143.5t156.5 377.5zM588 1604q-37 0 -59 23.5t-19 60.5t29 60.5t63 23.5t60 -24t20 -60
q-5 -37 -31 -60.5t-63 -23.5zM1018 1604q-37 0 -59 23.5t-19 60.5t29 60.5t63 23.5q38 0 60.5 -23.5t19.5 -60.5t-29.5 -60.5t-64.5 -23.5z" />
    <glyph glyph-name="Yacute" unicode="&#xdd;" horiz-adv-x="1239" 
d="M477 0l49 563l-432 877h137l367 -758l496 758h137l-584 -877l-49 -563h-121zM834 1874h135l-248 -291h-133z" />
    <glyph glyph-name="germandbls" unicode="&#xdf;" horiz-adv-x="1351" 
d="M311 975l-86 -975h-121l86 983q20 214 167 352t356 138q186 0 300.5 -110.5t100.5 -272.5q-10 -129 -93.5 -214t-211.5 -106q178 -24 279 -134.5t86 -279.5q-15 -178 -145 -292.5t-312 -114.5q-171 0 -316 100l48 105q123 -97 272 -97q136 0 228.5 86.5t103.5 221.5
q14 160 -96 255t-312 95h-76l9 106h79q138 0 232 71.5t104 190.5q9 118 -73.5 198.5t-219.5 80.5q-157 0 -265.5 -107.5t-123.5 -279.5z" />
    <glyph glyph-name="agrave" unicode="&#xe0;" horiz-adv-x="1363" 
d="M588 63q184 0 318 128.5t151 322.5q17 195 -94.5 323t-296.5 128q-187 0 -319.5 -127t-149.5 -324q-17 -195 93.5 -323t297.5 -128zM1083 807l19 223h115l-91 -1030h-114l20 221q-73 -122 -195.5 -192t-269.5 -70q-232 0 -368.5 157t-114.5 398q22 243 186 400t396 157
q147 0 256 -70.5t161 -193.5zM616 1153l-223 332h131l215 -332h-123z" />
    <glyph glyph-name="aacute" unicode="&#xe1;" horiz-adv-x="1363" 
d="M588 63q184 0 318 128.5t151 322.5q17 195 -94.5 323t-296.5 128q-187 0 -319.5 -127t-149.5 -324q-17 -195 93.5 -323t297.5 -128zM1083 807l19 223h115l-91 -1030h-114l20 221q-73 -122 -195.5 -192t-269.5 -70q-232 0 -368.5 157t-114.5 398q22 243 186 400t396 157
q147 0 256 -70.5t161 -193.5zM602 1153l272 332h132l-281 -332h-123z" />
    <glyph glyph-name="acircumflex" unicode="&#xe2;" horiz-adv-x="1363" 
d="M588 63q184 0 318 128.5t151 322.5q17 195 -94.5 323t-296.5 128q-187 0 -319.5 -127t-149.5 -324q-17 -195 93.5 -323t297.5 -128zM1083 807l19 223h115l-91 -1030h-114l20 221q-73 -122 -195.5 -192t-269.5 -70q-232 0 -368.5 157t-114.5 398q22 243 186 400t396 157
q147 0 256 -70.5t161 -193.5zM696 1415l-221 -262h-117l279 332h129l223 -332h-117z" />
    <glyph glyph-name="atilde" unicode="&#xe3;" horiz-adv-x="1363" 
d="M592 63q184 0 318 128.5t151 322.5t-94 322.5t-295 128.5q-187 0 -319.5 -127t-151.5 -324q-17 -195 93.5 -323t297.5 -128zM1087 807l21 223h113l-91 -1030h-112l18 221q-71 -122 -193.5 -192t-269.5 -70q-153 0 -269 71t-173 198t-43 286q22 243 186 400t396 157
q147 0 256 -70.5t161 -193.5zM449 1219l-66 38q29 54 87.5 87.5t121.5 33.5q44 0 85.5 -19t68 -41.5t62 -41.5t69.5 -19q41 0 78.5 22t58.5 56l69 -37q-30 -56 -90.5 -91.5t-130.5 -35.5q-47 0 -89 19t-67.5 41.5t-59.5 41.5t-68 19q-38 0 -73.5 -20t-55.5 -53z" />
    <glyph glyph-name="adieresis" unicode="&#xe4;" horiz-adv-x="1363" 
d="M592 63q185 0 318.5 128t152.5 323q17 194 -95 322.5t-296 128.5q-187 0 -319.5 -127t-149.5 -324q-17 -196 92.5 -323.5t296.5 -127.5zM1090 807l18 223h113l-91 -1030h-112l20 221q-73 -122 -195.5 -192t-269.5 -70q-232 0 -368.5 157t-114.5 398q13 160 92.5 287.5
t207 198.5t280.5 71q148 0 258 -70.5t162 -193.5zM446 1194q-38 0 -60 24t-19 62q3 37 29.5 60.5t64.5 23.5t59.5 -23.5t18.5 -60.5q-3 -38 -29.5 -62t-63.5 -24zM918 1194q-38 0 -60 24t-18 62q3 37 28.5 60.5t63.5 23.5t60 -23.5t18 -60.5q-3 -38 -28.5 -62t-63.5 -24z
" />
    <glyph glyph-name="aring" unicode="&#xe5;" horiz-adv-x="1363" 
d="M582 63q185 0 318.5 128t152.5 323q17 194 -95 322.5t-296 128.5q-187 0 -319.5 -127t-149.5 -324q-17 -196 92.5 -323.5t296.5 -127.5zM698 1524q-68 0 -116 -44.5t-54 -111.5q-5 -68 35.5 -112t108.5 -44t116 44.5t52 111.5q6 68 -34.5 112t-107.5 44zM1077 807l21 223
h112l-90 -1030h-112l18 221q-71 -122 -193.5 -192t-269.5 -70q-152 0 -268 71t-173 198t-44 286q22 243 185.5 400t395.5 157q148 0 258 -70.5t160 -193.5zM666 1133q-106 0 -168.5 66t-53.5 169t83 169.5t180 66.5q104 0 165.5 -66.5t53.5 -169.5q-9 -103 -82.5 -169
t-177.5 -66z" />
    <glyph glyph-name="ae" unicode="&#xe6;" horiz-adv-x="2234" 
d="M684 971q-187 0 -319.5 -128.5t-149.5 -328.5q-17 -197 93.5 -326t297.5 -129q185 0 317.5 127.5t151.5 327.5q17 199 -93 328t-298 129zM1182 553h835q14 179 -96 295.5t-293 116.5q-173 0 -297.5 -117.5t-148.5 -294.5zM1096 815l18 215h98l-20 -215
q70 119 187.5 186.5t260.5 67.5q154 0 271 -69t175 -192t44 -276q-2 -29 -10 -77h-942q6 -176 110.5 -284t270.5 -108q135 0 250 72.5t159 186.5l105 -21q-47 -149 -193.5 -245.5t-325.5 -96.5q-147 0 -257 71t-156 195l-19 -225h-96l18 213q-76 -119 -197 -186.5
t-265 -67.5q-230 0 -366 157t-114 398t184.5 398t391.5 157q144 0 253.5 -67.5t164.5 -186.5z" />
    <glyph glyph-name="ccedilla" unicode="&#xe7;" horiz-adv-x="1234" 
d="M602 -195h-78l33 154q-220 12 -348.5 168t-106.5 387q22 243 187 400t397 157q181 0 309.5 -104.5t147.5 -266.5l-113 -16q-20 124 -119 204.5t-233 80.5q-183 0 -314.5 -128.5t-148.5 -326.5q-17 -196 91.5 -324.5t291.5 -128.5q135 0 247.5 76t155.5 195l109 -17
q-46 -144 -177 -242t-294 -112l-18 -90q106 0 165 -61t50 -158q-7 -91 -73 -148t-163 -57q-84 0 -140 47t-65 123l76 18q9 -51 45.5 -81.5t87.5 -30.5q62 0 103 36.5t45 94.5q6 69 -34.5 110t-115.5 41z" />
    <glyph glyph-name="egrave" unicode="&#xe8;" horiz-adv-x="1296" 
d="M207 580h854q-3 171 -110.5 278t-278.5 107q-176 0 -304.5 -107t-160.5 -278zM84 520q22 239 191.5 395t408.5 156q235 0 373.5 -156t116.5 -395q-1 -4 -2 -12.5t-2 -16.5t-3 -14h-970q-5 -182 106 -298t291 -116q132 0 251.5 74.5t168.5 188.5l108 -19
q-62 -151 -213 -249.5t-321 -98.5q-158 0 -278 72t-180 200t-46 289zM637 1153l-223 332h131l215 -332h-123z" />
    <glyph glyph-name="eacute" unicode="&#xe9;" horiz-adv-x="1296" 
d="M207 580h854q-3 171 -110.5 278t-278.5 107q-176 0 -304.5 -107t-160.5 -278zM84 520q22 239 191.5 395t408.5 156q235 0 373.5 -156t116.5 -395q-1 -4 -2 -12.5t-2 -16.5t-3 -14h-970q-5 -182 106 -298t291 -116q132 0 251.5 74.5t168.5 188.5l108 -19
q-62 -151 -213 -249.5t-321 -98.5q-158 0 -278 72t-180 200t-46 289zM623 1153l272 332h131l-281 -332h-122z" />
    <glyph glyph-name="ecircumflex" unicode="&#xea;" horiz-adv-x="1296" 
d="M207 580h854q-3 171 -110.5 278t-278.5 107q-176 0 -304.5 -107t-160.5 -278zM84 520q22 239 191.5 395t408.5 156q235 0 373.5 -156t116.5 -395q-1 -4 -2 -12.5t-2 -16.5t-3 -14h-970q-5 -182 106 -298t291 -116q132 0 251.5 74.5t168.5 188.5l108 -19
q-62 -151 -213 -249.5t-321 -98.5q-158 0 -278 72t-180 200t-46 289zM717 1415l-223 -262h-115l278 332h129l224 -332h-119z" />
    <glyph glyph-name="edieresis" unicode="&#xeb;" horiz-adv-x="1296" 
d="M213 580h854q-3 171 -111.5 278t-279.5 107q-174 0 -302.5 -107t-160.5 -278zM90 520q20 239 189.5 395t408.5 156q235 0 373.5 -156t118.5 -395q-1 -7 -3.5 -23.5t-2.5 -19.5h-973q-3 -182 107.5 -298t289.5 -116q133 0 251.5 74.5t168.5 188.5l110 -19
q-62 -151 -213 -249.5t-321 -98.5q-159 0 -279 72t-179.5 200t-45.5 289zM467 1194q-38 0 -60.5 24t-19.5 62q3 37 29.5 60.5t64.5 23.5t59.5 -23.5t18.5 -60.5q-3 -38 -29 -62t-63 -24zM938 1194q-38 0 -60.5 24t-19.5 62q5 37 30.5 60.5t63.5 23.5t59.5 -23.5t18.5 -60.5
q-3 -38 -28.5 -62t-63.5 -24z" />
    <glyph glyph-name="igrave" unicode="&#xec;" horiz-adv-x="442" 
d="M188 1030h113l-90 -1030h-113zM-23 1485h132l213 -332h-123z" />
    <glyph glyph-name="iacute" unicode="&#xed;" horiz-adv-x="448" 
d="M195 1030h112l-90 -1030h-113zM465 1485h131l-281 -332h-122z" />
    <glyph glyph-name="icircumflex" unicode="&#xee;" horiz-adv-x="438" 
d="M186 1030h113l-90 -1030h-113zM55 1153h-116l280 332h127l223 -332h-116l-177 262z" />
    <glyph glyph-name="idieresis" unicode="&#xef;" horiz-adv-x="446" 
d="M197 1030h112l-90 -1030h-113zM31 1194q-38 0 -59.5 24t-18.5 62q3 37 29.5 60.5t64.5 23.5q37 0 59 -23.5t19 -60.5q-3 -38 -29.5 -62t-64.5 -24zM504 1194q-38 0 -60.5 24t-19.5 62q3 37 29.5 60.5t64.5 23.5t59.5 -23.5t18.5 -60.5q-3 -38 -29 -62t-63 -24z" />
    <glyph glyph-name="ntilde" unicode="&#xf1;" 
d="M203 1030h112l-14 -172q60 97 169.5 155t231.5 58q192 0 292.5 -129.5t82.5 -335.5l-53 -606h-113l54 606q12 162 -61.5 260.5t-221.5 98.5q-151 0 -270.5 -102.5t-132.5 -254.5l-54 -608h-112zM387 1219l-68 38q31 54 89.5 87.5t121.5 33.5q44 0 85 -19t67.5 -41.5
t62.5 -41.5t70 -19q41 0 78.5 22t56.5 56l70 -37q-28 -56 -88.5 -91.5t-130.5 -35.5q-47 0 -89.5 19t-68 41.5t-59.5 41.5t-68 19q-38 0 -73.5 -20t-55.5 -53z" />
    <glyph glyph-name="ograve" unicode="&#xf2;" horiz-adv-x="1294" 
d="M676 1071q236 0 375.5 -157t117.5 -400t-187.5 -399t-403.5 -156q-156 0 -273.5 70.5t-176 197.5t-44.5 287q22 243 188.5 400t403.5 157zM588 63q187 0 319.5 128t149.5 323q17 196 -93 323.5t-298 127.5q-187 0 -319.5 -127t-149.5 -324q-17 -195 93.5 -323t297.5 -128
zM403 1485h132l215 -332h-123z" />
    <glyph glyph-name="oacute" unicode="&#xf3;" horiz-adv-x="1294" 
d="M676 1071q236 0 375.5 -157t117.5 -400t-187.5 -399t-403.5 -156q-156 0 -273.5 70.5t-176 197.5t-44.5 287q22 243 188.5 400t403.5 157zM588 63q187 0 319.5 128t149.5 323q17 196 -93 323.5t-298 127.5q-187 0 -319.5 -127t-149.5 -324q-17 -195 93.5 -323t297.5 -128
zM885 1485h131l-281 -332h-123z" />
    <glyph glyph-name="ocircumflex" unicode="&#xf4;" horiz-adv-x="1294" 
d="M588 63q187 0 319.5 128t149.5 323q17 196 -93 323.5t-298 127.5q-187 0 -319.5 -127t-149.5 -324q-17 -195 93.5 -323t297.5 -128zM676 1071q236 0 375.5 -157t117.5 -400t-187.5 -399t-403.5 -156q-156 0 -273.5 70.5t-176 197.5t-44.5 287q22 243 188.5 400t403.5 157
zM707 1415l-222 -262h-116l278 332h129l223 -332h-116z" />
    <glyph glyph-name="otilde" unicode="&#xf5;" horiz-adv-x="1294" 
d="M592 63q187 0 319.5 128t149.5 323q17 196 -93 323.5t-296 127.5q-188 0 -320 -127t-151 -324q-17 -195 93.5 -323t297.5 -128zM680 1071q156 0 273.5 -71t176 -198.5t44.5 -287.5q-13 -160 -93.5 -287t-210.5 -197.5t-286 -70.5q-157 0 -275 70.5t-176.5 197.5
t-44.5 287q22 243 188.5 400t403.5 157zM438 1219l-65 38q29 54 87.5 87.5t121.5 33.5q44 0 85 -19t68 -41.5t62 -41.5t69 -19q41 0 79.5 22t58.5 56l69 -37q-30 -56 -90.5 -91.5t-130.5 -35.5q-47 0 -89.5 19t-68 41.5t-59.5 41.5t-68 19q-38 0 -73.5 -20t-55.5 -53z" />
    <glyph glyph-name="odieresis" unicode="&#xf6;" horiz-adv-x="1294" 
d="M680 1071q157 0 275 -71t176.5 -198.5t44.5 -287.5q-22 -243 -188.5 -399t-403.5 -156q-157 0 -274.5 70.5t-175.5 197.5t-44 287q20 243 187 400t403 157zM592 63q187 0 319.5 127.5t151.5 323.5q17 196 -93 323.5t-298 127.5q-187 0 -319.5 -127t-149.5 -324
q-17 -196 92.5 -323.5t296.5 -127.5zM457 1194q-38 0 -60.5 24t-19.5 62q3 37 29.5 60.5t64.5 23.5t59.5 -23.5t18.5 -60.5q-3 -38 -29 -62t-63 -24zM928 1194q-38 0 -60 24t-18 62q3 37 28.5 60.5t63.5 23.5t60 -23.5t18 -60.5q-3 -38 -28.5 -62t-63.5 -24z" />
    <glyph glyph-name="divide" unicode="&#xf7;" horiz-adv-x="1130" 
d="M524 41q-35 0 -55.5 22.5t-17.5 57.5t27.5 56.5t60.5 21.5q35 0 55.5 -21.5t17.5 -56.5t-28 -57.5t-60 -22.5zM113 594h921l-10 -105h-922zM594 848q-35 0 -56 22.5t-18 57.5q3 34 28 56t60 22t56 -22t18 -56q-3 -35 -27 -57.5t-61 -22.5z" />
    <glyph glyph-name="oslash" unicode="&#xf8;" horiz-adv-x="1298" 
d="M682 975q-193 0 -328.5 -130t-152.5 -331q-12 -130 35 -233.5t139 -163.5l487 819q-77 39 -180 39zM600 53q192 0 327 130.5t152 330.5q10 117 -26 212.5t-111 158.5l-479 -811q72 -21 137 -21zM412 -12l-90 -152h-113l113 191q-120 70 -180.5 197.5t-47.5 289.5
q22 243 189.5 400t406.5 157q123 0 223 -47l121 205h113l-150 -252q101 -73 151.5 -194t37.5 -269q-22 -243 -189 -399t-405 -156q-95 0 -180 29z" />
    <glyph glyph-name="ugrave" unicode="&#xf9;" 
d="M999 0h-114l16 172q-60 -98 -169.5 -155.5t-231.5 -57.5q-193 0 -293.5 129t-81.5 334l53 608h113l-53 -608q-14 -160 59 -259.5t221 -99.5q153 0 272.5 102.5t131.5 254.5l53 610h115zM385 1485h131l215 -334h-125z" />
    <glyph glyph-name="uacute" unicode="&#xfa;" 
d="M999 0h-114l16 172q-60 -98 -169.5 -155.5t-231.5 -57.5q-193 0 -293.5 129t-81.5 334l53 608h113l-53 -608q-14 -160 59 -259.5t221 -99.5q153 0 272.5 102.5t131.5 254.5l53 610h115zM834 1485h131l-281 -334h-123z" />
    <glyph glyph-name="ucircumflex" unicode="&#xfb;" 
d="M999 0h-114l16 172q-60 -98 -169.5 -155.5t-231.5 -57.5q-193 0 -293.5 129t-81.5 334l53 608h113l-53 -608q-14 -160 59 -259.5t221 -99.5q153 0 272.5 102.5t131.5 254.5l53 610h115zM444 1151h-114l278 334h129l221 -334h-116l-174 262z" />
    <glyph glyph-name="udieresis" unicode="&#xfc;" 
d="M1004 0h-113l14 172q-60 -98 -169.5 -155.5t-231.5 -57.5q-191 0 -292 129t-83 334l53 608h113l-53 -608q-12 -161 61 -260t221 -99q151 0 271 102.5t133 254.5l53 610h113zM416 1194q-37 0 -59 23.5t-19 60.5q3 38 29 61t65 23q37 0 59 -23t19 -61q-3 -37 -29.5 -60.5
t-64.5 -23.5zM889 1194q-38 0 -60.5 23.5t-19.5 60.5q3 38 29 61t65 23q38 0 59.5 -23t18.5 -61q-3 -37 -29 -60.5t-63 -23.5z" />
    <glyph glyph-name="yacute" unicode="&#xfd;" horiz-adv-x="1157" 
d="M27 -428l8 102q70 -24 127 -24q51 0 92.5 21.5t81.5 76.5t63 95t69 130q11 22 17 33l-385 1024h125l328 -885l434 885h121l-512 -1038q-25 -50 -41.5 -82t-40 -75.5t-41 -71t-42 -61t-45.5 -54.5t-47.5 -42.5t-53 -33.5t-57.5 -19.5t-64 -7.5q-75 0 -137 27zM532 1153
l273 332h131l-279 -332h-125z" />
    <glyph glyph-name="ydieresis" unicode="&#xff;" horiz-adv-x="1157" 
d="M31 -428l10 102q70 -24 127 -24q50 0 91 21t80.5 74.5t62 93.5t67.5 128l6.5 13t6.5 12.5t7 13.5l-385 1024h127l328 -885l432 885h121l-512 -1038q-31 -64 -52 -105t-51 -93t-54 -84.5t-56.5 -67t-64 -53.5t-70.5 -31.5t-82 -12.5q-73 0 -139 27zM389 1194
q-38 0 -60.5 24t-19.5 62q3 37 29.5 60.5t64.5 23.5t59.5 -23.5t18.5 -60.5q-3 -38 -29 -62t-63 -24zM860 1194q-38 0 -60 24t-18 62q3 37 28.5 60.5t63.5 23.5t60 -23.5t18 -60.5q-3 -38 -28.5 -62t-63.5 -24z" />
    <glyph glyph-name="Amacron" unicode="&#x100;" horiz-adv-x="1380" 
d="M731 1329l-436 -919h713zM252 309l-148 -309h-129l680 1440h170l426 -1440h-127l-92 309h-780zM446 1731h644l-9 -86h-643z" />
    <glyph glyph-name="amacron" unicode="&#x101;" horiz-adv-x="1363" 
d="M596 63q184 0 318 128.5t151 322.5t-95 322.5t-296 128.5q-187 0 -319.5 -127t-149.5 -324q-17 -195 93.5 -323t297.5 -128zM1092 807l18 223h115l-90 -1030h-115l20 221q-73 -122 -195.5 -192t-269.5 -70q-232 0 -368.5 157t-114.5 398q22 243 185.5 400t396.5 157
q147 0 256.5 -70.5t161.5 -193.5zM373 1300h643l-8 -86h-643z" />
    <glyph glyph-name="Abreve" unicode="&#x102;" horiz-adv-x="1380" 
d="M725 1329l-436 -919h712zM246 309l-148 -309h-129l680 1440h170l428 -1440h-129l-92 309h-780zM938 1862h92q-9 -123 -85.5 -201t-194.5 -78q-120 0 -183.5 77.5t-52.5 201.5h94q-6 -83 35.5 -136t112.5 -53q72 0 123.5 53t58.5 136z" />
    <glyph glyph-name="abreve" unicode="&#x103;" horiz-adv-x="1363" 
d="M588 63q185 0 318.5 128t152.5 323q17 194 -95 322.5t-296 128.5q-187 0 -319.5 -127t-149.5 -324q-17 -196 92.5 -323.5t296.5 -127.5zM1083 807l21 223h113l-91 -1030h-112l18 221q-71 -122 -193.5 -192t-269.5 -70q-152 0 -268 71t-173 198t-44 286q22 243 186 400
t396 157q148 0 257.5 -70.5t159.5 -193.5zM864 1462h94q-11 -133 -87.5 -221t-196.5 -88q-122 0 -183.5 88t-50.5 221h97q-8 -96 32.5 -157.5t110.5 -61.5q72 0 123.5 61.5t60.5 157.5z" />
    <glyph glyph-name="Aogonek" unicode="&#x104;" horiz-adv-x="1476" 
d="M743 1329l-436 -919h713zM1130 23l-86 286h-780l-147 -309h-129l680 1440h170l428 -1440h-43q-106 -28 -166 -88.5t-66 -136.5q-9 -112 83 -182.5t247 -73.5l-8 -90q-191 0 -305.5 93.5t-102.5 239.5q7 87 68 157t157 104z" />
    <glyph glyph-name="aogonek" unicode="&#x105;" horiz-adv-x="1476" 
d="M606 63q184 0 318 128.5t151 322.5t-95 322.5t-296 128.5q-187 0 -319.5 -127t-149.5 -324q-17 -195 93.5 -323t297.5 -128zM1032 23l19 198q-73 -122 -195.5 -192t-269.5 -70q-232 0 -369 157t-115 398q22 243 185.5 400t396.5 157q147 0 256.5 -70.5t161.5 -193.5
l18 223h115l-90 -1030h-25q-107 -30 -167 -90t-66 -135q-10 -113 81.5 -183.5t245.5 -72.5l-6 -92q-192 0 -306.5 94t-100.5 239q7 89 69.5 160t161.5 103z" />
    <glyph glyph-name="Cacute" unicode="&#x106;" horiz-adv-x="1681" 
d="M801 59q203 0 371 118.5t227 297.5l112 -24q-68 -216 -270.5 -359t-447.5 -143q-216 0 -380.5 99t-246 275t-62.5 396q15 166 84.5 309.5t178 245t253.5 159.5t306 58q245 0 423.5 -149.5t209.5 -374.5l-121 -17q-27 184 -173.5 307t-346.5 123q-182 0 -334.5 -84.5
t-247 -235.5t-111.5 -341q-16 -189 52 -340t205.5 -235.5t318.5 -84.5zM1085 1874h136l-248 -291h-131z" />
    <glyph glyph-name="cacute" unicode="&#x107;" horiz-adv-x="1234" 
d="M668 1071q181 0 309 -104.5t147 -266.5l-112 -16q-20 124 -119.5 204.5t-233.5 80.5q-182 0 -313.5 -129t-148.5 -326q-17 -196 92 -324.5t291 -128.5q135 0 247.5 76t155.5 195l109 -17q-49 -155 -196.5 -255.5t-324.5 -100.5q-233 0 -371 157t-116 398q22 243 187 400
t397 157zM879 1485h131l-281 -332h-123z" />
    <glyph glyph-name="Ccircumflex" unicode="&#x108;" horiz-adv-x="1681" 
d="M801 59q203 0 371 118.5t227 297.5l112 -24q-68 -216 -270.5 -359t-447.5 -143q-216 0 -380.5 99t-246 275t-62.5 396q15 166 84.5 309.5t178 245t253.5 159.5t306 58q245 0 423.5 -149.5t209.5 -374.5l-121 -17q-27 184 -173.5 307t-346.5 123q-182 0 -334.5 -84.5
t-247 -235.5t-111.5 -341q-16 -189 52 -340t205.5 -235.5t318.5 -84.5zM717 1583h-123l283 291h129l233 -291h-123l-180 223z" />
    <glyph glyph-name="ccircumflex" unicode="&#x109;" horiz-adv-x="1234" 
d="M668 1071q181 0 309 -104.5t147 -266.5l-112 -16q-20 124 -119.5 204.5t-233.5 80.5q-182 0 -313.5 -129t-148.5 -326q-17 -196 92 -324.5t291 -128.5q135 0 247.5 76t155.5 195l109 -17q-49 -155 -196.5 -255.5t-324.5 -100.5q-233 0 -371 157t-116 398q22 243 187 400
t397 157zM477 1153h-115l279 332h129l221 -332h-117l-174 262z" />
    <glyph glyph-name="Cdotaccent" unicode="&#x10a;" horiz-adv-x="1681" 
d="M805 59q204 0 372 118.5t226 297.5l113 -24q-44 -141 -150.5 -255.5t-256.5 -180.5t-312 -66q-216 0 -380 99t-245.5 275t-62.5 396q15 166 84.5 309.5t177.5 245t253 159.5t306 58q247 0 424.5 -149.5t208.5 -374.5l-121 -17q-27 184 -173.5 307t-346.5 123
q-182 0 -334.5 -84.5t-247 -235.5t-111.5 -341q-16 -189 52 -340t205.5 -235.5t318.5 -84.5zM924 1614q-38 0 -59.5 22.5t-18.5 59.5q3 36 29 59t63 23q38 0 60.5 -22.5t19.5 -59.5q-5 -37 -30.5 -59.5t-63.5 -22.5z" />
    <glyph glyph-name="cdotaccent" unicode="&#x10b;" horiz-adv-x="1234" 
d="M672 1071q181 0 310 -105t146 -266l-110 -16q-22 125 -121.5 205t-232.5 80q-182 0 -314 -129t-149 -326q-17 -196 92 -324.5t291 -128.5q136 0 249 76t154 195l109 -17q-49 -155 -196.5 -255.5t-324.5 -100.5q-233 0 -371 157t-116 398q22 243 187 400t397 157z
M686 1214q-37 0 -59 24t-19 62q3 37 29 60.5t63 23.5q38 0 60.5 -23.5t19.5 -60.5q-3 -38 -29.5 -62t-64.5 -24z" />
    <glyph glyph-name="Ccaron" unicode="&#x10c;" horiz-adv-x="1681" 
d="M799 59q204 0 372 118.5t226 297.5l114 -24q-45 -141 -152 -255.5t-256.5 -180.5t-311.5 -66q-216 0 -380.5 99t-245.5 275t-61 396q14 166 83.5 309.5t177.5 245t253 159.5t306 58q246 0 423.5 -149.5t208.5 -374.5l-120 -17q-27 183 -174 306.5t-347 123.5
q-182 0 -334 -84.5t-246 -235.5t-110 -341q-17 -189 50.5 -340t205 -235.5t318.5 -84.5zM1143 1917h117l-281 -334h-129l-221 332l116 2l177 -262z" />
    <glyph glyph-name="ccaron" unicode="&#x10d;" horiz-adv-x="1234" 
d="M668 1071q181 0 309 -104.5t147 -266.5l-112 -16q-20 124 -119.5 204.5t-233.5 80.5q-182 0 -313.5 -129t-148.5 -326q-17 -196 92 -324.5t291 -128.5q135 0 247.5 76t155.5 195l109 -17q-49 -155 -196.5 -255.5t-324.5 -100.5q-233 0 -371 157t-116 398q22 243 187 400
t397 157zM903 1485h117l-281 -332h-129l-221 332h117l176 -262z" />
    <glyph glyph-name="Dcaron" unicode="&#x10e;" horiz-adv-x="1554" 
d="M1288 719q16 183 -61.5 322t-234 213.5t-369.5 74.5h-279l-106 -1218h278q323 0 535 166t237 442zM506 0h-400l127 1440h398q187 0 339 -52t253 -146t150.5 -228.5t35.5 -294.5q-19 -214 -138 -377.5t-317.5 -252.5t-447.5 -89zM768 1640l221 263h117l-281 -332h-127
l-221 332h115z" />
    <glyph glyph-name="dcaron" unicode="&#x10f;" horiz-adv-x="1544" 
d="M666 961q-187 0 -319.5 -126.5t-149.5 -320.5q-17 -193 93 -318.5t298 -125.5q186 0 319 125.5t150 318.5q17 194 -93.5 320.5t-297.5 126.5zM84 514q20 241 185 399t397 158q146 0 253.5 -69t159.5 -189l62 688h112l-131 -1501h-110l18 219q-72 -120 -194 -190t-269 -70
q-114 0 -209 41.5t-159 114.5t-95 176.5t-20 222.5zM1452 1313h-4q-34 0 -53.5 22t-16.5 56q3 35 25.5 56t56.5 21q39 0 61 -30t19 -78q-6 -66 -40.5 -128t-86.5 -106l-41 37q32 31 54.5 73t25.5 77z" />
    <glyph glyph-name="Dcroat" unicode="&#x110;" horiz-adv-x="1652" 
d="M303 885l47 555h400q378 0 591.5 -198.5t184.5 -522.5q-28 -324 -275.5 -521.5t-625.5 -197.5h-400l68 778h-236l9 107h237zM1407 719q16 183 -61.5 322t-235 213.5t-371.5 74.5h-276l-39 -444h461l-8 -107h-463l-58 -667h277q325 0 537 166t237 442z" />
    <glyph glyph-name="dcroat" unicode="&#x111;" horiz-adv-x="1464" 
d="M666 961q-187 0 -319.5 -126.5t-149.5 -320.5q-17 -193 93 -318.5t298 -125.5q186 0 319 125.5t150 318.5q17 194 -93.5 320.5t-297.5 126.5zM1079 813l39 434h-469l8 92h469l15 162h112l-14 -162h201l-8 -92h-201l-109 -1247h-110l18 219q-72 -120 -194 -190t-269 -70
q-114 0 -209 41.5t-159 114.5t-95 176.5t-20 222.5q20 241 185 399t397 158q146 0 253.5 -69t159.5 -189z" />
    <glyph glyph-name="Emacron" unicode="&#x112;" horiz-adv-x="1300" 
d="M293 694l-51 -583h878l-10 -111h-995l125 1440h977l-11 -111h-858l-45 -528h774l-8 -107h-776zM1083 1731l-8 -86h-643l8 86h643z" />
    <glyph glyph-name="emacron" unicode="&#x113;" horiz-adv-x="1296" 
d="M215 580h854q-3 171 -110.5 278t-278.5 107q-176 0 -304.5 -107t-160.5 -278zM92 520q22 240 190.5 395.5t409.5 155.5q235 0 373.5 -156t116.5 -395q-1 -7 -3.5 -23.5t-2.5 -19.5h-971q-5 -182 106 -298t291 -116q132 0 250.5 74.5t169.5 188.5l108 -19
q-62 -151 -213 -249.5t-321 -98.5q-158 0 -278 72t-180 200t-46 289zM393 1300h643l-8 -86h-643z" />
    <glyph glyph-name="Ebreve" unicode="&#x114;" horiz-adv-x="1300" 
d="M1063 694h-776l-49 -583h876l-10 -111h-995l127 1440h974l-10 -111h-856l-47 -528h776zM932 1862h94q-11 -124 -87.5 -201.5t-195.5 -77.5t-182.5 77.5t-52.5 201.5h96q-7 -83 34.5 -136t113.5 -53q71 0 122 53t58 136z" />
    <glyph glyph-name="ebreve" unicode="&#x115;" horiz-adv-x="1296" 
d="M209 580h852q-2 171 -110 278t-279 107q-174 0 -302.5 -107t-160.5 -278zM86 520q20 239 189.5 395t408.5 156q235 0 373.5 -156t116.5 -395q0 -8 -5 -43h-972q-3 -182 107.5 -298t289.5 -116q133 0 251.5 74.5t168.5 188.5l110 -19q-62 -151 -213 -249.5t-321 -98.5
q-159 0 -279 72t-179.5 200t-45.5 289zM883 1462h96q-11 -133 -88 -221t-199 -88q-120 0 -181 88t-50 221h96q-8 -96 32.5 -157.5t110.5 -61.5q72 0 124 62t59 157z" />
    <glyph glyph-name="Edotaccent" unicode="&#x116;" horiz-adv-x="1300" 
d="M291 694l-51 -583h878l-10 -111h-995l125 1440h976l-10 -111h-858l-45 -528h774l-8 -107h-776zM750 1614q-39 0 -60.5 23t-17.5 59q3 37 28.5 59.5t63.5 22.5t59.5 -22.5t18.5 -59.5t-28.5 -59.5t-63.5 -22.5z" />
    <glyph glyph-name="edotaccent" unicode="&#x117;" horiz-adv-x="1296" 
d="M211 580h854q-3 171 -110.5 278t-278.5 107q-174 0 -303.5 -107t-161.5 -278zM88 520q22 239 191.5 395t408.5 156q235 0 373.5 -156t116.5 -395q0 -15 -4 -43h-973q-3 -182 107.5 -298t289.5 -116q132 0 251.5 74.5t168.5 188.5l108 -19q-62 -151 -212.5 -249.5
t-321.5 -98.5q-239 0 -381.5 158.5t-122.5 402.5zM702 1214q-37 0 -58.5 24t-18.5 62q3 37 29.5 60.5t64.5 23.5q37 0 59 -23.5t19 -60.5q-3 -38 -30 -62t-65 -24z" />
    <glyph glyph-name="Eogonek" unicode="&#x118;" horiz-adv-x="1300" 
d="M842 0h-715l127 1440h975l-10 -111h-857l-47 -528h777l-11 -107h-774l-51 -583h877l-9 -111h-141q-105 -30 -164 -90t-65 -135q-10 -112 81 -182.5t246 -73.5l-8 -90q-191 0 -305 93.5t-102 239.5q7 75 54 137t122 101z" />
    <glyph glyph-name="eogonek" unicode="&#x119;" horiz-adv-x="1296" 
d="M225 580h854q-3 171 -110.5 278t-278.5 107q-176 0 -304.5 -107t-160.5 -278zM600 -41q-157 1 -275.5 73t-177.5 200t-45 288q22 240 190.5 395.5t409.5 155.5q234 0 372 -155.5t118 -395.5q-1 -7 -3.5 -23.5t-2.5 -19.5h-971q-5 -182 106 -298t289 -116q133 0 252 74.5
t170 188.5l109 -19q-49 -121 -158 -210t-244 -122q-76 -33 -118.5 -86t-47.5 -116q-10 -111 82 -182t246 -74l-8 -90q-191 0 -305 93.5t-101 239.5q9 115 113 199z" />
    <glyph glyph-name="Ecaron" unicode="&#x11a;" horiz-adv-x="1300" 
d="M285 694l-52 -583h879l-10 -111h-996l125 1440h977l-10 -111h-858l-45 -528h776l-10 -107h-776zM969 1915h116l-280 -332h-129l-221 332h116l177 -262z" />
    <glyph glyph-name="ecaron" unicode="&#x11b;" horiz-adv-x="1296" 
d="M207 580h854q-3 171 -110.5 278t-278.5 107q-176 0 -304.5 -107t-160.5 -278zM84 520q22 239 191.5 395t408.5 156q235 0 373.5 -156t116.5 -395q-1 -4 -2 -12.5t-2 -16.5t-3 -14h-970q-5 -182 106 -298t291 -116q132 0 251.5 74.5t168.5 188.5l108 -19
q-62 -151 -213 -249.5t-321 -98.5q-158 0 -278 72t-180 200t-46 289zM698 1223l222 262h116l-280 -332h-127l-221 332h114z" />
    <glyph glyph-name="Gcircumflex" unicode="&#x11c;" horiz-adv-x="1763" 
d="M815 59q176 0 325.5 80t243.5 223.5t109 321.5h-625l9 104h747q-7 -240 -114 -432t-291 -299.5t-412 -107.5q-220 0 -387.5 99t-251 275t-64.5 396t133.5 396.5t299 276t403.5 99.5q249 0 428 -144.5t207 -367.5l-115 -21q-31 183 -180 302.5t-348 119.5
q-186 0 -341.5 -84.5t-252 -235.5t-113.5 -341q-16 -187 54 -338t210.5 -236.5t325.5 -85.5zM750 1583h-125l284 291h129l232 -291h-121l-180 223z" />
    <glyph glyph-name="gcircumflex" unicode="&#x11d;" horiz-adv-x="1359" 
d="M588 70q187 0 319.5 126t149.5 318q17 196 -94 323.5t-297 127.5q-189 0 -320.5 -127t-148.5 -324q-17 -193 94.5 -318.5t296.5 -125.5zM561 -408q182 0 307 114.5t142 301.5l18 209q-76 -118 -196 -185t-263 -67q-152 0 -268 70.5t-173.5 196.5t-43.5 282
q22 242 186 398.5t396 156.5q145 0 252.5 -67t162.5 -185l19 213h112l-90 -1022q-20 -234 -178.5 -377t-388.5 -143q-204 0 -344.5 114t-149.5 289l111 15q11 -137 120.5 -225.5t268.5 -88.5zM705 1415l-222 -262h-116l280 332h127l223 -332h-116z" />
    <glyph glyph-name="Gbreve" unicode="&#x11e;" horiz-adv-x="1763" 
d="M817 59q132 0 251.5 47t209 129.5t147.5 198.5t70 250h-627l9 104h747q-4 -180 -68 -336t-171.5 -266.5t-257.5 -173.5t-320 -63q-220 0 -387 99t-250 275t-64 396t133 396.5t298.5 276t404.5 99.5q248 0 426.5 -144.5t206.5 -367.5l-115 -21q-29 183 -178.5 302.5
t-349.5 119.5q-186 0 -341.5 -84.5t-251.5 -235.5t-112 -341q-17 -187 52.5 -338t210.5 -236.5t327 -85.5zM1139 1862h92q-9 -123 -86 -201t-195 -78q-119 0 -182.5 77.5t-52.5 201.5h94q-6 -83 35.5 -136t113.5 -53q71 0 122.5 53t58.5 136z" />
    <glyph glyph-name="gbreve" unicode="&#x11f;" horiz-adv-x="1359" 
d="M590 70q187 0 319.5 126t149.5 318q17 196 -94 323.5t-297 127.5q-189 0 -320.5 -127t-148.5 -324q-17 -193 94 -318.5t297 -125.5zM563 -408q180 0 306 114.5t143 301.5l16 209q-74 -118 -194 -185t-263 -67q-233 0 -370 155.5t-117 393.5q22 241 187 398t397 157
q144 0 251 -67t162 -185l19 213h112l-88 -1022q-22 -234 -180.5 -377t-388.5 -143q-204 0 -343.5 114t-150.5 289l113 15q9 -136 119 -225t270 -89zM872 1462h97q-13 -133 -90 -221t-197 -88q-122 0 -183 88t-48 221h94q-8 -96 32.5 -157.5t112.5 -61.5q70 0 121.5 62
t60.5 157z" />
    <glyph glyph-name="Gdotaccent" unicode="&#x120;" horiz-adv-x="1763" 
d="M819 59q176 0 325.5 80t243.5 223.5t109 321.5h-625l9 104h747q-4 -180 -68 -336t-171.5 -266.5t-257.5 -173.5t-320 -63q-220 0 -387.5 99t-250.5 275t-64 396q15 165 85.5 308.5t180.5 245t258 160t313 58.5q248 0 426.5 -144.5t206.5 -367.5l-115 -21
q-29 183 -178.5 302.5t-349.5 119.5q-186 0 -341.5 -84.5t-252 -235.5t-113.5 -341q-16 -187 54 -338t210.5 -236.5t325.5 -85.5zM956 1614q-38 0 -60 22.5t-19 59.5q5 37 30.5 59.5t63.5 22.5t59.5 -22.5t18.5 -59.5t-29 -59.5t-64 -22.5z" />
    <glyph glyph-name="gdotaccent" unicode="&#x121;" horiz-adv-x="1359" 
d="M592 70q188 0 320 125.5t149 318.5q17 196 -93.5 323.5t-295.5 127.5q-189 0 -321.5 -127t-149.5 -324q-17 -193 94.5 -318.5t296.5 -125.5zM565 -408q182 0 307 114.5t142 301.5l18 209q-76 -119 -195 -185.5t-262 -66.5q-233 0 -370 155.5t-117 393.5
q22 242 186.5 398.5t397.5 156.5q144 0 251 -67t162 -185l19 213h113l-91 -1022q-20 -234 -178.5 -377t-388.5 -143q-204 0 -343 114t-150 289l110 15q10 -136 120.5 -225t268.5 -89zM692 1214q-38 0 -60 24t-18 62q3 37 29.5 60.5t63.5 23.5q38 0 60 -23.5t17 -60.5
q-3 -38 -29 -62t-63 -24z" />
    <glyph glyph-name="Gcommaaccent" unicode="&#x122;" horiz-adv-x="1763" 
d="M834 59q176 0 325 80t242.5 223.5t109.5 321.5h-626l8 104h747q-4 -180 -68 -336t-171.5 -266.5t-257.5 -173.5t-320 -63q-220 0 -387 99t-249.5 275t-63.5 396t133 396.5t298 276t404 99.5q248 0 426.5 -144.5t206.5 -367.5l-114 -21q-29 183 -179 302.5t-350 119.5
q-186 0 -341 -84.5t-251 -235.5t-112 -341q-17 -187 52.5 -338t210.5 -236.5t327 -85.5zM805 -322q-35 0 -56 22.5t-18 57.5q3 34 26 56t56 22q40 0 61.5 -30t18.5 -80q-6 -65 -40.5 -126.5t-86.5 -105.5l-41 35q32 32 54.5 73.5t25.5 75.5z" />
    <glyph glyph-name="gcommaaccent" unicode="&#x123;" horiz-adv-x="1359" 
d="M588 70q187 0 319.5 126t149.5 318q17 196 -94 323.5t-297 127.5q-189 0 -320.5 -127t-148.5 -324q-17 -193 94.5 -318.5t296.5 -125.5zM561 -408q182 0 307 114.5t142 301.5l18 209q-76 -118 -196 -185t-263 -67q-152 0 -268 70.5t-173.5 196.5t-43.5 282
q20 241 185 398t397 157q145 0 252.5 -67t162.5 -185l19 213h112l-90 -1022q-20 -234 -178.5 -377t-388.5 -143q-204 0 -344.5 114t-149.5 289l111 15q9 -136 119 -225t270 -89zM700 1309h5q34 0 53 -22.5t16 -57.5q-3 -34 -26 -56t-56 -22q-39 0 -61 31.5t-19 79.5
q6 66 40 126.5t87 104.5l41 -35q-32 -33 -54.5 -74.5t-25.5 -74.5z" />
    <glyph glyph-name="Itilde" unicode="&#x128;" horiz-adv-x="520" 
d="M111 0l127 1440h120l-127 -1440h-120zM45 1653l-65 49q30 53 89.5 87t127.5 34q46 0 85 -17t62 -37.5t56.5 -37.5t70.5 -17q45 0 82.5 23t58.5 61l70 -45q-31 -56 -92 -90.5t-135 -34.5q-48 0 -88 17t-62.5 37.5t-54 37.5t-64.5 17q-84 0 -141 -84z" />
    <glyph glyph-name="itilde" unicode="&#x129;" horiz-adv-x="483" 
d="M100 0l90 1030h113l-90 -1030h-113zM8 1219l-65 38q31 54 89 87.5t120 33.5q45 0 86 -19t67.5 -41.5t61.5 -41.5t69 -19q42 0 80 22t57 56l70 -37q-30 -56 -90.5 -91.5t-130.5 -35.5q-47 0 -89 19t-67.5 41.5t-59.5 41.5t-67 19q-39 0 -74 -20t-57 -53z" />
    <glyph glyph-name="Imacron" unicode="&#x12a;" horiz-adv-x="495" 
d="M238 1440h120l-127 -1440h-120zM645 1731l-8 -86h-643l8 86h643z" />
    <glyph glyph-name="imacron" unicode="&#x12b;" horiz-adv-x="436" 
d="M195 1030h112l-90 -1030h-113zM596 1300l-8 -86h-643l8 86h643z" />
    <glyph glyph-name="Iogonek" unicode="&#x12e;" horiz-adv-x="501" 
d="M127 14l125 1426h121l-125 -1440h-10q-107 -30 -167.5 -90.5t-66.5 -134.5q-10 -113 81.5 -183.5t246.5 -72.5l-8 -92q-190 0 -305 94t-101 239q7 84 63 151t146 103z" />
    <glyph glyph-name="iogonek" unicode="&#x12f;" horiz-adv-x="460" 
d="M121 18l88 1012h113l-91 -1030h-6q-109 -28 -170 -89.5t-67 -137.5q-10 -112 81 -182.5t246 -73.5l-8 -90q-191 0 -304.5 93.5t-100.5 239.5q7 86 66 154t153 104zM283 1237q-37 0 -59 24t-19 62q3 37 29 60.5t63 23.5q38 0 60.5 -23.5t19.5 -60.5q-3 -38 -29.5 -62
t-64.5 -24z" />
    <glyph glyph-name="Idotaccent" unicode="&#x130;" horiz-adv-x="501" 
d="M238 1440h120l-125 -1440h-120zM313 1614q-38 0 -59 22.5t-18 59.5q3 36 29 59t63 23q38 0 60.5 -22.5t19.5 -59.5q-3 -36 -29.5 -59t-65.5 -23z" />
    <glyph glyph-name="dotlessi" unicode="&#x131;" horiz-adv-x="434" 
d="M207 1030h112l-90 -1030h-112z" />
    <glyph glyph-name="IJ" unicode="&#x132;" horiz-adv-x="1368" 
d="M254 1440h121l-127 -1440h-121zM1044 432l89 1008h120l-88 -1008q-20 -220 -146.5 -346.5t-311.5 -126.5q-121 0 -246 41l8 109q125 -39 233 -39q140 0 233.5 94.5t108.5 267.5z" />
    <glyph glyph-name="ij" unicode="&#x133;" horiz-adv-x="837" 
d="M219 1030h113l-90 -1030h-113zM539 -186l106 1216h115l-109 -1225q-9 -115 -84 -188.5t-182 -73.5q-80 0 -156 27l11 104q67 -24 131 -24q69 0 115.5 46t52.5 118zM293 1237q-37 0 -59 24t-19 62q3 37 29.5 60.5t64.5 23.5q37 0 59 -23.5t19 -60.5q-3 -38 -29.5 -62
t-64.5 -24zM721 1237q-38 0 -60.5 24t-19.5 62q3 37 29.5 60.5t64.5 23.5q37 0 59 -23.5t19 -60.5q-3 -38 -29 -62t-63 -24z" />
    <glyph glyph-name="Kcommaaccent" unicode="&#x136;" horiz-adv-x="1193" 
d="M127 0l127 1440h121l-56 -627l703 627h164l-768 -680l657 -760h-160l-606 707l-61 -707h-121zM539 -330h-4q-34 0 -53.5 22t-16.5 56q3 35 26.5 56.5t57.5 21.5q38 0 60 -31t18 -78q-6 -66 -40 -127.5t-85 -105.5l-43 37q32 31 54.5 72.5t25.5 76.5z" />
    <glyph glyph-name="kcommaaccent" unicode="&#x137;" horiz-adv-x="1034" 
d="M106 0l132 1501h114l-80 -905l533 434h158l-596 -485l524 -545h-156l-473 492l-43 -492h-113zM463 -313q-35 0 -56 22.5t-18 57.5t25.5 56t56.5 21q39 0 61 -30t19 -78q-6 -66 -40.5 -128t-86.5 -106l-41 37q31 31 54 73t26 75z" />
    <glyph glyph-name="Lacute" unicode="&#x139;" horiz-adv-x="1159" 
d="M1006 0h-897l124 1440h121l-114 -1329h774zM492 1874h135l-248 -291h-133z" />
    <glyph glyph-name="lacute" unicode="&#x13a;" horiz-adv-x="677" 
d="M221 1501h113l-131 -1501h-113zM463 1880h135l-248 -293h-133z" />
    <glyph glyph-name="Lcommaaccent" unicode="&#x13b;" horiz-adv-x="1159" 
d="M1024 0h-897l127 1440h121l-117 -1329h776zM557 -330h-4q-34 0 -53.5 22t-16.5 56q3 35 26 56.5t56 21.5q39 0 61 -30.5t19 -78.5q-6 -66 -40 -127.5t-85 -105.5l-43 37q32 31 54.5 72.5t25.5 76.5z" />
    <glyph glyph-name="lcommaaccent" unicode="&#x13c;" horiz-adv-x="471" 
d="M238 1501h114l-133 -1501h-113zM141 -319h-4q-34 0 -53 21.5t-16 55.5q3 35 25.5 56.5t56.5 21.5q38 0 60 -30.5t17 -77.5q-4 -65 -38.5 -127t-86.5 -107l-43 37q33 31 56 73t26 77z" />
    <glyph glyph-name="Lcaron" unicode="&#x13d;" horiz-adv-x="1159" 
d="M1032 111l-10 -111h-897l127 1440h121l-117 -1329h776zM680 1319q-36 0 -56.5 22t-17.5 58q3 34 26 56t56 22q38 0 60 -31t18 -80q-6 -64 -40 -125.5t-85 -105.5l-43 34q33 33 56 75t26 75z" />
    <glyph glyph-name="lcaron" unicode="&#x13e;" horiz-adv-x="653" 
d="M238 1501h114l-133 -1501h-113zM561 1311q-35 0 -56 22.5t-18 57.5q3 34 26.5 55.5t57.5 21.5q39 0 60.5 -30.5t17.5 -79.5q-6 -65 -40 -126.5t-85 -105.5l-43 35q32 32 54.5 74t25.5 76z" />
    <glyph glyph-name="Lslash" unicode="&#x141;" horiz-adv-x="1019" 
d="M35 520l237 148l68 772h121l-62 -692l779 479l-11 -119l-778 -479l-45 -518h776l-10 -111h-897l49 549l-239 -146z" />
    <glyph glyph-name="lslash" unicode="&#x142;" horiz-adv-x="827" 
d="M823 997l-350 -215l-70 -782h-112l63 711l-350 -215l10 118l351 213l57 674h113l-52 -600l351 215z" />
    <glyph glyph-name="Nacute" unicode="&#x143;" horiz-adv-x="1478" 
d="M393 1440l705 -1290l112 1290h121l-125 -1440h-159l-705 1288l-113 -1288h-120l124 1440h160zM971 1874h135l-248 -291h-131z" />
    <glyph glyph-name="nacute" unicode="&#x144;" 
d="M199 1030h112l-16 -172q62 97 171 155t230 58q193 0 293.5 -129.5t81.5 -335.5l-51 -606h-115l53 606q14 161 -59 260t-221 99q-152 0 -271.5 -102.5t-132.5 -254.5l-53 -608h-112zM874 1485h132l-281 -332h-123z" />
    <glyph glyph-name="Ncommaaccent" unicode="&#x145;" horiz-adv-x="1478" 
d="M412 1440l706 -1290l113 1290h121l-127 -1440h-158l-707 1288l-112 -1288h-121l127 1440h158zM653 -332h-4q-35 0 -53.5 22t-15.5 56q3 35 25.5 56.5t56.5 21.5q38 0 60 -31t17 -78q-6 -66 -40 -127.5t-85 -105.5l-43 37q33 33 56 74t26 75z" />
    <glyph glyph-name="ncommaaccent" unicode="&#x146;" 
d="M215 1030h115l-17 -172q60 97 170 155t232 58q193 0 293.5 -129.5t81.5 -335.5l-54 -606h-112l53 606q14 161 -59.5 260t-221.5 99q-153 0 -272 -102.5t-131 -254.5l-53 -608h-115zM563 -334q-35 0 -55 22.5t-16 57.5q1 35 24 56.5t57 21.5q38 0 60 -31t18 -78
q-6 -66 -40 -127.5t-85 -105.5l-43 37q32 31 54.5 72t25.5 75z" />
    <glyph glyph-name="Ncaron" unicode="&#x147;" horiz-adv-x="1478" 
d="M391 1440l705 -1290l112 1290h121l-125 -1440h-157l-707 1288l-113 -1288h-121l125 1440h160zM1028 1915h117l-281 -332h-129l-221 332h117l176 -262z" />
    <glyph glyph-name="ncaron" unicode="&#x148;" 
d="M199 1030h112l-16 -172q62 97 171 155t230 58q193 0 293.5 -129.5t81.5 -335.5l-51 -606h-115l53 606q14 161 -59 260t-221 99q-152 0 -271.5 -102.5t-132.5 -254.5l-53 -608h-112zM911 1485h117l-280 -332h-130l-221 332h117l176 -262z" />
    <glyph glyph-name="Omacron" unicode="&#x14c;" horiz-adv-x="1785" 
d="M813 -51q-222 0 -389 98.5t-249.5 274t-63.5 397.5q20 222 133.5 398t297.5 275t406 99q165 0 303 -58t230 -159.5t137 -245t31 -309.5t-84.5 -309.5t-180.5 -244.5t-258 -158.5t-313 -57.5zM938 1380q-186 0 -341.5 -84.5t-252 -235.5t-113.5 -341q-16 -188 54 -339
t210.5 -236t325.5 -85q186 0 341.5 84.5t252 235.5t113.5 340q16 190 -53.5 341t-210 235.5t-326.5 84.5zM1290 1731l-8 -86h-643l8 86h643z" />
    <glyph glyph-name="omacron" unicode="&#x14d;" horiz-adv-x="1294" 
d="M596 63q186 0 319 128t150 323q17 196 -93 323.5t-298 127.5q-187 0 -319.5 -127t-149.5 -324q-17 -195 93.5 -323t297.5 -128zM684 1071q156 0 273.5 -71t176 -198.5t44.5 -287.5q-22 -243 -188 -399t-404 -156q-156 0 -273.5 70.5t-176 197.5t-44.5 287
q22 243 188.5 400t403.5 157zM383 1300h643l-8 -86h-643z" />
    <glyph glyph-name="Obreve" unicode="&#x14e;" horiz-adv-x="1785" 
d="M932 1380q-186 0 -341.5 -84.5t-251.5 -235.5t-112 -341q-17 -188 52.5 -339t210.5 -236t327 -85q281 0 480.5 186.5t224.5 473.5q16 190 -53.5 341t-210 235.5t-326.5 84.5zM807 -51q-166 0 -304.5 57.5t-230.5 158.5t-136.5 244.5t-29.5 309.5q19 222 132.5 398
t297.5 275t406 99q165 0 302.5 -58t229.5 -159.5t137 -245t31 -309.5t-84.5 -309.5t-180 -244.5t-257.5 -158.5t-313 -57.5zM1139 1862h94q-11 -124 -87.5 -201.5t-195.5 -77.5t-182.5 77.5t-52.5 201.5h96q-7 -83 34 -136t113 -53q71 0 122.5 53t58.5 136z" />
    <glyph glyph-name="obreve" unicode="&#x14f;" horiz-adv-x="1294" 
d="M588 63q187 0 319.5 127.5t151.5 323.5q17 196 -93 323.5t-298 127.5q-187 0 -319.5 -127t-149.5 -324q-19 -195 91.5 -323t297.5 -128zM676 1071q117 0 214.5 -41.5t163 -115t97 -177t20.5 -223.5q-22 -243 -188.5 -399t-402.5 -156q-238 0 -377 156t-119 399
q22 243 189 400t403 157zM874 1462h95q-11 -133 -88 -221t-197 -88q-122 0 -183 88t-50 221h96q-8 -96 32.5 -157.5t110.5 -61.5q72 0 123.5 61.5t60.5 157.5z" />
    <glyph glyph-name="Ohungarumlaut" unicode="&#x150;" horiz-adv-x="1785" 
d="M807 -51q-222 0 -389 98.5t-250 274t-64 397.5q20 222 134 398t298 275t404 99q222 0 389 -99t249.5 -275t63.5 -398q-15 -166 -85.5 -309.5t-180 -244.5t-257 -158.5t-312.5 -57.5zM932 1380q-186 0 -341.5 -84.5t-252 -235.5t-113.5 -341q-16 -188 54 -339t210.5 -236
t325.5 -85q186 0 341.5 84.5t252 235.5t113.5 340q16 190 -53.5 341t-210 235.5t-326.5 84.5zM961 1874h124l-256 -291h-110zM1272 1874h123l-260 -291h-111z" />
    <glyph glyph-name="ohungarumlaut" unicode="&#x151;" horiz-adv-x="1290" 
d="M672 1071q117 0 214.5 -41.5t163 -115t97 -177t20.5 -223.5q-22 -243 -188.5 -399t-403.5 -156q-238 0 -376.5 156t-118.5 399q22 243 189 400t403 157zM584 63q187 0 319.5 127.5t151.5 323.5q17 196 -93 323.5t-298 127.5q-187 0 -319.5 -127t-149.5 -324
q-19 -195 91.5 -323t297.5 -128zM739 1522h129l-307 -369h-112zM1053 1522l125 -2l-312 -367h-112z" />
    <glyph glyph-name="OE" unicode="&#x152;" horiz-adv-x="2172" 
d="M1073 111l107 1216q-100 43 -238 43q-281 0 -477 -182.5t-221 -468.5q-16 -187 52 -335.5t205 -231t318 -82.5q151 0 254 41zM123 719q19 220 131.5 394t293.5 271t398 97q137 0 252 -41h903l-10 -111h-791l-47 -547h709l-10 -104h-709l-49 -567h811l-10 -111h-924
q-121 -43 -258 -43q-217 0 -381.5 97t-246 271t-62.5 394z" />
    <glyph glyph-name="oe" unicode="&#x153;" horiz-adv-x="2271" 
d="M606 63q186 0 319 128t150 323q17 196 -93 323.5t-298 127.5q-187 0 -319.5 -127t-149.5 -324q-17 -195 93.5 -323t297.5 -128zM1198 580h854q-2 171 -110 278t-279 107q-174 0 -303.5 -107t-161.5 -278zM1112 258q-78 -139 -214 -219t-302 -80q-156 0 -273.5 70.5
t-176 197.5t-44.5 287q22 243 188.5 400t403.5 157q164 0 285 -79.5t176 -217.5q78 137 215.5 217t304.5 80q235 0 373.5 -156t116.5 -395q0 -15 -4 -43h-973q-3 -182 107.5 -298t289.5 -116q132 0 251.5 74.5t168.5 188.5l109 -19q-62 -151 -213 -249.5t-322 -98.5
q-166 0 -289 80t-178 219z" />
    <glyph glyph-name="Racute" unicode="&#x154;" horiz-adv-x="1449" 
d="M836 1329h-490l-59 -661h489q177 0 294.5 90.5t129.5 236.5q13 152 -87.5 243t-276.5 91zM279 557l-50 -557h-120l124 1440h619q224 0 355 -124.5t114 -320.5q-13 -159 -125.5 -274t-282.5 -146l322 -575h-143l-304 559zM713 1583l243 291h136l-248 -291h-131z" />
    <glyph glyph-name="racute" unicode="&#x155;" horiz-adv-x="825" 
d="M199 1030h108l-12 -162q50 96 128.5 148.5t176.5 52.5q71 0 145 -33l-8 -108q-75 37 -153 37q-127 0 -212.5 -105t-99.5 -274l-51 -586h-112zM684 1485h131l-278 -332h-125z" />
    <glyph glyph-name="Rcommaaccent" unicode="&#x156;" horiz-adv-x="1449" 
d="M854 1329h-489l-58 -661h490q175 0 293 90.5t131 236.5q12 153 -89.5 243.5t-277.5 90.5zM297 557l-49 -557h-121l127 1440h616q225 0 355.5 -124t113.5 -321q-13 -159 -125 -274t-280 -146l319 -575h-141l-305 559zM645 -332h-4q-34 0 -53.5 22.5t-16.5 57.5q3 34 26 56
t56 22q38 0 60.5 -32t17.5 -79q-4 -65 -38 -126t-87 -105l-43 35q33 33 56 74.5t26 74.5z" />
    <glyph glyph-name="rcommaaccent" unicode="&#x157;" horiz-adv-x="776" 
d="M215 1030h111l-15 -162q52 96 130.5 148.5t176.5 52.5q72 0 146 -33l-10 -108q-73 37 -152 37q-127 0 -212 -104.5t-99 -274.5l-51 -586h-113zM160 -319h-4q-34 0 -53.5 21.5t-16.5 55.5q3 35 25.5 57.5t56.5 22.5q38 0 60.5 -31.5t17.5 -78.5q-4 -66 -38 -128t-87 -106
l-43 37q33 33 56 75t26 75z" />
    <glyph glyph-name="Rcaron" unicode="&#x158;" horiz-adv-x="1449" 
d="M834 1329h-490l-59 -661h491q175 0 293 90.5t131 236.5q12 153 -89 243.5t-277 90.5zM276 557l-49 -557h-121l125 1440h619q224 0 355 -124.5t114 -320.5q-13 -159 -125.5 -274t-282.5 -146l322 -575h-141l-306 559zM793 1653l221 262h116l-280 -332h-129l-221 332h116z
" />
    <glyph glyph-name="rcaron" unicode="&#x159;" horiz-adv-x="794" 
d="M199 1030h108l-12 -162q50 96 128.5 148.5t176.5 52.5q71 0 145 -33l-8 -108q-75 37 -153 37q-127 0 -212.5 -105t-99.5 -274l-51 -586h-112zM709 1485h118l-280 -332h-129l-221 332h116l176 -262z" />
    <glyph glyph-name="Sacute" unicode="&#x15a;" horiz-adv-x="1425" 
d="M1237 410q-17 -203 -182.5 -332t-413.5 -129q-126 0 -232.5 38.5t-178 106t-107.5 162.5t-27 205h121q-15 -177 107.5 -289.5t328.5 -112.5q195 0 322 93.5t141 244.5q5 62 -18 107.5t-55.5 71.5t-102 46t-116.5 28t-140 20q-54 7 -88.5 12.5t-84.5 15t-83 20t-73.5 27
t-66.5 35.5t-52.5 46.5t-40 60t-20.5 75t-3 91.5q11 125 87 224.5t203 156.5t283 57q161 0 285 -62t187 -171.5t51 -245.5l-117 -2q14 161 -103.5 265.5t-312.5 104.5q-184 -1 -306 -89.5t-134 -227.5q-3 -35 3 -65t16.5 -53t32.5 -42.5t42 -33t55 -26t61 -19.5t70.5 -15
t73 -12t78.5 -11q103 -14 160 -24.5t138.5 -38t122.5 -63.5t69 -100t20 -150zM930 1874h135l-248 -291h-131z" />
    <glyph glyph-name="sacute" unicode="&#x15b;" horiz-adv-x="1077" 
d="M930 287q-12 -142 -137.5 -235t-305.5 -93q-193 0 -309 106t-102 269h112q-10 -118 76.5 -194.5t231.5 -76.5q131 0 222 61.5t99 154.5q4 42 -14 74.5t-46 52t-74.5 34.5t-83 21.5t-87.5 13.5q-75 11 -122 21t-103 31t-86 49t-48 75t-12 109q10 134 128.5 222.5
t283.5 88.5q182 0 292.5 -97.5t98.5 -248.5l-110 2q9 104 -74 171t-217 67q-116 0 -200 -58.5t-93 -148.5q-3 -34 8 -60t32.5 -44t59.5 -31.5t80 -22.5t102 -18q49 -8 82 -14t80 -18.5t78.5 -26.5t65.5 -36.5t53.5 -49.5t31 -65.5t7.5 -84.5zM760 1485h131l-281 -332h-123z
" />
    <glyph glyph-name="Scircumflex" unicode="&#x15c;" horiz-adv-x="1425" 
d="M1237 410q-17 -203 -182.5 -332t-413.5 -129q-126 0 -232.5 38.5t-178 106t-107.5 162.5t-27 205h121q-15 -177 107.5 -289.5t328.5 -112.5q195 0 322 93.5t141 244.5q5 62 -18 107.5t-55.5 71.5t-102 46t-116.5 28t-140 20q-54 7 -88.5 12.5t-84.5 15t-83 20t-73.5 27
t-66.5 35.5t-52.5 46.5t-40 60t-20.5 75t-3 91.5q11 125 87 224.5t203 156.5t283 57q161 0 285 -62t187 -171.5t51 -245.5l-117 -2q14 161 -103.5 265.5t-312.5 104.5q-184 -1 -306 -89.5t-134 -227.5q-3 -35 3 -65t16.5 -53t32.5 -42.5t42 -33t55 -26t61 -19.5t70.5 -15
t73 -12t78.5 -11q103 -14 160 -24.5t138.5 -38t122.5 -63.5t69 -100t20 -150zM563 1583h-125l283 291h131l231 -291h-122l-181 223z" />
    <glyph glyph-name="scircumflex" unicode="&#x15d;" horiz-adv-x="1077" 
d="M930 287q-12 -142 -137.5 -235t-305.5 -93q-193 0 -309 106t-102 269h112q-10 -118 76.5 -194.5t231.5 -76.5q131 0 222 61.5t99 154.5q4 42 -14 74.5t-46 52t-74.5 34.5t-83 21.5t-87.5 13.5q-75 11 -122 21t-103 31t-86 49t-48 75t-12 109q10 134 128.5 222.5
t283.5 88.5q182 0 292.5 -97.5t98.5 -248.5l-110 2q9 104 -74 171t-217 67q-116 0 -200 -58.5t-93 -148.5q-3 -34 8 -60t32.5 -44t59.5 -31.5t80 -22.5t102 -18q49 -8 82 -14t80 -18.5t78.5 -26.5t65.5 -36.5t53.5 -49.5t31 -65.5t7.5 -84.5zM358 1153h-114l278 332h129
l223 -332h-118l-174 262z" />
    <glyph glyph-name="Scedilla" unicode="&#x15e;" horiz-adv-x="1425" 
d="M633 -195h-80l31 148q-225 22 -356.5 162.5t-112.5 345.5h118q-15 -177 108.5 -289.5t330.5 -112.5q194 0 321.5 93.5t139.5 244.5q4 52 -8 92t-46 67t-65.5 45t-94 32t-101.5 20.5t-116 16.5q-54 7 -89 12.5t-85.5 15t-83.5 20t-73.5 27t-66.5 35.5t-52 46.5t-39.5 60
t-20 75t-2.5 91.5q15 190 175.5 314t396.5 124q161 0 284.5 -62t186.5 -171.5t51 -245.5l-117 -2q14 161 -103 265.5t-312 104.5q-184 -1 -306.5 -90t-134.5 -227q-3 -35 3 -65t16.5 -53t32.5 -42.5t42 -33t55 -26t61 -19.5t70.5 -15t73 -12t78.5 -11q103 -14 160 -24.5
t138.5 -38t122.5 -63.5t69 -100t20 -150q-17 -202 -179.5 -331t-407.5 -130l-17 -78q107 0 166 -60.5t51 -158.5q-7 -91 -73.5 -148t-163.5 -57q-84 0 -139.5 47t-63.5 123l76 18q9 -51 44.5 -81.5t86.5 -30.5q61 0 101.5 36t45.5 95q6 69 -34 110t-113 41z" />
    <glyph glyph-name="scedilla" unicode="&#x15f;" horiz-adv-x="1077" 
d="M494 -195h-80l32 156q-169 17 -266.5 120t-85.5 253h111q-9 -118 77.5 -194.5t229.5 -76.5q133 0 224.5 61.5t99.5 154.5q3 42 -15 74.5t-46.5 52t-74.5 34.5t-82.5 21.5t-87.5 13.5q-53 8 -88 14.5t-79.5 18t-73 25t-58 35t-45 47.5t-24 63t-4.5 82q12 134 130 222.5
t283 88.5q182 0 293 -97.5t99 -248.5l-111 2q7 104 -75 171t-216 67q-117 0 -201.5 -58.5t-91.5 -148.5q-3 -34 8.5 -60t33 -44t59.5 -31.5t79.5 -22.5t102.5 -18q49 -8 82 -14t79.5 -18.5t78 -26.5t66 -36.5t53.5 -49.5t30.5 -65.5t7.5 -84.5q-12 -137 -130 -228.5
t-290 -99.5l-18 -88q107 0 166 -60.5t51 -158.5q-8 -91 -74 -148t-164 -57q-84 0 -139 47t-63 123l75 18q9 -51 45 -81.5t87 -30.5q61 0 101.5 36t45.5 95q6 69 -34 110t-113 41z" />
    <glyph glyph-name="Scaron" unicode="&#x160;" horiz-adv-x="1425" 
d="M1235 410q-17 -203 -182.5 -332t-413.5 -129q-256 0 -409.5 144.5t-133.5 367.5h119q-15 -177 108 -289.5t330 -112.5q194 0 321.5 93.5t139.5 244.5q3 35 -3 64.5t-16.5 52t-33 42t-42 32.5t-55.5 25.5t-60.5 19.5t-70 15t-72 11.5t-77.5 10.5q-54 7 -89 12.5t-85.5 15
t-83.5 20t-73.5 27t-66.5 35.5t-52 46.5t-39.5 60t-20 75t-2.5 91.5q15 190 175 314t396 124q161 0 285 -62t187 -171.5t51 -245.5l-117 -2q14 161 -103.5 265.5t-312.5 104.5q-184 -1 -306 -89.5t-134 -227.5q-3 -35 3 -65t16.5 -53t32.5 -42.5t42 -33t55 -26t61 -19.5
t70.5 -15t73 -12t78.5 -11q103 -14 160 -24.5t138.5 -38t122.5 -63.5t69 -100t20 -150zM987 1915h117l-281 -332h-127l-223 332h117l176 -262z" />
    <glyph glyph-name="scaron" unicode="&#x161;" horiz-adv-x="1077" 
d="M930 287q-12 -142 -137.5 -235t-305.5 -93q-193 0 -309 106t-102 269h112q-10 -118 76.5 -194.5t231.5 -76.5q131 0 222 61.5t99 154.5q4 42 -14 74.5t-46 52t-74.5 34.5t-83 21.5t-87.5 13.5q-75 11 -122 21t-103 31t-86 49t-48 75t-12 109q10 134 128.5 222.5
t283.5 88.5q182 0 292.5 -97.5t98.5 -248.5l-110 2q9 104 -74 171t-217 67q-116 0 -200 -58.5t-93 -148.5q-3 -34 8 -60t32.5 -44t59.5 -31.5t80 -22.5t102 -18q49 -8 82 -14t80 -18.5t78.5 -26.5t65.5 -36.5t53.5 -49.5t31 -65.5t7.5 -84.5zM784 1485h117l-280 -332h-127
l-222 332h115l176 -262z" />
    <glyph glyph-name="Tcommaaccent" unicode="&#x162;" horiz-adv-x="1198" 
d="M596 0h-121l117 1329h-496l8 111h1115l-11 -111h-495zM510 -334q-36 0 -56.5 22t-17.5 58q3 35 25.5 56.5t56.5 21.5q38 0 60 -31t18 -78q-6 -66 -40 -127.5t-85 -105.5l-43 37q33 31 56 72.5t26 74.5z" />
    <glyph glyph-name="tcommaaccent" unicode="&#x163;" horiz-adv-x="759" 
d="M213 233l61 699h-176l8 96h181l32 238h97l-21 -238h277l-8 -96h-277l-61 -696q-6 -78 34 -127t113 -50q60 0 135 21l-8 -98q-71 -23 -158 -23q-115 0 -177.5 74.5t-51.5 199.5zM389 -334q-35 0 -56 22.5t-18 57.5t25.5 56.5t56.5 21.5q38 0 60 -31t18 -78
q-4 -66 -38 -127.5t-87 -105.5l-43 37q33 31 56 72.5t26 74.5z" />
    <glyph glyph-name="Tcaron" unicode="&#x164;" horiz-adv-x="1198" 
d="M457 0l116 1329h-497l10 111h1114l-10 -111h-496l-116 -1329h-121zM879 1880h118l-280 -334h-129l-221 334h116l174 -262z" />
    <glyph glyph-name="tcaron" unicode="&#x165;" horiz-adv-x="751" 
d="M205 233l61 699h-178l10 96h181l32 238h97l-21 -238h277l-9 -96h-276l-62 -696q-6 -79 34 -127.5t114 -49.5q61 0 133 21l-8 -98q-67 -23 -156 -23q-115 0 -177.5 74.5t-51.5 199.5zM610 1313h-4q-34 0 -53 22.5t-16 57.5q3 34 26 55.5t55 21.5q40 0 62.5 -31t17.5 -79
q-6 -65 -40 -126.5t-85 -105.5l-43 35q32 32 54.5 74t25.5 76z" />
    <glyph glyph-name="Utilde" unicode="&#x168;" horiz-adv-x="1480" 
d="M1155 580l76 860h121l-76 -860q-25 -280 -197 -455.5t-424 -175.5q-165 0 -287 79.5t-180.5 223.5t-42.5 328l76 860h121l-76 -860q-21 -227 89.5 -374t310.5 -147t334.5 143.5t154.5 377.5zM535 1653l-66 49q30 53 89.5 87t127.5 34q46 0 85 -17t61.5 -37.5t56 -37.5
t69.5 -17q46 0 84.5 23t59.5 61l67 -45q-30 -56 -91 -90.5t-134 -34.5q-48 0 -88 17t-62.5 37.5t-53.5 37.5t-64 17q-84 0 -141 -84z" />
    <glyph glyph-name="utilde" unicode="&#x169;" 
d="M1094 1030l-90 -1030h-113l14 172q-60 -98 -169.5 -155.5t-231.5 -57.5q-193 0 -293.5 129t-81.5 334l53 608h113l-53 -608q-14 -160 59 -259.5t221 -99.5q152 0 272.5 102.5t133.5 254.5l53 610h113zM397 1217l-65 40q31 53 90 87t121 34q44 0 85 -19t67 -41.5t61 -41.5
t69 -19q42 0 80.5 22t57.5 56l69 -37q-30 -56 -90.5 -91.5t-128.5 -35.5q-47 0 -89.5 19t-68 41.5t-59.5 41.5t-68 19q-39 0 -74 -20.5t-57 -54.5z" />
    <glyph glyph-name="Umacron" unicode="&#x16a;" horiz-adv-x="1480" 
d="M1159 580l76 860h121l-76 -860q-25 -280 -197 -455.5t-424 -175.5q-250 0 -392 175.5t-117 455.5l73 860h121l-74 -860q-21 -227 89.5 -374t310.5 -147t334.5 143.5t154.5 377.5zM1137 1731l-7 -86h-643l7 86h643z" />
    <glyph glyph-name="umacron" unicode="&#x16b;" 
d="M1006 0h-113l16 172q-60 -98 -169.5 -155.5t-231.5 -57.5q-193 0 -293.5 129t-81.5 334l53 608h113l-53 -608q-14 -160 59 -259.5t221 -99.5q152 0 271.5 102.5t132.5 254.5l53 610h113zM985 1300l-6 -88h-643l6 88h643z" />
    <glyph glyph-name="Ubreve" unicode="&#x16c;" horiz-adv-x="1480" 
d="M1155 580l74 860h121l-74 -860q-25 -280 -197.5 -455.5t-423.5 -175.5q-252 0 -394.5 175.5t-117.5 455.5l76 860h121l-76 -860q-21 -227 89.5 -374t310.5 -147t334.5 143.5t156.5 377.5zM985 1862h94q-11 -124 -87 -201.5t-195 -77.5t-182 77.5t-52 201.5h94
q-7 -83 34.5 -136t113.5 -53t123 53t57 136z" />
    <glyph glyph-name="ubreve" unicode="&#x16d;" 
d="M1090 1030l-91 -1030h-112l14 172q-60 -98 -169.5 -155.5t-231.5 -57.5q-193 0 -293 129t-82 334l53 608h113l-53 -608q-14 -160 60 -259.5t222 -99.5q151 0 271 102.5t133 254.5l53 610h113zM834 1460h96q-11 -131 -89 -220t-198 -89t-181 88.5t-50 220.5h96
q-9 -95 31.5 -156t111.5 -61q72 0 124 61t59 156z" />
    <glyph glyph-name="Uring" unicode="&#x16e;" horiz-adv-x="1480" 
d="M821 1954q-68 0 -116 -44.5t-54 -111.5q-6 -68 34.5 -112t109.5 -44q68 0 116 44.5t52 111.5q6 68 -34.5 112t-107.5 44zM1147 580l76 860h120l-75 -860q-25 -280 -197.5 -455.5t-423.5 -175.5q-252 0 -394.5 175.5t-117.5 455.5l76 860h121l-76 -860q-19 -227 91 -374
t310 -147q201 0 335.5 143.5t154.5 377.5zM788 1563q-106 0 -168 66t-53 169t82.5 169.5t179.5 66.5q104 0 165.5 -66.5t52.5 -169.5q-7 -102 -80.5 -168.5t-178.5 -66.5z" />
    <glyph glyph-name="uring" unicode="&#x16f;" 
d="M670 1522q-69 0 -116.5 -43.5t-53.5 -112.5q-6 -68 34 -112t109 -44q67 0 114.5 44t53.5 112q6 69 -33.5 112.5t-107.5 43.5zM1083 1030l-90 -1030h-112l14 172q-60 -98 -169.5 -155.5t-231.5 -57.5q-193 0 -293 129t-82 334l53 608h113l-54 -608q-14 -160 60.5 -259.5
t222.5 -99.5q151 0 271 102.5t133 254.5l53 610h112zM637 1130q-106 0 -168 66.5t-53 169.5t82.5 169.5t179.5 66.5q104 0 165 -66.5t52 -169.5t-81.5 -169.5t-176.5 -66.5z" />
    <glyph glyph-name="Uhungarumlaut" unicode="&#x170;" horiz-adv-x="1480" 
d="M1153 580l76 860h121l-76 -860q-25 -280 -197 -455.5t-424 -175.5q-165 0 -287 79.5t-180.5 223.5t-42.5 328l74 860h121l-74 -860q-21 -227 89.5 -374t310.5 -147t334.5 143.5t154.5 377.5zM809 1874h123l-254 -291h-113zM1118 1874h123l-260 -291h-111z" />
    <glyph glyph-name="uhungarumlaut" unicode="&#x171;" horiz-adv-x="1210" 
d="M997 0h-112l14 172q-60 -98 -169.5 -155.5t-231.5 -57.5q-193 0 -293.5 129t-81.5 334l53 608h113l-53 -608q-14 -160 59 -259.5t221 -99.5q152 0 272.5 102.5t133.5 254.5l53 610h112zM694 1520h129l-307 -369h-113zM1006 1520h124l-309 -369h-114z" />
    <glyph glyph-name="Uogonek" unicode="&#x172;" horiz-adv-x="1480" 
d="M682 -51q-257 0 -401 175.5t-119 455.5l76 860h120l-75 -860q-21 -227 89 -374t310 -147t335 143.5t157 377.5l73 860h121l-74 -860q-22 -238 -153 -404.5t-330 -210.5q-130 -69 -143 -192q-9 -112 82.5 -182.5t246.5 -73.5l-8 -90q-191 0 -305 93.5t-102 239.5
q9 111 100 189z" />
    <glyph glyph-name="uogonek" unicode="&#x173;" horiz-adv-x="1363" 
d="M907 20l13 152q-60 -98 -169 -155.5t-231 -57.5q-193 0 -294 129t-83 334l54 608h112l-51 -608q-14 -160 59.5 -259.5t221.5 -99.5q99 0 188 45.5t147.5 128t67.5 183.5l53 610h113l-90 -1030h-19q-102 -30 -159.5 -89.5t-63.5 -133.5q-9 -112 83 -182.5t247 -73.5
l-8 -90q-191 0 -305.5 93.5t-102.5 239.5q7 85 66 153.5t151 102.5z" />
    <glyph glyph-name="Wcircumflex" unicode="&#x174;" horiz-adv-x="2109" 
d="M1188 1440l248 -1344l512 1344h125l-553 -1440h-185l-248 1307l-475 -1307h-188l-299 1440h125l276 -1344l488 1344h174zM909 1583h-125l285 291h129l232 -291h-121l-181 223z" />
    <glyph glyph-name="wcircumflex" unicode="&#x175;" horiz-adv-x="1787" 
d="M539 0h-152l-266 1030h119l235 -915l375 915h137l219 -917l393 917h119l-446 -1030h-154l-211 899zM731 1153h-115l279 332h129l223 -332h-119l-174 262z" />
    <glyph glyph-name="Ycircumflex" unicode="&#x176;" horiz-adv-x="1239" 
d="M477 0l49 563l-432 877h137l367 -758l496 758h137l-584 -877l-49 -563h-121zM477 1583h-125l285 291h129l231 -291h-123l-180 223z" />
    <glyph glyph-name="ycircumflex" unicode="&#x177;" horiz-adv-x="1157" 
d="M27 -428l8 102q70 -24 127 -24q51 0 92.5 21.5t81.5 76.5t63 95t69 130q11 22 17 33l-385 1024h125l328 -885l434 885h121l-512 -1038q-25 -50 -41.5 -82t-40 -75.5t-41 -71t-42 -61t-45.5 -54.5t-47.5 -42.5t-53 -33.5t-57.5 -19.5t-64 -7.5q-75 0 -137 27zM639 1415
l-221 -262h-117l281 332h127l223 -332h-117z" />
    <glyph glyph-name="Ydieresis" unicode="&#x178;" horiz-adv-x="1239" 
d="M483 0l49 563l-432 877h136l366 -758l498 758h137l-584 -877l-49 -563h-121zM467 1604q-37 0 -59 23.5t-19 60.5t29 60.5t63 23.5t60 -24t20 -60q-5 -37 -31 -60.5t-63 -23.5zM897 1604q-37 0 -59 23.5t-19 60.5t29 60.5t63 23.5q38 0 60.5 -23.5t19.5 -60.5
q-3 -36 -30 -60t-64 -24z" />
    <glyph glyph-name="Zacute" unicode="&#x179;" horiz-adv-x="1284" 
d="M6 80l1045 1253h-916l10 107h1082l-6 -80l-1045 -1256h954l-8 -104h-1124zM868 1874h136l-250 -291h-131z" />
    <glyph glyph-name="zacute" unicode="&#x17a;" horiz-adv-x="1124" 
d="M45 74l799 850h-705l11 106h876l-8 -76l-799 -850h746l-9 -104h-917zM801 1485h131l-281 -332h-123z" />
    <glyph glyph-name="Zdotaccent" unicode="&#x17b;" horiz-adv-x="1284" 
d="M10 80l1045 1253h-916l11 107h1081l-6 -80l-1045 -1256h955l-9 -104h-1124zM705 1614q-37 0 -59 23t-19 59q5 37 30 59.5t62 22.5q38 0 60.5 -22.5t19.5 -59.5t-29.5 -59.5t-64.5 -22.5z" />
    <glyph glyph-name="zdotaccent" unicode="&#x17c;" horiz-adv-x="1124" 
d="M49 74l799 850h-703l9 106h876l-6 -76l-799 -850h744l-8 -104h-918zM608 1214q-37 0 -59 24t-19 62q3 37 30 60.5t65 23.5q37 0 58.5 -23.5t18.5 -60.5q-3 -38 -29.5 -62t-64.5 -24z" />
    <glyph glyph-name="Zcaron" unicode="&#x17d;" horiz-adv-x="1284" 
d="M4 80l1045 1253h-916l10 107h1082l-6 -80l-1045 -1256h954l-8 -104h-1124zM924 1915h116l-280 -332h-127l-221 332h114l176 -262z" />
    <glyph glyph-name="zcaron" unicode="&#x17e;" horiz-adv-x="1124" 
d="M45 74l799 850h-705l11 106h876l-8 -76l-799 -850h746l-9 -104h-917zM825 1485h117l-280 -332h-127l-222 332h115l176 -262z" />
    <glyph glyph-name="Aacutering" unicode="&#x1fa;" horiz-adv-x="1380" 
d="M717 1329l-436 -919h712zM752 1741q-44 0 -74 -27t-35 -69q-4 -44 21.5 -72.5t68.5 -28.5t74 28.5t35 72.5q3 42 -22.5 69t-67.5 27zM238 309l-146 -309h-131l680 1440h170l428 -1440h-129l-92 309h-780zM727 1464q-79 0 -127.5 50.5t-42.5 127.5q8 77 64 128t135 51
t126.5 -51t41.5 -128t-62 -127.5t-135 -50.5zM696 1841l176 197h134l-179 -197h-131z" />
    <glyph glyph-name="aacutering" unicode="&#x1fb;" horiz-adv-x="1363" 
d="M571 63q184 0 318 128.5t151 322.5t-95 322.5t-296 128.5q-187 0 -319.5 -127t-149.5 -324q-17 -195 93.5 -323t297.5 -128zM713 1430q-43 0 -73.5 -28t-35.5 -69q-3 -43 22.5 -71.5t69.5 -28.5q42 0 73 29t34 71q4 41 -21.5 69t-68.5 28zM1067 807l18 223h113l-90 -1030
h-113l21 221q-73 -122 -195.5 -192t-269.5 -70q-232 0 -368.5 157t-114.5 398q10 120 58.5 223.5t125 176.5t179 115t216.5 42q149 0 258.5 -70.5t161.5 -193.5zM688 1153q-80 0 -127.5 51t-40.5 127q6 78 62.5 128t136.5 50q79 0 126.5 -50.5t41.5 -127.5q-7 -76 -64 -127
t-135 -51zM707 1583l245 291h135l-249 -291h-131z" />
    <glyph glyph-name="AEacute" unicode="&#x1fc;" horiz-adv-x="1861" 
d="M356 416h490l82 930zM932 111h743l-8 -111h-858l27 309h-541l-191 -309h-135l881 1440h922l-9 -111h-725l-47 -547h641l-8 -104h-643zM1083 1563l246 290h135l-247 -290h-134z" />
    <glyph glyph-name="aeacute" unicode="&#x1fd;" horiz-adv-x="2234" 
d="M666 971q-187 0 -319.5 -128.5t-149.5 -328.5q-19 -196 92 -325.5t297 -129.5q187 0 319.5 127.5t151.5 327.5q17 199 -93 328t-298 129zM1163 553h836q13 178 -97 295t-292 117q-173 0 -298 -117.5t-149 -294.5zM1077 815l19 215h96l-18 -215q70 119 187.5 186.5
t260.5 67.5q233 0 371 -152t118 -385q-2 -29 -10 -77h-942q6 -176 109.5 -284t271.5 -108q135 0 250.5 72.5t159.5 186.5l104 -21q-47 -149 -194 -245.5t-324 -96.5q-148 0 -259 71.5t-155 194.5l-20 -225h-96l18 213q-76 -119 -196.5 -186.5t-264.5 -67.5
q-114 0 -208.5 41.5t-157.5 115t-93.5 176.5t-19.5 222q20 241 183 398t392 157q144 0 253.5 -67.5t164.5 -186.5zM1079 1167l273 334l131 -2l-281 -332h-123z" />
    <glyph glyph-name="Oslashacute" unicode="&#x1fe;" horiz-adv-x="1744" 
d="M911 1380q-179 0 -329.5 -85t-244.5 -236t-110 -340q-17 -188 51.5 -338.5t202.5 -233.5l697 1174q-124 59 -267 59zM797 59q272 0 465.5 186t218.5 474q15 176 -42.5 319t-174.5 230l-691 -1168q103 -41 224 -41zM512 -2l-166 -285h-121l195 330q-165 95 -249.5 273.5
t-64.5 402.5q19 220 130.5 396.5t291.5 276t394 99.5q172 0 315 -70l201 340h118l-229 -389q147 -101 220 -271.5t55 -381.5q-19 -220 -130.5 -396t-291.5 -275t-394 -99q-144 0 -274 49zM893 1563l246 290h135l-248 -290h-133z" />
    <glyph glyph-name="oslashacute" unicode="&#x1ff;" horiz-adv-x="1298" 
d="M670 975q-192 0 -327.5 -130t-154.5 -331q-10 -131 37 -234.5t140 -162.5l485 819q-77 39 -180 39zM590 53q190 0 326 130.5t153 330.5q10 117 -26 212.5t-111 158.5l-481 -811q75 -21 139 -21zM399 -12l-88 -152h-112l112 191q-120 70 -180 197t-47 290q22 243 189 400
t405 157q127 0 223 -47l121 205h115l-150 -252q101 -73 151 -193.5t38 -269.5q-22 -243 -189 -399t-405 -156q-94 0 -183 29zM889 1485h131l-279 -332h-125z" />
    <glyph glyph-name="Scommaaccent" unicode="&#x218;" horiz-adv-x="1425" 
d="M1253 410q-17 -203 -182.5 -332t-413.5 -129q-255 0 -408.5 144.5t-133.5 367.5h118q-15 -177 108.5 -289.5t330.5 -112.5q194 0 321.5 93.5t139.5 244.5q4 52 -8 92t-46 67t-65.5 45t-94 32t-101.5 20.5t-116 16.5q-54 7 -89 12.5t-85.5 15t-83.5 20t-73.5 27
t-66.5 35.5t-52 46.5t-39.5 60t-20 75t-2.5 91.5q15 190 175.5 314t396.5 124q161 0 284.5 -62t186.5 -171.5t51 -245.5l-117 -2q14 161 -103 265.5t-312 104.5q-184 -1 -306.5 -90t-134.5 -227q-3 -35 3 -65t16.5 -53t32.5 -42.5t42 -33t55 -26t61 -19.5t70.5 -15t73 -12
t78.5 -11q103 -14 160 -24.5t138.5 -38t122.5 -63.5t69 -100t20 -150zM612 -332h-4q-34 0 -53 22t-16 56q3 35 26 56.5t56 21.5q40 0 62 -30.5t17 -78.5q-6 -66 -40 -127.5t-85 -105.5l-43 37q32 31 54.5 72.5t25.5 76.5z" />
    <glyph glyph-name="scommaaccent" unicode="&#x219;" horiz-adv-x="1077" 
d="M948 287q-12 -142 -138 -235t-306 -93q-192 0 -308 106t-102 269h111q-9 -118 77.5 -194.5t229.5 -76.5q133 0 224.5 61.5t99.5 154.5q3 42 -15 74.5t-46.5 52t-74.5 34.5t-82.5 21.5t-87.5 13.5q-53 8 -88 14.5t-79.5 18t-73 25t-58 35t-45 47.5t-24 63t-4.5 82
q12 134 130 222.5t283 88.5q182 0 293 -97.5t99 -248.5l-111 2q7 104 -75 171t-216 67q-117 0 -201.5 -58.5t-91.5 -148.5q-3 -34 8.5 -60t33 -44t59.5 -31.5t79.5 -22.5t102.5 -18q49 -8 82 -14t79.5 -18.5t78 -26.5t66 -36.5t53.5 -49.5t30.5 -65.5t7.5 -84.5zM451 -334
q-35 0 -56 22.5t-18 57.5t25.5 56.5t56.5 21.5q38 0 60 -31t18 -78q-6 -66 -40 -127.5t-85 -105.5l-43 37q33 31 56 72.5t26 74.5z" />
    <glyph glyph-name="circumflex" unicode="&#x2c6;" horiz-adv-x="837" 
d="M141 1167l279 334h129l221 -334h-117l-174 263l-223 -263h-115z" />
    <glyph glyph-name="caron" unicode="&#x2c7;" horiz-adv-x="837" 
d="M682 1501h119l-283 -334h-127l-221 332l115 2l176 -262z" />
    <glyph glyph-name="breve" unicode="&#x2d8;" horiz-adv-x="724" 
d="M592 1501h96q-13 -133 -90 -222t-197 -89t-181 89t-50 222h94q-8 -97 33 -158t113 -61q71 0 122 61.5t60 157.5z" />
    <glyph glyph-name="dotaccent" unicode="&#x2d9;" horiz-adv-x="378" 
d="M233 1147q-38 0 -60 24.5t-19 61.5t29.5 60.5t64.5 23.5q37 0 59 -23.5t19 -60.5t-29.5 -61.5t-63.5 -24.5z" />
    <glyph glyph-name="ring" unicode="&#x2da;" horiz-adv-x="688" 
d="M373 1106q-105 0 -167.5 66.5t-53.5 168.5q9 103 83.5 169.5t180.5 66.5q104 0 165 -66.5t52 -169.5t-82 -169t-178 -66zM408 1497q-69 0 -117.5 -44.5t-52.5 -111.5q-6 -68 34 -111.5t109 -43.5q66 0 114 44t54 111q6 68 -34 112t-107 44z" />
    <glyph glyph-name="ogonek" unicode="&#x2db;" horiz-adv-x="643" 
d="M354 33l52 -33q-109 -28 -170.5 -89.5t-67.5 -137.5q-10 -112 81.5 -182.5t246.5 -73.5l-9 -90q-191 0 -304.5 93.5t-100.5 239.5q7 98 81.5 172.5t190.5 100.5z" />
    <glyph glyph-name="tilde" unicode="&#x2dc;" horiz-adv-x="905" 
d="M219 1223l-65 39q31 53 88.5 86.5t119.5 33.5q45 0 86.5 -19t68 -41t61.5 -41t69 -19q42 0 80 21.5t57 55.5l70 -36q-30 -56 -90.5 -91.5t-130.5 -35.5q-47 0 -89 19t-67.5 41t-59.5 41t-67 19q-39 0 -74 -20t-57 -53z" />
    <glyph glyph-name="hungarumlaut" unicode="&#x2dd;" horiz-adv-x="905" 
d="M430 1536h129l-307 -369h-113zM743 1536h125l-311 -369h-113z" />
    <glyph glyph-name="Wgrave" unicode="&#x1e80;" horiz-adv-x="2109" 
d="M1188 1440l248 -1344l512 1344h125l-553 -1440h-185l-248 1307l-475 -1307h-188l-299 1440h125l276 -1344l488 1344h174zM846 1874h133l195 -291h-132z" />
    <glyph glyph-name="wgrave" unicode="&#x1e81;" horiz-adv-x="1787" 
d="M539 0h-152l-266 1030h119l235 -915l375 915h137l219 -917l393 917h119l-446 -1030h-154l-211 899zM651 1485h131l215 -332h-123z" />
    <glyph glyph-name="Wacute" unicode="&#x1e82;" horiz-adv-x="2109" 
d="M1188 1440l248 -1344l512 1344h125l-553 -1440h-185l-248 1307l-475 -1307h-188l-299 1440h125l276 -1344l488 1344h174zM1278 1874h135l-248 -291h-133z" />
    <glyph glyph-name="wacute" unicode="&#x1e83;" horiz-adv-x="1787" 
d="M539 0h-152l-266 1030h119l235 -915l375 915h137l219 -917l393 917h119l-446 -1030h-154l-211 899zM1133 1485h131l-281 -332h-123z" />
    <glyph glyph-name="Wdieresis" unicode="&#x1e84;" horiz-adv-x="2109" 
d="M1192 1440l248 -1344l512 1344h125l-551 -1440h-187l-247 1307l-476 -1307h-186l-301 1440h125l278 -1344l486 1344h174zM1096 1604q-37 0 -59 23.5t-19 60.5t29 60.5t63 23.5q11 0 20 -3q9 3 19 3q38 0 60.5 -23.5t19.5 -60.5q-3 -36 -30 -60t-64 -24q-13 0 -19 2
q-8 -2 -20 -2z" />
    <glyph glyph-name="wdieresis" unicode="&#x1e85;" horiz-adv-x="1787" 
d="M545 0h-154l-266 1030h119l235 -915l375 915h137l221 -917l394 917h118l-448 -1030h-152l-213 899zM702 1194q-37 0 -58.5 24t-18.5 62q3 37 29.5 60.5t64.5 23.5t59.5 -23.5t18.5 -60.5q-3 -38 -30 -62t-65 -24zM1176 1194q-38 0 -60.5 24t-19.5 62q5 37 30.5 60.5
t63.5 23.5t59.5 -23.5t18.5 -60.5q-3 -38 -28.5 -62t-63.5 -24z" />
    <glyph glyph-name="Germandbls" unicode="&#x1e9e;" horiz-adv-x="1351" 
d="M311 975l-86 -975h-121l86 983q20 214 167 352t356 138q186 0 300.5 -110.5t100.5 -272.5q-10 -129 -93.5 -214t-211.5 -106q178 -24 279 -134.5t86 -279.5q-15 -178 -145 -292.5t-312 -114.5q-171 0 -316 100l48 105q123 -97 272 -97q136 0 228.5 86.5t103.5 221.5
q14 160 -96 255t-312 95h-76l9 106h79q138 0 232 71.5t104 190.5q9 118 -73.5 198.5t-219.5 80.5q-157 0 -265.5 -107.5t-123.5 -279.5z" />
    <glyph glyph-name="Ygrave" unicode="&#x1ef2;" horiz-adv-x="1239" 
d="M477 0l49 563l-432 877h137l367 -758l496 758h137l-584 -877l-49 -563h-121zM424 1874h135l193 -291h-131z" />
    <glyph glyph-name="ygrave" unicode="&#x1ef3;" horiz-adv-x="1107" 
d="M2 -428l8 102q70 -24 127 -24q41 0 78 17.5t65 44.5t58 72t53.5 88t54.5 104l15 30l-385 1024h125l327 -885l435 885h120l-512 -1038q-25 -50 -41.5 -82t-40 -75.5t-41 -71t-42 -61t-45.5 -54.5t-47.5 -42.5t-53 -33.5t-57.5 -19.5t-64 -7.5q-71 0 -137 27zM547 1153
l-223 332h131l215 -332h-123z" />
    <glyph glyph-name="endash" unicode="&#x2013;" horiz-adv-x="1351" 
d="M1290 696l-10 -106h-1167l10 106h1167z" />
    <glyph glyph-name="emdash" unicode="&#x2014;" horiz-adv-x="1679" 
d="M82 696h1577l-10 -106h-1577z" />
    <glyph glyph-name="quoteleft" unicode="&#x2018;" horiz-adv-x="393" 
d="M244 1272q38 0 60.5 -23.5t19.5 -60.5q-3 -38 -29.5 -62t-63.5 -24q-43 0 -67 33t-19 84q8 86 51.5 165t104.5 117l51 -45q-43 -28 -73.5 -79t-34.5 -105z" />
    <glyph glyph-name="quoteright" unicode="&#x2019;" horiz-adv-x="393" 
d="M246 1309q-38 0 -60.5 24t-19.5 62q3 37 29 60.5t63 23.5q43 0 66.5 -32.5t19.5 -84.5q-7 -86 -51.5 -165t-104.5 -116l-51 43q43 28 74 79.5t35 105.5z" />
    <glyph glyph-name="quotesinglbase" unicode="&#x201a;" horiz-adv-x="393" 
d="M186 -23q-38 0 -60.5 23.5t-19.5 60.5t30 60.5t65 23.5q41 0 64.5 -31.5t19.5 -82.5q-6 -86 -50 -166t-106 -117l-49 45q41 26 71.5 78t34.5 106z" />
    <glyph glyph-name="quotedblleft" unicode="&#x201c;" horiz-adv-x="686" 
d="M328 1188q-3 -38 -29 -62t-63 -24q-43 0 -67 33t-19 84q7 86 51 165t104 117l51 -45q-43 -28 -73.5 -79t-34.5 -105q38 0 60.5 -23.5t19.5 -60.5zM612 1188q-3 -38 -29 -62t-63 -24q-43 0 -67 33t-19 84q6 86 50 164.5t106 117.5l49 -45q-42 -28 -72.5 -79.5
t-34.5 -104.5q38 0 60.5 -23.5t19.5 -60.5z" />
    <glyph glyph-name="quotedblright" unicode="&#x201d;" horiz-adv-x="679" 
d="M170 1395q3 38 29 62t63 24q43 0 67 -33t19 -84q-7 -86 -51 -165.5t-104 -117.5l-52 45q43 28 74 79.5t35 105.5q-38 0 -60.5 23.5t-19.5 60.5zM453 1395q3 38 29 62t63 24q43 0 67 -33t19 -84q-7 -86 -51.5 -165t-104.5 -118l-51 45q43 28 73.5 79.5t34.5 105.5
q-38 0 -60 23.5t-19 60.5z" />
    <glyph glyph-name="quotedblbase" unicode="&#x201e;" horiz-adv-x="679" 
d="M109 63q3 37 29 60.5t63 23.5q43 0 66.5 -32t19.5 -84q-7 -86 -51.5 -165t-104.5 -116l-51 43q43 28 73.5 79t34.5 105q-38 0 -60 24t-19 62zM391 63q3 37 29 60.5t63 23.5q43 0 66.5 -32t19.5 -84q-8 -87 -51 -165.5t-104 -115.5l-52 43q43 28 74 79.5t35 104.5
q-38 0 -60.5 24t-19.5 62z" />
    <glyph glyph-name="bullet" unicode="&#x2022;" horiz-adv-x="401" 
d="M215 541q-41 0 -66 26.5t-22 67.5q5 41 34 67.5t70 26.5q43 0 67.5 -26.5t20.5 -67.5q-3 -41 -32 -67.5t-72 -26.5z" />
    <glyph glyph-name="ellipsis" unicode="&#x2026;" horiz-adv-x="991" 
d="M182 -23q-38 0 -60.5 24t-19.5 62q3 36 30 60t65 24q37 0 58.5 -23.5t18.5 -60.5q-3 -38 -29 -62t-63 -24zM487 -23q-38 0 -59 24t-18 62q3 36 29.5 60t62.5 24q38 0 60.5 -23.5t19.5 -60.5q-5 -38 -31 -62t-64 -24zM795 -23q-38 0 -60.5 24t-19.5 62q3 36 29.5 60
t64.5 24q37 0 59 -23.5t19 -60.5q-3 -38 -29 -62t-63 -24z" />
    <glyph glyph-name="perthousand" unicode="&#x2030;" horiz-adv-x="3049" 
d="M1120 391q15 181 141.5 296.5t307.5 115.5q182 0 288 -115.5t91 -296.5q-17 -182 -142.5 -296.5t-308.5 -114.5q-181 0 -286.5 114.5t-90.5 296.5zM1833 391q11 131 -65.5 214t-206.5 83q-132 0 -224 -83.5t-102 -213.5q-12 -130 64.5 -213.5t207.5 -83.5q132 0 223 83
t103 214zM2085 389q15 181 141.5 296.5t308.5 115.5q181 0 286.5 -115t90.5 -297q-15 -180 -141 -296t-309 -116q-181 0 -286.5 116t-90.5 296zM2798 391q11 129 -66 212t-207 83q-132 0 -223 -83t-102 -212q-12 -130 65 -213.5t209 -83.5q130 0 221 83t103 214zM135 1110
q15 180 141.5 296t307.5 116t287.5 -116t91.5 -296q-17 -182 -142.5 -297t-308.5 -115q-182 0 -288 115.5t-89 296.5zM846 1110q12 130 -64 212.5t-207 82.5q-132 0 -223.5 -82.5t-103.5 -212.5q-10 -130 66.5 -213.5t207.5 -83.5q132 0 222.5 83t101.5 214zM1548 1501h135
l-1151 -1501h-135z" />
    <glyph glyph-name="guilsinglleft" unicode="&#x2039;" horiz-adv-x="737" 
d="M678 1030l-467 -516l377 -514h-139l-375 514l465 516h139z" />
    <glyph glyph-name="guilsinglright" unicode="&#x203a;" horiz-adv-x="737" 
d="M662 514l-463 -514h-140l467 514l-376 516h137z" />
    <glyph glyph-name="lira" unicode="&#x20a4;" horiz-adv-x="1200" 
d="M758 1386q-115 0 -194 -87.5t-91 -223.5l-24 -284h532l-8 -89h-533q-4 -54 -16 -133h537l-7 -90h-548q-63 -306 -236 -385h866l-8 -94h-989l12 141q40 5 73.5 23.5t65.5 56.5t58 104t45 158h-195l8 86h203q14 93 17 133h-207l6 89h209l24 284q15 181 128 297.5t278 116.5
q164 0 262 -119.5t98 -308.5l-112 -19q0 154 -68 249t-186 95z" />
    <glyph glyph-name="Euro" unicode="&#x20ac;" horiz-adv-x="1837" 
d="M975 59q202 0 370.5 118.5t227.5 297.5l113 -24q-68 -216 -271 -359t-450 -143q-279 0 -465.5 163t-218.5 429h-195l8 92h180q0 70 19 190h-182l8 90h198q80 260 293.5 419t489.5 159q162 0 300 -69t225 -188.5t106 -266.5l-121 -17q-25 184 -171.5 307t-348.5 123
q-224 0 -400 -127.5t-250 -339.5h707l-8 -90h-723q-11 -48 -17 -104q-4 -59 -2 -86h725l-8 -92h-708q33 -217 187 -349.5t382 -132.5z" />
    <glyph glyph-name="trademark" unicode="&#x2122;" horiz-adv-x="2199" 
d="M311 307l92 1036h-317l8 97h737l-8 -97h-317l-92 -1036h-103zM1982 1303l-489 -996h-88l-313 996l-88 -996h-101l101 1133h153l305 -985l475 985h156l-98 -1133h-101z" />
    <glyph glyph-name="minus" unicode="&#x2212;" horiz-adv-x="1048" 
d="M135 696h840l-10 -106h-840z" />
    <glyph glyph-name="approxequal" unicode="&#x2248;" horiz-adv-x="980" 
 />
    <glyph glyph-name="notequal" unicode="&#x2260;" horiz-adv-x="1171" 
d="M86 442h363l182 396h-510l8 106h551l166 359h108l-166 -359h304l-9 -106h-344l-182 -396h492l-11 -106h-530l-193 -418h-110l194 418h-323z" />
    <glyph glyph-name="lessequal" unicode="&#x2264;" horiz-adv-x="894" 
d="M741 104l-10 -104h-708l10 104h708zM84 707l741 350l-10 -113l-635 -299l582 -301l-10 -111l-678 351z" />
    <glyph glyph-name="greaterequal" unicode="&#x2265;" horiz-adv-x="894" 
d="M78 104h710l-10 -104h-708zM100 344l635 301l-583 299l10 113l680 -350l-13 -123l-739 -351z" />
    <glyph glyph-name="commaaccent" unicode="&#xf6c3;" horiz-adv-x="370" 
d="M176 -37q-35 0 -56 22.5t-18 57.5q3 34 26 56t56 22q38 0 60 -31t18 -80q-4 -64 -38 -125.5t-87 -105.5l-43 35q33 33 56 74.5t26 74.5z" />
    <glyph glyph-name="acute.case" horiz-adv-x="561" 
d="M524 1501l-248 -293h-133l246 293h135z" />
    <glyph glyph-name="breve.case" horiz-adv-x="724" 
d="M592 1501h94q-11 -125 -87 -202.5t-196 -77.5q-119 0 -181.5 77.5t-51.5 202.5h94q-7 -83 34.5 -136.5t113.5 -53.5t123 53.5t57 136.5z" />
    <glyph glyph-name="caron.case" horiz-adv-x="851" 
d="M692 1501h123l-283 -293h-131l-231 293h125l178 -223z" />
    <glyph glyph-name="circumflex.case" horiz-adv-x="851" 
d="M143 1208l285 293h129l231 -293h-120l-183 224l-217 -224h-125z" />
    <glyph glyph-name="dieresis.case" horiz-adv-x="811" 
d="M233 1174q-37 0 -58.5 23t-18.5 60t29 61.5t63 24.5q38 0 60.5 -24.5t19.5 -61.5q-3 -36 -30.5 -59.5t-64.5 -23.5zM664 1174q-37 0 -59 23t-19 60t29.5 61.5t64.5 24.5q37 0 59 -24.5t19 -61.5t-29.5 -60t-64.5 -23z" />
    <glyph glyph-name="dotaccent.case" horiz-adv-x="378" 
d="M233 1178q-38 0 -59 23.5t-18 60.5q3 35 29 58t63 23q38 0 60.5 -23t19.5 -58q-3 -37 -30 -60.5t-65 -23.5z" />
    <glyph glyph-name="grave.case" horiz-adv-x="561" 
d="M170 1511h135l195 -290h-133z" />
    <glyph glyph-name="hungarumlaut.case" horiz-adv-x="858" 
d="M387 1501l123 -2l-254 -291h-113zM696 1501l123 -2l-260 -291h-110z" />
    <glyph glyph-name="ijacute" horiz-adv-x="905" 
d="M201 1030h112l-90 -1030h-112zM545 -190l108 1220h113l-107 -1220q-11 -116 -85 -188.5t-183 -72.5q-76 0 -155 27l8 94q68 -22 133 -22q69 0 115.5 45.5t52.5 116.5zM469 1501l131 -2l-278 -332h-125zM915 1501l132 -2l-279 -332h-125z" />
    <glyph glyph-name="ring.case" horiz-adv-x="573" 
d="M322 1108q-80 0 -128 50t-42 128q8 77 64.5 126.5t135.5 49.5q80 0 126.5 -50t39.5 -126q-6 -78 -62 -128t-134 -50zM346 1382q-43 0 -73.5 -26.5t-34.5 -69.5t21.5 -70.5t68.5 -27.5t74 28t34 70q3 43 -22 69.5t-68 26.5z" />
    <glyph glyph-name="tilde.case" horiz-adv-x="905" 
d="M221 1239l-65 47q28 54 87.5 87.5t129.5 33.5q45 0 84 -17t62 -37.5t56.5 -37.5t69.5 -17q45 0 83 23.5t60 62.5l68 -45q-30 -56 -91.5 -91.5t-133.5 -35.5q-48 0 -88 17t-63 37.5t-54.5 37.5t-65.5 17q-40 0 -77.5 -23t-61.5 -59z" />
    </font>
</defs>
</svg>
