<?xml version="1.0" standalone="no"?>
<!DOCTYPE svg PUBLIC "-//W3C//DTD SVG 1.1//EN" "http://www.w3.org/Graphics/SVG/1.1/DTD/svg11.dtd" >
<svg xmlns="http://www.w3.org/2000/svg" xmlns:xlink="http://www.w3.org/1999/xlink" version="1.1">
<metadata>
Created by FontForge 20170731 at Sun Nov 22 12:00:14 2020
 By Aleksey,,,
Copyright (c) 2017 by Alexander Slobzheninov. All rights reserved.
</metadata>
<defs>
<font id="Objectivity-ExtraBoldSlanted" horiz-adv-x="1294" >
  <font-face 
    font-family="Objectivity ExtBd"
    font-weight="800"
    font-style="oblique"
    font-stretch="normal"
    units-per-em="2048"
    panose-1="0 0 0 0 0 0 0 0 0 0"
    ascent="1638"
    descent="-410"
    x-height="1057"
    cap-height="1466"
    bbox="-213 -756 3140.15 2281"
    underline-thickness="102"
    underline-position="-358"
    unicode-range="U+000D-F6C3"
  />
<missing-glyph horiz-adv-x="1024" 
 />
    <glyph glyph-name=".notdef" horiz-adv-x="1024" 
 />
    <glyph glyph-name=".null" horiz-adv-x="0" 
 />
    <glyph glyph-name="nonmarkingreturn" horiz-adv-x="682" 
 />
    <glyph glyph-name="NULL" horiz-adv-x="1519" 
d="M1440 1466l-129 -1466h-1231l127 1466h1233zM449 295h542l78 879h-543z" />
    <glyph glyph-name="NULL" horiz-adv-x="1519" 
d="M1440 1466l-129 -1466h-1231l127 1466h1233zM449 295h542l78 879h-543z" />
    <glyph glyph-name="CR" unicode="&#xd;" horiz-adv-x="61" 
 />
    <glyph glyph-name="space" unicode=" " horiz-adv-x="620" 
 />
    <glyph glyph-name="exclam" unicode="!" horiz-adv-x="704" 
d="M285 -37q-95 0 -151.5 59.5t-49.5 151.5q7 93 74.5 153t163.5 60t152 -59.5t48 -153.5q-8 -92 -74 -151.5t-163 -59.5zM616 1466l-34 -401l-152 -555h-194l-54 555l35 401h399z" />
    <glyph glyph-name="quotedbl" unicode="&#x22;" horiz-adv-x="864" 
d="M395 1180l-90 -461h-182l-10 461l24 286h285zM829 1180l-90 -461h-184l-8 461l24 286h283z" />
    <glyph glyph-name="numbersign" unicode="#" horiz-adv-x="1888" 
d="M838 874l-76 -210h252l73 210h-249zM1704 664l-23 -261h-428l-143 -403h-334l144 403h-250l-146 -403h-331l143 403h-293l23 261h364l74 210h-318l23 263h389l139 391h334l-139 -391h250l139 391h334l-142 -391h334l-22 -263h-404l-75 -210h358z" />
    <glyph glyph-name="dollar" unicode="$" horiz-adv-x="1482" 
d="M870 -29l-20 -221h-410l19 221q-200 50 -310.5 187.5t-95.5 324.5h387q-7 -94 66 -155.5t192 -61.5q98 0 161 41.5t69 108.5q2 20 -2 36t-15.5 28.5t-23 22t-35 17.5t-40 13t-49 10.5t-51.5 8l-57 7.5q-71 8 -127 18t-117.5 27.5t-106.5 40t-86.5 57.5t-66 78.5
t-36.5 103.5t-6 132q17 183 148 311.5t337 171.5l14 180h412l-19 -190q184 -51 285 -181t88 -302h-370q7 84 -60 139t-176 55q-93 0 -156 -38t-69 -97q-2 -25 5.5 -45t27 -33.5t40 -23t57.5 -17t65.5 -11t76.5 -9.5q69 -7 124.5 -16.5t117 -26.5t107 -39.5t88 -57t67.5 -78
t37 -103.5t6 -132q-17 -187 -150 -320.5t-342 -181.5z" />
    <glyph glyph-name="percent" unicode="%" horiz-adv-x="2254" 
d="M1239 420q17 199 156.5 328t337.5 129q199 0 316.5 -128.5t100.5 -328.5q-19 -198 -158 -326.5t-337 -128.5q-200 0 -317.5 128.5t-98.5 326.5zM1845 420q5 67 -33.5 109t-105.5 42q-66 0 -112 -42.5t-50 -108.5q-6 -66 32.5 -108t104.5 -42t112 42t52 108zM102 1108
q17 200 157 328.5t339 128.5t316 -128.5t100 -328.5q-17 -198 -157 -326.5t-339 -128.5q-198 0 -315.5 128.5t-100.5 326.5zM709 1108q6 66 -33 107.5t-105 41.5t-111.5 -41.5t-51.5 -107.5t32.5 -108t104.5 -42t112 42t52 108zM1532 1528h340l-1151 -1528h-342z" />
    <glyph glyph-name="ampersand" unicode="&#x26;" horiz-adv-x="1759" 
d="M866 301q-20 22 -148 146.5t-136 132.5q-109 -47 -121 -154q-8 -75 52.5 -124.5t160.5 -49.5q99 0 192 49zM762 844q22 -23 176 -175t178 -177q62 75 125 204h348q-84 -222 -266 -407q22 -22 147.5 -145.5t145.5 -143.5h-434l-99 96q-243 -147 -501 -147
q-255 0 -399.5 120t-125.5 328q7 79 35 143.5t73 112t97 81.5t119 63q-84 140 -70 276q17 191 168 315.5t363 124.5q199 0 333 -113t142 -286l-340 -59q-5 76 -47.5 124t-106.5 48q-61 0 -107 -45.5t-52 -116.5q-12 -111 98 -221z" />
    <glyph glyph-name="quotesingle" unicode="'" horiz-adv-x="430" 
d="M395 1180l-90 -461h-182l-10 461l24 286h285z" />
    <glyph glyph-name="parenleft" unicode="(" horiz-adv-x="780" 
d="M662 -369h-355q-135 149 -202.5 407t-41.5 542q25 285 137 543t273 405h356q-170 -176 -284 -431.5t-137 -516.5t46.5 -517.5t207.5 -431.5z" />
    <glyph glyph-name="parenright" unicode=")" horiz-adv-x="780" 
d="M274 -369h-354q169 175 283 431t137 518q23 260 -47 516t-209 432h356q136 -147 203.5 -404.5t42.5 -543.5q-26 -285 -138.5 -542.5t-273.5 -406.5z" />
    <glyph glyph-name="asterisk" unicode="*" horiz-adv-x="1058" 
d="M999 903l-149 -225l-199 141l-6 -254h-262l39 254l-221 -141l-113 225l236 113l-215 112l149 226l199 -140l6 252h262l-39 -252l223 140l111 -226l-236 -112z" />
    <glyph glyph-name="plus" unicode="+" horiz-adv-x="1110" 
d="M707 184h-365l27 312h-299l24 282h299l27 307h366l-28 -307h299l-25 -282h-299z" />
    <glyph glyph-name="comma" unicode="," horiz-adv-x="589" 
d="M250 -37q-86 0 -135.5 59.5t-40.5 151.5q7 91 73 151t156 60q103 0 159 -81t44 -216q-11 -122 -84.5 -248.5t-177.5 -201.5l-187 47q79 67 133 144.5t60 133.5z" />
    <glyph glyph-name="hyphen" unicode="-" horiz-adv-x="987" 
d="M109 793h839l-26 -314h-840z" />
    <glyph glyph-name="period" unicode="." horiz-adv-x="587" 
d="M272 -37q-95 0 -151.5 59.5t-48.5 151.5q9 93 76 153t161 60q97 0 153.5 -59.5t49.5 -153.5q-9 -92 -76 -151.5t-164 -59.5z" />
    <glyph glyph-name="slash" unicode="/" horiz-adv-x="1026" 
d="M733 1466h340l-821 -1937h-340z" />
    <glyph glyph-name="zero" unicode="0" horiz-adv-x="1583" 
d="M721 -51q-200 0 -349.5 100.5t-221.5 279.5t-52 404q19 225 122.5 404t270.5 280t367 101t349.5 -101t222 -280t53.5 -404q-20 -225 -124 -404t-271 -279.5t-367 -100.5zM825 1141q-110 0 -188.5 -114.5t-93.5 -293.5q-17 -177 42.5 -292t168.5 -115q110 0 189.5 114.5
t94.5 292.5q15 179 -44 293.5t-169 114.5z" />
    <glyph glyph-name="one" unicode="1" horiz-adv-x="1011" 
d="M354 0l88 1006l-372 -256l36 413l433 303h372l-129 -1466h-428z" />
    <glyph glyph-name="two" unicode="2" horiz-adv-x="1357" 
d="M496 924l-379 73q43 226 225 373.5t420 147.5q156 0 279.5 -62.5t188 -174t52.5 -249.5q-10 -132 -82 -241t-199 -207l-346 -267h529l-29 -317h-1128l22 244l645 501q86 69 134 127t53 127q6 75 -38 123.5t-118 48.5q-78 0 -142.5 -70t-86.5 -177z" />
    <glyph glyph-name="three" unicode="3" horiz-adv-x="1359" 
d="M770 1149h-618l28 317h1102l-20 -231l-336 -320q153 -40 239.5 -166t71.5 -294q-13 -146 -101 -261.5t-231.5 -180t-316.5 -64.5q-262 0 -413 153t-146 396l391 55q3 -116 54 -186t142 -70q85 0 144.5 55.5t66.5 141.5t-42 141t-132 55q-66 0 -116 -24l-66 229z" />
    <glyph glyph-name="four" unicode="4" horiz-adv-x="1404" 
d="M440 623h269l45 505zM680 305h-680l20 230l605 931h602l-74 -843h164l-27 -318h-166l-26 -305h-445z" />
    <glyph glyph-name="five" unicode="5" horiz-adv-x="1388" 
d="M655 700h-467l125 766h944l-26 -317h-633l-35 -193h252q223 0 352.5 -135.5t110.5 -349.5q-13 -152 -101.5 -271.5t-231.5 -185t-316 -65.5q-265 0 -416 152.5t-145 396.5l391 55q2 -116 52.5 -186t143.5 -70q84 0 143.5 55.5t67.5 139.5q8 92 -50 150t-161 58z" />
    <glyph glyph-name="six" unicode="6" horiz-adv-x="1392" 
d="M659 297q78 0 133 60t64 157q7 92 -37 149.5t-121 57.5q-79 1 -134.5 -57t-63.5 -150q-9 -97 35 -157t124 -60zM211 846l485 620h482l-396 -487q56 12 117 12q196 0 308 -133.5t93 -345.5q-23 -251 -212.5 -407t-471.5 -156q-181 0 -314 68.5t-198 193t-51 285.5
q7 83 52 178t106 172z" />
    <glyph glyph-name="seven" unicode="7" horiz-adv-x="1097" 
d="M1126 1210l-600 -1210h-456l561 1120h-570l31 346h1057z" />
    <glyph glyph-name="eight" unicode="8" horiz-adv-x="1456" 
d="M715 614q-77 0 -132 -44t-61 -113t41 -114.5t125 -45.5t132.5 45.5t60.5 114.5t-41 113t-125 44zM766 1186q-73 0 -124 -41.5t-56 -104.5q-6 -66 37 -109.5t116 -43.5q72 0 123.5 43.5t57.5 109.5q6 63 -38 104.5t-116 41.5zM795 1526q248 0 397.5 -116t132.5 -298
q-9 -114 -79 -209.5t-167 -126.5q118 -26 188 -132t58 -238q-11 -129 -100.5 -232t-238.5 -160t-329 -57q-274 0 -440 127t-149 322q12 133 100.5 238.5t210.5 131.5q-92 31 -145 125.5t-44 208.5q17 181 188 298.5t417 117.5z" />
    <glyph glyph-name="nine" unicode="9" horiz-adv-x="1392" 
d="M731 1169q-78 0 -132.5 -60t-63.5 -157q-7 -92 36.5 -149.5t120.5 -57.5q80 0 136 57.5t63 149.5q9 97 -36 157.5t-124 59.5zM1180 621l-486 -621h-481l397 487q-78 -12 -118 -12q-197 0 -309 133.5t-93 345.5q23 251 212.5 407.5t471.5 156.5q181 0 314 -68.5t198 -193
t51 -285.5q-7 -83 -52 -178t-105 -172z" />
    <glyph glyph-name="colon" unicode=":" horiz-adv-x="587" 
d="M242 -37q-95 0 -151.5 59.5t-49.5 151.5q7 93 74.5 153t163.5 60q97 0 153 -59.5t47 -153.5q-8 -92 -74 -151.5t-163 -59.5zM305 682q-96 0 -153 59.5t-48 151.5q7 92 74.5 151.5t163.5 59.5q95 0 151.5 -59.5t49.5 -151.5t-74.5 -151.5t-163.5 -59.5z" />
    <glyph glyph-name="semicolon" unicode=";" horiz-adv-x="589" 
d="M217 -37q-85 0 -134.5 59.5t-41.5 151.5q7 91 73 151t156 60q104 0 160.5 -81t44.5 -216q-10 -121 -84.5 -248t-177.5 -202l-188 47q80 66 134 143.5t58 134.5zM305 682q-96 0 -153 59.5t-48 151.5q7 92 74.5 151.5t163.5 59.5q95 0 151.5 -59.5t49.5 -151.5
t-74.5 -151.5t-163.5 -59.5z" />
    <glyph glyph-name="less" unicode="&#x3c;" horiz-adv-x="886" 
d="M295 528l491 -213l-28 -333l-756 372l31 348l821 371l-29 -332z" />
    <glyph glyph-name="equal" unicode="=" horiz-adv-x="1110" 
d="M74 514h962l-26 -299h-963zM119 1042h962l-24 -299h-963z" />
    <glyph glyph-name="greater" unicode="&#x3e;" horiz-adv-x="884" 
d="M883 702l-31 -348l-821 -372l28 333l531 213l-494 213l31 332z" />
    <glyph glyph-name="question" unicode="?" horiz-adv-x="1341" 
d="M592 -37q-95 0 -151.5 59.5t-49.5 151.5t74.5 151.5t163.5 59.5q97 0 153 -59.5t47 -151.5q-8 -92 -74 -151.5t-163 -59.5zM811 461h-350q13 151 68.5 242t170.5 163q36 22 55.5 35t46 35.5t40 48t16.5 55.5q6 63 -35.5 104.5t-107.5 41.5q-82 0 -142 -63.5t-81 -164.5
l-390 72q39 215 221.5 351.5t438.5 136.5q244 0 394.5 -123t133.5 -314q-10 -122 -85 -214t-193 -152q-97 -46 -145 -100t-56 -154z" />
    <glyph glyph-name="at" unicode="@" horiz-adv-x="2125" 
d="M1212 532q6 74 -35.5 121t-113.5 47t-123 -47.5t-57 -120.5q-6 -72 36.5 -119.5t114.5 -47.5q71 0 121.5 47.5t56.5 119.5zM1106 1186q-302 0 -515.5 -185t-238.5 -469q-16 -179 41.5 -322t176 -223.5t274.5 -80.5q82 0 172 23t151 57l-22 -269q-65 -33 -155 -53
t-171 -20q-176 0 -324.5 66.5t-249 183.5t-150 282.5t-32.5 355.5q22 255 166.5 458.5t379.5 318t517 114.5q210 0 387 -67t296.5 -184.5t179.5 -283t43 -356.5q-21 -245 -148 -390.5t-352 -145.5q-126 0 -210.5 62.5t-90.5 160.5q-51 -61 -142 -98t-188 -37
q-169 0 -262 124t-76 324q19 197 166.5 324t357.5 127q216 0 339 -128.5t106 -334.5l-16 -178q-1 -31 -1.5 -62.5t18.5 -55t56 -23.5q125 0 156 331q12 140 -29.5 261.5t-126 208t-209.5 135.5t-274 49z" />
    <glyph glyph-name="A" unicode="A" horiz-adv-x="1601" 
d="M831 1092l-221 -570h346zM500 211l-82 -211h-465l588 1466h649l330 -1466h-465l-43 211h-512z" />
    <glyph glyph-name="B" unicode="B" horiz-adv-x="1597" 
d="M1016 459q6 69 -44 112t-136 43h-258l-27 -297h258q86 0 143.5 40t63.5 102zM852 1149h-227l-23 -262h227q82 0 135 36t58 95q6 58 -41 94.5t-129 36.5zM879 0h-799l127 1466h760q245 0 389 -114t129 -289q-9 -116 -73.5 -199.5t-162.5 -111.5q112 -26 171.5 -122
t47.5 -233q-17 -183 -178 -290t-411 -107z" />
    <glyph glyph-name="C" unicode="C" horiz-adv-x="1714" 
d="M854 326q117 0 217 73t135 185l410 -47q-31 -168 -145 -302.5t-288 -210t-374 -75.5q-172 0 -315.5 59t-240 162t-143.5 249t-32 314q14 168 87 314t187 249.5t268 162.5t326 59q196 0 354.5 -76.5t249.5 -212.5t95 -307l-414 -43q-14 114 -99.5 188t-205.5 74
q-164 0 -276.5 -113.5t-127.5 -294.5q-17 -181 76 -294t256 -113z" />
    <glyph glyph-name="D" unicode="D" horiz-adv-x="1667" 
d="M80 0l127 1466h606q249 0 432 -91t272.5 -257.5t71.5 -384.5q-19 -218 -138.5 -384.5t-318.5 -257.5t-448 -91h-604zM1145 733q15 182 -84 292t-277 110h-176l-71 -803h176q179 0 298 109.5t134 291.5z" />
    <glyph glyph-name="E" unicode="E" horiz-adv-x="1288" 
d="M559 598l-22 -250h639l-31 -348h-1065l127 1466h1046l-30 -346h-619l-18 -223h536l-26 -299h-537z" />
    <glyph glyph-name="F" unicode="F" horiz-adv-x="1239" 
d="M1042 483h-477l-41 -483h-444l127 1466h1044l-34 -376h-599l-24 -277h477z" />
    <glyph glyph-name="G" unicode="G" horiz-adv-x="1769" 
d="M881 326q137 0 242 76t124 190h-375l23 254h799q3 -192 -60.5 -359t-176.5 -285t-274.5 -185.5t-348.5 -67.5q-236 0 -416 100.5t-270 279.5t-70 404q14 168 89 314t192.5 249.5t276 162.5t335.5 59q272 0 459 -145t215 -374l-416 -69q-19 93 -101 152t-194 59
q-164 0 -280.5 -115t-131.5 -293q-17 -177 85 -292t274 -115z" />
    <glyph glyph-name="H" unicode="H" horiz-adv-x="1660" 
d="M522 0h-444l129 1466h444l-47 -536h488l47 536h444l-129 -1466h-442l49 584h-488z" />
    <glyph glyph-name="I" unicode="I" horiz-adv-x="731" 
d="M207 1466h444l-127 -1466h-444z" />
    <glyph glyph-name="J" unicode="J" horiz-adv-x="1032" 
d="M442 537l80 929h445l-86 -989q-20 -230 -181.5 -374t-390.5 -144q-180 0 -305 41l29 332q80 -25 178 -25q94 0 158 63t73 167z" />
    <glyph glyph-name="K" unicode="K" horiz-adv-x="1542" 
d="M80 0l127 1466h444l-49 -561l463 561h524l-604 -692l481 -774h-524l-364 627l-54 -627h-444z" />
    <glyph glyph-name="L" unicode="L" horiz-adv-x="1191" 
d="M1061 0h-981l127 1466h444l-94 -1089h537z" />
    <glyph glyph-name="M" unicode="M" horiz-adv-x="2134" 
d="M590 938l-82 -938h-428l127 1466h567l268 -999l437 999h575l-127 -1466h-430l82 940l-412 -940h-327z" />
    <glyph glyph-name="N" unicode="N" horiz-adv-x="1665" 
d="M668 1466l422 -931l81 931h414l-127 -1466h-461l-422 928l-81 -928h-414l127 1466h461z" />
    <glyph glyph-name="O" unicode="O" horiz-adv-x="1806" 
d="M834 -51q-244 0 -423 98t-266 276.5t-67 409.5t138.5 409.5t315 277t439.5 98.5t422 -98.5t266 -277t67 -409.5t-138.5 -409.5t-314.5 -276.5t-439 -98zM938 1141q-170 0 -285.5 -113t-130.5 -295q-17 -181 78.5 -293t265.5 -114q169 0 284 112.5t132 294.5
q15 182 -80 295t-264 113z" />
    <glyph glyph-name="P" unicode="P" horiz-adv-x="1517" 
d="M795 1149h-187l-39 -440h187q115 0 191.5 61.5t84.5 159.5q9 98 -57 158.5t-180 60.5zM811 391h-270l-35 -391h-426l127 1466h702q181 0 315 -67t200.5 -189t52.5 -280q-22 -240 -206 -389.5t-460 -149.5z" />
    <glyph glyph-name="Q" unicode="Q" horiz-adv-x="1806" 
d="M938 1141q-170 0 -285.5 -113t-130.5 -295q-17 -181 78.5 -293t265.5 -114q169 0 284 112.5t132 294.5q15 182 -80 295t-264 113zM1726 733q-19 -199 -109.5 -358.5t-240.5 -265.5l219 -334h-407l-131 200q-117 -26 -223 -26q-244 0 -423 98t-266 276.5t-67 409.5
t138.5 409.5t315 277t439.5 98.5t422 -98.5t266 -277t67 -409.5z" />
    <glyph glyph-name="R" unicode="R" horiz-adv-x="1613" 
d="M844 1149h-219l-35 -389h221q103 0 177 53.5t81 140.5q9 90 -55.5 142.5t-169.5 52.5zM565 473l-41 -473h-444l127 1466h749q269 0 423 -141t134 -371q-12 -147 -102.5 -259t-234.5 -165l297 -530h-490l-213 473h-205z" />
    <glyph glyph-name="S" unicode="S" horiz-adv-x="1482" 
d="M1370 473q-22 -233 -218 -378.5t-488 -145.5q-186 0 -328.5 68.5t-215 190.5t-59.5 275h388q-8 -94 65 -155.5t193 -61.5q96 0 159 42t68 108q2 26 -5 46t-27.5 34t-40 23.5t-58.5 17.5t-65 12t-76 10q-71 8 -126.5 18t-117 27.5t-107 40t-87 57.5t-66 78.5t-36 103.5
t-5.5 132q13 148 103 262.5t238 177t330 62.5t322 -65.5t211.5 -182.5t58.5 -264h-370q7 84 -60 139t-176 55q-93 0 -155.5 -38t-67.5 -97q-2 -25 5 -45t26.5 -33.5t40 -23t57.5 -17t65.5 -11.5t77.5 -9q69 -7 124 -16.5t116 -26.5t107 -39.5t88 -57t67.5 -78t38 -103.5
t6.5 -132z" />
    <glyph glyph-name="T" unicode="T" horiz-adv-x="1323" 
d="M375 0l96 1104h-412l33 362h1268l-33 -362h-412l-96 -1104h-444z" />
    <glyph glyph-name="U" unicode="U" horiz-adv-x="1636" 
d="M1057 631l73 835h445l-74 -852q-26 -296 -234 -480.5t-517 -184.5t-485 184.5t-150 480.5l75 852h445l-74 -835q-11 -122 46.5 -210.5t174.5 -94.5q112 0 188 85t87 220z" />
    <glyph glyph-name="V" unicode="V" horiz-adv-x="1587" 
d="M82 1468l461 -2l215 -1140l416 1140h460l-563 -1466h-682z" />
    <glyph glyph-name="W" unicode="W" horiz-adv-x="2531" 
d="M1550 1466l185 -1075l368 1075h447l-522 -1466h-613l-137 885l-291 -885h-614l-264 1466h446l182 -1075l373 1075h440z" />
    <glyph glyph-name="X" unicode="X" horiz-adv-x="1738" 
d="M-27 0l545 774l-407 692h510l266 -460l350 460h520l-557 -692l434 -774h-518l-270 528l-361 -528h-512z" />
    <glyph glyph-name="Y" unicode="Y" horiz-adv-x="1482" 
d="M461 0l43 500l-422 966h463l215 -585l299 585h471l-582 -966l-43 -500h-444z" />
    <glyph glyph-name="Z" unicode="Z" horiz-adv-x="1384" 
d="M49 291l692 831h-598l31 344h1165l-24 -290l-672 -832h619l-31 -344h-1206z" />
    <glyph glyph-name="bracketleft" unicode="[" horiz-adv-x="866" 
d="M565 1268l-121 -1377h328l-22 -260h-705l166 1897h704l-22 -260h-328z" />
    <glyph glyph-name="backslash" unicode="\" horiz-adv-x="1028" 
d="M422 1466l481 -1937h-340l-481 1937h340z" />
    <glyph glyph-name="bracketright" unicode="]" horiz-adv-x="866" 
d="M625 -369h-707l23 260h329l119 1377h-328l23 260h707z" />
    <glyph glyph-name="asciicircum" unicode="^" horiz-adv-x="1261" 
d="M674 1229l-234 -410h-358l422 647h383l309 -647h-356z" />
    <glyph glyph-name="underscore" unicode="_" horiz-adv-x="1024" 
d="M-23 0h1024l-22 -266h-1024z" />
    <glyph glyph-name="grave" unicode="`" horiz-adv-x="733" 
d="M141 1528h351l202 -361h-276z" />
    <glyph glyph-name="a" unicode="a" horiz-adv-x="1392" 
d="M651 303q89 0 153 64t73 161q8 99 -44.5 162.5t-142.5 63.5q-89 0 -152.5 -64t-70.5 -162q-9 -97 43 -161t141 -64zM913 922l11 135h395l-92 -1057h-396l13 135q-65 -84 -152.5 -130t-187.5 -46q-215 0 -334.5 157.5t-97.5 411.5q23 254 170 412t362 158q201 0 309 -176z
" />
    <glyph glyph-name="b" unicode="b" horiz-adv-x="1372" 
d="M698 752q-89 0 -152 -63.5t-71 -160.5q-9 -95 43 -158t141 -63t153 62t73 159q8 97 -44.5 160.5t-142.5 63.5zM1278 528q-22 -253 -166.5 -411t-355.5 -158q-195 0 -303 152l-11 -111h-391l133 1528h396l-52 -582q133 152 328 152q211 0 328 -158.5t94 -411.5z" />
    <glyph glyph-name="c" unicode="c" horiz-adv-x="1292" 
d="M713 1098q143 0 260.5 -55.5t187 -155.5t74.5 -225l-369 -48q-7 67 -57.5 111.5t-118.5 44.5q-87 0 -150.5 -68.5t-72.5 -173.5t41.5 -173t138.5 -68q69 0 126 43.5t79 111.5l360 -43q-43 -191 -212.5 -315.5t-385.5 -124.5q-168 0 -297 73t-194 203t-51 293
q22 247 203 408.5t438 161.5z" />
    <glyph glyph-name="d" unicode="d" horiz-adv-x="1372" 
d="M672 752q-89 0 -153 -63.5t-73 -160.5q-7 -97 45.5 -159t141.5 -62t152.5 62.5t72.5 158.5q8 97 -44.5 160.5t-141.5 63.5zM53 528q22 254 166.5 412t355.5 158q194 0 302 -152l51 582h395l-135 -1528h-391l8 111q-133 -152 -328 -152q-211 0 -328.5 157.5t-95.5 411.5z
" />
    <glyph glyph-name="e" unicode="e" horiz-adv-x="1325" 
d="M483 629h379q0 77 -49 131.5t-125 54.5q-75 0 -128 -49.5t-77 -136.5zM72 532q23 251 203.5 408.5t443.5 157.5t408 -157t122 -413q-5 -76 -14 -106h-766q12 -84 60.5 -131t127.5 -47q66 0 116.5 32t74.5 84l344 -45q-50 -156 -212.5 -256t-367.5 -100q-172 0 -300 71.5
t-191 202t-49 299.5z" />
    <glyph glyph-name="f" unicode="f" horiz-adv-x="874" 
d="M633 1120l-6 -63h219l-27 -293h-219l-65 -764h-396l68 764h-135l26 293h133l9 84q17 193 131 310.5t284 117.5q123 0 232 -37l-29 -320q-47 13 -94 13q-56 0 -92 -29t-39 -76z" />
    <glyph glyph-name="g" unicode="g" horiz-adv-x="1372" 
d="M651 307q90 0 153.5 62.5t72.5 158.5q8 99 -44.5 162.5t-142.5 63.5q-89 0 -152.5 -64t-70.5 -162q-9 -95 43 -158t141 -63zM592 -213q90 0 152 63.5t71 169.5l10 115q-132 -141 -329 -141q-205 0 -324.5 149t-99.5 385q23 253 169.5 411.5t352.5 158.5q195 0 303 -152
l8 111h395l-92 -1051q-22 -236 -193 -377t-431 -141q-226 0 -375 120t-152 304l349 37q7 -70 60.5 -116t125.5 -46z" />
    <glyph glyph-name="h" unicode="h" 
d="M184 1528h396l-52 -582q56 72 142 112t180 40q169 0 263 -112t79 -294l-62 -692h-393l51 588q6 74 -28 120t-98 46q-65 0 -112.5 -48t-53.5 -124l-52 -582h-393z" />
    <glyph glyph-name="i" unicode="i" horiz-adv-x="673" 
d="M164 1057h393l-92 -1057h-395zM369 1165q-94 0 -151 60t-50 153q9 92 76.5 151.5t161.5 59.5q97 0 153.5 -59.5t48.5 -151.5q-9 -94 -75.5 -153.5t-163.5 -59.5z" />
    <glyph glyph-name="j" unicode="j" horiz-adv-x="688" 
d="M82 -20l94 1077h395l-100 -1129q-15 -186 -133 -298.5t-297 -112.5q-145 0 -254 37l27 303q67 -13 116 -13q63 2 105.5 39t46.5 97zM383 1165q-95 0 -151.5 59.5t-49.5 153.5q7 92 74.5 151.5t163.5 59.5t152.5 -59t48.5 -152q-7 -94 -74 -153.5t-164 -59.5z" />
    <glyph glyph-name="k" unicode="k" horiz-adv-x="1302" 
d="M51 0l133 1528h396l-76 -846l342 375h461l-467 -502l383 -555h-465l-277 424l-37 -424h-393z" />
    <glyph glyph-name="l" unicode="l" horiz-adv-x="626" 
d="M182 1528h396l-134 -1528h-395z" />
    <glyph glyph-name="m" unicode="m" horiz-adv-x="1966" 
d="M463 0h-393l92 1057h377l-11 -131q53 83 141 127.5t187 44.5q108 0 187 -47t118 -131q53 81 155.5 129.5t209.5 48.5q174 0 272.5 -113t83.5 -295l-61 -690h-394l52 586q6 70 -29.5 117.5t-101.5 50.5q-67 0 -111.5 -47t-50.5 -121l-51 -586h-396l52 586q8 75 -26 121.5
t-97 46.5q-64 0 -105 -46t-49 -122z" />
    <glyph glyph-name="n" unicode="n" 
d="M162 1057h379l-13 -152q67 90 155.5 141.5t190.5 51.5q164 0 257.5 -118.5t76.5 -301.5l-59 -678h-393l51 588q6 74 -27.5 120t-97.5 46q-65 0 -113 -48t-55 -124l-51 -582h-393z" />
    <glyph glyph-name="o" unicode="o" horiz-adv-x="1343" 
d="M719 1098q268 0 420.5 -157.5t130.5 -412.5q-23 -255 -202.5 -412t-446.5 -157q-269 0 -421 157t-130 412q23 255 202.5 412.5t446.5 157.5zM649 303q91 0 153.5 62.5t71.5 162.5t-42 163t-142 63q-92 0 -154 -63t-71 -163t42 -162.5t142 -62.5z" />
    <glyph glyph-name="p" unicode="p" horiz-adv-x="1372" 
d="M678 307q90 0 153 62.5t72 158.5q8 97 -44.5 160.5t-141.5 63.5t-152 -63.5t-71 -160.5q-9 -95 43 -158t141 -63zM1296 528q-22 -253 -166.5 -411t-355.5 -158q-193 0 -301 152l-51 -582h-393l133 1528h393l-10 -109q134 150 329 150q211 0 328 -158.5t94 -411.5z" />
    <glyph glyph-name="q" unicode="q" horiz-adv-x="1372" 
d="M651 307q90 0 153.5 62.5t72.5 158.5q8 97 -45 160.5t-142 63.5t-152 -63.5t-71 -160.5q-9 -95 43 -158t141 -63zM72 528q23 254 168 412t354 158q198 0 303 -150l10 109h393l-135 -1528h-393l51 582q-136 -152 -327 -152q-211 0 -328.5 157.5t-95.5 411.5z" />
    <glyph glyph-name="r" unicode="r" horiz-adv-x="925" 
d="M162 1057h377l-11 -133q50 79 129.5 126.5t163.5 47.5q51 0 117 -25l-31 -350q-94 43 -180 43q-89 0 -148 -61t-67 -160l-49 -545h-393z" />
    <glyph glyph-name="s" unicode="s" horiz-adv-x="1177" 
d="M1098 352q-15 -176 -173.5 -288.5t-396.5 -112.5q-219 0 -350.5 111.5t-116.5 283.5h320q-6 -62 43.5 -101.5t132.5 -39.5q66 0 111.5 28.5t48.5 69.5q4 47 -48 69.5t-167 30.5q-77 6 -131.5 15.5t-112.5 31.5t-92 55.5t-53.5 90t-12.5 133.5q15 164 161 270.5t355 106.5
q145 0 256.5 -47.5t169 -132.5t48.5 -191l-334 2q3 50 -42.5 82.5t-117.5 32.5q-59 0 -100.5 -26t-44.5 -64q-1 -15 4.5 -27.5t22 -21.5l27.5 -15t38.5 -12t36 -7.5t38.5 -6.5q57 -6 99 -11.5t97.5 -17.5t94.5 -26.5t79.5 -39t64.5 -55t37 -74t8 -96.5z" />
    <glyph glyph-name="t" unicode="t" horiz-adv-x="880" 
d="M164 387l33 377h-136l27 293h152l61 276h340l-25 -276h220l-25 -293h-221l-29 -330q-5 -60 25.5 -96.5t87.5 -36.5q52 0 102 12l-28 -317q-116 -37 -242 -37q-170 0 -264.5 120t-77.5 308z" />
    <glyph glyph-name="u" unicode="u" 
d="M1130 0h-378l12 152q-67 -90 -155.5 -141.5t-190.5 -51.5q-162 0 -255.5 118.5t-78.5 303.5l59 676h394l-52 -586q-6 -75 28 -121.5t99 -46.5t112.5 49t53.5 125l51 580h394z" />
    <glyph glyph-name="v" unicode="v" horiz-adv-x="1302" 
d="M887 0h-563l-261 1057h422l146 -760l280 760h420z" />
    <glyph glyph-name="w" unicode="w" horiz-adv-x="1933" 
d="M778 0h-487l-207 1057h410l110 -660l238 660h340l141 -670l225 670h394l-392 -1057h-487l-90 596z" />
    <glyph glyph-name="x" unicode="x" horiz-adv-x="1380" 
d="M471 0h-479l401 549l-293 508h467l144 -295l194 295h467l-381 -508l305 -549h-479l-145 328z" />
    <glyph glyph-name="y" unicode="y" horiz-adv-x="1298" 
d="M125 -444l25 276q40 -16 110 -16q89 0 142.5 37.5t89.5 128.5l-429 1075h431l190 -580l238 580h405l-500 -1106q-100 -226 -215 -330t-266 -104q-121 0 -221 39z" />
    <glyph glyph-name="z" unicode="z" horiz-adv-x="1177" 
d="M66 258l499 485h-436l27 314h960l-22 -256l-467 -488h444l-27 -313h-1001z" />
    <glyph glyph-name="braceleft" unicode="{" horiz-adv-x="901" 
d="M684 -109h123l-23 -260h-370q-123 0 -191.5 75t-58.5 198l33 372q6 63 -29 101.5t-98 38.5h-21l31 348h20q63 0 104.5 38t47.5 101l31 352q10 123 92 198t205 75h370l-22 -260h-123q-65 0 -108.5 -40t-47.5 -104l-22 -256q-11 -117 -89 -193t-196 -83l-20 -2l20 -2
q117 -6 182 -83t54 -194l-25 -276q-6 -64 30 -104t101 -40z" />
    <glyph glyph-name="bar" unicode="|" horiz-adv-x="632" 
d="M211 1528h346l-176 -1999h-346z" />
    <glyph glyph-name="braceright" unicode="}" horiz-adv-x="901" 
d="M291 -369h-373l23 260h122q65 0 108.5 40t49.5 104l23 276q11 118 88.5 194.5t195.5 82.5l21 2l-21 2q-116 7 -180 82.5t-55 193.5l22 256q6 64 -30 104t-101 40h-123l23 260h373q122 0 190 -75t58 -198l-31 -352q-6 -63 29 -101t98 -38h20l-30 -348h-21
q-63 0 -104.5 -38.5t-47.5 -101.5l-32 -372q-10 -123 -91.5 -198t-203.5 -75z" />
    <glyph glyph-name="asciitilde" unicode="~" horiz-adv-x="1314" 
d="M180 457l-82 254q73 76 171 124t175 48q66 0 142.5 -33.5t133 -73t122 -73t112.5 -33.5q55 0 111.5 27t97.5 71l84 -256q-75 -76 -170.5 -123t-173.5 -47q-66 0 -144 33t-137 72.5t-127 72.5t-118 33q-49 0 -102 -26.5t-95 -69.5z" />
    <glyph glyph-name="exclamdown" unicode="&#xa1;" horiz-adv-x="704" 
d="M66 -471l34 401l152 555h194l54 -555l-35 -401h-399zM397 1032q95 0 151.5 -59.5t49.5 -151.5t-74.5 -151.5t-163.5 -59.5q-97 0 -153 59.5t-47 151.5q8 92 74 151.5t163 59.5z" />
    <glyph glyph-name="cent" unicode="&#xa2;" horiz-adv-x="1292" 
d="M750 -25l-19 -215h-334l19 228q-176 55 -272 200t-78 340q17 196 138.5 342.5t307.5 200.5l16 193h334l-14 -181q164 -37 268.5 -151.5t110.5 -269.5l-367 -48q-9 67 -59.5 111.5t-118.5 44.5q-87 0 -150.5 -68.5t-72.5 -173.5q-9 -104 42.5 -172.5t137.5 -68.5
q70 0 127.5 43.5t79.5 111.5l358 -43q-33 -157 -158 -272t-296 -152z" />
    <glyph glyph-name="sterling" unicode="&#xa3;" horiz-adv-x="1390" 
d="M1343 1075l-352 -55q-2 75 -35.5 122.5t-89.5 47.5q-55 0 -91 -43.5t-42 -112.5l-14 -176h420l-21 -240h-442q-65 -214 -283 -305h883l-27 -313h-1241l31 354q91 26 151 88.5t86 175.5h-194l20 240h205l17 193q19 205 166.5 336t369.5 131q215 0 348 -124.5t135 -318.5z
" />
    <glyph glyph-name="currency" unicode="&#xa4;" horiz-adv-x="1486" 
d="M723 291q91 0 153.5 65.5t71.5 171.5t-42 172t-142 66t-153.5 -66t-71.5 -172t41.5 -171.5t142.5 -65.5zM1085 995l140 148l213 -182l-148 -156q65 -124 51 -277q-11 -149 -100 -278l125 -158l-250 -178l-112 145q-138 -63 -308 -63q-169 0 -295 63l-153 -145l-211 176
l158 160q-64 125 -52 278q15 154 101 277l-119 156l246 182l112 -146q140 64 305 64q171 0 297 -66z" />
    <glyph glyph-name="yen" unicode="&#xa5;" horiz-adv-x="1589" 
d="M184 643h297l-379 823h480l229 -618l317 618h486l-512 -823h291l-17 -194h-379l-8 -97h379l-16 -194h-379l-15 -158h-444l14 158h-387l19 194h385l8 97h-385z" />
    <glyph glyph-name="section" unicode="&#xa7;" horiz-adv-x="1331" 
d="M862 557q4 45 -34.5 69.5t-100.5 35.5q-20 4 -92.5 22t-83.5 21q-49 -4 -84 -33.5t-37 -63.5q-4 -48 40 -75t120 -41q87 -23 135 -31q57 4 95.5 31.5t41.5 64.5zM180 1057q15 173 163 280t376 107q195 0 325 -89t154 -247l-334 -45q-3 68 -52 111t-122 43
q-63 0 -106.5 -27t-48.5 -68q-1 -20 6.5 -37t29 -31t40 -23.5t57.5 -20.5t62.5 -16.5t72.5 -16.5q192 -42 273 -80q174 -81 161 -238q-9 -100 -85 -174t-194 -104q79 -39 122 -112.5t34 -176.5q-15 -178 -173 -293.5t-384 -115.5q-200 0 -333 98.5t-144 251.5l330 45
q6 -66 58.5 -110t127.5 -44q65 0 110 26.5t48 69.5q2 21 -5 38.5t-18 30.5t-34 25t-41 20t-53 17.5t-56.5 14.5t-63.5 14q-53 11 -87.5 19.5t-84 24.5t-81.5 31.5t-67 40.5t-54.5 53.5t-31 68.5t-7.5 86q9 96 75 170.5t168 103.5q-69 37 -105.5 108t-27.5 171z" />
    <glyph glyph-name="dieresis" unicode="&#xa8;" horiz-adv-x="1081" 
d="M297 1145q-82 0 -130.5 51.5t-41.5 130.5q6 78 64 129t141 51t131.5 -51t42.5 -129q-8 -80 -66 -131t-141 -51zM852 1145q-83 0 -132 51.5t-42 130.5q6 78 64.5 129t140.5 51q83 0 131.5 -51t42.5 -129q-8 -80 -65 -131t-140 -51z" />
    <glyph glyph-name="copyright" unicode="&#xa9;" horiz-adv-x="2113" 
d="M1102 1237q-321 0 -535.5 -194t-242.5 -506q-18 -212 57 -375t229.5 -252.5t366.5 -89.5q321 0 536.5 198t243.5 519q18 206 -57 365t-230.5 247t-367.5 88zM1096 1081q202 0 338 -119.5t145 -302.5l-268 -41q-11 96 -75.5 158t-154.5 62q-109 0 -190.5 -87t-93.5 -223
q-12 -133 55 -221t178 -88q90 0 166 64t104 163l252 -47q-35 -185 -189.5 -304.5t-358.5 -119.5q-157 0 -276 69t-179.5 195.5t-46.5 288.5q22 242 189 397.5t405 155.5zM956 -408q-216 0 -392 69t-292.5 192t-172.5 299t-38 385q24 274 165 484.5t373.5 326.5t520.5 116
q289 0 501.5 -115.5t316 -326.5t79.5 -485q-18 -209 -104.5 -385t-225 -299t-327 -192t-404.5 -69z" />
    <glyph glyph-name="guillemotleft" unicode="&#xab;" horiz-adv-x="1499" 
d="M870 1057l-407 -514l315 -543h-401l-301 543l393 514h401zM1468 1057l-409 -514l315 -543h-401l-301 543l393 514h403z" />
    <glyph glyph-name="logicalnot" unicode="&#xac;" horiz-adv-x="1316" 
d="M922 143l28 342h-868l27 312h1148l-57 -654h-278z" />
    <glyph glyph-name="registered" unicode="&#xae;" horiz-adv-x="2113" 
d="M324 537q-18 -212 57 -375t229.5 -252.5t366.5 -89.5q321 0 536.5 198t243.5 519q18 206 -57 365t-230.5 247t-367.5 88q-321 0 -535.5 -194t-242.5 -506zM1090 879h-164l-27 -301h166q77 0 127.5 40t56.5 111q6 69 -35 109.5t-124 40.5zM956 -408q-216 0 -392 69
t-292.5 192t-172.5 299t-38 385q24 274 165 484.5t373.5 326.5t520.5 116q289 0 501.5 -115.5t316 -326.5t79.5 -485q-18 -209 -104.5 -385t-225 -299t-327 -192t-404.5 -69zM1274 440l182 -420h-313l-133 394h-125l-35 -394h-277l91 1037h499q178 0 281.5 -89.5
t91.5 -232.5q-10 -107 -79.5 -184t-182.5 -111z" />
    <glyph glyph-name="macron" unicode="&#xaf;" horiz-adv-x="874" 
d="M864 1448l-20 -229h-727l20 229h727z" />
    <glyph glyph-name="degree" unicode="&#xb0;" horiz-adv-x="1118" 
d="M549 664q-218 0 -341 124t-106 326q19 203 163 328t362 125t340.5 -125t105.5 -328q-19 -203 -162.5 -326.5t-361.5 -123.5zM606 1321q-94 0 -156 -56.5t-69 -150.5q-9 -94 42.5 -150.5t145.5 -56.5t156.5 57t69.5 150q9 94 -43 150.5t-146 56.5z" />
    <glyph glyph-name="plusminus" unicode="&#xb1;" horiz-adv-x="1110" 
d="M49 256h963l-23 -256h-962zM696 401h-305l19 203h-330l22 256h330l17 197h305l-17 -197h328l-23 -256h-327z" />
    <glyph glyph-name="acute" unicode="&#xb4;" horiz-adv-x="763" 
d="M727 1528l-342 -361h-276l268 361h350z" />
    <glyph glyph-name="paragraph" unicode="&#xb6;" horiz-adv-x="1724" 
d="M1640 1190h-200l-142 -1612h-344l142 1612h-170l-142 -1612h-344l88 1018q-212 0 -329.5 119.5t-98.5 316.5q19 195 158 314.5t348 119.5h1059z" />
    <glyph glyph-name="periodcentered" unicode="&#xb7;" horiz-adv-x="587" 
d="M293 424q-95 0 -152 60.5t-49 152.5q7 92 74.5 151.5t163.5 59.5q97 0 153 -59.5t47 -151.5q-8 -93 -74.5 -153t-162.5 -60z" />
    <glyph glyph-name="cedilla" unicode="&#xb8;" horiz-adv-x="641" 
d="M221 -252h-98l80 303h194l-53 -209q94 0 146 -53t45 -141q-7 -91 -86 -146t-199 -55q-78 0 -137 37.5t-78 97.5l108 82q10 -32 37.5 -52t61.5 -20q36 0 59.5 21t26.5 55q3 37 -26.5 58.5t-80.5 21.5z" />
    <glyph glyph-name="guillemotright" unicode="&#xbb;" horiz-adv-x="1497" 
d="M829 543l-395 -543h-403l411 543l-317 514h401zM1425 543l-395 -543h-401l411 543l-319 514h401z" />
    <glyph glyph-name="questiondown" unicode="&#xbf;" horiz-adv-x="1341" 
d="M508 563h350q-13 -151 -69 -241.5t-173 -161.5q-84 -54 -112 -84q-39 -42 -43 -92q-6 -63 35.5 -104.5t107.5 -41.5q82 0 142 63.5t81 164.5l390 -72q-39 -215 -221.5 -351.5t-438.5 -136.5q-245 0 -395 124t-133 315q10 122 84.5 213.5t193.5 150.5q97 46 145 100
t56 154zM733 1063q96 0 153 -60t48 -153q-7 -92 -74.5 -151.5t-163.5 -59.5q-95 0 -151.5 59.5t-48.5 151.5q7 93 74 153t163 60z" />
    <glyph glyph-name="Agrave" unicode="&#xc0;" horiz-adv-x="1601" 
d="M813 1092l-223 -570h346zM479 211l-82 -211h-465l588 1466h649l330 -1466h-465l-43 211h-512zM707 1610l-273 321h354l207 -321h-288z" />
    <glyph glyph-name="Aacute" unicode="&#xc1;" horiz-adv-x="1601" 
d="M813 1092l-223 -570h346zM479 211l-82 -211h-465l588 1466h649l330 -1466h-465l-43 211h-512zM690 1610l262 321h357l-330 -321h-289z" />
    <glyph glyph-name="Acircumflex" unicode="&#xc2;" horiz-adv-x="1601" 
d="M813 1092l-223 -570h346zM479 211l-82 -211h-465l588 1466h649l330 -1466h-465l-43 211h-512zM872 1784l-151 -174h-256l229 321h381l174 -321h-256z" />
    <glyph glyph-name="Atilde" unicode="&#xc3;" horiz-adv-x="1601" 
d="M809 1092l-221 -570h344zM477 211l-82 -211h-465l588 1466h647l332 -1466h-465l-43 211h-512zM602 1679l-174 97q39 90 124.5 151.5t178.5 61.5q49 0 95.5 -17t75 -37.5t61 -37.5t57.5 -17q32 0 63.5 22.5t53.5 59.5l174 -96q-39 -89 -129.5 -150t-188.5 -61
q-51 0 -97.5 16.5t-74 36.5t-58 36.5t-54.5 16.5q-58 0 -107 -82z" />
    <glyph glyph-name="Adieresis" unicode="&#xc4;" horiz-adv-x="1601" 
d="M809 1092l-221 -570h346zM477 211l-82 -211h-465l588 1466h649l330 -1466h-465l-43 211h-512zM584 1602q-84 0 -132.5 52.5t-41.5 135.5t65 135.5t141 52.5t131 -52.5t41 -135.5q-8 -83 -64.5 -135.5t-139.5 -52.5zM1126 1602q-84 0 -132.5 52.5t-41.5 135.5t65.5 135.5
t141.5 52.5t131 -52.5t41 -135.5t-64.5 -135.5t-140.5 -52.5z" />
    <glyph glyph-name="Aring" unicode="&#xc5;" horiz-adv-x="1601" 
d="M807 1092l-223 -570h346zM874 1886q-32 0 -54 -20t-25 -54q-3 -33 15.5 -53t51.5 -20q32 0 54.5 20.5t25.5 52.5q3 34 -15.5 54t-52.5 20zM473 211l-82 -211h-463l586 1466h649l330 -1466h-465l-43 211h-512zM846 1561q-128 0 -200 69.5t-62 181.5q9 114 93 183t212 69
t200.5 -69t63.5 -183q-9 -112 -94 -181.5t-213 -69.5z" />
    <glyph glyph-name="AE" unicode="&#xc6;" horiz-adv-x="2097" 
d="M729 510h315l58 659zM1423 348h562l-29 -348h-957l19 211h-453l-119 -211h-493l850 1466h1259l-28 -348h-543l-18 -225h458l-26 -299h-459z" />
    <glyph glyph-name="Ccedilla" unicode="&#xc7;" horiz-adv-x="1714" 
d="M764 -252h-100l55 205q-205 20 -357.5 124.5t-227.5 275.5t-56 380q14 168 87 314t187 249.5t268 162.5t326 59q196 0 354.5 -76.5t249.5 -212.5t95 -307l-414 -43q-14 114 -99.5 188t-205.5 74q-164 0 -276.5 -113.5t-127.5 -294.5q-17 -181 76 -294t256 -113
q117 0 217 73t135 185l410 -47q-43 -232 -238 -392.5t-465 -189.5l-28 -113q94 0 146.5 -53t45.5 -141q-7 -91 -85.5 -146t-198.5 -55q-78 0 -137 37.5t-78 97.5l106 82q12 -32 39 -52t61 -20q36 0 59.5 21t26.5 55q3 37 -26 58.5t-80 21.5z" />
    <glyph glyph-name="Egrave" unicode="&#xc8;" horiz-adv-x="1288" 
d="M539 598l-23 -250h639l-31 -348h-1065l127 1466h1047l-31 -346h-618l-19 -223h537l-27 -299h-536zM299 1931h356l207 -321h-289z" />
    <glyph glyph-name="Eacute" unicode="&#xc9;" horiz-adv-x="1288" 
d="M539 598l-23 -250h639l-31 -348h-1065l127 1466h1047l-31 -346h-618l-19 -223h537l-27 -299h-536zM819 1931h357l-330 -321h-291z" />
    <glyph glyph-name="Ecircumflex" unicode="&#xca;" horiz-adv-x="1288" 
d="M539 598l-23 -250h639l-31 -348h-1065l127 1466h1047l-31 -346h-618l-19 -223h537l-27 -299h-536zM588 1610h-256l229 321h381l174 -321h-256l-121 174z" />
    <glyph glyph-name="Edieresis" unicode="&#xcb;" horiz-adv-x="1288" 
d="M537 598l-23 -250h639l-31 -348h-1065l127 1466h1047l-31 -346h-618l-19 -223h537l-27 -299h-536zM449 1602q-82 0 -131 52.5t-42 135.5t65.5 135.5t141.5 52.5t131 -52.5t41 -135.5t-65 -135.5t-141 -52.5zM993 1602q-84 0 -132.5 52.5t-41.5 135.5t65.5 135.5
t141.5 52.5t131 -52.5t41 -135.5t-64.5 -135.5t-140.5 -52.5z" />
    <glyph glyph-name="Igrave" unicode="&#xcc;" horiz-adv-x="731" 
d="M186 1466h445l-129 -1466h-443zM-2 1931h354l207 -321h-289z" />
    <glyph glyph-name="Iacute" unicode="&#xcd;" horiz-adv-x="739" 
d="M188 1466h445l-129 -1466h-445zM518 1931h354l-329 -321h-289z" />
    <glyph glyph-name="Icircumflex" unicode="&#xce;" horiz-adv-x="733" 
d="M188 1466h445l-129 -1466h-445zM287 1610h-258l231 321h381l174 -321h-258l-119 174z" />
    <glyph glyph-name="Idieresis" unicode="&#xcf;" horiz-adv-x="718" 
d="M178 1466h445l-129 -1466h-443zM141 1602q-83 0 -131.5 52.5t-42.5 135.5q7 83 65.5 135.5t141.5 52.5t131 -52.5t41 -135.5q-6 -83 -63.5 -135.5t-141.5 -52.5zM684 1602q-83 0 -131.5 52.5t-42.5 135.5q7 83 65.5 135.5t141.5 52.5t131 -52.5t41 -135.5
q-6 -83 -63.5 -135.5t-141.5 -52.5z" />
    <glyph glyph-name="Ntilde" unicode="&#xd1;" horiz-adv-x="1665" 
d="M645 1466l422 -931l82 931h414l-127 -1466h-461l-424 928l-80 -928h-414l127 1466h461zM637 1679l-174 97q39 91 124 152t179 61q49 0 95.5 -17t75 -37.5t61 -37.5t57.5 -17q32 0 63 22.5t51 59.5l177 -96q-39 -89 -129.5 -150t-188.5 -61q-51 0 -97.5 16.5t-74.5 36.5
t-58.5 36.5t-54.5 16.5q-57 0 -106 -82z" />
    <glyph glyph-name="Ograve" unicode="&#xd2;" horiz-adv-x="1806" 
d="M815 -51q-182 0 -331 57t-247.5 159.5t-145.5 248.5t-32 319q20 231 138.5 409.5t315 277t439.5 98.5t422.5 -98.5t266.5 -277t67 -409.5q-15 -173 -88 -319t-189 -248.5t-275 -159.5t-341 -57zM920 1141q-169 0 -285 -113.5t-131 -294.5q-17 -181 78.5 -293t265.5 -114
q169 0 285 113t131 294q15 182 -80 295t-264 113zM537 1931h354l207 -321h-289z" />
    <glyph glyph-name="Oacute" unicode="&#xd3;" horiz-adv-x="1806" 
d="M815 -51q-182 0 -331 57t-247.5 159.5t-145.5 248.5t-32 319q20 231 138.5 409.5t315 277t439.5 98.5t422.5 -98.5t266.5 -277t67 -409.5q-15 -173 -88 -319t-189 -248.5t-275 -159.5t-341 -57zM920 1141q-169 0 -285 -113.5t-131 -294.5q-17 -181 78.5 -293t265.5 -114
q169 0 285 113t131 294q15 182 -80 295t-264 113zM1057 1931h354l-330 -321h-288z" />
    <glyph glyph-name="Ocircumflex" unicode="&#xd4;" horiz-adv-x="1806" 
d="M920 1141q-169 0 -285 -113.5t-131 -294.5q-17 -181 78.5 -293t265.5 -114q169 0 285 113t131 294q15 182 -80 295t-264 113zM815 -51q-182 0 -331 57t-247.5 159.5t-145.5 248.5t-32 319q20 231 138.5 409.5t315 277t439.5 98.5t422.5 -98.5t266.5 -277t67 -409.5
q-15 -173 -88 -319t-189 -248.5t-275 -159.5t-341 -57zM975 1784l-150 -174h-258l230 321h383l174 -321h-258z" />
    <glyph glyph-name="Otilde" unicode="&#xd5;" horiz-adv-x="1806" 
d="M918 1141q-170 0 -285.5 -113t-132.5 -295q-15 -181 81 -293t265 -114q169 0 284 112.5t132 294.5q15 182 -80 295t-264 113zM813 -51q-244 0 -423 98t-266 276.5t-67 409.5t138.5 409.5t315 277t439.5 98.5t422.5 -98.5t266.5 -277t67 -409.5q-15 -173 -88 -319
t-189 -248.5t-275 -159.5t-341 -57zM705 1679l-175 97q39 90 125.5 151.5t180.5 61.5q49 0 95 -17t74 -37.5t60 -37.5t57 -17q32 0 63.5 22.5t53.5 59.5l174 -96q-39 -89 -128 -150t-187 -61q-52 0 -99 16.5t-74.5 36.5t-58.5 36.5t-55 16.5q-57 0 -106 -82z" />
    <glyph glyph-name="Odieresis" unicode="&#xd6;" horiz-adv-x="1806" 
d="M813 -51q-182 0 -331 57t-247.5 159.5t-145.5 248.5t-32 319q20 231 138.5 409.5t315 277t439.5 98.5t422.5 -98.5t266.5 -277t67 -409.5q-15 -173 -88 -319t-189 -248.5t-275 -159.5t-341 -57zM918 1141q-169 0 -285 -113.5t-131 -294.5q-17 -181 78.5 -293t265.5 -114
q169 0 285 113t131 294q15 182 -80 295t-264 113zM686 1602q-83 0 -131.5 52.5t-42.5 135.5q7 83 65.5 135.5t141.5 52.5t131 -52.5t41 -135.5q-6 -83 -63.5 -135.5t-141.5 -52.5zM1229 1602q-83 0 -131.5 52.5t-42.5 135.5q7 83 66 135.5t141 52.5q83 0 131 -52.5
t41 -135.5q-6 -83 -63.5 -135.5t-141.5 -52.5z" />
    <glyph glyph-name="multiply" unicode="&#xd7;" horiz-adv-x="974" 
d="M270 195l-204 223l206 194l-174 193l246 223l170 -190l207 192l205 -225l-207 -193l172 -194l-244 -223l-172 192z" />
    <glyph glyph-name="Oslash" unicode="&#xd8;" horiz-adv-x="1765" 
d="M905 1141q-156 0 -268 -115t-127 -293q-15 -168 78 -278l405 671q-51 15 -88 15zM836 326q155 0 266.5 114.5t128.5 292.5q12 164 -72 275l-403 -672q29 -10 80 -10zM541 -12l-164 -275h-240l219 363q-154 103 -231.5 274.5t-58.5 382.5q15 168 88.5 314t188 249.5
t269 162.5t326.5 59q142 0 270 -41l172 284h240l-229 -375q152 -106 227 -275t57 -378q-15 -168 -88.5 -314t-188.5 -249t-269.5 -162t-327.5 -59q-135 0 -260 39z" />
    <glyph glyph-name="Ugrave" unicode="&#xd9;" horiz-adv-x="1636" 
d="M1036 631l74 835h444l-73 -852q-17 -195 -117.5 -346.5t-265.5 -235t-369 -83.5q-309 0 -485 184.5t-150 480.5l76 852h444l-73 -835q-10 -122 47 -210.5t174 -94.5q112 0 187.5 85t86.5 220zM451 1931h354l209 -321h-291z" />
    <glyph glyph-name="Uacute" unicode="&#xda;" horiz-adv-x="1636" 
d="M1036 631l74 835h444l-73 -852q-17 -195 -117.5 -346.5t-265.5 -235t-369 -83.5q-309 0 -485 184.5t-150 480.5l76 852h444l-73 -835q-10 -122 47 -210.5t174 -94.5q112 0 187.5 85t86.5 220zM707 1610l264 321h354l-330 -321h-288z" />
    <glyph glyph-name="Ucircumflex" unicode="&#xdb;" horiz-adv-x="1636" 
d="M1036 631l74 835h444l-73 -852q-17 -195 -117.5 -346.5t-265.5 -235t-369 -83.5q-309 0 -485 184.5t-150 480.5l76 852h444l-73 -835q-10 -122 47 -210.5t174 -94.5q112 0 187.5 85t86.5 220zM739 1610h-258l230 321h383l174 -321h-258l-121 174z" />
    <glyph glyph-name="Udieresis" unicode="&#xdc;" horiz-adv-x="1636" 
d="M1034 631l74 835h444l-73 -852q-17 -195 -117.5 -346.5t-265.5 -235t-369 -83.5q-309 0 -485 184.5t-150 480.5l76 852h444l-73 -835q-10 -122 47 -210.5t174 -94.5q112 0 187.5 85t86.5 220zM600 1602q-82 0 -130.5 52.5t-41.5 135.5q6 83 64.5 135.5t140.5 52.5
q83 0 131.5 -52.5t42.5 -135.5q-7 -83 -65.5 -135.5t-141.5 -52.5zM1143 1602q-82 0 -130.5 52.5t-41.5 135.5q6 83 64.5 135.5t140.5 52.5q83 0 131.5 -52.5t42.5 -135.5q-7 -83 -65.5 -135.5t-141.5 -52.5z" />
    <glyph glyph-name="Yacute" unicode="&#xdd;" horiz-adv-x="1482" 
d="M440 0l43 500l-422 966h463l215 -585l301 585h469l-581 -966l-43 -500h-445zM895 1931h354l-329 -321h-289z" />
    <glyph glyph-name="germandbls" unicode="&#xdf;" horiz-adv-x="1599" 
d="M588 993l-86 -993h-445l86 983q20 236 215 383t490 147q270 0 422 -121.5t135 -320.5q-7 -95 -67 -166t-156 -102q134 -30 216.5 -147t69.5 -273q-17 -189 -164 -311.5t-354 -122.5q-85 0 -181 23.5t-171 60.5l90 258q89 -47 162 -47q70 0 120 51t58 131q8 100 -51 161.5
t-172 61.5h-94l22 238h98q71 0 118.5 41.5t51.5 107.5q8 80 -44 130.5t-142 50.5q-94 0 -156 -61.5t-71 -162.5z" />
    <glyph glyph-name="agrave" unicode="&#xe0;" horiz-adv-x="1392" 
d="M633 303q89 0 152 64t71 161q9 98 -43 162t-141 64t-153 -64t-73 -162q-8 -97 44.5 -161t142.5 -64zM893 922l12 135h393l-92 -1057h-393l12 135q-65 -84 -153 -130t-189 -46q-214 0 -333.5 158t-96.5 411q22 254 169 412t362 158q100 0 179.5 -46t129.5 -130zM586 1180
l-279 360l352 2l203 -362h-276z" />
    <glyph glyph-name="aacute" unicode="&#xe1;" horiz-adv-x="1392" 
d="M633 303q89 0 152 64t71 161q9 98 -43 162t-141 64t-153 -64t-73 -162q-8 -97 44.5 -161t142.5 -64zM893 922l12 135h393l-92 -1057h-393l12 135q-65 -84 -153 -130t-189 -46q-214 0 -333.5 158t-96.5 411q22 254 169 412t362 158q100 0 179.5 -46t129.5 -130zM541 1180
l266 362l350 -2l-340 -360h-276z" />
    <glyph glyph-name="acircumflex" unicode="&#xe2;" horiz-adv-x="1392" 
d="M633 303q89 0 152 64t71 161q9 98 -43 162t-141 64t-153 -64t-73 -162q-8 -97 44.5 -161t142.5 -64zM893 922l12 135h393l-92 -1057h-393l12 135q-65 -84 -153 -130t-189 -46q-214 0 -333.5 158t-96.5 411q22 254 169 412t362 158q100 0 179.5 -46t129.5 -130zM723 1395
l-154 -213h-266l242 360h383l178 -362l-266 2z" />
    <glyph glyph-name="atilde" unicode="&#xe3;" horiz-adv-x="1392" 
d="M633 303q89 0 152.5 64t72.5 161q8 98 -44.5 162t-141.5 64t-153 -64t-73 -162q-8 -97 45 -161t142 -64zM893 922l12 135h395l-94 -1057h-393l12 135q-65 -84 -152.5 -130t-187.5 -46q-215 0 -335 158t-97 411q22 253 169.5 411.5t361.5 158.5q204 0 309 -176zM473 1229
l-174 90q39 90 124.5 151.5t178.5 61.5q49 0 95.5 -16.5t75.5 -37t62 -37t58 -16.5q31 0 62 21t51 55l174 -92q-37 -89 -127 -150t-189 -61q-52 0 -99 16.5t-75 37t-59 37t-56 16.5q-56 0 -102 -76z" />
    <glyph glyph-name="adieresis" unicode="&#xe4;" horiz-adv-x="1392" 
d="M633 303q89 0 152 64t71 161q9 98 -43 162t-141 64t-153 -64t-73 -162q-8 -97 44.5 -161t142.5 -64zM893 922l12 135h393l-92 -1057h-393l12 135q-65 -84 -153 -130t-189 -46q-214 0 -333.5 158t-96.5 411q22 254 169 412t362 158q204 0 309 -176zM426 1178
q-82 0 -130.5 51.5t-41.5 130.5q6 78 64 129t141 51t131.5 -51t42.5 -129q-8 -80 -66 -131t-141 -51zM981 1178q-83 0 -131.5 51t-42.5 131q8 78 65.5 129t139.5 51q83 0 132.5 -51t41.5 -129q-6 -79 -64 -130.5t-141 -51.5z" />
    <glyph glyph-name="aring" unicode="&#xe5;" horiz-adv-x="1392" 
d="M623 303q90 0 153.5 64t71.5 161q9 98 -43 162t-141 64q-90 0 -153.5 -63.5t-72.5 -162.5q-8 -97 44 -161t141 -64zM729 1559q-49 0 -82.5 -30.5t-38.5 -80.5q-4 -49 23.5 -80t77.5 -31q49 0 82 30.5t38 80.5t-23 80.5t-77 30.5zM885 922l12 135h393l-92 -1057h-393
l10 135q-64 -84 -151 -130t-189 -46q-214 0 -333.5 158t-96.5 411q22 254 168.5 412t361.5 158q100 0 180 -46t130 -130zM694 1159q-144 0 -226 80t-71 209q10 129 106.5 209t239.5 80q144 0 226 -80t71 -209q-12 -129 -108 -209t-238 -80z" />
    <glyph glyph-name="ae" unicode="&#xe6;" horiz-adv-x="2138" 
d="M709 786q-98 0 -166 -71.5t-78 -186.5q-9 -114 45.5 -186t151.5 -72t165 71t78 187q9 116 -45 187t-151 71zM1292 606h383q2 81 -47 137t-127 56q-76 0 -131.5 -51t-77.5 -142zM936 915l12 142h234l-15 -160q60 92 168.5 146.5t243.5 54.5q233 0 370 -157.5t115 -401.5
q-5 -82 -16 -123h-770q9 -77 63.5 -124.5t135.5 -47.5q65 0 118 31.5t72 82.5l334 -45q-54 -155 -202.5 -254.5t-325.5 -99.5q-127 0 -228 54.5t-143 142.5l-12 -156h-234l12 141q-68 -87 -161 -134.5t-201 -47.5q-217 0 -337 157.5t-97 411.5q22 254 169.5 412t364.5 158
q106 0 191.5 -48.5t138.5 -134.5z" />
    <glyph glyph-name="ccedilla" unicode="&#xe7;" horiz-adv-x="1292" 
d="M545 -252h-99l58 219q-211 36 -331 189.5t-101 371.5q22 247 203 408.5t438 161.5q143 0 260.5 -55.5t187 -155.5t74.5 -225l-369 -48q-7 67 -57.5 111.5t-118.5 44.5q-87 0 -150.5 -68.5t-72.5 -173.5t41.5 -173t138.5 -68q69 0 126 43.5t79 111.5l360 -43
q-38 -171 -181 -291t-333 -143l-30 -123q94 0 146 -53t44 -141q-7 -91 -86 -146t-199 -55q-78 0 -137 37.5t-78 97.5l107 82q12 -32 39 -52t61 -20q36 0 59.5 21t26.5 55q3 37 -26 58.5t-80 21.5z" />
    <glyph glyph-name="egrave" unicode="&#xe8;" horiz-adv-x="1325" 
d="M465 629h377q2 77 -47 131.5t-127 54.5q-74 0 -127.5 -50t-75.5 -136zM53 532q22 251 203 408.5t444 157.5q262 0 407.5 -157t123.5 -413q-13 -101 -14 -106h-766q11 -84 60 -131t128 -47q66 0 116 32t72 84l344 -45q-47 -155 -210 -255.5t-367 -100.5q-262 0 -413 159
t-128 414zM590 1180l-279 360l353 2l202 -362h-276z" />
    <glyph glyph-name="eacute" unicode="&#xe9;" horiz-adv-x="1325" 
d="M465 629h377q2 77 -47 131.5t-127 54.5q-74 0 -127.5 -50t-75.5 -136zM53 532q22 251 203 408.5t444 157.5q262 0 407.5 -157t123.5 -413q-13 -101 -14 -106h-766q11 -84 60 -131t128 -47q66 0 116 32t72 84l344 -45q-47 -155 -210 -255.5t-367 -100.5q-262 0 -413 159
t-128 414zM543 1180l268 362l350 -2l-342 -360h-276z" />
    <glyph glyph-name="ecircumflex" unicode="&#xea;" horiz-adv-x="1325" 
d="M465 629h377q2 77 -47 131.5t-127 54.5q-74 0 -127.5 -50t-75.5 -136zM53 532q22 251 203 408.5t444 157.5q262 0 407.5 -157t123.5 -413q-13 -101 -14 -106h-766q11 -84 60 -131t128 -47q66 0 116 32t72 84l344 -45q-47 -155 -210 -255.5t-367 -100.5q-262 0 -413 159
t-128 414zM727 1395l-154 -213h-266l242 360h381l180 -362l-266 2z" />
    <glyph glyph-name="edieresis" unicode="&#xeb;" horiz-adv-x="1325" 
d="M465 629h377q2 77 -47 131.5t-127 54.5q-74 0 -127.5 -50t-75.5 -136zM53 532q22 251 203 408.5t444 157.5q262 0 407.5 -157t123.5 -413q-3 -53 -14 -106h-766q11 -84 60 -131t128 -47q66 0 116 32t72 84l344 -45q-47 -155 -210 -255.5t-367 -100.5q-262 0 -413 159
t-128 414zM430 1178q-82 0 -130.5 51.5t-41.5 130.5q6 78 64 129t141 51t131.5 -51t42.5 -129q-8 -80 -66 -131t-141 -51zM985 1178q-83 0 -132 51.5t-42 130.5q6 78 64.5 129t140.5 51q83 0 131.5 -51t42.5 -129q-8 -80 -65 -131t-140 -51z" />
    <glyph glyph-name="igrave" unicode="&#xec;" horiz-adv-x="636" 
d="M152 1057h393l-92 -1057h-394zM-37 1540l352 2l203 -362h-276z" />
    <glyph glyph-name="iacute" unicode="&#xed;" horiz-adv-x="636" 
d="M145 1057h394l-93 -1057h-395zM455 1542l352 -2l-342 -360h-277z" />
    <glyph glyph-name="icircumflex" unicode="&#xee;" horiz-adv-x="636" 
d="M145 1057h394l-93 -1057h-393zM219 1182h-266l242 360h380l181 -362l-267 2l-116 213z" />
    <glyph glyph-name="idieresis" unicode="&#xef;" horiz-adv-x="636" 
d="M145 1057h394l-93 -1057h-393zM76 1178q-82 0 -130.5 51.5t-41.5 130.5q6 78 64 129t141 51t131.5 -51t42.5 -129q-8 -80 -66 -131t-141 -51zM631 1178q-83 0 -132 51.5t-42 130.5q6 78 64.5 129t140.5 51q83 0 131.5 -51t42.5 -129q-8 -80 -65 -131t-140 -51z" />
    <glyph glyph-name="ntilde" unicode="&#xf1;" 
d="M51 0l92 1057h379l-12 -152q67 90 155.5 141.5t190.5 51.5q162 0 255.5 -118t78.5 -302l-60 -678h-393l51 588q6 75 -27.5 120.5t-98.5 45.5t-112.5 -48t-53.5 -124l-52 -582h-393zM436 1229l-174 90q39 91 125 152t180 61q49 0 95 -16.5t74.5 -37t61.5 -37t58 -16.5
q32 0 62 21t51 55l176 -92q-39 -89 -128.5 -150t-189.5 -61q-51 0 -97.5 16.5t-74 37t-58.5 37t-56 16.5q-59 0 -105 -76z" />
    <glyph glyph-name="ograve" unicode="&#xf2;" horiz-adv-x="1345" 
d="M702 1098q267 0 419 -157.5t130 -412.5q-23 -255 -202.5 -412t-446.5 -157q-269 0 -420.5 157t-128.5 412q22 255 201 412.5t448 157.5zM633 303q91 0 153.5 62.5t69.5 162.5q9 100 -42 163t-142 63t-154 -63t-72 -163q-8 -100 43.5 -162.5t143.5 -62.5zM313 1540l351 2
l204 -362h-276z" />
    <glyph glyph-name="oacute" unicode="&#xf3;" horiz-adv-x="1345" 
d="M633 303q91 0 153.5 62.5t69.5 162.5q9 100 -42 163t-142 63t-154 -63t-72 -163q-8 -100 43.5 -162.5t143.5 -62.5zM702 1098q267 0 419 -157.5t130 -412.5q-23 -255 -202.5 -412t-446.5 -157q-269 0 -420.5 157t-128.5 412q22 255 201 412.5t448 157.5zM545 1180
l266 362l352 -2l-342 -360h-276z" />
    <glyph glyph-name="ocircumflex" unicode="&#xf4;" horiz-adv-x="1345" 
d="M633 303q91 0 153.5 62.5t69.5 162.5q9 100 -42 163t-142 63t-154 -63t-72 -163t43 -162.5t144 -62.5zM702 1098q267 0 419 -157.5t130 -412.5q-23 -255 -202.5 -412t-446.5 -157q-269 0 -420.5 157t-128.5 412q22 255 201 412.5t448 157.5zM729 1395l-156 -213h-266
l244 360h381l180 -362l-266 2z" />
    <glyph glyph-name="otilde" unicode="&#xf5;" horiz-adv-x="1345" 
d="M633 303q91 0 153.5 62.5t71.5 162.5q8 100 -44 163t-142 63q-91 0 -154 -63t-72 -163q-8 -100 44 -162.5t143 -62.5zM702 1098q267 0 419.5 -157.5t129.5 -412.5q-22 -255 -201 -412t-448 -157t-420.5 157t-128.5 412q22 255 201 412.5t448 157.5zM471 1229l-172 90
q37 90 123 151.5t180 61.5q49 0 95 -16.5t74.5 -37t61.5 -37t58 -16.5q32 0 62 21t51 55l176 -92q-39 -89 -128.5 -150t-187.5 -61q-52 0 -99 16.5t-75 37t-59 37t-56 16.5q-55 0 -104 -76z" />
    <glyph glyph-name="odieresis" unicode="&#xf6;" horiz-adv-x="1345" 
d="M702 1098q267 0 419 -157.5t130 -412.5q-23 -255 -202.5 -412t-446.5 -157q-269 0 -420.5 157t-128.5 412q22 255 201 412.5t448 157.5zM633 303q91 0 153.5 62.5t69.5 162.5q9 100 -42 163t-142 63t-154 -63t-72 -163q-8 -100 43.5 -162.5t143.5 -62.5zM432 1178
q-83 0 -131.5 51t-42.5 131q8 78 65.5 129t139.5 51q83 0 132.5 -51t41.5 -129q-6 -79 -64 -130.5t-141 -51.5zM985 1178q-82 0 -131 51.5t-43 130.5q8 78 66 129t141 51t131.5 -51t40.5 -129q-6 -79 -64 -130.5t-141 -51.5z" />
    <glyph glyph-name="divide" unicode="&#xf7;" horiz-adv-x="1069" 
d="M483 41q-81 0 -129.5 50.5t-40.5 127.5q6 76 63.5 127t137.5 51q81 0 129.5 -50.5t42.5 -127.5q-8 -77 -65 -127.5t-138 -50.5zM88 791h922l-25 -285h-922zM557 889q-79 0 -127.5 50.5t-42.5 127.5q8 78 64.5 128t138.5 50q80 0 128 -50t42 -128q-6 -77 -63.5 -127.5
t-139.5 -50.5z" />
    <glyph glyph-name="oslash" unicode="&#xf8;" horiz-adv-x="1380" 
d="M709 821q-119 0 -203 -81.5t-96 -211.5q-9 -127 55 -204l299 491q-21 6 -55 6zM657 238q120 0 202.5 80.5t92.5 209.5q12 119 -47 197l-295 -483q14 -4 47 -4zM451 -18l-86 -146h-199l127 207q-122 72 -181 197.5t-46 287.5q23 255 206.5 412.5t458.5 157.5
q101 0 193 -25l92 156h198l-137 -221q118 -73 176 -197.5t45 -282.5q-23 -255 -206.5 -412t-458.5 -157q-92 0 -182 23z" />
    <glyph glyph-name="ugrave" unicode="&#xf9;" 
d="M1110 0h-379l12 152q-67 -90 -155.5 -141.5t-190.5 -51.5q-164 0 -257.5 118.5t-76.5 303.5l60 676h393l-51 -586q-6 -75 27.5 -121.5t97.5 -46.5q65 0 113 49t55 125l51 580h393zM283 1540h350l205 -360h-277z" />
    <glyph glyph-name="uacute" unicode="&#xfa;" 
d="M1110 0h-379l12 152q-67 -90 -155.5 -141.5t-190.5 -51.5q-164 0 -257.5 118.5t-76.5 303.5l60 676h393l-51 -586q-6 -75 27.5 -121.5t97.5 -46.5q65 0 113 49t55 125l51 580h393zM776 1540h350l-342 -360h-276z" />
    <glyph glyph-name="ucircumflex" unicode="&#xfb;" 
d="M1110 0h-379l12 152q-67 -90 -155.5 -141.5t-190.5 -51.5q-164 0 -257.5 118.5t-76.5 303.5l60 676h393l-51 -586q-6 -75 27.5 -121.5t97.5 -46.5q65 0 113 49t55 125l51 580h393zM537 1180h-265l242 362h381l180 -362h-266l-117 215z" />
    <glyph glyph-name="udieresis" unicode="&#xfc;" 
d="M1110 0h-379l12 152q-67 -90 -155.5 -141.5t-190.5 -51.5q-164 0 -257.5 118.5t-76.5 303.5l60 676h393l-51 -586q-6 -75 27.5 -121.5t97.5 -46.5q65 0 113 49t55 125l51 580h393zM395 1178q-82 0 -131 51t-43 129q8 80 66 131t141 51t131.5 -51t40.5 -131
q-6 -78 -64 -129t-141 -51zM950 1178q-83 0 -132.5 51t-41.5 129q6 79 64.5 130.5t140.5 51.5q83 0 131.5 -51t42.5 -131q-8 -78 -65 -129t-140 -51z" />
    <glyph glyph-name="yacute" unicode="&#xfd;" horiz-adv-x="1298" 
d="M102 -444l25 276q43 -16 113 -16q88 0 140.5 37t90.5 129l-428 1075h430l191 -580l237 580h406l-500 -1106q-102 -226 -216 -330t-265 -104q-121 0 -224 39zM788 1542l351 -2l-340 -360h-277z" />
    <glyph glyph-name="ydieresis" unicode="&#xff;" horiz-adv-x="1298" 
d="M102 -444l25 276q43 -16 113 -16q88 0 140.5 37t90.5 129l-428 1075h430l191 -580l237 580h406l-500 -1106q-102 -226 -216 -330t-265 -104q-121 0 -224 39zM408 1178q-82 0 -130.5 51.5t-41.5 130.5q6 78 64 129t140 51q83 0 131.5 -51t42.5 -129q-8 -80 -65 -131
t-141 -51zM963 1178q-83 0 -132 51t-43 131q8 78 65.5 129t139.5 51q83 0 132.5 -51t41.5 -129q-6 -80 -63.5 -131t-140.5 -51z" />
    <glyph glyph-name="Amacron" unicode="&#x100;" horiz-adv-x="1601" 
d="M813 1092l-221 -570h346zM481 211l-82 -211h-465l588 1466h649l330 -1466h-465l-43 211h-512zM520 1884h727l-20 -227h-727z" />
    <glyph glyph-name="amacron" unicode="&#x101;" horiz-adv-x="1392" 
d="M635 303q90 0 153.5 64t71.5 161q9 98 -43 162t-141 64q-90 0 -153 -63.5t-72 -162.5q-8 -97 43.5 -161t140.5 -64zM897 922l12 135h394l-93 -1057h-393l10 135q-64 -84 -151 -130t-189 -46q-214 0 -333.5 158t-96.5 411q22 254 169 412t362 158q100 0 179.5 -46
t129.5 -130zM338 1454h727l-21 -227h-727z" />
    <glyph glyph-name="Abreve" unicode="&#x102;" horiz-adv-x="1601" 
d="M813 1092l-223 -570h346zM479 211l-82 -211h-465l588 1466h649l330 -1466h-465l-43 211h-512zM983 1931h231q-12 -146 -108.5 -233.5t-247.5 -87.5q-152 0 -232.5 88.5t-68.5 232.5h231q-4 -54 19.5 -87.5t66.5 -33.5t73 33.5t36 87.5z" />
    <glyph glyph-name="abreve" unicode="&#x103;" horiz-adv-x="1392" 
d="M633 303q89 0 152 64t71 161q9 98 -43 162t-141 64t-153 -64t-73 -162q-8 -97 44.5 -161t142.5 -64zM893 922l12 135h393l-92 -1057h-393l12 135q-65 -84 -153 -130t-189 -46q-214 0 -333.5 158t-96.5 411q22 254 169 412t362 158q100 0 179.5 -46t129.5 -130zM801 1542
h233q-14 -170 -101.5 -266t-258.5 -96q-327 0 -297 362h233q-7 -72 16 -117t66 -45q42 0 72.5 45t36.5 117z" />
    <glyph glyph-name="Aogonek" unicode="&#x104;" horiz-adv-x="1667" 
d="M831 1092l-221 -570h346zM1290 0h-235l-43 211h-512l-82 -211h-465l588 1466h649l330 -1466h-9q-211 -68 -223 -197q-7 -86 65 -140.5t197 -57.5l-16 -176q-221 0 -351 90.5t-118 232.5q7 83 66.5 148t158.5 100z" />
    <glyph glyph-name="aogonek" unicode="&#x105;" horiz-adv-x="1454" 
d="M651 303q89 0 153 64t73 161q8 99 -44.5 162.5t-142.5 63.5q-89 0 -152.5 -64t-70.5 -162q-9 -97 43 -161t141 -64zM993 0h-162l13 135q-65 -84 -152.5 -130t-187.5 -46q-215 0 -334.5 157.5t-97.5 411.5q23 254 170 412t362 158q201 0 309 -176l11 135h395l-92 -1057
h-13q-212 -70 -221 -197q-8 -86 64 -140.5t198 -57.5l-16 -176q-221 0 -351 90.5t-118 232.5q7 83 66 147.5t157 100.5z" />
    <glyph glyph-name="Cacute" unicode="&#x106;" horiz-adv-x="1714" 
d="M836 326q118 0 217.5 72.5t134.5 185.5l409 -47q-31 -168 -145 -302.5t-287.5 -210t-373.5 -75.5q-230 0 -404 100.5t-261 279.5t-67 404q19 224 138 404t310.5 280.5t420.5 100.5q196 0 354.5 -76.5t249.5 -212.5t94 -307l-414 -43q-14 114 -99.5 188t-203.5 74
q-166 0 -278 -113t-127 -295q-15 -181 77 -294t255 -113zM1020 1931h356l-329 -321h-291z" />
    <glyph glyph-name="cacute" unicode="&#x107;" horiz-adv-x="1292" 
d="M694 1098q143 0 260.5 -55.5t186.5 -155.5t73 -225l-366 -48q-9 68 -59 112t-119 44q-87 0 -151 -68.5t-73 -173.5q-9 -104 43 -172.5t138 -68.5q70 0 127.5 43.5t79.5 111.5l358 -43q-41 -191 -211.5 -315.5t-386.5 -124.5q-167 0 -295.5 73t-194 203.5t-51.5 292.5
q22 247 203 408.5t438 161.5zM791 1542l350 -2l-340 -360h-277z" />
    <glyph glyph-name="Ccircumflex" unicode="&#x108;" horiz-adv-x="1714" 
d="M836 326q118 0 217.5 72.5t134.5 185.5l409 -47q-31 -168 -145 -302.5t-287.5 -210t-373.5 -75.5q-230 0 -404 100.5t-261 279.5t-67 404q19 224 138 404t310.5 280.5t420.5 100.5q196 0 354.5 -76.5t249.5 -212.5t94 -307l-414 -43q-14 114 -99.5 188t-203.5 74
q-166 0 -278 -113t-127 -295q-15 -181 77 -294t255 -113zM788 1610h-256l230 321h381l174 -321h-256l-121 174z" />
    <glyph glyph-name="ccircumflex" unicode="&#x109;" horiz-adv-x="1292" 
d="M694 1098q143 0 260.5 -55.5t186.5 -155.5t73 -225l-366 -48q-9 68 -59 112t-119 44q-87 0 -151 -68.5t-73 -173.5q-9 -104 43 -172.5t138 -68.5q70 0 127.5 43.5t79.5 111.5l358 -43q-41 -191 -211.5 -315.5t-386.5 -124.5q-167 0 -295.5 73t-194 203.5t-51.5 292.5
q22 247 203 408.5t438 161.5zM553 1182h-266l241 360h383l179 -362l-267 2l-116 213z" />
    <glyph glyph-name="Cdotaccent" unicode="&#x10a;" horiz-adv-x="1714" 
d="M834 326q117 0 216 73t134 185l409 -47q-46 -255 -273.5 -421.5t-531.5 -166.5q-172 0 -316 59t-240 162t-143.5 249t-33.5 314q15 168 88.5 314t188 249.5t268.5 162.5t326 59q196 0 354 -76.5t249 -212.5t95 -307l-416 -43q-12 114 -98 188t-205 74q-164 0 -276 -113
t-129 -295q-15 -181 78 -294t256 -113zM922 1610q-89 0 -142 54.5t-45 139.5q7 86 69.5 140.5t151.5 54.5t141.5 -54.5t45.5 -140.5q-8 -85 -69.5 -139.5t-151.5 -54.5z" />
    <glyph glyph-name="cdotaccent" unicode="&#x10b;" horiz-adv-x="1292" 
d="M692 1098q142 0 259 -55.5t186.5 -155.5t74.5 -225l-366 -48q-9 67 -59.5 111.5t-118.5 44.5q-87 0 -151 -68.5t-73 -173.5q-9 -104 42 -172.5t139 -68.5q69 0 126.5 43.5t79.5 111.5l359 -43q-41 -191 -211.5 -315.5t-386.5 -124.5q-168 0 -297 73t-194.5 203t-51.5 293
q15 163 102.5 293t229 203.5t311.5 73.5zM688 1212q-89 0 -142 55.5t-46 141.5t70 141.5t151 55.5q91 0 143.5 -55.5t44.5 -141.5q-7 -86 -69.5 -141.5t-151.5 -55.5z" />
    <glyph glyph-name="Ccaron" unicode="&#x10c;" horiz-adv-x="1714" 
d="M834 326q118 0 217.5 72.5t134.5 185.5l409 -47q-31 -168 -145 -302.5t-288 -210t-374 -75.5q-229 0 -403 100.5t-261 280t-67 403.5q19 224 138 404t310.5 280.5t420.5 100.5q197 0 355.5 -76.5t249 -212.5t93.5 -307l-414 -43q-14 114 -99.5 188t-203.5 74
q-166 0 -278 -113t-127 -295q-15 -181 77 -294t255 -113zM1090 1972h266l-242 -360h-383l-178 360h266l117 -213z" />
    <glyph glyph-name="ccaron" unicode="&#x10d;" horiz-adv-x="1292" 
d="M694 1098q143 0 260.5 -55.5t186.5 -155.5t73 -225l-366 -48q-9 68 -59 112t-119 44q-87 0 -151 -68.5t-73 -173.5q-9 -104 43 -172.5t138 -68.5q70 0 127.5 43.5t79.5 111.5l358 -43q-41 -191 -211.5 -315.5t-386.5 -124.5q-167 0 -295.5 73t-194 203.5t-51.5 292.5
q22 247 203 408.5t438 161.5zM854 1542h268l-243 -362h-381l-181 362h267l116 -215z" />
    <glyph glyph-name="Dcaron" unicode="&#x10e;" horiz-adv-x="1667" 
d="M1122 733q17 182 -82 292t-278 110h-176l-70 -803h176q178 0 296.5 109.5t133.5 291.5zM662 0h-605l129 1466h605q187 0 339 -53t253 -148t149.5 -232t34.5 -300q-19 -218 -138.5 -384.5t-318.5 -257.5t-448 -91zM831 1757l154 215h266l-241 -362h-383l-178 362h266z" />
    <glyph glyph-name="dcaron" unicode="&#x10f;" horiz-adv-x="1693" 
d="M672 752q-89 0 -153 -63.5t-73 -160.5q-7 -97 45.5 -159t141.5 -62t152.5 62.5t72.5 158.5q8 97 -44.5 160.5t-141.5 63.5zM53 528q22 254 166.5 412t355.5 158q194 0 302 -152l51 582h395l-135 -1528h-391l8 111q-133 -152 -328 -152q-211 0 -328.5 157.5t-95.5 411.5z
M1511 1184q-65 0 -101 47.5t-30 120.5q8 77 58 124.5t125 47.5q86 0 133 -60t39 -159q-9 -109 -70.5 -219.5t-146.5 -170.5l-154 43q60 46 101 109.5t46 116.5z" />
    <glyph glyph-name="Dcroat" unicode="&#x110;" horiz-adv-x="1722" 
d="M213 903l49 563h606q378 0 590.5 -201.5t183.5 -531.5q-19 -218 -138 -384.5t-317.5 -257.5t-447.5 -91h-606l60 664h-181l21 239h180zM1200 733q15 183 -84 292.5t-278 109.5h-176l-21 -232h211l-21 -239h-210l-29 -332h176q179 0 297 109t135 292z" />
    <glyph glyph-name="dcroat" unicode="&#x111;" horiz-adv-x="1413" 
d="M672 752q-89 0 -153 -63.5t-73 -160.5q-7 -97 45.5 -159t141.5 -62t152.5 62.5t72.5 158.5q8 97 -44.5 160.5t-141.5 63.5zM877 946l20 236h-289l17 200h290l13 146h395l-14 -146h141l-18 -200h-140l-104 -1182h-391l8 111q-133 -152 -328 -152q-211 0 -328.5 157.5
t-95.5 411.5t166.5 412t355.5 158q194 0 302 -152z" />
    <glyph glyph-name="Emacron" unicode="&#x112;" horiz-adv-x="1288" 
d="M541 598l-23 -250h639l-31 -348h-1065l127 1466h1047l-31 -346h-618l-19 -223h537l-27 -299h-536zM1114 1884l-20 -227h-727l20 227h727z" />
    <glyph glyph-name="emacron" unicode="&#x113;" horiz-adv-x="1325" 
d="M467 629h379q2 77 -47 131.5t-127 54.5q-74 0 -127.5 -50t-77.5 -136zM57 532q22 251 203 408.5t445 157.5q262 0 407 -157t123 -413q-13 -101 -14 -106h-768q12 -84 60.5 -131t127.5 -47q67 0 117.5 32t72.5 84l345 -45q-47 -155 -210.5 -255.5t-369.5 -100.5
q-262 0 -412 158.5t-127 414.5zM373 1454h727l-21 -227h-727z" />
    <glyph glyph-name="Ebreve" unicode="&#x114;" horiz-adv-x="1288" 
d="M539 598l-23 -250h639l-31 -348h-1065l127 1466h1047l-31 -346h-618l-19 -223h537l-27 -299h-536zM848 1931h233q-12 -146 -108.5 -233.5t-247.5 -87.5q-152 0 -233.5 88.5t-67.5 232.5h231q-4 -54 19.5 -87.5t66.5 -33.5t73 33.5t34 87.5z" />
    <glyph glyph-name="ebreve" unicode="&#x115;" horiz-adv-x="1325" 
d="M465 629h377q2 77 -47 131.5t-127 54.5q-74 0 -127.5 -50t-75.5 -136zM53 532q22 251 203 408.5t444 157.5q262 0 407.5 -157t123.5 -413q-13 -101 -14 -106h-766q11 -84 60 -131t128 -47q66 0 116 32t72 84l344 -45q-47 -155 -210 -255.5t-367 -100.5q-262 0 -413 159
t-128 414zM836 1542h233q-14 -170 -101.5 -266t-258.5 -96t-242 96t-57 266h233q-6 -72 16.5 -117t65.5 -45t74 45t37 117z" />
    <glyph glyph-name="Edotaccent" unicode="&#x116;" horiz-adv-x="1288" 
d="M537 598l-23 -250h639l-31 -348h-1067l129 1466h1047l-31 -346h-618l-21 -223h537l-25 -299h-536zM721 1610q-89 0 -141.5 54.5t-44.5 139.5q7 86 69.5 140.5t151.5 54.5t141 -54.5t45 -140.5q-8 -85 -69.5 -139.5t-151.5 -54.5z" />
    <glyph glyph-name="edotaccent" unicode="&#x117;" horiz-adv-x="1325" 
d="M461 629h379q0 77 -49 131.5t-125 54.5q-75 0 -128 -49.5t-77 -136.5zM51 532q22 251 202 408.5t445 157.5q262 0 407 -157t122 -413q-5 -71 -15 -106h-766q12 -84 61 -131t128 -47q66 0 117 32t73 84l344 -45q-47 -155 -210.5 -255.5t-368.5 -100.5q-262 0 -412 158.5
t-127 414.5zM707 1212q-88 0 -141 55.5t-46 141.5t69.5 141.5t151.5 55.5t142 -55.5t47 -141.5q-8 -86 -70 -141.5t-153 -55.5z" />
    <glyph glyph-name="Eogonek" unicode="&#x118;" horiz-adv-x="1288" 
d="M852 0h-772l127 1466h1046l-30 -346h-619l-18 -223h536l-26 -299h-537l-22 -250h639l-31 -348h-72q-214 -69 -223 -197q-8 -87 64.5 -142t197.5 -56l-16 -176q-221 0 -351 90.5t-118 232.5q7 83 66.5 148t158.5 100z" />
    <glyph glyph-name="eogonek" unicode="&#x119;" horiz-adv-x="1325" 
d="M483 629h379q0 77 -49 131.5t-125 54.5q-75 0 -128 -49.5t-77 -136.5zM567 -39q-242 14 -379.5 170.5t-115.5 400.5q23 251 203.5 408.5t443.5 157.5t408 -157t122 -413q-5 -76 -14 -106h-766q12 -84 60.5 -131t127.5 -47q66 0 116.5 32t74.5 84l344 -45
q-33 -104 -121 -186t-211 -127l12 -2q-218 -70 -227 -199q-8 -86 64 -140.5t198 -57.5l-16 -176q-221 0 -351 90.5t-118 232.5q12 130 145 211z" />
    <glyph glyph-name="Ecaron" unicode="&#x11a;" horiz-adv-x="1288" 
d="M537 598l-21 -250h637l-29 -348h-1067l129 1466h1045l-31 -346h-616l-21 -223h537l-27 -299h-536zM889 1972h266l-242 -362h-383l-178 362h266l117 -215z" />
    <glyph glyph-name="ecaron" unicode="&#x11b;" horiz-adv-x="1325" 
d="M465 629h377q2 77 -47 131.5t-127 54.5q-74 0 -127.5 -50t-75.5 -136zM53 532q22 251 203 408.5t444 157.5q262 0 407.5 -157t123.5 -413q-13 -101 -14 -106h-766q11 -84 60 -131t128 -47q66 0 116 32t72 84l344 -45q-47 -155 -210 -255.5t-367 -100.5q-262 0 -413 159
t-128 414zM721 1327l153 215h267l-244 -362h-381l-178 362h266z" />
    <glyph glyph-name="Gcircumflex" unicode="&#x11c;" horiz-adv-x="1769" 
d="M862 326q138 0 243 76t124 190h-375l23 254h798q3 -192 -60.5 -359t-176.5 -285t-274.5 -185.5t-348.5 -67.5q-236 0 -416 100.5t-270 279.5t-70 404q14 168 89 314t192.5 249.5t276 162.5t335.5 59q181 0 329 -66.5t238 -184.5t107 -268l-416 -69q-19 93 -100.5 152
t-191.5 59q-166 0 -282.5 -115t-131.5 -293q-15 -177 85.5 -292t272.5 -115zM823 1610h-256l230 321h383l172 -321h-256l-121 174z" />
    <glyph glyph-name="gcircumflex" unicode="&#x11d;" horiz-adv-x="1372" 
d="M633 307q89 0 152 63t71 158q9 98 -43 162t-141 64t-153 -64t-73 -162q-8 -96 44.5 -158.5t142.5 -62.5zM573 -213q90 0 151.5 63.5t70.5 169.5l10 115q-132 -141 -328 -141q-135 0 -236.5 67t-151.5 189t-36 278q22 252 168.5 411t351.5 159q196 0 304 -152l10 111h393
l-92 -1051q-20 -236 -191.5 -377t-431.5 -141q-227 0 -376 120t-150 304l348 37q8 -71 60.5 -116.5t125.5 -45.5zM719 1395l-154 -213h-266l242 360h383l178 -362l-266 2z" />
    <glyph glyph-name="Gbreve" unicode="&#x11e;" horiz-adv-x="1769" 
d="M862 326q138 0 243 76t124 190h-375l23 254h798q3 -192 -60.5 -359t-176.5 -285t-274.5 -185.5t-348.5 -67.5q-236 0 -416 100.5t-270 279.5t-70 404q14 168 89 314t192.5 249.5t276 162.5t335.5 59q181 0 329 -66.5t238 -184.5t107 -268l-416 -69q-19 93 -100.5 152
t-191.5 59q-166 0 -282.5 -115t-131.5 -293q-15 -177 85.5 -292t272.5 -115zM1085 1931h232q-12 -146 -108.5 -233.5t-247.5 -87.5t-232.5 88.5t-69.5 232.5h232q-4 -54 19.5 -87.5t66.5 -33.5t73.5 33.5t34.5 87.5z" />
    <glyph glyph-name="gbreve" unicode="&#x11f;" horiz-adv-x="1372" 
d="M633 307q89 0 152 63t71 158q9 98 -43 162t-141 64t-153 -64t-73 -162q-8 -96 45 -158.5t142 -62.5zM573 -213q90 0 151.5 63.5t70.5 169.5l10 115q-132 -141 -328 -141q-135 0 -236.5 67t-151.5 189t-36 278q22 252 168.5 411t351.5 159q196 0 304 -152l10 111h393
l-92 -1051q-20 -236 -191.5 -377t-431.5 -141q-227 0 -376 120t-150 304l348 37q8 -71 60.5 -116.5t125.5 -45.5zM827 1542h234q-14 -170 -102 -266t-259 -96t-242 96t-55 266h232q-6 -72 17 -117t65 -45q43 0 73.5 45t36.5 117z" />
    <glyph glyph-name="Gdotaccent" unicode="&#x120;" horiz-adv-x="1769" 
d="M860 326q137 0 242.5 76.5t122.5 189.5h-373l22 254h799q2 -192 -61.5 -359t-176.5 -285t-274.5 -185.5t-349.5 -67.5q-176 0 -324 59t-247.5 162t-149 249t-35.5 314q15 168 90 314t192.5 249.5t276 162.5t334.5 59q274 0 461 -145t215 -374l-416 -69q-19 92 -102 151.5
t-193 59.5q-165 0 -281.5 -115t-131.5 -293q-15 -177 86 -292t274 -115zM956 1610q-89 0 -141.5 54.5t-44.5 139.5q7 86 69.5 140.5t151.5 54.5q90 0 143 -54.5t44 -140.5q-8 -85 -70 -139.5t-152 -54.5z" />
    <glyph glyph-name="gdotaccent" unicode="&#x121;" horiz-adv-x="1372" 
d="M629 307q90 0 153 62.5t72 158.5q9 98 -43 162t-141 64q-91 0 -154.5 -64t-71.5 -162q-9 -95 43.5 -158t141.5 -63zM569 -213q92 0 153.5 63.5t70.5 169.5l10 115q-132 -141 -328 -141q-207 0 -326.5 148.5t-99.5 385.5q23 253 169.5 411.5t352.5 158.5q195 0 303 -152
l11 111h393l-92 -1051q-22 -236 -193.5 -377t-431.5 -141q-226 0 -374.5 120t-151.5 304l348 37q7 -70 60.5 -116t125.5 -46zM700 1212q-89 0 -142 55.5t-46 141.5t70 141.5t151 55.5q91 0 144 -55.5t45 -141.5q-7 -86 -70 -141.5t-152 -55.5z" />
    <glyph glyph-name="Gcommaaccent" unicode="&#x122;" horiz-adv-x="1769" 
d="M881 326q137 0 242 76t124 190h-375l23 254h799q3 -192 -60.5 -359t-176.5 -285t-274.5 -185.5t-348.5 -67.5q-236 0 -416 100.5t-270 279.5t-70 404q14 168 89 314t192.5 249.5t276 162.5t335.5 59q272 0 459 -145t215 -374l-416 -69q-19 93 -101 152t-194 59
q-164 0 -280.5 -115t-131.5 -293q-17 -177 85 -292t274 -115zM774 -487q-64 0 -99.5 46t-29.5 119q6 78 55.5 125t126.5 47q85 0 132.5 -60.5t39.5 -158.5q-11 -108 -72 -217.5t-145 -169.5l-153 43q59 44 100 108t45 118z" />
    <glyph glyph-name="gcommaaccent" unicode="&#x123;" horiz-adv-x="1372" 
d="M623 307q89 0 152 63t71 158q9 98 -43 162t-141 64t-153 -64t-73 -162q-8 -96 45 -158.5t142 -62.5zM563 -213q90 0 151.5 63.5t71.5 169.5l9 115q-132 -141 -328 -141q-135 0 -236.5 67t-151.5 189t-36 278q22 252 168.5 411t351.5 159q199 0 303 -152l11 111h393
l-92 -1051q-20 -236 -191.5 -377t-431.5 -141q-149 0 -268.5 54.5t-188 151.5t-69.5 218l348 37q8 -71 60.5 -116.5t125.5 -45.5zM735 1503q65 0 101 -46.5t30 -119.5q-7 -78 -57 -125t-125 -47q-86 0 -133.5 60.5t-38.5 158.5q9 107 70.5 217.5t146.5 170.5l154 -43
q-60 -44 -101.5 -108t-46.5 -118z" />
    <glyph glyph-name="Itilde" unicode="&#x128;" horiz-adv-x="724" 
d="M57 0l127 1466h445l-127 -1466h-445zM166 1679l-172 97q39 91 124 152t179 61q49 0 95.5 -17t75 -37.5t61 -37.5t57.5 -17q30 0 61 22.5t53 59.5l174 -96q-37 -89 -127 -150t-188 -61q-52 0 -99 16.5t-74.5 36.5t-58.5 36.5t-55 16.5q-54 0 -106 -82z" />
    <glyph glyph-name="itilde" unicode="&#x129;" horiz-adv-x="643" 
d="M43 0l92 1057h395l-92 -1057h-395zM106 1229l-174 90q39 90 125.5 151.5t180.5 61.5q48 0 94 -16.5t74.5 -37t61.5 -37t58 -16.5q31 0 62 21t51 55l174 -92q-37 -89 -127 -150t-188 -61q-51 0 -98 16.5t-75 37t-59.5 37t-56.5 16.5q-57 0 -103 -76z" />
    <glyph glyph-name="Imacron" unicode="&#x12a;" horiz-adv-x="724" 
d="M186 1466h443l-127 -1466h-445zM807 1884l-19 -227h-727l19 227h727z" />
    <glyph glyph-name="imacron" unicode="&#x12b;" horiz-adv-x="657" 
d="M160 1057h395l-94 -1057h-393zM756 1454l-21 -227h-727l21 227h727z" />
    <glyph glyph-name="Iogonek" unicode="&#x12e;" horiz-adv-x="770" 
d="M297 0h-217l127 1466h444l-127 -1466h-6q-213 -69 -225 -197q-8 -86 65 -141.5t197 -56.5l-16 -176q-220 0 -349.5 90t-117.5 233q6 82 66 147t159 101z" />
    <glyph glyph-name="iogonek" unicode="&#x12f;" horiz-adv-x="688" 
d="M236 0h-168l94 1057h393l-92 -1057h-8q-212 -70 -224 -197q-8 -86 65.5 -141.5t197.5 -56.5l-17 -176q-220 0 -349.5 90t-117.5 233q6 82 66 147t160 101zM367 1165q-95 0 -151.5 59.5t-49.5 153.5q7 92 75 151.5t162 59.5q97 0 154 -59.5t49 -151.5q-9 -94 -75.5 -153.5
t-163.5 -59.5z" />
    <glyph glyph-name="Idotaccent" unicode="&#x130;" horiz-adv-x="731" 
d="M184 1466h445l-129 -1466h-445zM420 1610q-91 0 -144 54.5t-45 139.5q7 86 69.5 140.5t152.5 54.5q91 0 143.5 -54.5t44.5 -140.5q-8 -85 -70 -139.5t-151 -54.5z" />
    <glyph glyph-name="dotlessi" unicode="&#x131;" horiz-adv-x="628" 
d="M164 1057h393l-92 -1057h-393z" />
    <glyph glyph-name="IJ" unicode="&#x132;" horiz-adv-x="1716" 
d="M207 1466h444l-127 -1466h-444zM1112 537l80 929h444l-86 -989q-20 -230 -181 -374t-390 -144q-180 0 -305 41l28 332q80 -25 179 -25q94 0 158 63t73 167z" />
    <glyph glyph-name="ij" unicode="&#x133;" horiz-adv-x="1308" 
d="M164 1057h393l-92 -1057h-395zM702 -20l95 1077h395l-98 -1129q-17 -186 -135.5 -298.5t-296.5 -112.5q-145 0 -254 37l28 303q67 -13 117 -13q62 2 103.5 39t45.5 97zM369 1165q-94 0 -151 60t-50 153q9 92 76.5 151.5t161.5 59.5q97 0 153.5 -59.5t48.5 -151.5
q-9 -94 -75.5 -153.5t-163.5 -59.5zM1004 1165q-95 0 -151.5 59.5t-49.5 153.5q7 92 74.5 151.5t162.5 59.5q97 0 153.5 -59.5t47.5 -151.5q-7 -94 -73.5 -153.5t-163.5 -59.5z" />
    <glyph glyph-name="Kcommaaccent" unicode="&#x136;" horiz-adv-x="1542" 
d="M80 0l127 1466h444l-49 -561l463 561h524l-604 -692l481 -774h-524l-364 627l-54 -627h-444zM657 -487q-64 0 -100.5 47.5t-30.5 120.5q7 78 57.5 125t125.5 47q86 0 133.5 -61t38.5 -159q-9 -109 -70 -218t-147 -169l-154 43q60 44 101 107.5t46 116.5z" />
    <glyph glyph-name="kcommaaccent" unicode="&#x137;" horiz-adv-x="1302" 
d="M51 0l133 1528h396l-76 -846l342 375h461l-467 -502l383 -555h-465l-277 424l-37 -424h-393zM524 -483q-65 0 -101 47.5t-30 120.5q7 78 57 125t125 47q85 0 132.5 -60.5t40.5 -158.5q-9 -108 -71 -218t-147 -170l-153 43q60 44 101 107.5t46 116.5z" />
    <glyph glyph-name="Lacute" unicode="&#x139;" horiz-adv-x="1191" 
d="M1040 0h-981l127 1466h445l-94 -1089h536zM514 1931h354l-327 -321h-291z" />
    <glyph glyph-name="lacute" unicode="&#x13a;" horiz-adv-x="843" 
d="M166 1528h393l-133 -1528h-393zM459 1952h354l-332 -350h-280z" />
    <glyph glyph-name="Lcommaaccent" unicode="&#x13b;" horiz-adv-x="1191" 
d="M1094 377l-33 -377h-981l127 1466h444l-94 -1089h537zM498 -487q-64 0 -99.5 47.5t-29.5 120.5q6 78 55.5 125t126.5 47q85 0 132.5 -61t39.5 -159q-11 -109 -71.5 -218t-145.5 -169l-154 43q59 44 100.5 108t45.5 116z" />
    <glyph glyph-name="lcommaaccent" unicode="&#x13c;" horiz-adv-x="634" 
d="M51 0l133 1528h396l-136 -1528h-393zM174 -487q-64 0 -99.5 47.5t-29.5 120.5q6 78 55.5 125t126.5 47q85 0 132.5 -61t39.5 -159q-11 -109 -71.5 -218.5t-145.5 -170.5l-153 45q58 44 99 107.5t46 116.5z" />
    <glyph glyph-name="Lcaron" unicode="&#x13d;" horiz-adv-x="1202" 
d="M1090 377l-33 -377h-981l129 1466h444l-96 -1089h537zM877 1190q-65 0 -101.5 47t-30.5 121q8 77 58 123.5t125 46.5q86 0 133 -60t39 -157q-9 -109 -70.5 -219t-146.5 -170l-154 43q61 46 102.5 108.5t45.5 116.5z" />
    <glyph glyph-name="lcaron" unicode="&#x13e;" horiz-adv-x="974" 
d="M184 1528h396l-136 -1528h-393zM793 1184q-64 0 -100.5 48t-28.5 120q6 77 55.5 124.5t124.5 47.5q86 0 133.5 -60.5t38.5 -158.5q-9 -109 -70 -219.5t-147 -170.5l-152 43q59 46 100.5 110t45.5 116z" />
    <glyph glyph-name="Lslash" unicode="&#x141;" horiz-adv-x="1067" 
d="M6 608l223 133l64 725h444l-39 -442l525 315l-29 -327l-524 -316l-29 -319h537l-33 -377h-981l37 414l-224 -133z" />
    <glyph glyph-name="lslash" unicode="&#x142;" horiz-adv-x="1011" 
d="M979 920l-277 -168l-67 -752h-393l43 500l-277 -168l29 327l276 168l62 701h395l-39 -449l277 168z" />
    <glyph glyph-name="Nacute" unicode="&#x143;" horiz-adv-x="1665" 
d="M647 1466l422 -931l82 931h414l-127 -1466h-461l-422 928l-82 -928h-414l127 1466h461zM987 1931h356l-329 -321h-291z" />
    <glyph glyph-name="nacute" unicode="&#x144;" 
d="M143 1057h379l-14 -152q68 91 157.5 142t190.5 51q162 0 255.5 -118t78.5 -302l-60 -678h-395l51 588q8 74 -26 120t-98 46q-65 0 -112.5 -48t-53.5 -124l-52 -582h-395zM848 1542l350 -2l-342 -360h-276z" />
    <glyph glyph-name="Ncommaaccent" unicode="&#x145;" horiz-adv-x="1665" 
d="M668 1466l422 -931l81 931h414l-127 -1466h-461l-422 928l-81 -928h-414l127 1466h461zM702 -487q-64 0 -99.5 47.5t-29.5 120.5q6 76 56 122.5t125 46.5q86 0 134 -60t40 -157q-11 -109 -72 -219t-145 -170l-154 43q59 46 100 109t45 117z" />
    <glyph glyph-name="ncommaaccent" unicode="&#x146;" 
d="M70 0l92 1057h379l-13 -152q67 90 155.5 141.5t190.5 51.5q164 0 257.5 -118.5t76.5 -301.5l-59 -678h-393l51 588q6 74 -27.5 120t-97.5 46q-65 0 -113 -48t-55 -124l-51 -582h-393zM543 -487q-65 0 -101 47t-30 121q6 76 56.5 122.5t125.5 46.5q85 0 132.5 -60
t39.5 -157q-9 -109 -70.5 -219t-146.5 -170l-154 43q60 47 102 110t46 116z" />
    <glyph glyph-name="Ncaron" unicode="&#x147;" horiz-adv-x="1665" 
d="M647 1466l422 -931l80 931h416l-129 -1466h-461l-422 928l-82 -928h-414l129 1466h461zM1057 1972h266l-242 -362h-383l-178 362h266l117 -215z" />
    <glyph glyph-name="ncaron" unicode="&#x148;" 
d="M143 1057h379l-14 -152q66 90 156 141.5t192 51.5q162 0 255.5 -118t78.5 -302l-60 -678h-395l51 588q8 74 -26 120t-98 46q-65 0 -112.5 -48t-53.5 -124l-52 -582h-395zM911 1542h267l-242 -362h-383l-178 362h266l117 -215z" />
    <glyph glyph-name="Omacron" unicode="&#x14c;" horiz-adv-x="1806" 
d="M817 -51q-182 0 -331 57t-247.5 159.5t-145.5 248.5t-32 319q20 231 138.5 409.5t315 277t439.5 98.5t422.5 -98.5t266.5 -277t67 -409.5q-15 -173 -88 -319t-189 -248.5t-275 -159.5t-341 -57zM922 1141q-169 0 -285 -113.5t-131 -294.5q-17 -181 78.5 -293t265.5 -114
q169 0 285 113t131 294q15 182 -80 295t-264 113zM1350 1884l-21 -227h-727l21 227h727z" />
    <glyph glyph-name="omacron" unicode="&#x14d;" horiz-adv-x="1345" 
d="M705 1098q268 0 420 -157.5t130 -412.5q-23 -255 -202.5 -412t-446.5 -157q-269 0 -420.5 157t-128.5 412q22 255 201.5 412.5t446.5 157.5zM635 303q92 0 154 62.5t71 162.5t-42 163t-142 63q-92 0 -154 -63t-71 -163t42 -162.5t142 -62.5zM1100 1454l-21 -227h-727
l21 227h727z" />
    <glyph glyph-name="Obreve" unicode="&#x14e;" horiz-adv-x="1806" 
d="M920 1141q-169 0 -285 -113.5t-131 -294.5q-17 -181 78.5 -293t265.5 -114q169 0 285 113t131 294q15 182 -80 295t-264 113zM815 -51q-182 0 -331 57t-247.5 159.5t-145.5 248.5t-32 319q20 231 138.5 409.5t315 277t439.5 98.5t422.5 -98.5t266.5 -277t67 -409.5
q-15 -173 -88 -319t-189 -248.5t-275 -159.5t-341 -57zM1085 1931h232q-12 -146 -108.5 -233.5t-247.5 -87.5t-232.5 88.5t-69.5 232.5h232q-4 -54 19.5 -87.5t66.5 -33.5t73.5 33.5t34.5 87.5z" />
    <glyph glyph-name="obreve" unicode="&#x14f;" horiz-adv-x="1345" 
d="M633 303q91 0 153.5 62.5t69.5 162.5q9 100 -42 163t-142 63t-154 -63t-72 -163q-8 -100 43.5 -162.5t143.5 -62.5zM702 1098q267 0 419 -157.5t130 -412.5q-23 -255 -202.5 -412t-446.5 -157q-269 0 -420.5 157t-128.5 412q22 255 201 412.5t448 157.5zM836 1542h233
q-14 -170 -101.5 -266t-258.5 -96q-327 0 -297 362h233q-6 -72 16.5 -117t65.5 -45t73 45t36 117z" />
    <glyph glyph-name="Ohungarumlaut" unicode="&#x150;" horiz-adv-x="1806" 
d="M815 -51q-182 0 -331 57t-247.5 159.5t-145.5 248.5t-32 319q20 231 138.5 409.5t315 277t439.5 98.5t422.5 -98.5t266.5 -277t67 -409.5q-15 -173 -88 -319t-189 -248.5t-275 -159.5t-341 -57zM920 1141q-169 0 -285 -113.5t-131 -294.5q-17 -181 78.5 -293t265.5 -114
q169 0 285 113t131 294q15 182 -80 295t-264 113zM842 1931h336l-289 -321h-271zM1280 1931h334l-322 -321h-270z" />
    <glyph glyph-name="ohungarumlaut" unicode="&#x151;" horiz-adv-x="1343" 
d="M631 303q91 0 153.5 62.5t69.5 162.5q9 100 -42 163t-142 63t-154 -63t-72 -163q-8 -100 43.5 -162.5t143.5 -62.5zM700 1098q267 0 419 -157.5t130 -412.5q-23 -255 -202.5 -412t-446.5 -157q-269 0 -420.5 157t-128.5 412q22 255 201 412.5t448 157.5zM365 1180
l223 368h348l-311 -368h-260zM758 1182l268 366h360l-358 -368z" />
    <glyph glyph-name="OE" unicode="&#x152;" horiz-adv-x="2150" 
d="M1051 395l59 676q-70 64 -192 64q-157 0 -269 -113t-127 -289q-15 -175 76 -288t246 -113q121 0 207 63zM78 733q31 355 251.5 567.5t573.5 212.5q132 0 244 -47h967l-31 -346h-539l-20 -227h456l-26 -299h-457l-20 -246h559l-31 -348h-983q-116 -45 -256 -45
q-235 0 -398.5 97t-236.5 272.5t-53 408.5z" />
    <glyph glyph-name="oe" unicode="&#x153;" horiz-adv-x="2131" 
d="M651 303q91 0 154 62.5t72 162.5q8 100 -44 163t-143 63t-153.5 -63t-69.5 -163q-9 -100 42 -162.5t142 -62.5zM1290 629h379q0 77 -49 131.5t-125 54.5q-75 0 -128 -49.5t-77 -136.5zM1040 127q-152 -168 -419 -168t-419 157t-130 412q23 255 202 412.5t447 157.5
q267 0 391 -168q152 168 428 168q254 0 396.5 -157.5t119.5 -412.5q-5 -76 -14 -106h-766q12 -83 60.5 -130.5t125.5 -47.5q65 0 116.5 32t76.5 84l325 -63q-54 -148 -207 -243t-339 -95q-270 0 -394 168z" />
    <glyph glyph-name="Racute" unicode="&#x154;" horiz-adv-x="1613" 
d="M823 1149h-219l-35 -389h222q103 0 178 53.5t82 140.5q7 90 -58 142.5t-170 52.5zM545 473l-41 -473h-445l127 1466h750q270 0 423.5 -141t133.5 -371q-12 -147 -102.5 -259t-235.5 -165l297 -530h-489l-213 473h-205zM682 1610l264 321h354l-329 -321h-289z" />
    <glyph glyph-name="racute" unicode="&#x155;" horiz-adv-x="958" 
d="M143 1057h377l-12 -133q52 79 131.5 126.5t163.5 47.5q51 0 117 -25l-31 -350q-94 43 -182 43q-87 0 -146.5 -61t-68.5 -160l-48 -545h-395zM643 1542l350 -2l-340 -360h-276z" />
    <glyph glyph-name="Rcommaaccent" unicode="&#x156;" horiz-adv-x="1613" 
d="M844 1149h-219l-35 -389h221q103 0 177 53.5t81 140.5q9 90 -55.5 142.5t-169.5 52.5zM565 473l-41 -473h-444l127 1466h749q269 0 423 -141t134 -371q-12 -147 -102.5 -259t-234.5 -165l297 -530h-490l-213 473h-205zM678 -487q-64 0 -100.5 47t-28.5 121
q6 76 55.5 122.5t124.5 46.5q86 0 133.5 -60t38.5 -157q-9 -109 -70 -219t-147 -170l-154 43q60 44 101.5 108t46.5 118z" />
    <glyph glyph-name="rcommaaccent" unicode="&#x157;" horiz-adv-x="923" 
d="M162 1057h377l-11 -133q50 79 129.5 126.5t163.5 47.5q51 0 117 -25l-31 -350q-94 43 -180 43q-89 0 -148 -61t-67 -160l-49 -545h-393zM203 -487q-64 0 -99.5 47t-29.5 121q6 76 55.5 122.5t124.5 46.5q86 0 133.5 -60t38.5 -157q-9 -109 -70 -219t-147 -170l-152 43
q59 46 100.5 109.5t45.5 116.5z" />
    <glyph glyph-name="Rcaron" unicode="&#x158;" horiz-adv-x="1613" 
d="M821 1149h-219l-35 -389h221q104 0 179 53.5t82 140.5q7 90 -58 142.5t-170 52.5zM543 473l-41 -473h-445l129 1466h748q270 0 423.5 -141t133.5 -371q-12 -147 -102.5 -259t-235.5 -165l297 -530h-489l-213 473h-205zM860 1757l156 215h266l-244 -362h-381l-178 362h264
z" />
    <glyph glyph-name="rcaron" unicode="&#x159;" horiz-adv-x="923" 
d="M143 1057h377l-12 -133q52 79 131.5 126.5t163.5 47.5q51 0 117 -25l-31 -350q-97 43 -182 43q-87 0 -146.5 -61t-68.5 -160l-48 -545h-395zM707 1542h268l-244 -362h-381l-180 362h266l117 -215z" />
    <glyph glyph-name="Sacute" unicode="&#x15a;" horiz-adv-x="1482" 
d="M1352 473q-22 -233 -218.5 -378.5t-488.5 -145.5q-185 0 -327.5 68.5t-215 191t-59.5 274.5h387q-8 -94 65 -155.5t193 -61.5q98 0 161 41.5t69 108.5q1 20 -3 36t-15.5 28.5t-23.5 22t-35 17.5t-40 13t-49 10.5t-51.5 8t-57.5 7.5q-71 8 -126.5 18t-117 27.5t-107 40
t-87 57.5t-66 78.5t-36 103.5t-5.5 132q20 224 207.5 363t464.5 139q182 0 322 -65.5t211.5 -182.5t58.5 -264h-371q7 84 -59.5 139t-175.5 55q-93 0 -156 -38t-68 -97q-2 -25 5 -45t26.5 -33.5t40 -23t58 -17t66 -11t77.5 -9.5q69 -7 124 -16.5t116 -26.5t107 -39.5t88 -57
t67.5 -78t38 -103.5t6.5 -132zM879 1931h354l-330 -321h-289z" />
    <glyph glyph-name="sacute" unicode="&#x15b;" horiz-adv-x="1206" 
d="M1085 352q-15 -176 -174 -288.5t-397 -112.5q-218 0 -349 111.5t-116 283.5h320q-6 -62 43.5 -101.5t132.5 -39.5q66 0 111.5 28.5t48.5 69.5q4 47 -48.5 69.5t-167.5 30.5q-77 6 -131.5 15.5t-112.5 31.5t-92 55.5t-53 90t-12 133.5q15 164 161 270.5t355 106.5
q220 0 353.5 -105t119.5 -266l-334 2q3 50 -42.5 82.5t-118.5 32.5q-57 0 -99 -26t-45 -64q-2 -21 12.5 -37.5t38.5 -25.5t53 -15.5t55 -10.5q6 -1 9 -1q57 -6 99 -11.5t97.5 -17.5t94.5 -26.5t79.5 -39t64 -55t36.5 -74t8 -96.5zM727 1542l352 -2l-342 -360h-276z" />
    <glyph glyph-name="Scircumflex" unicode="&#x15c;" horiz-adv-x="1482" 
d="M1352 473q-22 -233 -218.5 -378.5t-488.5 -145.5q-185 0 -327.5 68.5t-215 191t-59.5 274.5h387q-8 -94 65 -155.5t193 -61.5q98 0 161 41.5t69 108.5q1 20 -3 36t-15.5 28.5t-23.5 22t-35 17.5t-40 13t-49 10.5t-51.5 8t-57.5 7.5q-71 8 -126.5 18t-117 27.5t-107 40
t-87 57.5t-66 78.5t-36 103.5t-5.5 132q20 224 207.5 363t464.5 139q182 0 322 -65.5t211.5 -182.5t58.5 -264h-371q7 84 -59.5 139t-175.5 55q-93 0 -156 -38t-68 -97q-2 -25 5 -45t26.5 -33.5t40 -23t58 -17t66 -11t77.5 -9.5q69 -7 124 -16.5t116 -26.5t107 -39.5t88 -57
t67.5 -78t38 -103.5t6.5 -132zM647 1610h-258l232 321h380l175 -321h-256l-121 174z" />
    <glyph glyph-name="scircumflex" unicode="&#x15d;" horiz-adv-x="1206" 
d="M1085 352q-15 -176 -174 -288.5t-397 -112.5q-218 0 -349 111.5t-116 283.5h318q-5 -62 45 -101.5t133 -39.5q66 0 111.5 28.5t48.5 69.5q4 47 -48.5 69.5t-167.5 30.5q-77 6 -131.5 15.5t-112.5 31.5t-92 55.5t-53 90t-12 133.5q15 164 161 270.5t355 106.5
q220 0 353.5 -105t119.5 -266l-334 2q3 50 -42.5 82.5t-118.5 32.5q-57 0 -99 -26t-45 -64q-2 -21 12.5 -37.5t38.5 -25.5t53 -15.5t55 -10.5q6 -1 9 -1q57 -6 99 -11.5t97.5 -17.5t94.5 -26.5t79.5 -39t64 -55t36.5 -74t8 -96.5zM489 1182h-264l242 360h381l180 -362
l-266 2l-117 213z" />
    <glyph glyph-name="Scedilla" unicode="&#x15e;" horiz-adv-x="1482" 
d="M575 -252h-98l55 211q-228 34 -358 177.5t-113 346.5h388q-8 -94 65 -155.5t193 -61.5q96 0 159 42t68 108q2 26 -5 46t-27.5 34t-40 23.5t-58.5 17.5t-65 12t-76 10q-71 8 -126.5 18t-117 27.5t-107 40t-87 57.5t-66 78.5t-36 103.5t-5.5 132q13 148 103 262.5t238 177
t330 62.5t322 -65.5t211.5 -182.5t58.5 -264h-370q7 84 -60 139t-176 55q-93 0 -155.5 -38t-67.5 -97q-2 -25 5 -45t26.5 -33.5t40 -23t57.5 -17t65.5 -11.5t77.5 -9q69 -7 124 -16.5t116 -26.5t107 -39.5t88 -57t67.5 -78t38 -103.5t6.5 -132q-20 -220 -198.5 -363.5
t-446.5 -158.5l-29 -109q94 0 147 -53t46 -141q-7 -91 -86 -146t-199 -55q-78 0 -137 37.5t-78 97.5l107 82q12 -32 39 -52t61 -20q36 0 59.5 21t26.5 55q3 37 -26.5 58.5t-80.5 21.5z" />
    <glyph glyph-name="scedilla" unicode="&#x15f;" horiz-adv-x="1206" 
d="M502 -252h-99l56 207q-188 20 -296 127.5t-95 263.5h319q-6 -61 44 -101t132 -40q66 0 111.5 28.5t48.5 69.5q4 47 -48 69.5t-165 30.5q-77 6 -131.5 15.5t-113 31.5t-93 55.5t-54 90t-12.5 133.5q15 164 162 270.5t355 106.5q220 0 353.5 -105t119.5 -266l-334 2
q3 50 -42.5 82.5t-117.5 32.5q-58 0 -99 -26t-46 -64q-1 -21 14 -37.5t39 -25.5t53 -15.5t55 -10.5q6 -1 9 -1q57 -6 98.5 -11.5t96.5 -17.5t94 -26.5t79.5 -39t64 -55t37 -74t9.5 -96.5q-13 -152 -136 -258.5t-315 -134.5l-30 -117q94 0 146 -53t44 -141q-7 -91 -86 -146
t-199 -55q-78 0 -137 37.5t-78 97.5l109 82q10 -32 37.5 -52t60.5 -20q36 0 59.5 21t26.5 55q3 37 -25.5 58.5t-80.5 21.5z" />
    <glyph glyph-name="Scaron" unicode="&#x160;" horiz-adv-x="1482" 
d="M1350 473q-22 -233 -218.5 -378.5t-488.5 -145.5q-185 0 -327.5 68.5t-215 191t-59.5 274.5h387q-7 -94 66 -155.5t192 -61.5q97 0 160 41.5t69 108.5q2 26 -5.5 46t-28.5 34t-40.5 23.5t-58.5 17.5t-65 12t-76 10q-71 8 -126.5 18t-117 27.5t-107 40t-87 57.5t-66 78.5
t-36 103.5t-5.5 132q20 224 207.5 363t464.5 139q182 0 322 -65.5t211.5 -182.5t58.5 -264h-371q7 84 -59.5 139t-175.5 55q-93 0 -156 -38t-68 -97q-2 -25 5 -45t26.5 -33.5t40 -23t58 -17t66 -11t77.5 -9.5q69 -7 124 -16.5t116.5 -26.5t107.5 -39.5t88 -57t67.5 -78
t37.5 -103.5t6 -132zM948 1972h266l-243 -362h-381l-178 362h264l119 -215z" />
    <glyph glyph-name="scaron" unicode="&#x161;" horiz-adv-x="1206" 
d="M1085 352q-15 -176 -174 -288.5t-397 -112.5q-218 0 -349 111.5t-116 283.5h318q-5 -62 45 -101.5t133 -39.5q66 0 111.5 28.5t48.5 69.5q4 47 -48.5 69.5t-167.5 30.5q-77 6 -131.5 15.5t-112.5 31.5t-92 55.5t-53 90t-12 133.5q15 164 161 270.5t355 106.5
q220 0 353.5 -105t119.5 -266l-334 2q3 50 -42.5 82.5t-118.5 32.5q-57 0 -99 -26t-45 -64q-2 -21 12.5 -37.5t38.5 -25.5t53 -15.5t55 -10.5q6 -1 9 -1q57 -6 99 -11.5t97.5 -17.5t94.5 -26.5t79.5 -39t64 -55t36.5 -74t8 -96.5zM762 1542h266l-244 -362h-381l-178 362h267
l116 -215z" />
    <glyph glyph-name="Tcommaaccent" unicode="&#x162;" horiz-adv-x="1323" 
d="M375 0l96 1104h-412l33 362h1268l-33 -362h-412l-96 -1104h-444zM528 -487q-64 0 -100.5 47t-30.5 121q7 76 57.5 122.5t125.5 46.5q86 0 133.5 -60t38.5 -157q-9 -109 -70 -219t-147 -170l-154 43q60 46 101.5 109t45.5 117z" />
    <glyph glyph-name="tcommaaccent" unicode="&#x163;" horiz-adv-x="880" 
d="M164 387l33 377h-136l27 293h152l61 276h340l-25 -276h220l-25 -293h-221l-29 -330q-5 -60 25.5 -96.5t87.5 -36.5q52 0 102 12l-28 -317q-116 -37 -242 -37q-170 0 -264.5 120t-77.5 308zM391 -487q-65 0 -101 47t-30 121q8 77 57.5 123t124.5 46q86 0 133.5 -60
t38.5 -157q-9 -109 -70.5 -219t-146.5 -170l-153 43q60 46 101.5 109t45.5 117z" />
    <glyph glyph-name="Tcaron" unicode="&#x164;" horiz-adv-x="1323" 
d="M352 0l99 1104h-414l33 362h1267l-30 -362h-412l-98 -1104h-445zM883 1972h266l-242 -362h-383l-178 362h266l117 -215z" />
    <glyph glyph-name="tcaron" unicode="&#x165;" horiz-adv-x="991" 
d="M145 387l33 377h-135l27 293h151l62 276h340l-25 -276h221l-26 -293h-220l-28 -330q-6 -60 24.5 -96.5t87.5 -36.5q51 0 101 12l-29 -317q-116 -37 -240 -37q-171 0 -266 120.5t-78 307.5zM809 1403q-65 0 -101 46.5t-30 119.5q6 78 56.5 125t125.5 47q85 0 132.5 -60
t39.5 -157q-9 -109 -70.5 -219t-146.5 -170l-153 43q59 45 101 108t46 117z" />
    <glyph glyph-name="Utilde" unicode="&#x168;" horiz-adv-x="1636" 
d="M1034 631l74 835h444l-75 -852q-17 -195 -117 -346.5t-264.5 -235t-368.5 -83.5q-310 0 -485.5 184t-149.5 481l76 852h442l-71 -835q-11 -122 46 -210.5t175 -94.5q112 0 187 84.5t87 220.5zM618 1679l-172 97q37 90 123.5 151.5t180.5 61.5q49 0 95 -17t75 -37.5
t61 -37.5t57 -17q31 0 62 22.5t53 59.5l174 -96q-37 -89 -127 -150t-188 -61q-52 0 -99 16.5t-74.5 36.5t-58.5 36.5t-55 16.5q-55 0 -107 -82z" />
    <glyph glyph-name="utilde" unicode="&#x169;" 
d="M1202 1057l-92 -1057h-379l12 152q-67 -90 -155.5 -141.5t-190.5 -51.5q-163 0 -257 119t-77 303l60 676h393l-51 -586q-6 -75 28 -121.5t99 -46.5q64 0 112 49.5t54 124.5l51 580h393zM436 1229l-174 90q39 89 125 150t178 61q49 0 95.5 -16.5t75.5 -37t62 -37t58 -16.5
q31 0 62 21.5t51 56.5l174 -92q-37 -89 -127.5 -151t-188.5 -62q-52 0 -99 16.5t-74.5 37t-58.5 37t-56 16.5q-57 0 -103 -74z" />
    <glyph glyph-name="Umacron" unicode="&#x16a;" horiz-adv-x="1636" 
d="M1038 631l74 835h444l-73 -852q-17 -195 -117.5 -346.5t-265.5 -235t-369 -83.5q-309 0 -485 184.5t-150 480.5l76 852h444l-73 -835q-10 -122 47 -210.5t174 -94.5q112 0 187.5 85t86.5 220zM1264 1884l-19 -227h-727l19 227h727z" />
    <glyph glyph-name="umacron" unicode="&#x16b;" 
d="M1114 0h-379l13 152q-66 -90 -156.5 -141.5t-192.5 -51.5q-163 0 -255.5 118.5t-75.5 303.5l57 676h395l-51 -586q-6 -75 27.5 -121.5t97.5 -46.5q65 0 113 49t55 125l49 580h395zM1065 1454l-21 -227h-727l19 227h729z" />
    <glyph glyph-name="Ubreve" unicode="&#x16c;" horiz-adv-x="1636" 
d="M1036 631l74 835h444l-73 -852q-17 -195 -117.5 -346.5t-265.5 -235t-369 -83.5q-309 0 -485 184.5t-150 480.5l76 852h444l-73 -835q-10 -122 47 -210.5t174 -94.5q112 0 187.5 85t86.5 220zM999 1931h232q-12 -146 -109 -233.5t-248 -87.5t-232 88.5t-69 232.5h234
q-4 -54 19.5 -87.5t66.5 -33.5t72.5 33.5t33.5 87.5z" />
    <glyph glyph-name="ubreve" unicode="&#x16d;" 
d="M1202 1057l-92 -1057h-379l12 152q-67 -90 -155.5 -141.5t-190.5 -51.5q-164 0 -257.5 118.5t-76.5 303.5l60 676h393l-51 -586q-6 -75 27.5 -121.5t97.5 -46.5q65 0 113 49t55 125l51 580h393zM801 1540h233q-16 -170 -103.5 -265t-258.5 -95q-169 0 -240 95.5
t-57 264.5h233q-6 -71 16.5 -115.5t65.5 -44.5t74 45t37 115z" />
    <glyph glyph-name="Uring" unicode="&#x16e;" horiz-adv-x="1636" 
d="M897 1989q-50 0 -83 -31t-36 -80q-4 -49 23.5 -80t77.5 -31q49 0 81 30.5t37 80.5t-23 80.5t-77 30.5zM1026 631l74 835h444l-74 -852q-26 -296 -234 -480.5t-517 -184.5t-485 184.5t-150 480.5l76 852h444l-74 -835q-11 -122 47 -210.5t175 -94.5q112 0 187.5 85
t86.5 220zM862 1589q-144 0 -225.5 80t-69.5 209q11 129 106 209t240 80q144 0 225.5 -80t69.5 -209q-11 -129 -106 -209t-240 -80z" />
    <glyph glyph-name="uring" unicode="&#x16f;" 
d="M696 1556q-50 0 -82 -29.5t-36 -78.5q-5 -50 23 -80.5t77 -30.5q50 0 83 31t36 80q4 49 -23.5 78.5t-77.5 29.5zM1194 1057l-92 -1057h-379l12 152q-66 -90 -156 -141.5t-192 -51.5q-163 0 -256 118.5t-76 303.5l58 676h395l-51 -586q-6 -75 27.5 -121.5t97.5 -46.5
q65 0 113 49t55 125l49 580h395zM662 1159q-143 0 -225 80t-70 209q10 129 105.5 208t240.5 79t226 -79t69 -208q-11 -129 -106 -209t-240 -80z" />
    <glyph glyph-name="Uhungarumlaut" unicode="&#x170;" horiz-adv-x="1636" 
d="M1036 631l74 835h444l-73 -852q-17 -195 -117.5 -346.5t-265.5 -235t-369 -83.5q-309 0 -485 184.5t-150 480.5l76 852h444l-73 -835q-10 -122 47 -210.5t174 -94.5q112 0 187.5 85t86.5 220zM750 1931h335l-288 -321h-271zM1186 1931h336l-322 -321h-270z" />
    <glyph glyph-name="uhungarumlaut" unicode="&#x171;" horiz-adv-x="1269" 
d="M1110 0h-379l12 152q-66 -90 -156 -141.5t-192 -51.5q-163 0 -256 118.5t-76 303.5l58 676h395l-51 -586q-6 -75 27.5 -121.5t97.5 -46.5q65 0 113 49t55 125l49 580h395zM535 1548h346l-312 -368h-258zM971 1548h362l-360 -368h-271z" />
    <glyph glyph-name="Uogonek" unicode="&#x172;" horiz-adv-x="1636" 
d="M682 -49q-280 22 -436 203t-131 460l75 852h445l-74 -835q-11 -122 46.5 -210.5t174.5 -94.5q112 0 188 85t87 220l73 835h445l-74 -852q-23 -256 -183.5 -431.5t-408.5 -219.5q-128 -63 -137 -162q-7 -86 65 -140.5t197 -57.5l-14 -176q-221 0 -351 90.5t-118 232.5
q9 122 131 201z" />
    <glyph glyph-name="uogonek" unicode="&#x173;" horiz-adv-x="1353" 
d="M893 0h-141l12 152q-67 -90 -155.5 -141.5t-190.5 -51.5q-162 0 -255.5 118.5t-78.5 303.5l59 676h394l-52 -586q-6 -75 28 -121.5t99 -46.5t112.5 49t53.5 125l51 580h394l-93 -1057h-18q-207 -69 -219 -195q-8 -86 65 -141.5t197 -56.5l-14 -176q-222 0 -351.5 89.5
t-117.5 231.5q6 82 64.5 147t156.5 101z" />
    <glyph glyph-name="Wcircumflex" unicode="&#x174;" horiz-adv-x="2531" 
d="M1530 1466l184 -1075l369 1075h446l-522 -1466h-612l-138 885l-290 -885h-613l-266 1466h447l182 -1075l375 1075h438zM1184 1610h-256l229 321h381l174 -321h-256l-121 174z" />
    <glyph glyph-name="wcircumflex" unicode="&#x175;" horiz-adv-x="1933" 
d="M758 0h-488l-207 1057h408l111 -660l239 660h340l139 -670l228 670h393l-393 -1057h-486l-90 596zM868 1182h-266l242 360h383l178 -362l-266 2l-117 213z" />
    <glyph glyph-name="Ycircumflex" unicode="&#x176;" horiz-adv-x="1482" 
d="M440 0l43 500l-422 966h463l215 -585l301 585h469l-581 -966l-43 -500h-445zM664 1610h-258l229 321h383l174 -321h-258l-121 174z" />
    <glyph glyph-name="ycircumflex" unicode="&#x177;" horiz-adv-x="1298" 
d="M102 -444l25 276q43 -16 113 -16q88 0 140.5 37t90.5 129l-428 1075h430l191 -580l237 580h406l-500 -1106q-102 -226 -216 -330t-265 -104q-124 0 -224 39zM551 1182h-266l241 360h383l178 -362l-266 2l-116 213z" />
    <glyph glyph-name="Ydieresis" unicode="&#x178;" horiz-adv-x="1482" 
d="M438 0l43 500l-422 966h463l215 -585l301 585h469l-581 -966l-43 -500h-445zM524 1602q-83 0 -131.5 52.5t-42.5 135.5q7 83 65.5 135.5t141.5 52.5t131 -52.5t41 -135.5q-6 -83 -63.5 -135.5t-141.5 -52.5zM1067 1602q-83 0 -131.5 52.5t-42.5 135.5q7 83 66 135.5
t141 52.5q83 0 131 -52.5t41 -135.5q-6 -83 -63.5 -135.5t-141.5 -52.5z" />
    <glyph glyph-name="Zacute" unicode="&#x179;" horiz-adv-x="1384" 
d="M31 291l690 831h-598l31 344h1165l-25 -290l-671 -832h618l-29 -344h-1208zM844 1931h356l-330 -321h-290z" />
    <glyph glyph-name="zacute" unicode="&#x17a;" horiz-adv-x="1177" 
d="M43 258l500 485h-437l29 314h959l-23 -256l-465 -488h445l-29 -313h-1002zM729 1542l350 -2l-342 -360h-276z" />
    <glyph glyph-name="Zdotaccent" unicode="&#x17b;" horiz-adv-x="1384" 
d="M27 291l692 831h-598l29 344h1167l-27 -290l-672 -832h621l-31 -344h-1206zM745 1610q-89 0 -141.5 54.5t-44.5 139.5q7 86 69.5 140.5t151.5 54.5t141.5 -54.5t45.5 -140.5q-8 -85 -70 -139.5t-152 -54.5z" />
    <glyph glyph-name="zdotaccent" unicode="&#x17c;" horiz-adv-x="1177" 
d="M41 258l500 485h-437l27 314h961l-23 -256l-465 -488h443l-27 -313h-1002zM625 1212q-88 0 -141 55.5t-46 141.5t69.5 141.5t151.5 55.5t142 -55.5t47 -141.5q-8 -86 -70 -141.5t-153 -55.5z" />
    <glyph glyph-name="Zcaron" unicode="&#x17d;" horiz-adv-x="1384" 
d="M29 291l690 831h-598l31 344h1165l-25 -290l-671 -832h618l-29 -344h-1208zM913 1972h267l-242 -362h-383l-178 362h266l117 -215z" />
    <glyph glyph-name="zcaron" unicode="&#x17e;" horiz-adv-x="1177" 
d="M43 258l500 485h-437l29 314h959l-23 -256l-465 -488h445l-29 -313h-1002zM793 1542h266l-244 -362h-381l-178 362h266l117 -215z" />
    <glyph glyph-name="Aacutering" unicode="&#x1fa;" horiz-adv-x="1601" 
d="M797 1092l-224 -570h347zM860 1831q-32 0 -54.5 -21t-25.5 -53q-3 -34 15.5 -54t52.5 -20q33 0 55 20.5t25 53.5t-16 53.5t-52 20.5zM463 211l-80 -211h-465l588 1466h647l330 -1466h-463l-45 211h-512zM831 1505q-128 0 -200 69t-62 183q9 113 93.5 182.5t211.5 69.5
t200.5 -69.5t64.5 -182.5t-94.5 -182.5t-213.5 -69.5zM717 2044l239 237h326l-276 -237h-289z" />
    <glyph glyph-name="aacutering" unicode="&#x1fb;" horiz-adv-x="1392" 
d="M614 303q90 0 153.5 64t72.5 161q9 98 -43.5 162t-141.5 64q-91 0 -154 -64t-71 -162q-9 -97 43 -161t141 -64zM727 1460q-33 0 -55 -20.5t-25 -53.5q-3 -32 15.5 -52.5t52.5 -20.5q32 0 54.5 20.5t25.5 52.5q3 34 -15.5 54t-52.5 20zM877 922l12 135h393l-92 -1057h-395
l12 135q-65 -84 -152.5 -130t-187.5 -46q-215 0 -334.5 157.5t-97.5 411.5q23 254 170 412t362 158q100 0 180 -46t130 -130zM698 1135q-128 0 -200 69.5t-62 181.5q9 114 93 183t212 69t201 -69t64 -183q-9 -112 -94.5 -181.5t-213.5 -69.5zM680 1686l211 245h311
l-248 -245h-274z" />
    <glyph glyph-name="AEacute" unicode="&#x1fc;" horiz-adv-x="2097" 
d="M711 510h315l57 659zM1405 348h561l-29 -348h-956l18 211h-452l-119 -211h-494l850 1466h1260l-31 -348h-540l-21 -225h461l-27 -299h-459zM1077 1575l264 319h355l-328 -319h-291z" />
    <glyph glyph-name="aeacute" unicode="&#x1fd;" horiz-adv-x="2138" 
d="M688 786q-97 0 -165 -71.5t-77 -186.5q-10 -114 45 -186t152 -72q98 0 166 71t78 187q9 116 -46 187t-153 71zM1274 606h383q0 82 -48 137.5t-128 55.5q-74 0 -129.5 -51t-77.5 -142zM918 915l12 142h233l-14 -160q60 92 168.5 146.5t243.5 54.5q153 0 268.5 -71.5
t173 -199t43.5 -288.5q-3 -49 -16 -123h-770q9 -77 62.5 -124.5t135.5 -47.5q65 0 118.5 31.5t72.5 82.5l333 -45q-55 -155 -204 -254.5t-324 -99.5q-128 0 -229.5 55t-141.5 142l-12 -156h-233l12 141q-70 -87 -163.5 -134.5t-199.5 -47.5q-217 0 -337.5 157.5t-98.5 411.5
q23 254 171.5 412t363.5 158q107 0 192 -48t140 -135zM915 1167l267 361h350l-340 -361h-277z" />
    <glyph glyph-name="Oslashacute" unicode="&#x1fe;" horiz-adv-x="1765" 
d="M899 1141q-157 0 -268.5 -115t-126.5 -293q-15 -168 78 -278l405 671q-51 15 -88 15zM827 326q157 0 269 114.5t127 292.5q14 159 -70 275l-405 -672q31 -10 79 -10zM535 -12l-164 -275h-240l219 363q-154 103 -232 274.5t-59 382.5q15 168 88.5 314t188.5 249.5
t269.5 162.5t326.5 59q142 0 270 -41l172 284h240l-230 -375q151 -106 226 -275.5t57 -377.5q-14 -168 -87 -314t-188 -249t-269.5 -162t-327.5 -59q-135 0 -260 39zM786 1589l265 322h354l-330 -322h-289z" />
    <glyph glyph-name="oslashacute" unicode="&#x1ff;" horiz-adv-x="1380" 
d="M694 821q-119 0 -203 -81.5t-94 -211.5q-12 -126 56 -204l297 491q-21 6 -56 6zM643 238q120 0 202.5 80.5t94.5 209.5q9 120 -49 197l-293 -483q14 -4 45 -4zM436 -18l-86 -146h-198l127 207q-122 73 -181.5 198.5t-44.5 286.5q22 255 205.5 412.5t460.5 157.5
q98 0 190 -25l92 156h201l-137 -221q118 -72 175 -196.5t44 -283.5q-22 -255 -206 -412t-460 -157q-88 0 -182 23zM829 1542l351 -2l-340 -360h-277z" />
    <glyph glyph-name="Scommaaccent" unicode="&#x218;" horiz-adv-x="1482" 
d="M1370 473q-22 -233 -218 -378.5t-488 -145.5q-186 0 -328.5 68.5t-215 190.5t-59.5 275h388q-8 -94 65 -155.5t193 -61.5q96 0 159 42t68 108q2 26 -5 46t-27.5 34t-40 23.5t-58.5 17.5t-65 12t-76 10q-71 8 -126.5 18t-117 27.5t-107 40t-87 57.5t-66 78.5t-36 103.5
t-5.5 132q13 148 103 262.5t238 177t330 62.5t322 -65.5t211.5 -182.5t58.5 -264h-370q7 84 -60 139t-176 55q-93 0 -155.5 -38t-67.5 -97q-2 -25 5 -45t26.5 -33.5t40 -23t57.5 -17t65.5 -11.5t77.5 -9q69 -7 124 -16.5t116 -26.5t107 -39.5t88 -57t67.5 -78t38 -103.5
t6.5 -132zM588 -487q-64 0 -99.5 47t-29.5 121q6 76 55.5 122.5t124.5 46.5q86 0 133.5 -60t38.5 -157q-9 -109 -70 -219t-147 -170l-152 43q59 46 100.5 109.5t45.5 116.5z" />
    <glyph glyph-name="scommaaccent" unicode="&#x219;" horiz-adv-x="1206" 
d="M1106 352q-15 -176 -174 -288.5t-397 -112.5q-218 0 -350 111.5t-117 283.5h319q-6 -61 44 -101t132 -40q66 0 111.5 28.5t48.5 69.5q4 47 -48 69.5t-165 30.5q-77 6 -131.5 15.5t-113 31.5t-93 55.5t-54 90t-12.5 133.5q15 164 162 270.5t355 106.5q220 0 353.5 -105
t119.5 -266l-334 2q3 50 -42.5 82.5t-117.5 32.5q-58 0 -99 -26t-46 -64q-1 -21 14 -37.5t39 -25.5t53 -15.5t55 -10.5q6 -1 9 -1q57 -6 98.5 -11.5t96.5 -17.5t94 -26.5t79.5 -39t64 -55t37 -74t9.5 -96.5zM477 -487q-64 0 -100.5 47t-30.5 121q8 77 57.5 123t124.5 46
q86 0 133.5 -60t38.5 -157q-9 -109 -70 -219t-147 -170l-153 43q60 46 101.5 109t45.5 117z" />
    <glyph glyph-name="circumflex" unicode="&#x2c6;" horiz-adv-x="950" 
d="M109 1167l241 363h383l178 -363h-266l-117 215l-153 -215h-266z" />
    <glyph glyph-name="caron" unicode="&#x2c7;" horiz-adv-x="950" 
d="M678 1528l266 2l-244 -363h-381l-178 361h265l118 -213z" />
    <glyph glyph-name="breve" unicode="&#x2d8;" horiz-adv-x="806" 
d="M565 1528h234q-14 -170 -102 -265.5t-259 -95.5t-241 96t-56 265h232q-6 -70 17.5 -115t66.5 -45q41 0 71.5 45t36.5 115z" />
    <glyph glyph-name="dotaccent" unicode="&#x2d9;" horiz-adv-x="557" 
d="M311 1147q-89 0 -141 55t-45 141q6 86 68.5 141.5t152.5 55.5q89 0 141.5 -55.5t44.5 -141.5q-7 -86 -69.5 -141t-151.5 -55z" />
    <glyph glyph-name="ring" unicode="&#x2da;" horiz-adv-x="790" 
d="M418 1114q-143 0 -225 79t-70 208q10 130 105.5 209.5t240.5 79.5t226 -79.5t69 -209.5q-10 -129 -105.5 -208t-240.5 -79zM453 1511q-49 0 -81.5 -30t-37.5 -80q-5 -48 23 -78.5t77 -30.5t82.5 30.5t38.5 78.5q3 50 -25 80t-77 30z" />
    <glyph glyph-name="ogonek" unicode="&#x2db;" horiz-adv-x="645" 
d="M354 20l148 -20q-218 -70 -230 -199q-7 -86 65.5 -140.5t197.5 -57.5l-15 -176q-221 0 -351 90.5t-118 232.5q9 98 90.5 170t212.5 100z" />
    <glyph glyph-name="tilde" unicode="&#x2dc;" horiz-adv-x="1021" 
d="M295 1200l-174 92q39 89 125 150t180 61q61 0 116.5 -26.5t98.5 -53t74 -26.5q30 0 61 21t51 55l177 -93q-39 -88 -129.5 -149.5t-188.5 -61.5q-51 0 -98 16.5t-74.5 37t-59.5 37t-57 16.5q-56 0 -102 -76z" />
    <glyph glyph-name="hungarumlaut" unicode="&#x2dd;" horiz-adv-x="1136" 
d="M332 1536h348l-311 -369h-260zM768 1536h362l-358 -369h-270z" />
    <glyph glyph-name="Wgrave" unicode="&#x1e80;" horiz-adv-x="2531" 
d="M1530 1466l184 -1075l369 1075h446l-522 -1466h-612l-138 885l-290 -885h-613l-266 1466h447l182 -1075l375 1075h438zM895 1931h356l207 -321h-289z" />
    <glyph glyph-name="wgrave" unicode="&#x1e81;" horiz-adv-x="1933" 
d="M758 0h-488l-207 1057h408l111 -660l239 660h340l139 -670l228 670h393l-393 -1057h-486l-90 596zM608 1540l350 2l203 -362h-276z" />
    <glyph glyph-name="Wacute" unicode="&#x1e82;" horiz-adv-x="2531" 
d="M1530 1466l184 -1075l369 1075h446l-522 -1466h-612l-138 885l-290 -885h-613l-266 1466h447l182 -1075l375 1075h438zM1415 1931h357l-330 -321h-291z" />
    <glyph glyph-name="wacute" unicode="&#x1e83;" horiz-adv-x="1933" 
d="M758 0h-488l-207 1057h408l111 -660l239 660h340l139 -670l228 670h393l-393 -1057h-486l-90 596zM1106 1542l350 -2l-340 -360h-276z" />
    <glyph glyph-name="Wdieresis" unicode="&#x1e84;" horiz-adv-x="2531" 
d="M1528 1466l184 -1075l369 1075h446l-522 -1466h-612l-138 885l-290 -885h-613l-266 1466h446l183 -1075l375 1075h438zM1044 1602q-82 0 -130.5 52.5t-41.5 135.5t65.5 135.5t141.5 52.5t131 -52.5t41 -135.5q-8 -83 -65 -135.5t-142 -52.5zM1589 1602q-84 0 -132.5 52.5
t-41.5 135.5t65.5 135.5t141.5 52.5t131 -52.5t41 -135.5t-64.5 -135.5t-140.5 -52.5z" />
    <glyph glyph-name="wdieresis" unicode="&#x1e85;" horiz-adv-x="1933" 
d="M758 0h-488l-207 1057h408l111 -660l239 660h340l139 -670l228 670h393l-393 -1057h-486l-90 596zM725 1178q-82 0 -130.5 51.5t-41.5 130.5q6 78 64.5 129t140.5 51q83 0 131.5 -51t42.5 -129q-8 -80 -65.5 -131t-141.5 -51zM1280 1178q-83 0 -131.5 51t-42.5 131
q8 78 65.5 129t139.5 51q83 0 132.5 -51t41.5 -129q-6 -79 -64 -130.5t-141 -51.5z" />
    <glyph glyph-name="Germandbls" unicode="&#x1e9e;" horiz-adv-x="1599" 
d="M588 993l-86 -993h-445l86 983q20 236 215 383t490 147q270 0 422 -121.5t135 -320.5q-7 -95 -67 -166t-156 -102q134 -30 216.5 -147t69.5 -273q-17 -189 -164 -311.5t-354 -122.5q-85 0 -181 23.5t-171 60.5l90 258q89 -47 162 -47q70 0 120 51t58 131q8 100 -51 161.5
t-172 61.5h-94l22 238h98q71 0 118.5 41.5t51.5 107.5q8 80 -44 130.5t-142 50.5q-94 0 -156 -61.5t-71 -162.5z" />
    <glyph glyph-name="Ygrave" unicode="&#x1ef2;" horiz-adv-x="1482" 
d="M440 0l43 500l-422 966h463l215 -585l301 585h469l-581 -966l-43 -500h-445zM375 1931h354l209 -321h-291z" />
    <glyph glyph-name="ygrave" unicode="&#x1ef3;" horiz-adv-x="1298" 
d="M102 -444l25 276q43 -16 113 -16q88 0 140.5 37t90.5 129l-428 1075h430l191 -580l237 580h406l-500 -1106q-102 -226 -216 -330t-265 -104q-121 0 -224 39zM291 1540l350 2l203 -362h-277z" />
    <glyph glyph-name="endash" unicode="&#x2013;" horiz-adv-x="1314" 
d="M1276 793l-27 -314h-1167l27 314h1167z" />
    <glyph glyph-name="emdash" unicode="&#x2014;" horiz-adv-x="1673" 
d="M82 793h1577l-27 -314h-1577z" />
    <glyph glyph-name="quoteleft" unicode="&#x2018;" horiz-adv-x="589" 
d="M358 1196q85 0 134.5 -59.5t42.5 -151.5q-7 -91 -73.5 -151t-156.5 -60q-104 0 -160 81t-45 216q10 121 84.5 248.5t177.5 202.5l189 -47q-79 -67 -134 -145.5t-59 -133.5z" />
    <glyph glyph-name="quoteright" unicode="&#x2019;" horiz-adv-x="589" 
d="M299 1114q-85 0 -134.5 59.5t-41.5 151.5q7 93 73 152t156 59q104 0 160.5 -81t44.5 -214q-10 -122 -84.5 -249t-177.5 -201l-189 45q80 66 134.5 144.5t58.5 133.5z" />
    <glyph glyph-name="quotesinglbase" unicode="&#x201a;" horiz-adv-x="589" 
d="M250 -37q-86 0 -135.5 59.5t-40.5 151.5q7 91 73 151t156 60q103 0 159 -81t44 -216q-11 -122 -84.5 -248.5t-177.5 -201.5l-187 47q79 67 133 144.5t60 133.5z" />
    <glyph glyph-name="quotedblleft" unicode="&#x201c;" horiz-adv-x="1142" 
d="M539 985q-7 -91 -73.5 -151t-156.5 -60q-103 0 -159 81t-46 216q10 121 85 248.5t178 202.5l188 -47q-79 -67 -134 -145.5t-59 -133.5q86 0 135.5 -59t41.5 -152zM1083 985q-9 -92 -75 -151.5t-156 -59.5q-103 0 -159 81t-44 216q11 122 84.5 249t177.5 202l189 -47
q-80 -66 -134.5 -145t-58.5 -134q85 0 134.5 -59.5t41.5 -151.5z" />
    <glyph glyph-name="quotedblright" unicode="&#x201d;" horiz-adv-x="1136" 
d="M129 1341q7 91 73 151t156 60q103 0 159 -81t44 -214q-10 -123 -83.5 -249.5t-176.5 -200.5l-188 45q79 67 133.5 145t58.5 133q-86 0 -135.5 59.5t-40.5 151.5zM672 1341q7 91 73 151t156 60q104 0 160 -80.5t45 -214.5q-10 -122 -84.5 -249t-177.5 -201l-189 45
q79 67 134 145t59 133q-85 0 -134.5 59.5t-41.5 151.5z" />
    <glyph glyph-name="quotedblbase" unicode="&#x201e;" horiz-adv-x="1136" 
d="M78 174q7 93 73 152t156 59q103 0 159 -81t44 -214q-10 -123 -83.5 -249.5t-176.5 -200.5l-189 45q79 67 134 145t59 133q-86 0 -135.5 59.5t-40.5 151.5zM621 174q7 93 73 152t156 59q104 0 160.5 -81t44.5 -214q-10 -122 -84.5 -249t-177.5 -201l-189 45
q80 66 134.5 144.5t58.5 133.5q-85 0 -134.5 59.5t-41.5 151.5z" />
    <glyph glyph-name="bullet" unicode="&#x2022;" horiz-adv-x="720" 
d="M352 356q-126 0 -199.5 78.5t-62.5 200.5q10 121 97 199.5t212 78.5q126 0 200 -78t63 -200q-10 -122 -98 -200.5t-212 -78.5z" />
    <glyph glyph-name="ellipsis" unicode="&#x2026;" horiz-adv-x="1679" 
d="M272 -37q-95 0 -151.5 59.5t-48.5 151.5q9 93 76 153t161 60q97 0 153.5 -59.5t49.5 -153.5q-9 -92 -76 -151.5t-164 -59.5zM819 -37q-95 0 -151.5 59.5t-49.5 151.5q7 93 75 153t163 60q97 0 153.5 -59.5t49.5 -153.5q-9 -92 -76 -151.5t-164 -59.5zM1366 -37
q-95 0 -151.5 59.5t-49.5 151.5q7 93 74.5 153t163.5 60q97 0 153.5 -59.5t49.5 -153.5q-9 -92 -76 -151.5t-164 -59.5z" />
    <glyph glyph-name="perthousand" unicode="&#x2030;" horiz-adv-x="3241" 
d="M1239 420q17 199 156.5 328t337.5 129q200 0 317 -129t98 -328q-17 -198 -156.5 -326.5t-338.5 -128.5q-198 0 -315.5 128.5t-98.5 326.5zM1843 420q6 66 -32.5 108.5t-104.5 42.5t-112 -42.5t-52 -108.5q-5 -66 33 -108t104 -42q68 0 114 42t50 108zM2226 420
q17 200 157 328.5t339 128.5q198 0 315.5 -129t100.5 -328q-19 -198 -158.5 -326.5t-337.5 -128.5q-200 0 -317.5 128.5t-98.5 326.5zM2830 420q6 66 -32 108.5t-105 42.5q-66 0 -112 -42.5t-52 -108.5q-5 -66 34 -108t106 -42q66 0 111.5 42t49.5 108zM102 1108
q17 200 157 328.5t339 128.5t316 -128.5t100 -328.5q-17 -198 -157 -326.5t-339 -128.5q-198 0 -315.5 128.5t-100.5 326.5zM709 1108q6 66 -33 107.5t-105 41.5t-111.5 -41.5t-51.5 -107.5t32.5 -108t104.5 -42t112 42t52 108zM1532 1528h340l-1153 -1528h-340z" />
    <glyph glyph-name="guilsinglleft" unicode="&#x2039;" horiz-adv-x="841" 
d="M815 1057l-409 -514l317 -543h-404l-301 543l396 514h401z" />
    <glyph glyph-name="guilsinglright" unicode="&#x203a;" horiz-adv-x="841" 
d="M825 543l-395 -543h-403l411 543l-317 514h401z" />
    <glyph glyph-name="lira" unicode="&#x20a4;" horiz-adv-x="1390" 
d="M870 1190q-57 0 -94 -47.5t-43 -124.5l-10 -105h420l-17 -184h-419q-1 -13 -11 -76h424l-16 -184h-500q-74 -129 -215 -190h885l-25 -279h-1241l31 352q111 28 166 133h-152l15 168h221q1 8 4 38t4 38h-221l16 184h221l11 136q19 205 166.5 337t363.5 132
q227 0 355.5 -122.5t136.5 -320.5l-357 -55q-5 78 -34 124t-85 46z" />
    <glyph glyph-name="Euro" unicode="&#x20ac;" horiz-adv-x="1857" 
d="M997 326q119 0 218.5 73t134.5 185l409 -47q-30 -168 -144.5 -302.5t-288.5 -210t-374 -75.5q-285 0 -480 153.5t-241 407.5h-194l16 184h166q0 42 6 82h-164l15 187h196q92 251 313.5 403t504.5 152q197 0 355.5 -76.5t249 -212.5t93.5 -307l-414 -43q-14 114 -99.5 188
t-203.5 74q-104 0 -189.5 -47t-140.5 -131h332l-16 -187h-385q-8 -33 -8 -82h385l-17 -184h-332q39 -87 116.5 -135.5t180.5 -48.5z" />
    <glyph glyph-name="trademark" unicode="&#x2122;" horiz-adv-x="2459" 
d="M252 307l76 883h-260l24 276h850l-24 -276h-263l-75 -883h-328zM2034 987l-308 -680h-227l-188 680l-60 -680h-309l100 1159h385l222 -737l344 737h393l-100 -1159h-312z" />
    <glyph glyph-name="minus" unicode="&#x2212;" horiz-adv-x="987" 
d="M109 793h839l-26 -314h-840z" />
    <glyph glyph-name="approxequal" unicode="&#x2248;" horiz-adv-x="1196" 
 />
    <glyph glyph-name="notequal" unicode="&#x2260;" horiz-adv-x="1110" 
d="M61 514h334l97 229h-410l24 299h506l115 281h231l-114 -281h225l-25 -299h-319l-94 -229h393l-27 -299h-485l-123 -297h-235l122 297h-241z" />
    <glyph glyph-name="lessequal" unicode="&#x2264;" horiz-adv-x="927" 
d="M829 254l-22 -254h-780l22 254h780zM104 874l797 193l-22 -240l-564 -125l543 -127l-22 -239l-762 190z" />
    <glyph glyph-name="greaterequal" unicode="&#x2265;" horiz-adv-x="927" 
d="M49 254h780l-22 -254h-780zM78 575l563 127l-541 125l21 240l762 -193l-29 -348l-797 -190z" />
    <glyph glyph-name="commaaccent" unicode="&#xf6c3;" horiz-adv-x="505" 
d="M201 -76q-65 0 -101 47.5t-30 120.5q7 78 57 125t125 47q86 0 133.5 -60.5t38.5 -158.5q-9 -109 -70 -218.5t-147 -170.5l-154 45q60 44 101.5 107t46.5 116z" />
    <glyph glyph-name="acute.case" horiz-adv-x="739" 
d="M731 1528l-330 -320h-288l264 320h354z" />
    <glyph glyph-name="breve.case" horiz-adv-x="804" 
d="M567 1528h232q-12 -144 -109 -232t-248 -88q-152 0 -232.5 88t-68.5 232h232q-4 -54 19.5 -86.5t66.5 -32.5t72.5 32.5t35.5 86.5z" />
    <glyph glyph-name="caron.case" horiz-adv-x="933" 
d="M670 1528h256l-230 -320h-381l-174 320h256l121 -172z" />
    <glyph glyph-name="circumflex.case" horiz-adv-x="933" 
d="M113 1208l229 320h383l174 -320h-258l-121 174l-149 -174h-258z" />
    <glyph glyph-name="dieresis.case" horiz-adv-x="1069" 
d="M295 1112q-82 0 -130.5 52.5t-41.5 135.5q6 83 64.5 136t140.5 53q83 0 131.5 -53t42.5 -136q-7 -83 -65.5 -135.5t-141.5 -52.5zM838 1112q-82 0 -130.5 52.5t-41.5 135.5t64.5 136t139.5 53q83 0 132 -53t42 -136t-65 -135.5t-141 -52.5z" />
    <glyph glyph-name="dotaccent.case" horiz-adv-x="557" 
d="M311 1147q-89 0 -141.5 54.5t-44.5 139.5q6 85 69 140t152 55t141.5 -55t44.5 -140t-69.5 -139.5t-151.5 -54.5z" />
    <glyph glyph-name="grave.case" horiz-adv-x="739" 
d="M154 1829h354l209 -320h-289z" />
    <glyph glyph-name="hungarumlaut.case" horiz-adv-x="1116" 
d="M336 1528h336l-289 -320h-270zM772 1528h336l-322 -320h-270z" />
    <glyph glyph-name="ijacute" 
d="M55 0l92 1057h396l-92 -1057h-396zM717 -23l96 1080h393l-96 -1096q-15 -184 -134 -298t-296 -114q-145 0 -254 37l25 271q48 -13 116 -13q63 0 104.5 36.5t45.5 96.5zM195 1167l266 361h350l-340 -361h-276zM844 1167l268 361h350l-342 -361h-276z" />
    <glyph glyph-name="ring.case" horiz-adv-x="716" 
d="M385 1106q-127 0 -200 69.5t-62 182.5q9 113 93.5 182.5t211.5 69.5q128 0 200.5 -69.5t63.5 -182.5q-9 -112 -94 -182t-213 -70zM414 1432q-33 0 -55 -20.5t-25 -53.5t15.5 -53.5t51.5 -20.5q32 0 54.5 21t25.5 53q3 34 -15 54t-52 20z" />
    <glyph glyph-name="tilde.case" horiz-adv-x="1021" 
d="M295 1237l-172 96q39 90 124 150.5t179 60.5q49 0 95.5 -16.5t75 -36.5t61 -36.5t57.5 -16.5q65 0 114 82l175 -99q-37 -88 -127.5 -149.5t-188.5 -61.5q-52 0 -99 16.5t-74.5 37t-58 37t-53.5 16.5q-55 0 -108 -80z" />
    </font>
</defs>
</svg>
